<svg width="69" height="60" viewBox="0 0 69 60" fill="none" xmlns="http://www.w3.org/2000/svg">
<g id="Layer_1" clip-path="url(#clip0_1143_19088)">
<path id="Vector" d="M9.46551 60H0.919826C0.410193 60 0 59.5898 0 59.0802V18.0298C0 17.5202 0.410193 17.11 0.919826 17.11H9.45929C9.96271 17.11 10.3791 17.5202 10.3791 18.0298V59.0802C10.3791 59.5898 9.96893 60 9.45929 60H9.46551ZM1.83965 58.1603H8.53947V18.9434H1.83965V58.1603Z" fill="white"/>
<path id="Vector_2" d="M24.046 60H15.5065C14.9969 60 14.5867 59.5898 14.5867 59.0802V25.9788C14.5867 25.4754 14.9969 25.059 15.5065 25.059H24.046C24.5494 25.059 24.9658 25.4692 24.9658 25.9788V59.0802C24.9658 59.5898 24.5556 60 24.046 60ZM16.4263 58.1603H23.1324V26.8987H16.4263V58.1603Z" fill="white"/>
<path id="Vector_3" d="M38.6265 60H30.0871C29.5836 60 29.1672 59.5898 29.1672 59.0802V18.0298C29.1672 17.5202 29.5836 17.11 30.0871 17.11H38.6265C39.1299 17.11 39.5464 17.5202 39.5464 18.0298V59.0802C39.5464 59.5898 39.1362 60 38.6265 60ZM31.0069 58.1603H37.7067V18.9434H31.0069V58.1603Z" fill="white"/>
<path id="Vector_4" d="M53.2073 60H44.6679C44.1582 60 43.748 59.5898 43.748 59.0802V22.3742C43.748 21.8708 44.1582 21.4543 44.6679 21.4543H53.2073C53.7108 21.4543 54.1272 21.8645 54.1272 22.3742V59.0802C54.1272 59.5898 53.717 60 53.2073 60ZM45.5877 58.1604H52.2937V23.294H45.5877V58.1604Z" fill="white"/>
<path id="Vector_5" d="M67.7933 60H59.2538C58.7442 60 58.334 59.5898 58.334 59.0802V10.9323C58.334 10.4289 58.7442 10.0125 59.2538 10.0125H67.7933C68.3029 10.0125 68.7131 10.4226 68.7131 10.9323V59.0802C68.7131 59.5898 68.3029 60 67.7933 60ZM60.1674 58.1604H66.8672V11.8521H60.1674V58.1604Z" fill="white"/>
<path id="Vector_6" d="M19.7767 21.0628C18.1732 21.0628 16.7313 20.0995 16.1222 18.6203C15.5069 17.1411 15.8425 15.4382 16.9799 14.3008C18.111 13.1697 19.8139 12.8341 21.2931 13.4431C22.7785 14.0522 23.7356 15.4941 23.7356 17.0976C23.7356 19.2791 21.9643 21.0504 19.7767 21.0566V21.0628ZM19.7767 14.9907C18.919 14.9907 18.1421 15.5065 17.8189 16.2959C17.4895 17.0914 17.6698 17.9988 18.2788 18.6078C18.8817 19.2169 19.7953 19.3972 20.5846 19.0678C21.3801 18.7384 21.896 17.9615 21.896 17.11C21.896 15.9354 20.9451 14.9907 19.7767 14.9907Z" fill="white"/>
<path id="Vector_7" d="M34.3563 14.4003C32.7591 14.4003 31.311 13.4369 30.7019 11.9578C30.0866 10.4786 30.4284 8.77565 31.5596 7.64451C32.6907 6.51338 34.3998 6.17777 35.879 6.78684C37.3582 7.40213 38.3215 8.84402 38.3215 10.4475C38.3215 12.629 36.5502 14.4003 34.3626 14.4065L34.3563 14.4003ZM34.3563 8.32195C33.4987 8.32195 32.728 8.83159 32.3986 9.62711C32.0692 10.4226 32.2494 11.33 32.8585 11.9391C33.4614 12.542 34.375 12.7284 35.1643 12.399C35.9598 12.0696 36.4757 11.299 36.4757 10.4413C36.4757 9.26664 35.5248 8.32195 34.3563 8.32195Z" fill="white"/>
<path id="Vector_8" d="M48.9371 16.6376C47.3399 16.6376 45.8918 15.6743 45.2827 14.1951C44.6674 12.716 45.0092 11.013 46.1404 9.8819C47.2715 8.75076 48.9744 8.40893 50.4598 9.02422C51.939 9.63329 52.9023 11.0814 52.9023 12.6787C52.9023 14.8601 51.1311 16.6376 48.9434 16.6376H48.9371ZM48.9371 10.5656C48.0795 10.5656 47.3026 11.0814 46.9794 11.8769C46.65 12.6662 46.8303 13.5798 47.4393 14.1827C48.0422 14.7918 48.9558 14.972 49.7451 14.6426C50.5406 14.3132 51.0565 13.5426 51.0565 12.6849C51.0565 11.5165 50.1056 10.5656 48.9371 10.5656Z" fill="white"/>
<path id="Vector_9" d="M63.5175 7.91795C61.9202 7.91795 60.4721 6.95462 59.863 5.47544C59.2477 3.99626 59.5896 2.29334 60.7207 1.15599C61.8518 0.0248519 63.561 -0.31076 65.0402 0.298314C66.5193 0.913603 67.4827 2.35549 67.4827 3.95897C67.4827 6.14045 65.7114 7.91174 63.5237 7.91795H63.5175ZM63.5175 1.83964C62.6598 1.83964 61.8891 2.35549 61.5597 3.1448C61.2303 3.94033 61.4106 4.84772 62.0196 5.4568C62.6225 6.06587 63.5361 6.24611 64.3254 5.91671C65.121 5.58731 65.6368 4.81043 65.6368 3.95897C65.6368 2.78433 64.6859 1.83964 63.5175 1.83964Z" fill="white"/>
<path id="Vector_10" d="M5.18959 14.4003C3.58611 14.4003 2.14422 13.4369 1.53515 11.9578C0.919857 10.4786 1.26168 8.77565 2.39282 7.64451C3.52396 6.51338 5.23309 6.17777 6.71227 6.78684C8.19145 7.40213 9.15479 8.84402 9.15479 10.4475C9.15479 12.629 7.3835 14.4003 5.1958 14.4065L5.18959 14.4003ZM5.18959 8.32195C4.33191 8.32195 3.55503 8.83159 3.23185 9.62711C2.90245 10.4226 3.08269 11.33 3.69176 11.9391C4.30084 12.542 5.20823 12.7284 6.00376 12.399C6.79928 12.0696 7.31513 11.299 7.31513 10.4413C7.31513 9.26664 6.36423 8.32195 5.1958 8.32195H5.18959Z" fill="white"/>
<path id="Vector_11" d="M17.011 16.762C16.8805 16.762 16.75 16.7371 16.6319 16.6812L7.57658 12.542C7.12909 12.3244 6.93643 11.7899 7.14152 11.3362C7.35283 10.8826 7.88111 10.6775 8.34103 10.8701L17.3901 15.0093C17.7879 15.1896 17.9992 15.6184 17.906 16.041C17.8127 16.4637 17.4398 16.762 17.011 16.762Z" fill="white"/>
<path id="Vector_12" d="M45.9354 13.1386C45.8919 13.1386 45.8421 13.1386 45.7924 13.1262L37.2157 11.8086C36.9733 11.7775 36.7495 11.647 36.6004 11.4481C36.4512 11.2492 36.3891 11.0006 36.4263 10.7582C36.4636 10.5158 36.6004 10.2921 36.7992 10.1492C37.0043 10.0062 37.2529 9.95027 37.4953 9.99378L46.0721 11.3114C46.5506 11.3859 46.8863 11.8086 46.8552 12.2933C46.8241 12.7781 46.4201 13.1448 45.9354 13.1448V13.1386Z" fill="white"/>
<path id="Vector_13" d="M51.6346 12.1939C51.2244 12.1939 50.8639 11.9267 50.7459 11.5351C50.634 11.1373 50.7894 10.7209 51.1312 10.4972L60.3232 4.58669C60.7521 4.31323 61.3176 4.43753 61.5911 4.86637C61.8646 5.2952 61.7465 5.86077 61.3176 6.13424L52.1256 12.0447C51.9764 12.138 51.8086 12.1877 51.6346 12.1877V12.1939Z" fill="white"/>
<path id="Vector_14" d="M22.5358 16.762C22.107 16.762 21.7279 16.4637 21.6408 16.041C21.5476 15.6184 21.7651 15.1896 22.1567 15.0093L31.212 10.8701C31.6719 10.6712 32.2064 10.8763 32.4115 11.33C32.6228 11.7837 32.4302 12.3244 31.9765 12.542L22.9211 16.6812C22.8031 16.7371 22.6725 16.762 22.542 16.762H22.5358Z" fill="white"/>
<path id="Vector_15" d="M15.4999 60.0001H9.45889C8.94926 60.0001 8.53906 59.5899 8.53906 59.0802C8.53906 58.5706 8.94926 58.1604 9.45889 58.1604H15.4999C16.0033 58.1604 16.4197 58.5706 16.4197 59.0802C16.4197 59.5899 16.0033 60.0001 15.4999 60.0001Z" fill="white"/>
<path id="Vector_16" d="M30.0871 60.0001H24.046C23.5364 60.0001 23.1262 59.5899 23.1262 59.0802C23.1262 58.5706 23.5364 58.1604 24.046 58.1604H30.0871C30.5967 58.1604 31.0069 58.5706 31.0069 59.0802C31.0069 59.5899 30.5967 60.0001 30.0871 60.0001Z" fill="white"/>
<path id="Vector_17" d="M44.6679 60.0001H38.6269C38.1172 60.0001 37.707 59.5899 37.707 59.0802C37.707 58.5706 38.1172 58.1604 38.6269 58.1604H44.6679C45.1713 58.1604 45.5877 58.5706 45.5877 59.0802C45.5877 59.5899 45.1775 60.0001 44.6679 60.0001Z" fill="white"/>
<path id="Vector_18" d="M59.248 60.0001H53.2069C52.6973 60.0001 52.2871 59.5899 52.2871 59.0802C52.2871 58.5706 52.6973 58.1604 53.2069 58.1604H59.248C59.7514 58.1604 60.1678 58.5706 60.1678 59.0802C60.1678 59.5899 59.7514 60.0001 59.248 60.0001Z" fill="white"/>
</g>
<defs>
<clipPath id="clip0_1143_19088">
<rect width="68.7135" height="60" fill="white"/>
</clipPath>
</defs>
</svg>
