<svg width="60" height="60" viewBox="0 0 60 60" fill="none" xmlns="http://www.w3.org/2000/svg">
    <g clip-path="url(#clip0_1143_21109)">
        <path d="M58.0705 8.67151H35.0209C34.0563 8.67151 33.2338 9.43306 33.2338 10.4586V17.2009C33.2338 18.2975 34.2695 18.988 35.1631 18.9169C37.2243 18.7747 38.4631 19.6784 38.8794 20.9782C39.773 23.5268 37.3665 25.6592 35.3052 25.1108C34.2086 24.8367 33.1729 25.5881 33.1729 26.6949V33.234H26.6337C25.5371 33.234 24.7044 34.2697 25.0497 35.3664C25.598 37.4276 23.4657 39.7732 20.917 38.9406C19.7493 38.5243 18.8557 37.4276 18.8557 35.9147C18.8557 35.2242 18.9979 34.747 18.5816 34.1987C18.2363 33.6504 17.7591 33.3051 17.1397 33.3051H10.3975C9.43283 33.3051 8.61035 34.0667 8.61035 35.0922V58.2129C8.61035 59.1775 9.3719 60 10.3975 60C11.7073 60 58.761 60 58.0807 60C59.0453 60 59.8678 59.2384 59.8678 58.2129V10.5297C59.8678 9.43306 59.1062 8.67151 58.0807 8.67151H58.0705ZM41.1438 22.0139C41.1438 19.3332 39.0825 16.7135 35.2951 16.7846V10.6617H57.7963V33.163H51.9476C51.4704 30.6854 49.267 28.8272 46.5762 28.8272C43.8854 28.8272 41.6921 30.6854 41.2047 33.163H35.2849V27.1823C38.0367 27.6595 41.1336 25.3241 41.1336 22.024L41.1438 22.0139ZM33.711 49.9475C32.127 49.6734 30.9593 48.2924 30.9593 46.5764C30.9593 44.8604 32.127 43.4794 33.711 43.2053C34.6046 43.0631 35.2951 42.2406 35.2951 41.3471V35.2953H41.3469C42.3115 35.2953 43.0629 34.6048 43.205 33.7113C43.4792 32.1273 44.8601 30.9595 46.5762 30.9595C48.2922 30.9595 49.6731 32.1273 49.9473 33.7113C50.0895 34.6048 50.8409 35.2953 51.8055 35.2953H57.7862V57.7966H35.2849V51.8159C35.2849 50.9223 34.5944 50.0998 33.7009 49.9577L33.711 49.9475ZM22.0136 41.144C25.3137 41.144 27.6593 38.047 27.1719 35.2953H33.2237V41.2151C30.7461 41.6923 28.8879 43.8957 28.8879 46.5866C28.8879 49.2774 30.7461 51.4706 33.2237 51.958V57.8067H10.7325V35.3055H16.8554C16.7132 39.0218 19.2619 41.1542 22.0136 41.1542V41.144Z" fill="white"/>
        <path d="M7.90997 26.6238C8.38721 29.1014 10.5906 30.9596 13.2814 30.9596C15.9722 30.9596 18.1655 29.1014 18.6529 26.6238H24.9179C25.8826 26.6238 26.705 25.8622 26.705 24.8367V18.5717C29.1826 18.0944 31.0408 15.891 31.0408 13.2002C31.0408 10.5094 29.1826 8.31613 26.705 7.82874V1.7871C26.705 0.822474 25.9435 0 24.9179 0H1.7871C0.822474 0 0 0.76155 0 1.7871V24.9078C0 25.8724 0.76155 26.6949 1.7871 26.6949L7.90997 26.6238ZM28.8983 13.2814C28.8983 14.9975 27.7306 16.3784 26.1466 16.6526C25.253 16.7947 24.5625 17.6172 24.5625 18.5107V24.5625H18.5107C17.5461 24.5625 16.7947 25.253 16.6526 26.1466C16.3784 27.7306 14.9975 28.8983 13.2814 28.8983C11.5654 28.8983 10.1845 27.7306 9.91031 26.1466C9.76815 25.253 9.01675 24.5625 8.05212 24.5625H2.06126V2.06126H24.5625V8.04197C24.5625 9.0066 25.253 9.758 26.1466 9.90015C27.7306 10.1032 28.8983 11.5553 28.8983 13.2713V13.2814Z" fill="white"/>
    </g>
    <defs>
        <clipPath id="clip0_1143_21109">
            <rect width="59.8578" height="60" fill="white"/>
        </clipPath>
    </defs>
</svg>
