<svg width="62" height="60" viewBox="0 0 62 60" fill="none" xmlns="http://www.w3.org/2000/svg">
<g id="Layer_1" clip-path="url(#clip0_1143_19063)">
<path id="Vector" d="M35.7121 48.2316C35.6808 47.9249 35.6369 47.6119 35.5556 47.2926C37.6338 45.8278 38.8983 43.0109 39.2426 41.2958C39.7371 41.2019 40.3506 41.0391 40.7825 40.7825C41.7027 40.2191 41.7465 39.2989 41.7778 38.5665C41.7778 38.4476 41.7903 38.3161 41.7966 38.1846C41.8842 36.9202 41.1768 36.4945 40.5947 36.1627C41.0704 33.2519 41.2833 31.0297 41.2457 29.3959C41.2457 27.7872 40.6573 26.3724 39.3427 24.8012C38.8294 24.1878 37.6902 23.2676 35.6119 23.6933C34.9859 23.0548 33.6338 21.8779 30.2661 21.6713C26.2661 21.421 22.4288 24.8576 20.1377 26.9045C19.856 27.1549 19.5931 27.3865 19.3615 27.5931C19.1049 27.8122 18.9984 28.1565 19.061 28.482C19.1236 28.8138 19.3678 29.0829 19.687 29.1956C19.9687 29.2958 20.601 29.8216 20.8138 30.1471C20.6135 30.5602 20.626 31.2926 20.7762 33.59C20.8138 34.1221 20.8451 34.5853 20.8451 34.8044C20.8451 35.3114 21.0391 35.856 21.252 36.3005C20.7324 36.6197 20.2128 37.0829 20.288 38.1784C20.2942 38.3161 20.3005 38.4413 20.3067 38.5665C20.338 39.3051 20.3819 40.2253 21.302 40.7825C21.7277 41.0454 22.3474 41.2019 22.842 41.2958C23.1862 42.9984 24.4382 45.7965 26.4914 47.2676C26.3975 47.5806 26.3537 47.9061 26.3412 48.2379C20.4695 49.2582 15.1487 52.6009 15.1487 54.6541V60.0062H17.0266V54.7293C17.4147 53.8404 21.2582 51.0047 26.723 50.0782C26.8482 50.3599 26.9922 50.6354 27.1737 50.8983C28.1127 52.2692 29.615 53.0579 31.2989 53.0579C33.252 53.0579 34.3224 52.2066 34.8795 51.4867C35.1925 51.0861 35.4241 50.6166 35.5681 50.1095C40.9202 51.0673 44.6823 53.8466 45.0579 54.7293V60.0062H46.9359V54.6541C46.9359 52.5947 41.5963 49.2457 35.7183 48.2316H35.7121ZM30.1534 23.5368C33.0704 23.7183 33.9969 24.7011 34.3912 25.1205C34.6041 25.3521 35.0047 25.7778 35.6182 25.615L35.6995 25.59C36.7136 25.302 37.4272 25.4335 37.8967 25.9969C38.9359 27.2363 39.3615 28.2191 39.3615 29.4084C39.3615 29.5649 39.3615 29.7277 39.3615 29.8967C38.3725 28.7261 36.313 27.8748 35.7183 27.7684C34.9546 27.6307 34.1033 28.1001 32.7762 28.8826C32.2316 29.2019 31.6119 29.5649 31.2989 29.6588C30.9484 29.759 30.0595 29.6839 29.3459 29.6213C28.3693 29.5336 27.3553 29.446 26.579 29.6213C24.9327 29.9843 23.4742 31.2551 23.061 31.6307C22.8545 31.8185 22.7042 32.0751 22.5853 32.3881C22.554 31.7997 22.529 31.205 22.5477 30.9233C22.7481 30.5915 22.7981 30.1846 22.6917 29.7778C22.5352 29.1956 22.0532 28.6197 21.5274 28.1753C23.6119 26.3098 27.0047 23.349 30.1534 23.5368ZM24.6197 40.4632C24.6197 39.9812 24.2567 39.5806 23.7747 39.5305C23.3177 39.4804 22.5415 39.3302 22.2535 39.1549C22.2035 39.0735 22.1909 38.723 22.1784 38.4663C22.1784 38.3286 22.1659 38.1846 22.1534 38.0407C22.1534 37.9969 22.1534 37.9656 22.1534 37.9405C22.2222 37.8904 22.3412 37.8278 22.4413 37.7715C22.6103 37.6713 22.8107 37.5587 23.036 37.4147C23.036 37.4147 23.0423 37.4084 23.0485 37.4022C23.3928 37.3208 23.6682 37.0579 23.7496 36.6948C23.8498 36.2566 23.9124 35.7058 23.9812 35.1236C24.0564 34.4663 24.2066 33.2394 24.3443 33.0078C25.0078 32.3944 26.047 31.662 26.9922 31.4554C27.4867 31.3427 28.3944 31.4241 29.1894 31.4929C30.1972 31.5806 31.1487 31.662 31.831 31.4616C32.3693 31.3051 33.0329 30.917 33.734 30.5039C34.2598 30.1972 35.1236 29.6901 35.4429 29.6338C36.1064 29.784 37.8466 30.7731 38.0344 31.205C38.1283 31.9687 38.2535 35.3677 38.2911 36.6072C38.3099 37.108 38.7168 37.5023 39.2113 37.5149C39.3678 37.615 39.518 37.7026 39.6495 37.7778C39.7496 37.8341 39.8623 37.903 39.9312 37.9468C39.9312 37.9718 39.9312 38.0031 39.9312 38.0469C39.9186 38.1972 39.9124 38.3411 39.9061 38.4726C39.8936 38.7292 39.8811 39.0798 39.8122 39.1737C39.5493 39.3364 38.7731 39.4867 38.3099 39.5368C37.8341 39.5868 37.4711 39.9875 37.4711 40.4695C37.4711 41.8967 35.4992 46.3662 32.7199 46.3662C32.4758 46.3662 32.2441 46.4601 32.0689 46.6291C32.0689 46.6291 31.6495 46.9984 31.0548 46.9984C30.4601 46.9984 30.0407 46.6291 30.0407 46.6291C29.8654 46.4601 29.6338 46.3662 29.3897 46.3662C26.6103 46.3662 24.6322 41.8967 24.6322 40.4695L24.6197 40.4632ZM33.3897 50.3286C32.9578 50.8857 32.2504 51.1737 31.2927 51.1737C30.241 51.1737 29.302 50.6854 28.7199 49.8278C28.338 49.2707 28.169 48.6385 28.2316 48.0876C28.4945 48.1565 28.7574 48.2066 29.0391 48.2253C29.421 48.4945 30.1221 48.8764 31.0485 48.8764C31.975 48.8764 32.6761 48.4945 33.0579 48.2316C33.3208 48.2128 33.5712 48.1627 33.8153 48.1064C33.9656 48.989 33.8153 49.7903 33.3959 50.3349L33.3897 50.3286Z" fill="white"/>
<path id="Vector_2" d="M28.3689 39.7621C28.9761 39.7621 29.4644 39.2738 29.4644 38.6666C29.4644 38.0594 28.9761 37.5712 28.3689 37.5712C27.7617 37.5712 27.2734 38.0594 27.2734 38.6666C27.2734 39.2738 27.7617 39.7621 28.3689 39.7621Z" fill="white"/>
<path id="Vector_3" d="M33.8025 39.7621C34.4097 39.7621 34.898 39.2738 34.898 38.6666C34.898 38.0594 34.4097 37.5712 33.8025 37.5712C33.1953 37.5712 32.707 38.0594 32.707 38.6666C32.707 39.2738 33.1953 39.7621 33.8025 39.7621Z" fill="white"/>
<path id="Vector_4" d="M45.0144 42.4663C45.6216 42.4663 46.1099 41.9781 46.1099 41.3709C46.1099 40.7637 45.6216 40.2754 45.0144 40.2754C44.4072 40.2754 43.9189 40.7637 43.9189 41.3709C43.9189 41.9781 44.4072 42.4663 45.0144 42.4663Z" fill="white"/>
<path id="Vector_5" d="M48.9324 42.2222C48.3252 42.2222 47.8369 42.7105 47.8369 43.3177C47.8369 43.9249 48.3252 44.4132 48.9324 44.4132C49.5396 44.4132 50.0278 43.9249 50.0278 43.3177C50.0278 42.7105 49.5396 42.2222 48.9324 42.2222Z" fill="white"/>
<path id="Vector_6" d="M56.2813 41.3708C53.2328 41.3708 50.7539 43.8497 50.7539 46.8982C50.7539 49.9468 53.2328 52.4256 56.2813 52.4256C59.3298 52.4256 61.8087 49.9468 61.8087 46.8982C61.8087 43.8497 59.3298 41.3708 56.2813 41.3708ZM56.2813 50.5477C54.2719 50.5477 52.6318 48.9139 52.6318 46.8982C52.6318 44.8826 54.2656 43.2488 56.2813 43.2488C58.2969 43.2488 59.9307 44.8826 59.9307 46.8982C59.9307 48.9139 58.2969 50.5477 56.2813 50.5477Z" fill="white"/>
<path id="Vector_7" d="M45.1018 26.5164C45.6151 26.8357 46.2912 26.6729 46.6042 26.1596C46.9234 25.6463 46.7607 24.9702 46.2474 24.6572C45.7341 24.338 45.058 24.5008 44.745 25.0141C44.4258 25.5274 44.5885 26.2034 45.1018 26.5164Z" fill="white"/>
<path id="Vector_8" d="M49.9532 22.3349C49.4399 22.0157 48.7638 22.1784 48.4508 22.6917C48.1316 23.205 48.2943 23.8811 48.8076 24.1941C49.3209 24.5133 49.997 24.3506 50.31 23.8373C50.6292 23.324 50.4665 22.6479 49.9532 22.3349Z" fill="white"/>
<path id="Vector_9" d="M53.3901 23.5868C54.2728 24.1314 55.2618 24.4068 56.2759 24.4068C56.7078 24.4068 57.1397 24.3568 57.5717 24.2566C59.0051 23.9123 60.2258 23.0297 60.9958 21.7777C61.7657 20.5258 62.0036 19.036 61.6656 17.6025C61.3275 16.169 60.4386 14.9483 59.1867 14.1784C56.5889 12.5821 53.1836 13.3959 51.5873 15.9937C50.8174 17.2519 50.5795 18.7355 50.9175 20.169C51.2618 21.6025 52.1444 22.8231 53.3964 23.5931L53.3901 23.5868ZM53.171 16.9702C53.8596 15.8497 55.0552 15.2363 56.2821 15.2363C56.9332 15.2363 57.5904 15.4115 58.1851 15.7746C59.0177 16.2817 59.5998 17.0892 59.8252 18.0344C60.0505 18.9796 59.894 19.9624 59.387 20.795C58.88 21.6275 58.0724 22.2097 57.1272 22.435C56.1757 22.6604 55.1992 22.5039 54.3667 21.9968C53.5341 21.4898 52.9582 20.6823 52.7266 19.7371C52.5012 18.7918 52.6577 17.809 53.1648 16.9827L53.171 16.9702Z" fill="white"/>
<path id="Vector_10" d="M15.6992 41.3709C15.6992 41.9781 16.1875 42.4663 16.7947 42.4663C17.4019 42.4663 17.8901 41.9781 17.8901 41.3709C17.8901 40.7637 17.4019 40.2754 16.7947 40.2754C16.1875 40.2754 15.6992 40.7637 15.6992 41.3709Z" fill="white"/>
<path id="Vector_11" d="M12.8767 42.2222C12.2695 42.2222 11.7812 42.7105 11.7812 43.3177C11.7812 43.9249 12.2695 44.4132 12.8767 44.4132C13.4839 44.4132 13.9722 43.9249 13.9722 43.3177C13.9722 42.7105 13.4839 42.2222 12.8767 42.2222Z" fill="white"/>
<path id="Vector_12" d="M5.52739 41.3709C2.47887 41.3709 0 43.8498 0 46.8983C0 49.9468 2.47887 52.4257 5.52739 52.4257C8.5759 52.4257 11.0548 49.9468 11.0548 46.8983C11.0548 43.8498 8.5759 41.3709 5.52739 41.3709ZM5.52739 50.5478C3.518 50.5478 1.87793 48.9139 1.87793 46.8983C1.87793 44.8826 3.51174 43.2488 5.52739 43.2488C7.54304 43.2488 9.17684 44.8826 9.17684 46.8983C9.17684 48.9139 7.54304 50.5478 5.52739 50.5478Z" fill="white"/>
<path id="Vector_13" d="M16.7071 26.5164C17.2204 26.1972 17.3831 25.5274 17.0639 25.0141C16.7446 24.5008 16.0748 24.338 15.5615 24.6572C15.0482 24.9765 14.8855 25.6463 15.2047 26.1596C15.524 26.6729 16.1938 26.8357 16.7071 26.5164Z" fill="white"/>
<path id="Vector_14" d="M13.002 24.2003C13.5153 23.8811 13.6781 23.2113 13.3588 22.698C13.0396 22.1847 12.3698 22.0219 11.8565 22.3411C11.3432 22.6604 11.1804 23.3302 11.4997 23.8435C11.8189 24.3568 12.4887 24.5196 13.002 24.2003Z" fill="white"/>
<path id="Vector_15" d="M4.24403 24.2566C4.67595 24.3568 5.10788 24.4069 5.5398 24.4069C6.54763 24.4069 7.54293 24.1314 8.42556 23.5868C9.68378 22.8169 10.5664 21.5962 10.9044 20.1627C11.2487 18.7292 11.0109 17.2457 10.2409 15.9875C9.47094 14.7292 8.25029 13.8466 6.8168 13.5086C5.38331 13.1706 3.89974 13.4022 2.64152 14.1784C1.38331 14.9483 0.500678 16.169 0.16265 17.6025C-0.181638 19.036 0.0562335 20.5195 0.832446 21.7778C1.60866 23.036 2.82306 23.9186 4.25655 24.2566H4.24403ZM1.97799 18.0344C2.20334 17.0892 2.7855 16.2817 3.61805 15.7746C4.20021 15.4178 4.85749 15.23 5.52102 15.23C5.80271 15.23 6.09066 15.2613 6.37235 15.3302C7.31758 15.5555 8.12509 16.1377 8.63213 16.9702C9.14544 17.8028 9.30193 18.7793 9.07032 19.7245C8.84497 20.6698 8.26281 21.4773 7.43026 21.9843C6.5977 22.4976 5.62118 22.6479 4.66969 22.4225C3.72447 22.1972 2.91695 21.615 2.40991 20.7825C1.89661 19.9499 1.74011 18.9734 1.97173 18.0219L1.97799 18.0344Z" fill="white"/>
<path id="Vector_16" d="M30.5912 17.0955C30.0466 17.3646 29.8275 18.0156 30.0905 18.5602C30.3596 19.1048 31.0106 19.3239 31.5552 19.061C32.0998 18.7919 32.3252 18.1408 32.056 17.5962C31.7869 17.0516 31.1358 16.8325 30.5912 17.0955Z" fill="white"/>
<path id="Vector_17" d="M32.0814 13.2206C31.8122 12.676 31.1612 12.4569 30.6166 12.7198C30.072 12.989 29.8529 13.64 30.1158 14.1846C30.385 14.7292 31.036 14.9483 31.5806 14.6854C32.1252 14.4225 32.3443 13.7652 32.0814 13.2206Z" fill="white"/>
<path id="Vector_18" d="M29.2894 10.7543C29.8778 10.9546 30.4788 11.0548 31.0797 11.0548C31.9122 11.0548 32.7385 10.867 33.5085 10.4851C36.244 9.14554 37.377 5.82786 36.0374 3.09233C35.3864 1.76526 34.2597 0.776214 32.8637 0.294211C31.4678 -0.181532 29.9717 -0.0876353 28.6446 0.563382C27.3176 1.2144 26.3285 2.34116 25.8465 3.73709C25.3708 5.13302 25.4647 6.63537 26.1157 7.95618C26.7667 9.28326 27.8935 10.2723 29.2894 10.7543ZM27.6243 4.35055C27.9373 3.43036 28.5946 2.68545 29.4709 2.25352C29.978 2.00313 30.5226 1.87794 31.0734 1.87794C31.4678 1.87794 31.8684 1.94679 32.2565 2.07825C33.1767 2.39124 33.9216 3.04851 34.3536 3.92488C35.2424 5.73396 34.4913 7.91862 32.6822 8.80751C31.8058 9.23944 30.8168 9.30204 29.8966 8.98279C28.9764 8.6698 28.2315 8.01252 27.7996 7.13615C27.3676 6.25978 27.305 5.27074 27.6243 4.35055Z" fill="white"/>
</g>
<defs>
<clipPath id="clip0_1143_19063">
<rect width="61.8091" height="60" fill="white"/>
</clipPath>
</defs>
</svg>
