<svg width="60" height="60" viewBox="0 0 60 60" fill="none" xmlns="http://www.w3.org/2000/svg">
<g id="Layer_1" clip-path="url(#clip0_1143_19084)">
<path id="Vector" d="M45.8472 47.0622L57.2718 43.5293L54.6181 55.1883L50.7762 51.6288C45.2131 56.9627 37.7371 60 29.9947 60C13.46 60 0 46.54 0 30C0 26.9734 0.447602 23.9893 1.33215 21.1279L2.86146 21.6021C2.02487 24.3091 1.59858 27.1385 1.59858 30C1.59858 45.6607 14.3393 58.4014 30 58.4014C37.2948 58.4014 44.3446 55.556 49.6039 50.5417L45.8472 47.0622ZM30 0C22.2575 0 14.7815 3.03197 9.21847 8.37123L5.37655 4.81172L2.72291 16.4707L14.1474 12.9378L10.3908 9.45826C15.6554 4.44405 22.6998 1.59858 30 1.59858C45.6607 1.59858 58.4014 14.3393 58.4014 30C58.4014 32.8668 57.9751 35.6909 57.1385 38.3979L58.6679 38.8721C59.5524 36.0107 60 33.0266 60 30C60 13.4547 46.54 0 30 0ZM14.8934 50.5417C14.643 50.9041 14.7336 51.405 15.0959 51.6554L15.2131 51.7353C15.3517 51.8313 15.5062 51.8739 15.6607 51.8739C15.9165 51.8739 16.167 51.7513 16.3215 51.5222C16.5719 51.1599 16.476 50.659 16.1083 50.4139L16.0018 50.3393C15.6394 50.0888 15.1439 50.1741 14.8881 50.5417H14.8934ZM34.1829 54.3304C33.746 54.3996 33.4529 54.8099 33.5222 55.2469C33.5861 55.6412 33.9272 55.9183 34.3108 55.9183C34.3535 55.9183 34.3961 55.9183 34.4387 55.9076L34.5826 55.881C35.0195 55.8064 35.3073 55.3908 35.2327 54.9538C35.1581 54.5169 34.7371 54.2291 34.3055 54.3037L34.1829 54.325V54.3304ZM12.5915 49.4121C12.8046 49.4121 13.0231 49.3268 13.1776 49.1563C13.476 48.8313 13.4547 48.325 13.1297 48.0266L13.0337 47.9361C12.714 47.6377 12.2238 47.6643 11.9201 47.9893C11.6163 48.3144 11.6483 48.8313 11.968 49.135L12.0426 49.2043C12.1972 49.3481 12.389 49.4174 12.5861 49.4174L12.5915 49.4121ZM29.595 55.4813C29.595 55.9236 29.952 56.2806 30.3943 56.2806H30.5488C30.9911 56.27 31.3375 55.9023 31.3321 55.46C31.3215 55.0178 30.9751 54.6714 30.5169 54.6767H30.3996C29.9574 54.6767 29.6004 55.0391 29.6004 55.476L29.595 55.4813ZM37.8757 53.4032C37.4547 53.5417 37.2309 53.9947 37.3641 54.4103C37.476 54.746 37.7851 54.9591 38.1208 54.9591C38.206 54.9591 38.286 54.9485 38.3712 54.9165L38.5098 54.8686C38.9254 54.7247 39.1492 54.2718 39.0107 53.8561C38.8668 53.4405 38.4139 53.2167 37.9982 53.3552L37.881 53.3979L37.8757 53.4032ZM21.8579 54.1705C21.73 54.5915 21.9751 55.0391 22.3961 55.167L22.524 55.2043C22.5986 55.2256 22.6785 55.2362 22.7531 55.2362C23.0941 55.2362 23.4139 55.0124 23.5204 54.6661C23.6483 54.2451 23.4085 53.7975 22.9876 53.6696L22.8544 53.6323C22.4334 53.5044 21.9858 53.7496 21.8579 54.1705ZM41.3766 51.9112C40.9822 52.1137 40.833 52.5986 41.0355 52.9876C41.1794 53.2593 41.4565 53.4192 41.7442 53.4192C41.8668 53.4192 41.9947 53.3925 42.1119 53.3286L42.2398 53.2647C42.6288 53.0568 42.778 52.5719 42.5702 52.1829C42.3623 51.794 41.8774 51.6448 41.4885 51.8526L41.3766 51.9112ZM25.6732 55.1297C25.6146 55.5666 25.9183 55.9716 26.3552 56.0302L26.4885 56.0462C26.5258 56.0462 26.5631 56.0515 26.6004 56.0515C26.9947 56.0515 27.3357 55.7638 27.389 55.3641C27.4476 54.9272 27.1439 54.5222 26.7069 54.4636L26.5737 54.4423C26.1368 54.3837 25.7318 54.6874 25.6732 55.1243V55.1297ZM18.2345 52.6199C18.0426 53.0195 18.2078 53.4938 18.6021 53.6909L18.7353 53.7549C18.8472 53.8082 18.9591 53.8295 19.071 53.8295C19.3694 53.8295 19.6572 53.659 19.7957 53.3712C19.9822 52.9716 19.8117 52.4973 19.4121 52.3108L19.3002 52.2575C18.9005 52.0657 18.4263 52.2309 18.2291 52.6252L18.2345 52.6199ZM7.04973 42.8259C7.19361 43.0924 7.47069 43.2362 7.74778 43.2362C7.88099 43.2362 8.00888 43.2043 8.13144 43.135C8.5151 42.9218 8.65897 42.4369 8.44583 42.048L8.37655 41.9254C8.16341 41.5417 7.67318 41.4032 7.28952 41.6163C6.90586 41.8295 6.76732 42.3197 6.98046 42.7034L7.0444 42.8153L7.04973 42.8259ZM3.87922 27.0213L3.86323 27.1652C3.8206 27.6021 4.13499 27.9964 4.57726 28.0444C4.60391 28.0444 4.63055 28.0444 4.66252 28.0444C5.0675 28.0444 5.41385 27.7407 5.45648 27.325L5.47247 27.1972C5.52575 26.7602 5.21137 26.3606 4.76909 26.3126C4.33215 26.2593 3.9325 26.5737 3.88455 27.016L3.87922 27.0213ZM5.80817 34.9343L5.78153 34.8011C5.69627 34.3694 5.27531 34.087 4.84369 34.1723C4.41208 34.2575 4.12966 34.6785 4.21492 35.1101L4.24156 35.2433C4.31616 35.6217 4.65187 35.8881 5.02487 35.8881C5.07815 35.8881 5.13144 35.8881 5.18472 35.8721C5.61634 35.7869 5.89876 35.3659 5.8135 34.9343H5.80817ZM3.74067 31.2202C3.76199 31.6465 4.11368 31.9822 4.53996 31.9822C4.55062 31.9822 4.56661 31.9822 4.57726 31.9822C5.01954 31.9609 5.36057 31.5879 5.33925 31.1456V31.0178C5.31794 30.5755 4.9556 30.2345 4.50799 30.2451C4.06572 30.2611 3.71936 30.6288 3.73535 31.071V31.2149L3.74067 31.2202ZM44.611 49.9023C44.254 50.1634 44.1794 50.6643 44.4458 51.0213C44.6004 51.2345 44.8455 51.3464 45.0906 51.3464C45.2558 51.3464 45.421 51.2931 45.5648 51.1918L45.6767 51.1119C46.0337 50.8508 46.103 50.3499 45.8419 49.9929C45.5808 49.6359 45.0746 49.5666 44.7229 49.8277L44.6163 49.9076L44.611 49.9023ZM9.9325 46.5133C10.1083 46.5133 10.2842 46.4547 10.4281 46.3375C10.7744 46.0604 10.833 45.5595 10.556 45.2131L10.476 45.1119C10.2043 44.7655 9.71403 44.7176 9.36767 44.9893C9.02131 45.2611 8.96803 45.778 9.23979 46.1243L9.30373 46.2043C9.46359 46.4014 9.69272 46.508 9.9325 46.508V46.5133ZM6.80462 38.4671C6.65009 38.0515 6.19183 37.8384 5.7762 37.9929C5.36057 38.1474 5.15275 38.6057 5.30195 39.0213L5.34991 39.1439C5.46714 39.4689 5.7762 39.6661 6.10124 39.6661C6.19183 39.6661 6.28774 39.6501 6.37833 39.6181C6.79396 39.4689 7.0071 39.0053 6.85258 38.595L6.80462 38.4671ZM5.1794 24.1119C5.24867 24.1332 5.32327 24.1385 5.39254 24.1385C5.74423 24.1385 6.06394 23.9041 6.16519 23.5524L6.18117 23.4885L5.40853 23.2753L4.63055 23.0995L5.39254 23.3393L4.61989 23.1261C4.50266 23.5524 4.75311 23.9893 5.1794 24.1066V24.1119ZM14.4405 8.8135L14.3286 8.89343C13.9716 9.15453 13.9023 9.65542 14.1634 10.0124C14.3179 10.2256 14.5631 10.3375 14.8082 10.3375C14.9734 10.3375 15.1385 10.2842 15.2824 10.1776L15.389 10.0977C15.746 9.83659 15.8206 9.3357 15.5542 8.97869C15.2931 8.62167 14.7922 8.54707 14.4352 8.8135H14.4405ZM17.8881 6.66607L17.7602 6.73002C17.3712 6.93783 17.222 7.42274 17.4298 7.81172C17.5737 8.08348 17.8508 8.23268 18.1385 8.23268C18.2664 8.23268 18.3943 8.20071 18.5115 8.13677L18.6234 8.07815C19.0178 7.87567 19.167 7.39076 18.9645 7.00178C18.762 6.60746 18.2771 6.45826 17.8881 6.66075V6.66607ZM21.6234 5.07815L21.4849 5.12611C21.0693 5.26998 20.8455 5.72291 20.984 6.13854C21.0959 6.46892 21.4103 6.68206 21.7407 6.68206C21.8259 6.68206 21.9112 6.66607 21.9964 6.63943L22.1137 6.5968C22.5346 6.45826 22.7584 6.00533 22.6252 5.5897C22.4867 5.16874 22.0337 4.94494 21.6181 5.07815H21.6234ZM55.7584 24.7513C55.6732 24.3197 55.2469 24.0373 54.8206 24.1226C54.389 24.2078 54.1066 24.6288 54.1918 25.0604L54.2185 25.1936C54.2931 25.5719 54.6288 25.8384 55.0018 25.8384C55.0551 25.8384 55.103 25.8384 55.1563 25.8224C55.5879 25.7371 55.8703 25.3162 55.7851 24.8845L55.7584 24.7513ZM56.254 28.7744C56.2327 28.3321 55.849 27.9964 55.4174 28.0124C54.9751 28.0337 54.6341 28.4067 54.6554 28.849V28.9769C54.6767 29.4085 55.0284 29.7496 55.46 29.7496C55.4707 29.7496 55.4813 29.7496 55.4867 29.7496C55.929 29.7336 56.2753 29.3659 56.2593 28.9236V28.7798L56.254 28.7744ZM56.1155 32.9734L56.1314 32.8295C56.1741 32.3925 55.8597 31.9982 55.4174 31.9503C54.9751 31.9076 54.5861 32.222 54.5382 32.6643L54.5222 32.7922C54.4689 33.2291 54.7833 33.6288 55.2256 33.6767C55.2575 33.6767 55.2895 33.6767 55.3162 33.6767C55.7158 33.6767 56.0622 33.3783 56.1101 32.968L56.1155 32.9734ZM25.5613 4.08703L25.4174 4.11368C24.9805 4.18828 24.6927 4.60391 24.7673 5.04085C24.8366 5.42984 25.1723 5.7016 25.556 5.7016C25.6039 5.7016 25.6465 5.7016 25.6945 5.69094L25.8171 5.66963C26.254 5.60036 26.5471 5.19005 26.4778 4.75311C26.4085 4.31616 25.9982 4.02309 25.5613 4.09236V4.08703ZM50.1261 15.1812C50.302 15.1812 50.4778 15.1226 50.627 15.0053C50.9734 14.7336 51.0266 14.2167 50.7549 13.8703L50.6909 13.7904C50.4192 13.444 49.913 13.3908 49.5666 13.6625C49.2202 13.9396 49.1616 14.4405 49.4387 14.7869L49.5187 14.8881C49.6732 15.0853 49.897 15.1865 50.1261 15.1865V15.1812ZM54.6501 20.8508C54.5009 20.4352 54.0373 20.222 53.627 20.3766C53.2114 20.5258 52.9982 20.9893 53.1528 21.3996L53.2007 21.5275C53.3179 21.8526 53.627 22.0497 53.952 22.0497C54.0426 22.0497 54.1385 22.0337 54.2291 22.0018C54.6448 21.8472 54.8526 21.389 54.7034 20.9734L54.6554 20.8508H54.6501ZM52.9449 17.1741C52.7318 16.7851 52.2469 16.6465 51.8579 16.8597C51.4742 17.0728 51.3304 17.5577 51.5435 17.9467L51.6128 18.0693C51.7567 18.3304 52.0284 18.4796 52.3108 18.4796C52.444 18.4796 52.5773 18.4476 52.6998 18.3783C53.0835 18.1652 53.222 17.675 53.0089 17.2913L52.9449 17.1794V17.1741ZM47.4831 12.2718C47.6963 12.2718 47.9094 12.1812 48.0693 12.0107C48.373 11.6909 48.341 11.1687 48.0213 10.865L47.9467 10.7957C47.6217 10.4973 47.1155 10.5133 46.8171 10.8437C46.5187 11.1687 46.54 11.675 46.865 11.9734L46.9609 12.0639C47.1101 12.2025 47.2966 12.2718 47.4831 12.2718ZM33.6448 3.96448L33.5115 3.94849C33.0799 3.88988 32.6696 4.19361 32.611 4.63055C32.5524 5.0675 32.8561 5.47247 33.2931 5.53108L33.4263 5.5524C33.4636 5.5524 33.5009 5.55773 33.5382 5.55773C33.9325 5.55773 34.2735 5.26998 34.3268 4.87034C34.3854 4.43339 34.0817 4.02842 33.6448 3.9698V3.96448ZM37.6039 4.83304L37.476 4.79574C37.0551 4.66785 36.6075 4.90764 36.4796 5.3286C36.3517 5.74956 36.5915 6.19716 37.0124 6.32504L37.1456 6.36234C37.2202 6.38366 37.3002 6.39432 37.3748 6.39432C37.7211 6.39432 38.0355 6.17052 38.1421 5.82416C38.27 5.4032 38.0249 4.9556 37.6039 4.82771V4.83304ZM44.9041 8.34458L44.7869 8.26465C44.4245 8.01954 43.9236 8.11012 43.6785 8.4778C43.4281 8.84014 43.524 9.34103 43.8917 9.58615L43.9982 9.66075C44.1368 9.75666 44.2966 9.80462 44.4512 9.80462C44.7016 9.80462 44.952 9.68739 45.1066 9.46359C45.357 9.10124 45.2664 8.60036 44.9041 8.34991V8.34458ZM29.6057 3.71936H29.4512C29.0089 3.73002 28.6625 4.09769 28.6679 4.53996C28.6785 4.97691 29.0355 5.32327 29.4671 5.32327H29.6004C30.0426 5.32327 30.3996 4.96092 30.3996 4.52398C30.3996 4.08703 30.0426 3.72469 29.6004 3.72469L29.6057 3.71936ZM41.3979 6.30906L41.2647 6.24512C40.865 6.05861 40.3908 6.22913 40.2043 6.62877C40.0178 7.02842 40.1883 7.50266 40.5879 7.68917L40.6998 7.74245C40.8117 7.79574 40.9343 7.82238 41.0515 7.82238C41.3499 7.82238 41.6323 7.65719 41.7709 7.37478C41.9627 6.97513 41.7975 6.50089 41.4032 6.30373L41.3979 6.30906ZM54.8153 35.8881C54.389 35.7709 53.952 36.0213 53.8348 36.4476L53.8135 36.5169C53.7016 36.9432 53.952 37.3801 54.3783 37.4973C54.4476 37.5133 54.5169 37.524 54.5861 37.524C54.9378 37.524 55.2629 37.2895 55.3588 36.9325L55.3748 36.8739C55.492 36.4476 55.2416 36.0107 54.8153 35.8934V35.8881ZM30 36.6874C26.3126 36.6874 23.3126 33.6874 23.3126 30C23.3126 26.3126 26.3126 23.3126 30 23.3126C33.6874 23.3126 36.6874 26.3126 36.6874 30C36.6874 33.6874 33.6874 36.6874 30 36.6874ZM30 24.9112C27.1918 24.9112 24.9112 27.1918 24.9112 30C24.9112 32.8082 27.1918 35.0888 30 35.0888C32.8082 35.0888 35.0888 32.8082 35.0888 30C35.0888 27.1918 32.8082 24.9112 30 24.9112ZM31.4707 44.0888H28.5293L27.1332 40.6039C25.2842 40.1083 23.611 39.1385 22.2469 37.7851L18.5275 38.3179L17.0568 35.7709L19.3748 32.8188C19.1297 31.9023 19.0071 30.9538 19.0071 29.9947C19.0071 29.0355 19.1297 28.087 19.3748 27.1705L17.0568 24.2185L18.5275 21.6714L22.2469 22.2043C23.611 20.8455 25.2842 19.881 27.1332 19.3854L28.5293 15.9005H31.4707L32.8668 19.3854C34.7158 19.881 36.389 20.8508 37.7531 22.2043L41.4725 21.6714L42.9432 24.2185L40.6252 27.1705C40.8703 28.087 40.9929 29.0355 40.9929 29.9947C40.9929 30.9538 40.8703 31.897 40.6252 32.8188L42.9432 35.7709L41.4725 38.3179L37.7531 37.7851C36.3943 39.1439 34.7158 40.1083 32.8668 40.6039L31.4707 44.0888ZM29.611 42.4902H30.389L31.6892 39.2398L32.0995 39.1492C33.9325 38.7282 35.5844 37.7744 36.8739 36.389L37.1616 36.0799L40.6252 36.5755L41.0142 35.9041L38.8561 33.1545L38.9787 32.7549C39.2504 31.865 39.389 30.9325 39.389 29.9947C39.389 29.0568 39.2504 28.1243 38.9787 27.2345L38.8561 26.8348L41.0142 24.0853L40.6252 23.4139L37.1616 23.9094L36.8739 23.6004C35.5844 22.2149 33.9325 21.2611 32.0995 20.8401L31.6892 20.7496L30.389 17.4991H29.611L28.3108 20.7496L27.9005 20.8401C26.0675 21.2611 24.4156 22.2149 23.1261 23.6004L22.8384 23.9094L19.3748 23.4139L18.9858 24.0853L21.1439 26.8348L21.0213 27.2345C20.7496 28.1243 20.6057 29.0568 20.6057 29.9947C20.6057 30.9325 20.7442 31.865 21.0213 32.7549L21.1439 33.1545L18.9858 35.9041L19.3748 36.5755L22.8384 36.0799L23.1261 36.389C24.4156 37.7744 26.0675 38.7282 27.9005 39.1492L28.3108 39.2398L29.611 42.4902Z" fill="white"/>
</g>
<defs>
<clipPath id="clip0_1143_19084">
<rect width="60" height="60" fill="white"/>
</clipPath>
</defs>
</svg>
