<svg width="58" height="60" viewBox="0 0 58 60" fill="none" xmlns="http://www.w3.org/2000/svg">
    <g clip-path="url(#clip0_1143_20173)">
        <path d="M8.36693 16.736C11.7524 16.736 14.8034 14.6985 16.0991 11.569C17.3948 8.4396 16.6738 4.83996 14.281 2.44979C11.8856 0.054383 8.28595 -0.658752 5.15913 0.639519C2.03231 1.93779 -0.0026097 4.99147 2.512e-06 8.37429C0.00261473 12.9927 3.75115 16.7334 8.36693 16.7334V16.736ZM8.36693 1.64C11.0915 1.64 13.547 3.28047 14.5892 5.79603C15.6289 8.31421 15.0542 11.2112 13.129 13.1364C11.2038 15.0616 8.30685 15.6363 5.78867 14.5966C3.27311 13.5517 1.63264 11.0988 1.63264 8.37429C1.63786 4.65711 4.64975 1.64522 8.36693 1.64Z" fill="white"/>
        <path d="M8.54749 10.4798H6.73462C6.28531 10.4798 5.91699 10.8481 5.91699 11.2974C5.91699 11.7467 6.28531 12.115 6.73462 12.115H7.55224V12.883C7.55224 13.3323 7.91534 13.698 8.36725 13.698C8.81916 13.698 9.18488 13.3349 9.18488 12.8804V12.0183C10.2663 11.7023 10.9507 10.6417 10.7914 9.52368C10.632 8.40827 9.67336 7.58281 8.54749 7.58542H8.22097C8.04595 7.58019 7.87877 7.50705 7.75861 7.37644C7.63844 7.24583 7.57575 7.07342 7.58359 6.89841C7.58359 6.73122 7.6515 6.56665 7.76905 6.45172C7.88922 6.33155 8.05117 6.26886 8.21835 6.26886H10.0234C10.4727 6.26886 10.8384 5.90576 10.8384 5.45385C10.8384 5.00194 10.4753 4.63623 10.0234 4.63623H9.20577V3.86823C9.20577 3.41893 8.84267 3.05322 8.38815 3.05322C7.93362 3.05322 7.57314 3.41632 7.57314 3.86823V4.73549C6.59356 5.02806 5.93005 5.9345 5.93789 6.95587C5.93789 7.5593 6.18083 8.1366 6.60923 8.56239C7.03502 8.98557 7.61755 9.22067 8.21574 9.21805H8.57623C8.89753 9.25463 9.14047 9.5263 9.14047 9.85282C9.14047 10.1793 8.89753 10.4458 8.57623 10.4824H8.54227L8.54749 10.4798Z" fill="white"/>
        <path d="M49.3474 19.518C52.7328 19.518 55.7813 17.4805 57.0769 14.3536C58.3726 11.2294 57.6542 7.62718 55.2641 5.23439C52.8713 2.84421 49.269 2.12846 46.1448 3.42151C43.0206 4.71717 40.9805 7.76562 40.9805 11.1511C40.9831 15.7695 44.7264 19.5154 49.3474 19.518ZM49.3474 4.42199C52.0719 4.4246 54.5274 6.06507 55.5697 8.58325C56.6094 11.1014 56.0321 13.9984 54.1069 15.9236C52.179 17.8488 49.2795 18.4235 46.7639 17.3786C44.2484 16.3337 42.6105 13.8756 42.6131 11.1511C42.6157 7.43387 45.6302 4.4246 49.3474 4.4246V4.42199Z" fill="white"/>
        <path d="M49.5277 13.2565H47.7149C47.2629 13.2565 46.8972 13.6196 46.8972 14.0741C46.8972 14.5287 47.2603 14.8892 47.7149 14.8892H48.5325V15.6572H48.5299C48.5299 16.1065 48.8982 16.4748 49.3475 16.4748C49.7968 16.4748 50.1651 16.1065 50.1651 15.6572V14.7899C51.2466 14.4764 51.931 13.4133 51.7716 12.2978C51.6097 11.1824 50.6536 10.3544 49.5277 10.357H49.1673C48.9922 10.357 48.8251 10.2812 48.7023 10.1506C48.5821 10.0226 48.522 9.84758 48.5299 9.66995C48.5351 9.32514 48.8172 9.04302 49.1673 9.04302H50.9723C51.4216 9.04302 51.7873 8.67992 51.7873 8.2254C51.7873 7.77087 51.4242 7.41038 50.9723 7.41038H50.1547V6.64239C50.1547 6.19309 49.7916 5.82477 49.337 5.82477C48.8825 5.82477 48.522 6.19309 48.522 6.64239V7.50965C47.5425 7.80222 46.879 8.70604 46.8868 9.73003C46.892 10.9787 47.9056 11.9922 49.1594 11.9922H49.5173C49.6845 11.9922 49.849 12.0601 49.964 12.1777C50.0841 12.2978 50.1468 12.4598 50.1442 12.627C50.1468 12.7915 50.0841 12.9509 49.9666 13.0711C49.849 13.1886 49.6923 13.2539 49.5251 13.2539L49.5277 13.2565Z" fill="white"/>
        <path d="M54.5641 21.7958H44.1414C42.7882 21.7958 41.6911 22.8956 41.6911 24.2461V24.6797C41.6911 27.211 43.5641 29.3582 46.0744 29.7004V32.2133C46.0744 32.4302 45.9882 32.6391 45.8367 32.7906C45.6826 32.9448 45.4762 33.0284 45.2594 33.0284H33.1283C32.0912 31.5838 30.4194 30.7296 28.6405 30.7296C26.8615 30.7296 25.1897 31.5838 24.1501 33.0284H12.4604C12.0111 33.0284 11.6454 32.66 11.6454 32.2107V26.921C14.1557 26.5788 16.0261 24.4342 16.0287 21.9003V21.4693C16.0287 20.1162 14.9289 19.019 13.5784 19.019H3.15045C1.79994 19.019 0.700195 20.1162 0.700195 21.4693V21.9003C0.70542 24.4446 2.58883 26.5892 5.10962 26.9288V33.8434C5.10962 36.9963 7.66959 39.5563 10.8251 39.5563H24.137L24.2206 39.6686L20.5217 48.7487H15.1092C14.1009 48.7435 13.197 49.3547 12.8235 50.2925L10.3732 56.635C10.0807 57.403 10.1904 58.2676 10.6658 58.9363C11.1256 59.5998 11.8831 59.9995 12.6929 59.9943H44.6116H44.6089C45.4161 59.9943 46.1737 59.5972 46.6282 58.9311C47.0879 58.2676 47.1846 57.416 46.8946 56.6637L44.4444 50.3212C44.0839 49.3756 43.1748 48.7487 42.1587 48.7487H36.7305L33.0316 39.6791L33.1204 39.5485H46.879C50.0345 39.5485 52.5919 36.9911 52.5919 33.8355V29.703C55.1179 29.3686 57.0039 27.2214 57.0091 24.6771V24.2435C57.0091 22.893 55.912 21.7932 54.5589 21.7932L54.5641 21.7958ZM28.6274 32.3361C30.2156 32.3361 31.6445 33.2948 32.2558 34.7603C32.867 36.2257 32.5274 37.9158 31.4042 39.0391C30.2809 40.1597 28.5908 40.4967 27.1254 39.8907C25.6599 39.282 24.7012 37.8479 24.7012 36.2623C24.7065 34.0941 26.4619 32.3387 28.63 32.3335L28.6274 32.3361ZM2.33544 21.9029V21.4719C2.33544 21.02 2.69854 20.6543 3.15045 20.6543H13.5784C13.7926 20.6543 14.0016 20.7405 14.1531 20.892C14.3072 21.0461 14.3908 21.2525 14.3908 21.4693V21.9003C14.3882 23.7994 12.8548 25.3354 10.9558 25.3432H5.77051C3.87143 25.3328 2.33805 23.7968 2.33544 21.9003V21.9029ZM10.8251 37.9289C8.57342 37.9289 6.74486 36.1003 6.74486 33.846V26.9837H10.0101V32.216H10.0075C10.0075 33.5691 11.1073 34.6662 12.4578 34.6662H23.3142C22.9876 35.732 22.9876 36.8683 23.3142 37.9315H10.8251V37.9289ZM42.9058 50.9064L45.356 57.2593C45.4553 57.5101 45.4213 57.7922 45.2672 58.0142C45.1105 58.2389 44.8597 58.3695 44.588 58.3669H12.6694C12.3977 58.3695 12.1469 58.2389 11.9902 58.0142C11.8361 57.7896 11.8047 57.5101 11.9014 57.2541L14.3516 50.9116C14.4718 50.5955 14.7722 50.3839 15.1118 50.3813H42.1482C42.4852 50.3813 42.7856 50.5903 42.9084 50.9038L42.9058 50.9064ZM22.2849 48.7513L25.4927 40.8807C27.3814 42.1763 29.8734 42.1763 31.7621 40.8807L34.9699 48.7513H22.2849ZM46.8842 37.9289H33.9433C34.2698 36.8631 34.2698 35.7268 33.9433 34.6636H45.2489C46.6021 34.6636 47.6992 33.5665 47.6992 32.2133V29.7631H50.9645V33.8434C50.9645 34.9274 50.5361 35.9645 49.7681 36.7299C49.0027 37.4953 47.9656 37.9263 46.8842 37.9263V37.9289ZM55.3817 24.6797C55.3765 26.5814 53.8353 28.12 51.9336 28.1226H46.7614C44.8597 28.12 43.3237 26.5762 43.3237 24.6797V24.2461C43.3237 23.7968 43.6868 23.4311 44.1414 23.4311H54.5641C54.7809 23.4311 54.9899 23.5173 55.1414 23.6688C55.2955 23.8229 55.3791 24.0293 55.3791 24.2435V24.6771L55.3817 24.6797Z" fill="white"/>
    </g>
    <defs>
        <clipPath id="clip0_1143_20173">
            <rect width="57.7143" height="60" fill="white" transform="translate(0 -0.000488281)"/>
        </clipPath>
    </defs>
</svg>
