<svg width="61" height="60" viewBox="0 0 61 60" fill="none" xmlns="http://www.w3.org/2000/svg">
<g id="Layer_1" clip-path="url(#clip0_1143_19109)">
<path id="Vector" fill-rule="evenodd" clip-rule="evenodd" d="M53.9078 6.12366C45.7337 -2.04622 32.4865 -2.04198 24.3166 6.13214C17.3816 13.0713 16.1976 23.8974 21.4719 32.1711L16.6932 36.9434C15.7273 36.1787 14.342 36.2592 13.4693 37.1277L0.715685 49.8729C-0.237502 50.826 -0.239621 52.3723 0.715685 53.3276L6.67205 59.284C7.62524 60.2372 9.17152 60.2393 10.1268 59.284L22.9017 46.5621C23.7722 45.6894 23.8506 44.3041 23.0859 43.3382L27.8646 38.5596C37.5935 44.7871 50.5314 41.9487 56.7589 32.2198C62.0629 23.9335 60.8767 13.0692 53.9057 6.12366H53.9078ZM21.5333 45.1789L8.77118 57.9474C8.57207 58.1423 8.25434 58.1423 8.05735 57.9474L2.10098 51.9911C1.90399 51.7962 1.90187 51.4763 2.09675 51.2793C2.09675 51.2793 2.09887 51.2772 2.10098 51.2751L14.8504 38.5003C14.9436 38.4028 15.0728 38.3499 15.2084 38.3478C15.3418 38.3499 15.471 38.405 15.5663 38.5003L21.5248 44.4566C21.7303 44.6452 21.743 44.9629 21.5545 45.1684C21.5481 45.1747 21.5439 45.1811 21.5375 45.1853V45.1789H21.5333ZM21.7388 41.936L18.1039 38.2948L22.6242 33.7746C23.6812 35.1429 24.9076 36.3673 26.2781 37.4221L21.7367 41.936H21.7388ZM52.5246 34.3423C45.1109 41.7559 33.0902 41.7559 25.6765 34.3423C18.2628 26.9286 18.2628 14.9078 25.6765 7.49414C33.0902 0.0804529 45.1109 0.0804529 52.5246 7.49414C56.0853 11.0548 58.0849 15.8822 58.0849 20.9171C58.0828 25.9521 56.0832 30.7795 52.5246 34.3401V34.3423ZM51.2007 8.83284C44.5242 2.16052 33.7023 2.16476 27.03 8.84343C20.3577 15.52 20.3619 26.3418 27.0406 33.0142C33.715 39.6822 44.5284 39.6822 51.2007 33.0142C57.8667 26.3334 57.8667 15.5157 51.2007 8.83284ZM49.8387 31.6352C43.9184 37.5534 34.3208 37.5534 28.4026 31.6331C22.4844 25.7127 22.4844 16.1152 28.4047 10.197C34.3251 4.27872 43.9205 4.27872 49.8387 10.197C55.7591 16.0792 55.7909 25.6471 49.9065 31.5674C49.8832 31.5907 49.8599 31.614 49.8387 31.6352ZM50.3408 25.6788L40.8745 9.28189C40.3111 8.31176 39.0677 7.98132 38.0976 8.54476C37.7926 8.72269 37.5384 8.97687 37.3605 9.28189L27.8879 25.6788C27.3287 26.6511 27.6634 27.8945 28.6377 28.4537C28.9449 28.6316 29.2944 28.7248 29.6502 28.7248H48.589C49.7117 28.7206 50.6182 27.8076 50.614 26.685C50.614 26.3312 50.5187 25.986 50.3429 25.6788H50.3408ZM48.6653 26.7443C48.6504 26.7761 48.6187 26.793 48.5848 26.7909H29.646C29.6121 26.7972 29.5782 26.7761 29.5676 26.7443C29.5486 26.7168 29.5486 26.6786 29.5676 26.6511L39.0338 10.2478C39.0465 10.216 39.0783 10.197 39.1122 10.2012C39.1482 10.1948 39.1842 10.2139 39.1991 10.2478L48.6653 26.6511C48.6843 26.6786 48.6843 26.7168 48.6653 26.7443ZM39.1143 15.0879C39.6481 15.0879 40.0845 15.52 40.0866 16.0538V21.2306C40.1311 21.7665 39.7328 22.2368 39.1969 22.2813C38.661 22.3257 38.1908 21.9275 38.1463 21.3916C38.1421 21.3387 38.1421 21.2836 38.1463 21.2306V16.0538C38.1505 15.5221 38.5805 15.09 39.1122 15.0879H39.1143ZM39.9489 23.925C39.9531 24.3995 39.5697 24.7892 39.0953 24.7913C38.6208 24.7956 38.231 24.4122 38.2289 23.9377C38.2247 23.4632 38.6081 23.0735 39.0826 23.0713C39.0847 23.0713 39.0868 23.0713 39.0889 23.0713C39.5613 23.0713 39.9468 23.4526 39.9489 23.925Z" fill="white"/>
</g>
<defs>
<clipPath id="clip0_1143_19109">
<rect width="60.0635" height="60" fill="white"/>
</clipPath>
</defs>
</svg>
