<svg width="60" height="60" viewBox="0 0 60 60" fill="none" xmlns="http://www.w3.org/2000/svg">
<g id="Layer_1" clip-path="url(#clip0_1143_19113)">
<path id="Vector" d="M4.00213 0C1.80267 0 0 1.80267 0 4.00213V13.9968C0 15.1936 0.546133 16.2624 1.3888 16.9963C0.546133 17.7323 0 18.8011 0 19.9979V29.9989C0 31.1979 0.546133 32.2667 1.3888 33.0005C0.546133 33.7365 0 34.8032 0 36V45.9947C0 48.1941 1.80267 49.9968 4.00213 49.9968H28.6677L27.4304 51.68C27.1381 52.0768 27.1787 52.6293 27.5264 52.9792L31.0187 56.4715C31.3664 56.8213 31.9189 56.8661 32.3179 56.576L34.8352 54.7093C35.8293 55.2661 36.9365 55.7483 38.0779 56.0491L38.5408 59.1531C38.6155 59.6416 39.0379 60 39.5307 60H44.4672C44.9621 60 45.3824 59.6416 45.4571 59.1531L45.9179 56.0427C46.9824 55.7717 48.1771 55.2683 49.1733 54.7136L51.68 56.5739C52.0789 56.864 52.6315 56.8213 52.9792 56.4693L56.4715 52.9771C56.8192 52.6272 56.8597 52.0747 56.5675 51.6779L54.7115 49.1627C55.2683 48.192 55.7419 47.0165 56.0533 45.9179L59.1509 45.4549C59.6395 45.3803 59.9979 44.9579 59.9979 44.4651V39.5285C59.9979 39.0336 59.6395 38.6133 59.1509 38.5387L56.0597 38.0736C55.7504 36.9728 55.2747 35.8165 54.72 34.8181L56.5675 32.3093C56.8597 31.9125 56.8213 31.36 56.4715 31.0101L52.9792 27.5179C52.6293 27.1701 52.0768 27.1296 51.68 27.4219L50.9995 27.9232V19.9957C50.9995 18.7989 50.4555 17.7301 49.6128 16.9941C50.4533 16.2581 50.9995 15.1915 50.9995 13.9947V4.00213C51.0016 1.80267 49.2011 0 47.0016 0H4.00213ZM4.00213 2.00107H13.9968V15.9957H4.00213C2.87787 15.9957 2.00107 15.1211 2.00107 13.9947V4.00213C2.00107 2.87787 2.87573 2.00107 4.00213 2.00107ZM15.9957 2.00107H47.0016C48.1259 2.00107 49.0027 2.87573 49.0027 4.00213V13.9968C49.0027 15.1211 48.128 15.9979 47.0016 15.9979H15.9957V2.00107ZM8.9984 6.00107C7.3536 6.00107 6.0032 7.35147 6.0032 8.99627C6.0032 10.6411 7.3536 12.0021 8.9984 12.0021C10.6432 12.0021 12.0043 10.6411 12.0043 8.99627C12.0043 7.35147 10.6432 6.00107 8.9984 6.00107ZM8.9984 8.00213C9.5616 8.00213 10.0053 8.43307 10.0053 8.9984C10.0053 9.56373 9.56373 10.0053 8.9984 10.0053C8.43307 10.0053 8.00213 9.56373 8.00213 8.9984C8.00213 8.43307 8.43307 8.00213 8.9984 8.00213ZM21.0027 8.00213C20.4501 8 20 8.44587 19.9979 8.9984C19.9936 9.5552 20.4459 10.0075 21.0027 10.0053H43.9957C44.5525 10.0075 45.0027 9.5552 45.0005 8.9984C44.9984 8.44587 44.5483 8 43.9957 8.00213H21.0027ZM4.00213 17.9989H13.9968V32.0021H4.00213C2.87787 32.0021 2.00107 31.1253 2.00107 30.0011V20C2.00107 18.8757 2.87573 17.9989 4.00213 17.9989ZM15.9957 17.9989H47.0016C48.1259 17.9989 49.0027 18.8736 49.0027 20V29.2139C48.0427 28.6912 46.9696 28.2325 45.9264 27.936L45.4592 24.8491C45.3888 24.3584 44.9664 23.9936 44.4693 23.9936C36.6464 24 28.8256 24.0021 21.0027 24.0021C20.4459 24 19.9957 24.4523 19.9979 25.0069C20 25.5595 20.4501 26.0053 21.0027 26.0032H38.3701L38.08 27.9531C36.9664 28.2432 35.8208 28.7232 34.8267 29.2779L32.3179 27.4283C31.9211 27.136 31.3685 27.1765 31.0187 27.5243L27.5264 31.0165C27.2619 31.2832 27.1765 31.6651 27.2789 32.0064H15.9957V18.0011V17.9989ZM8.9984 21.9989C7.3536 21.9989 6.0032 23.36 6.0032 25.0048C6.0032 26.6496 7.3536 28 8.9984 28C10.6432 28 12.0043 26.6496 12.0043 25.0048C12.0043 23.36 10.6432 21.9989 8.9984 21.9989ZM8.9984 23.9979C9.5616 23.9979 10.0053 24.4395 10.0053 25.0048C10.0053 25.5701 9.56373 26.0011 8.9984 26.0011C8.43307 26.0011 8.00213 25.5701 8.00213 25.0048C8.00213 24.4395 8.43307 23.9979 8.9984 23.9979ZM43.6053 25.9925L44.0405 28.8939C44.1003 29.2992 44.4011 29.6277 44.8 29.7216C46.1781 30.0373 47.4944 30.5835 48.6912 31.3365C49.0411 31.5563 49.4891 31.5392 49.8197 31.2939L52.1749 29.5445L54.4491 31.8187L52.7147 34.1653C52.4715 34.4939 52.4523 34.9376 52.6699 35.2875C53.4208 36.4885 53.9584 37.8133 54.272 39.1936C54.3637 39.5947 54.6923 39.8997 55.0997 39.9616L58.0011 40.3968V43.6075L55.1061 44.0341C54.6987 44.096 54.3701 44.3989 54.2805 44.8021C53.9648 46.1803 53.4165 47.4944 52.6635 48.6933C52.4437 49.0432 52.4629 49.4912 52.7083 49.8219L54.4512 52.1771L52.1771 54.4512L49.8304 52.7168C49.5019 52.4715 49.0581 52.4501 48.7083 52.6635C47.5072 53.4123 46.1888 53.9605 44.8107 54.272C44.4096 54.3637 44.1045 54.6923 44.0427 55.0997L43.6075 58.0011H40.3968L39.9616 55.1061C39.904 54.6987 39.6032 54.368 39.2021 54.272C37.824 53.9563 36.5077 53.4144 35.3109 52.6635C34.9611 52.4437 34.5109 52.4629 34.1803 52.7083L31.8272 54.4512L29.5531 52.1771L31.2875 49.8304C31.5307 49.5019 31.5477 49.0581 31.3323 48.7083C30.5813 47.5072 30.0416 46.1824 29.728 44.8021C29.6363 44.4011 29.3099 44.096 28.9024 44.0341L26.0011 43.6075V40.3883L28.8939 39.9616C29.3013 39.8997 29.6299 39.5968 29.7216 39.1936C30.0373 37.8133 30.5835 36.5013 31.3365 35.3024C31.5584 34.9547 31.5435 34.5067 31.2981 34.1739L29.5509 31.8187L31.8251 29.5445L34.1717 31.2875C34.5003 31.5307 34.944 31.5499 35.2939 31.3323C36.4949 30.5835 37.8133 30.0352 39.1915 29.7237C39.5925 29.632 39.8976 29.3035 39.9595 28.896L40.3925 26.0032C41.5339 25.9989 42.4427 25.9947 43.6053 25.9947V25.9925ZM4.00213 34.0011H13.9968V47.9979H4.00213C2.87787 47.9979 2.00107 47.1211 2.00107 45.9968V36.0021C2.00107 34.8779 2.87573 34.0011 4.00213 34.0011ZM15.9957 34.0011H28.6784L29.2907 34.8309C28.7317 35.8272 28.2624 36.9792 27.9509 38.0779L24.8576 38.5408C24.3669 38.6112 24 39.0336 24 39.5307V40.0043H21.0048C20.4523 40.0021 20.0021 40.448 20 41.0005C19.9979 41.5552 20.448 42.0075 21.0048 42.0053H24V44.4693C24 44.9664 24.3648 45.3888 24.8576 45.4592L27.9445 45.92C28.1387 46.6112 28.4011 47.3173 28.704 47.9979H15.9979V34.0011H15.9957ZM41.9968 34.9248C38.1013 34.9248 34.9248 38.1013 34.9248 41.9968C34.9248 45.8923 38.1013 49.0688 41.9968 49.0688C45.8923 49.0688 49.0773 45.8923 49.0773 41.9968C49.0773 38.1013 45.8923 34.9248 41.9968 34.9248ZM41.9968 36.9237C44.8107 36.9237 47.0741 39.1829 47.0741 41.9968C47.0741 44.8107 44.8107 47.0699 41.9968 47.0699C39.1829 47.0699 36.9237 44.8107 36.9237 41.9968C36.9237 39.1829 39.1829 36.9237 41.9968 36.9237ZM8.9984 38.0011C7.3536 38.0011 6.0032 39.3536 6.0032 40.9984C6.0032 42.6432 7.3536 43.9936 8.9984 43.9936C10.6432 43.9936 12.0043 42.6432 12.0043 40.9984C12.0043 39.3536 10.6432 38.0011 8.9984 38.0011ZM8.9984 40.0043C9.5616 40.0043 10.0053 40.4352 10.0053 41.0005C10.0053 41.5659 9.56373 42.0053 8.9984 42.0053C8.43307 42.0053 8.00213 41.5659 8.00213 41.0005C8.00213 40.4352 8.43307 40.0043 8.9984 40.0043Z" fill="white"/>
</g>
<defs>
<clipPath id="clip0_1143_19113">
<rect width="60" height="60" fill="white"/>
</clipPath>
</defs>
</svg>
