<svg width="59" height="60" viewBox="0 0 59 60" fill="none" xmlns="http://www.w3.org/2000/svg">
    <g clip-path="url(#clip0_1143_20184)">
        <path fill-rule="evenodd" clip-rule="evenodd" d="M0 1.03453V52.4454C0 56.6186 3.37208 59.9995 7.55186 59.9995H46.7589C50.9166 59.9995 54.3107 56.6186 54.3107 52.4454V48.5525C54.3107 47.981 53.834 47.5175 53.2757 47.5175H48.4559V32.9788C54.1651 32.4557 58.656 27.6448 58.656 21.7944C58.656 15.944 54.1651 11.1331 48.4559 10.6101V1.03453C48.4559 0.462951 48.0013 -0.000488281 47.4209 -0.000488281H1.03502C0.454612 -0.000488281 0 0.462951 0 1.03453ZM13.4486 57.9295H46.7589C49.78 57.9295 52.2407 55.4732 52.2407 52.4454V49.5854H15.8276V52.4454C15.8276 54.606 14.9161 56.5546 13.4486 57.9295ZM46.3859 10.6079V2.06954H2.07003V52.4476C2.07003 55.4755 4.51081 57.9295 7.55407 57.9295H8.27792C11.2991 57.9295 13.762 55.4732 13.762 52.4454V48.5525C13.762 47.981 14.2166 47.5175 14.797 47.5175H46.3903V32.9788C40.679 32.4557 36.1902 27.6448 36.1902 21.7944C36.1902 15.944 40.6812 11.1331 46.3903 10.6101L46.3859 10.6079ZM10.0147 39.681H39.0636C39.6219 39.681 40.0986 39.2175 40.0986 38.646C40.0986 38.0744 39.6219 37.611 39.0636 37.611H10.0147C9.43431 37.611 8.9797 38.0744 8.9797 38.646C8.9797 39.2175 9.43431 39.681 10.0147 39.681ZM47.4209 12.6316C52.4901 12.6316 56.586 16.7363 56.586 21.7922C56.586 26.8481 52.4901 30.9551 47.4209 30.9551C42.3518 30.9551 38.2558 26.8503 38.2558 21.7922C38.2558 16.7341 42.3738 12.6316 47.4209 12.6316ZM10.0147 30.7278H32.1936C32.7519 30.7278 33.2286 30.2643 33.2286 29.6928C33.2286 29.1212 32.7519 28.6577 32.1936 28.6577H10.0147C9.43431 28.6577 8.9797 29.1212 8.9797 29.6928C8.9797 30.2643 9.43431 30.7278 10.0147 30.7278ZM46.3859 16.1934H46.366C45.4767 16.1934 44.627 16.5465 44.0069 17.1755C43.3647 17.8044 43.0138 18.6563 43.0138 19.5434V19.5523C43.0138 20.4416 43.3647 21.2935 44.0069 21.9224C44.627 22.5492 45.4767 22.9023 46.366 22.9023H48.5376C49.2195 22.9023 49.758 23.4451 49.758 24.1116C49.758 24.7803 49.2195 25.321 48.5376 25.321H44.8345C44.2541 25.321 43.7995 25.7844 43.7995 26.356C43.7995 26.9276 44.2541 27.391 44.8345 27.391H46.3859V28.1171C46.3859 28.6886 46.8626 29.1521 47.4209 29.1521C47.9793 29.1521 48.4559 28.6886 48.4559 28.1171V27.391H48.5376C50.3582 27.391 51.828 25.9234 51.828 24.1116C51.828 22.302 50.3582 20.8322 48.5376 20.8322H46.366C46.035 20.8322 45.704 20.6976 45.4767 20.4571C45.2295 20.2143 45.0839 19.8899 45.0839 19.5478V19.539C45.0839 19.1992 45.2295 18.8725 45.4767 18.632C45.704 18.3914 46.035 18.2546 46.366 18.2546H49.5726C50.1309 18.2546 50.6076 17.7912 50.6076 17.2196C50.6076 16.648 50.1309 16.1846 49.5726 16.1846H48.4559V15.4607C48.4559 14.8892 48.0013 14.4257 47.4209 14.4257C46.8405 14.4257 46.3859 14.8892 46.3859 15.4607V16.1846V16.1934ZM10.0147 21.7746H30.5804C31.1608 21.7746 31.6154 21.3111 31.6154 20.7395C31.6154 20.168 31.1608 19.7045 30.5804 19.7045H10.0147C9.43431 19.7045 8.9797 20.168 8.9797 20.7395C8.9797 21.3111 9.43431 21.7746 10.0147 21.7746ZM10.0147 12.8236H34.2416C34.7999 12.8236 35.2766 12.3601 35.2766 11.7885C35.2766 11.217 34.7999 10.7535 34.2416 10.7535H10.0147C9.43431 10.7535 8.9797 11.217 8.9797 11.7885C8.9797 12.3601 9.43431 12.8236 10.0147 12.8236Z" fill="white"/>
    </g>
    <defs>
        <clipPath id="clip0_1143_20184">
            <rect width="58.6538" height="60" fill="white" transform="translate(0 -0.000488281)"/>
        </clipPath>
    </defs>
</svg>
