<svg xmlns="http://www.w3.org/2000/svg" width="95" height="60" viewBox="0 0 95 60" fill="none">
    <g clip-path="url(#clip0_1143_20188)">
        <path d="M6.31994 27.3628C6.0348 27.3628 5.74966 27.2756 5.51149 27.1012C5.08881 26.7925 4.87411 26.2726 4.96469 25.756L6.37026 17.5641L0.415879 11.7607C0.0401665 11.395 -0.0940166 10.8482 0.0670031 10.3517C0.228023 9.85526 0.660764 9.48962 1.17737 9.41581L9.4028 8.22158L13.0828 0.76771C13.3142 0.298069 13.7939 -0.000488281 14.3173 -0.000488281C14.8406 -0.000488281 15.3203 0.298069 15.5517 0.76771L19.2317 8.22158L27.4571 9.41581C27.9771 9.48962 28.4065 9.85526 28.5675 10.3517C28.7285 10.8482 28.5943 11.395 28.2186 11.7607L22.2676 17.5607L23.6732 25.7526C23.7604 26.2692 23.5491 26.7892 23.1264 27.0978C22.7037 27.4064 22.1401 27.4467 21.6772 27.2018L14.3206 23.334L6.96402 27.2018C6.76274 27.3091 6.5447 27.3595 6.32329 27.3595L6.31994 27.3628ZM14.3173 20.4088C14.5387 20.4088 14.7567 20.4624 14.958 20.5664L20.4863 23.4749L19.4296 17.3158C19.3525 16.8697 19.5001 16.4135 19.8255 16.0981L24.3005 11.7372L18.118 10.8382C17.6685 10.7744 17.2827 10.4926 17.0814 10.0867L14.3173 4.48458L11.5531 10.0867C11.3518 10.4926 10.966 10.7744 10.5165 10.8382L4.33403 11.7372L8.80904 16.0981C9.13443 16.4135 9.28203 16.8697 9.20488 17.3158L8.14818 23.4749L13.6765 20.5664C13.8778 20.4624 14.0959 20.4088 14.3173 20.4088Z" fill="white"/>
        <path d="M40.1574 27.3628C39.8723 27.3628 39.5871 27.2756 39.349 27.1012C38.9263 26.7925 38.7116 26.2726 38.8022 25.756L40.2077 17.5641L34.2567 11.764C33.881 11.3984 33.7468 10.8516 33.9078 10.3551C34.0688 9.85862 34.5016 9.49297 35.0182 9.41917L43.2436 8.22494L46.9202 0.771065C47.1517 0.298069 47.6314 -0.000488281 48.1547 -0.000488281C48.678 -0.000488281 49.1577 0.298069 49.3892 0.76771L53.0692 8.22158L61.2946 9.41581C61.8146 9.48962 62.244 9.85526 62.405 10.3517C62.566 10.8482 62.4318 11.395 62.0561 11.7607L56.1051 17.5607L57.5106 25.7526C57.5979 26.2692 57.3865 26.7892 56.9638 27.0978C56.5412 27.4064 55.9776 27.4467 55.5147 27.2018L48.1581 23.334L40.8015 27.2018C40.6002 27.3091 40.3788 27.3595 40.1608 27.3595L40.1574 27.3628ZM48.1547 20.4088C48.3761 20.4088 48.5942 20.4624 48.7954 20.5664L54.3238 23.4749L53.2671 17.3158C53.1899 16.8697 53.3375 16.4135 53.6629 16.0981L58.1379 11.7372L51.9555 10.8382C51.5059 10.7744 51.1202 10.4926 50.9189 10.0867L48.1547 4.48458L45.3905 10.0867C45.1893 10.4926 44.8035 10.7744 44.354 10.8382L38.1715 11.7372L42.6465 16.0981C42.9719 16.4135 43.1195 16.8697 43.0423 17.3158L41.9857 23.4715L47.514 20.5631C47.7153 20.4591 47.9333 20.4054 48.1547 20.4054V20.4088Z" fill="white"/>
        <path d="M88.2722 27.3628C88.0541 27.3628 87.8327 27.3091 87.6314 27.2051L80.2748 23.3373L72.9182 27.2051C72.4553 27.45 71.8917 27.4098 71.4691 27.1012C71.0464 26.7925 70.8317 26.2726 70.9223 25.756L72.3278 17.5641L66.3768 11.764C66.0011 11.3984 65.8669 10.8516 66.0279 10.3551C66.189 9.85862 66.6217 9.49297 67.1383 9.41917L75.3637 8.22494L79.0403 0.771065C79.2718 0.298069 79.7515 -0.000488281 80.2748 -0.000488281C80.7982 -0.000488281 81.2779 0.298069 81.5093 0.76771L85.1893 8.22158L93.4147 9.41581C93.9347 9.48962 94.3641 9.85526 94.5251 10.3517C94.6861 10.8482 94.5519 11.395 94.1762 11.7607L88.2252 17.5607L89.6308 25.7526C89.718 26.2692 89.5066 26.7892 89.084 27.0978C88.8458 27.2722 88.5606 27.3595 88.2755 27.3595L88.2722 27.3628ZM80.2748 20.4088C80.4962 20.4088 80.7143 20.4624 80.9156 20.5664L86.4439 23.4749L85.3872 17.3192C85.3101 16.873 85.4577 16.4168 85.7831 16.1015L90.2581 11.7405L84.0756 10.8415C83.6261 10.7778 83.2403 10.496 83.039 10.0901L80.2748 4.48794L77.5107 10.0901C77.3094 10.496 76.9236 10.7778 76.4741 10.8415L70.2916 11.7405L74.7666 16.1015C75.092 16.4168 75.2396 16.873 75.1625 17.3192L74.1058 23.4749L79.6341 20.5664C79.8354 20.4624 80.0534 20.4088 80.2748 20.4088Z" fill="white"/>
        <path d="M39.2321 59.9995C39.0141 59.9995 38.7927 59.9459 38.5914 59.8419L31.2348 55.974L23.8782 59.8419C23.4153 60.0868 22.8517 60.0465 22.429 59.7379C22.0064 59.4293 21.7917 58.9093 21.8822 58.3927L23.2878 50.2008L17.3368 44.3974C16.9611 44.0317 16.8269 43.4849 16.9879 42.9885C17.1489 42.492 17.5817 42.1263 18.0983 42.0525L26.3237 40.8583L30.0037 33.4044C30.2351 32.9348 30.7148 32.6362 31.2382 32.6362C31.7615 32.6362 32.2412 32.9348 32.4726 33.4044L36.1526 40.8583L44.378 42.0525C44.898 42.1297 45.3274 42.492 45.4884 42.9885C45.6494 43.4849 45.5152 44.0317 45.1395 44.3974L39.1885 50.2008L40.5941 58.3927C40.6813 58.9093 40.47 59.4293 40.0473 59.7379C39.8091 59.9123 39.524 59.9995 39.2388 59.9995H39.2321ZM31.2348 53.0455C31.4562 53.0455 31.6742 53.0992 31.8755 53.2032L37.4039 56.1116L36.3472 49.9559C36.27 49.5098 36.4176 49.0535 36.743 48.7382L41.218 44.3773L35.0355 43.4782C34.586 43.4145 34.2002 43.1327 33.999 42.7268L31.2348 37.1247L28.4706 42.7268C28.2694 43.1327 27.8836 43.4145 27.4341 43.4782L21.2516 44.3773L25.7266 48.7382C26.052 49.0535 26.1996 49.5098 26.1224 49.9559L25.0657 56.1116L30.5941 53.2032C30.7953 53.0992 31.0134 53.0455 31.2348 53.0455Z" fill="white"/>
        <path d="M71.3522 59.9995C71.1342 59.9995 70.9128 59.9459 70.7115 59.8419L63.3549 55.974L55.9983 59.8419C55.5354 60.0868 54.9718 60.0465 54.5491 59.7379C54.1265 59.4293 53.9118 58.9093 54.0023 58.3927L55.4079 50.2008L49.4569 44.3974C49.0812 44.0317 48.947 43.4849 49.108 42.9885C49.269 42.492 49.7018 42.1263 50.2184 42.0525L58.4438 40.8583L62.1204 33.4044C62.3519 32.9348 62.8316 32.6362 63.3549 32.6362C63.8782 32.6362 64.3579 32.9348 64.5894 33.4044L68.2694 40.8583L76.4948 42.0525C77.0148 42.1297 77.4441 42.492 77.6052 42.9885C77.7662 43.4849 77.632 44.0317 77.2563 44.3974L71.3053 50.2008L72.7108 58.3927C72.7981 58.9093 72.5867 59.4293 72.164 59.7379C71.9259 59.9123 71.6407 59.9995 71.3556 59.9995H71.3522ZM63.3549 53.0455C63.5763 53.0455 63.7944 53.0992 63.9956 53.2032L69.524 56.1116L68.4673 49.9559C68.3901 49.5098 68.5377 49.0535 68.8631 48.7382L73.3381 44.3773L67.1557 43.4782C66.7061 43.4145 66.3204 43.1327 66.1191 42.7268L63.3549 37.1247L60.5907 42.7268C60.3895 43.1327 60.0037 43.4145 59.5542 43.4782L53.3717 44.3773L57.8467 48.7382C58.1721 49.0535 58.3197 49.5098 58.2425 49.9559L57.1858 56.1116L62.7142 53.2032C62.9155 53.0992 63.1335 53.0455 63.3549 53.0455Z" fill="white"/>
    </g>
    <defs>
        <clipPath id="clip0_1143_20188">
            <rect width="94.5891" height="60" fill="white" transform="translate(0 -0.000488281)"/>
        </clipPath>
    </defs>
</svg>