<svg width="58" height="60" viewBox="0 0 58 60" fill="none" xmlns="http://www.w3.org/2000/svg">
    <g clip-path="url(#clip0_1143_21105)">
        <path d="M32.2775 24.6334H41.2753C41.8393 24.6334 42.3078 25.0933 42.3078 25.6659V46.898C42.3078 47.462 41.8479 47.9306 41.2753 47.9306H14.2731C13.7091 47.9306 13.2406 47.4707 13.2406 46.898V36.6334C13.2406 36.0694 13.7004 35.6008 14.2731 35.6008H22.2471V31.3926C22.2471 30.8286 22.707 30.3601 23.2796 30.3601H31.2536V25.6572C31.2536 25.0933 31.7135 24.6247 32.2861 24.6247L32.2775 24.6334ZM40.2514 26.6985H33.31V45.8742H40.2514V26.6985ZM31.2449 32.4251H24.3035V45.8655H31.2449V32.4251ZM22.2471 37.6833H15.3056V45.8828H22.2471V37.6833ZM37.7525 8.98046L43.1495 15.8351C43.6874 16.5206 43.1755 17.5097 42.3338 17.5097H40.2514V20.4685C40.2514 21.0325 39.7915 21.5011 39.2189 21.5011H34.6202C34.0562 21.5011 33.5876 21.0412 33.5876 20.4685V17.5097H31.5052C30.6722 17.5097 30.1256 16.5206 30.733 15.8004L36.1126 8.97178C36.5378 8.43382 37.3447 8.45985 37.7438 8.98046H37.7525ZM38.8284 13.6659L36.9369 11.2538L33.6397 15.4273H34.6289C35.1928 15.4273 35.6614 15.8872 35.6614 16.4598V19.4186H38.2124V16.4598C38.2124 15.8959 38.6722 15.4273 39.2449 15.4273H40.2341L38.8284 13.6659ZM23.4271 15.6269L28.8328 22.4815C29.3707 23.167 28.8588 24.1388 28.0171 24.1388H25.9347V27.0976C25.9347 27.6616 25.4748 28.1301 24.9022 28.1301H20.2948C19.7308 28.1301 19.2623 27.6703 19.2623 27.0976V24.1388H17.1798C16.3469 24.1388 15.8002 23.1497 16.4076 22.4382L21.7872 15.6095C22.2124 15.0716 23.0193 15.0802 23.4184 15.6182L23.4271 15.6269ZM24.5117 20.3123L22.6202 17.9002L19.323 22.0737H20.3122C20.8761 22.0737 21.3447 22.5336 21.3447 23.1063V26.0651H23.8957V23.1063C23.8957 22.5423 24.3555 22.0737 24.9282 22.0737H25.9174L24.5117 20.3123ZM46.8805 12.0954C46.4553 11.7223 46.4293 11.0629 46.8024 10.6377C47.1755 10.2126 47.8349 10.1865 48.2601 10.5596C51.8436 13.7787 54.49 17.9262 55.9651 22.4989C57.3534 26.9067 57.6397 31.705 56.5464 36.5206C56.5378 36.5726 56.5204 36.6247 56.5117 36.6768C54.8371 43.8351 50.3946 49.6833 44.5725 53.3102C39.1668 56.6941 32.5551 58.1778 25.8913 57.0412L27.297 58.1605C27.7482 58.5076 27.8089 59.167 27.4618 59.6008C27.1148 60.052 26.4553 60.1128 26.0215 59.7657L21.4488 56.1215C20.8328 55.6182 20.9976 54.6377 21.7178 54.3601L27.1668 52.2256C27.6961 52.0173 28.3035 52.2776 28.4944 52.8069C28.7026 53.3362 28.4423 53.9262 27.913 54.1345L25.8566 54.9501C32.156 56.1215 38.4119 54.7592 43.5226 51.5661C48.9022 48.2082 52.9976 42.8113 54.5421 36.1909V36.1388C55.5833 31.6789 55.3317 27.2191 54.0302 23.1323C52.6506 18.898 50.195 15.0716 46.8978 12.0954H46.8805ZM29.9347 1.83078C29.5009 1.48371 29.4228 0.824275 29.7699 0.390435C30.1169 -0.0607578 30.7764 -0.121495 31.2102 0.225576L35.7829 3.8785C36.3989 4.38176 36.2341 5.36224 35.5139 5.63989L30.0649 7.77438C29.5356 7.98263 28.9456 7.72232 28.7373 7.19304C28.5291 6.66375 28.7894 6.07373 29.3187 5.86549L31.3751 5.04987C25.0931 3.86115 18.8284 5.23208 13.7352 8.42514C8.35554 11.7831 4.24274 17.1974 2.69827 23.8264C2.69827 23.8351 2.6896 23.8612 2.6896 23.8785C1.67441 28.3384 1.92604 32.7896 3.21888 36.8677C4.55511 41.1019 7.01932 44.9284 10.3252 47.9045C10.7503 48.2776 10.7764 48.9371 10.4033 49.3622C10.0302 49.7874 9.37073 49.8134 8.94556 49.4403C5.36205 46.2212 2.71563 42.0737 1.25793 37.5011C-0.147712 33.0672 -0.425369 28.2429 0.693937 23.41V23.3579C2.37723 16.1735 6.81975 10.3254 12.6592 6.68111C18.0649 3.29716 24.6766 1.81343 31.3404 2.95009L29.9347 1.81343V1.83078Z" fill="white"/>
    </g>
    <defs>
        <clipPath id="clip0_1143_21105">
            <rect width="57.2061" height="60" fill="white"/>
        </clipPath>
    </defs>
</svg>
