<svg width="89" height="59" viewBox="0 0 89 59" fill="none" xmlns="http://www.w3.org/2000/svg">
<g id="Layer_1" clip-path="url(#clip0_1527_4728)">
<path id="Vector" d="M85.3688 45.4686H82.6429V4.25968C82.7649 2.04739 81.1036 0.144279 78.9201 0H10.0799C7.89642 0.144279 6.23509 2.04739 6.35714 4.25968V45.4686H3.6312C1.66472 45.4343 0.0406857 47.0179 0 49.0104C0.172914 54.6854 4.84499 59.1477 10.4427 58.9931H78.5539C84.155 59.1477 88.8237 54.6854 88.9966 49.0104C88.9559 47.0179 87.3319 45.4309 85.3654 45.4686H85.3688ZM9.53402 4.25968C9.53402 3.61386 9.88663 3.21881 10.0765 3.21881H78.9201C79.1134 3.21881 79.4626 3.61386 79.4626 4.25968V45.4686H57.3024C56.4819 45.479 55.7089 45.874 55.2105 46.537C54.6307 47.1931 53.7967 47.5573 52.9287 47.5298H36.0713C35.2033 47.5573 34.3659 47.1966 33.7861 46.537C33.2877 45.874 32.5181 45.479 31.6942 45.4686H9.53402V4.25968ZM78.5573 55.7743H10.4427C6.59787 55.9289 3.35318 52.9093 3.17688 49.0138C3.17688 48.8626 3.36335 48.6909 3.6312 48.6909H31.4195C32.6028 50.0272 34.2981 50.7795 36.0713 50.752H52.9287C54.7019 50.7795 56.3972 50.0272 57.5805 48.6909H85.3688C85.6367 48.6909 85.8231 48.8592 85.8231 49.0138C85.6502 52.9093 82.4021 55.9289 78.5573 55.7743Z" fill="url(#paint0_linear_1527_4728)"/>
<path id="Vector_2" d="M59.0421 14.1772C58.3369 13.7306 57.452 13.6928 56.7094 14.0707L50.549 17.1899C50.2675 15.6509 48.9453 14.531 47.4026 14.5276H32.0336C30.2637 14.5276 28.8296 15.9841 28.8262 17.7773V30.9033C28.8262 32.6965 30.2637 34.1496 32.0336 34.153H47.4026C48.9487 34.153 50.2709 33.0297 50.549 31.4907L56.7094 34.6133C57.8927 35.2145 59.3337 34.7267 59.927 33.5243C60.0931 33.1877 60.1813 32.8167 60.1813 32.4388V16.2383C60.1813 15.3967 59.7541 14.6134 59.0421 14.1703V14.1772ZM47.4263 30.9101C47.4263 30.9101 47.4128 30.9376 47.3992 30.9376L31.9997 30.9101L32.0268 17.7532L47.4263 17.7807V30.9067V30.9101ZM57.001 31.1644L50.6066 27.9249V20.7625L57.001 17.5231V31.1644Z" fill="url(#paint1_linear_1527_4728)"/>
</g>
<defs>
<linearGradient id="paint0_linear_1527_4728" x1="0" y1="0" x2="95.4183" y2="45.5428" gradientUnits="userSpaceOnUse">
<stop stop-color="#3860FF"/>
<stop offset="1" stop-color="#152461"/>
</linearGradient>
<linearGradient id="paint1_linear_1527_4728" x1="28.8262" y1="13.8124" x2="62.605" y2="29.7262" gradientUnits="userSpaceOnUse">
<stop stop-color="#3860FF"/>
<stop offset="1" stop-color="#152461"/>
</linearGradient>
<clipPath id="clip0_1527_4728">
<rect width="89" height="59" fill="white"/>
</clipPath>
</defs>
</svg>
