<svg width="440" height="296" viewBox="0 0 440 296" fill="none" xmlns="http://www.w3.org/2000/svg">
    <rect x="0.335086" y="0.334842" width="439.33" height="295.33" rx="26.0248" fill="white" stroke="#505069" stroke-width="0.669683"/>
    <path d="M35.1822 104L33.9854 100.071H27.9678L26.7711 104H23.0002L28.8259 87.4261H33.1048L38.953 104H35.1822ZM33.15 97.1355L31.9532 93.2969C31.878 93.041 31.7763 92.7136 31.6484 92.3147C31.528 91.9082 31.4038 91.498 31.2758 91.0841C31.1554 90.6626 31.0575 90.2975 30.9823 89.9889C30.907 90.2975 30.8016 90.6814 30.6662 91.1405C30.5382 91.5921 30.414 92.0211 30.2936 92.4276C30.1732 92.834 30.0866 93.1238 30.0339 93.2969L28.8485 97.1355H33.15ZM47.9399 91.1405C49.2871 91.1405 50.371 91.5093 51.1914 92.2469C52.0118 92.977 52.422 94.1512 52.422 95.7694V104H48.9785V96.6274C48.9785 95.7242 48.813 95.0431 48.4818 94.584C48.1581 94.1248 47.6463 93.8953 46.9463 93.8953C45.8926 93.8953 45.1738 94.2528 44.79 94.9678C44.4061 95.6828 44.2142 96.714 44.2142 98.0613V104H40.7707V91.3776H43.4013L43.8642 92.9921H44.0561C44.3271 92.5555 44.662 92.2018 45.0609 91.9308C45.4674 91.6598 45.9152 91.4604 46.4044 91.3324C46.9012 91.2045 47.413 91.1405 47.9399 91.1405ZM63.1362 91.1405C64.4835 91.1405 65.5673 91.5093 66.3877 92.2469C67.2081 92.977 67.6183 94.1512 67.6183 95.7694V104H64.1749V96.6274C64.1749 95.7242 64.0093 95.0431 63.6781 94.584C63.3545 94.1248 62.8427 93.8953 62.1427 93.8953C61.089 93.8953 60.3702 94.2528 59.9863 94.9678C59.6024 95.6828 59.4105 96.714 59.4105 98.0613V104H55.9671V91.3776H58.5976L59.0605 92.9921H59.2524C59.5234 92.5555 59.8583 92.2018 60.2573 91.9308C60.6637 91.6598 61.1115 91.4604 61.6008 91.3324C62.0975 91.2045 62.6093 91.1405 63.1362 91.1405ZM82.7469 91.3776V104H80.1051L79.6422 102.385H79.4616C79.1906 102.814 78.8519 103.164 78.4455 103.435C78.039 103.706 77.5912 103.906 77.1019 104.034C76.6127 104.162 76.1047 104.226 75.5778 104.226C74.6746 104.226 73.8881 104.068 73.2182 103.751C72.5483 103.428 72.0252 102.927 71.6489 102.25C71.2801 101.572 71.0957 100.692 71.0957 99.608V91.3776H74.5391V98.75C74.5391 99.6532 74.7009 100.334 75.0246 100.793C75.3482 101.253 75.8638 101.482 76.5713 101.482C77.2713 101.482 77.8207 101.324 78.2197 101.008C78.6186 100.684 78.8971 100.214 79.0551 99.5967C79.2207 98.972 79.3035 98.2118 79.3035 97.3161V91.3776H82.7469ZM91.5306 91.1179C93.2241 91.1179 94.5224 91.4867 95.4256 92.2243C96.3288 92.962 96.7804 94.0834 96.7804 95.5888V104H94.3756L93.7095 102.284H93.6192C93.2579 102.735 92.8891 103.104 92.5128 103.39C92.1365 103.676 91.7037 103.887 91.2144 104.022C90.7252 104.158 90.1306 104.226 89.4306 104.226C88.6855 104.226 88.0156 104.083 87.421 103.797C86.8339 103.511 86.371 103.074 86.0323 102.487C85.6936 101.892 85.5243 101.14 85.5243 100.229C85.5243 98.8892 85.9947 97.9032 86.9355 97.271C87.8764 96.6312 89.2876 96.2775 91.1693 96.2097L93.3595 96.142V95.5888C93.3595 94.9264 93.1864 94.4409 92.8402 94.1324C92.494 93.8238 92.0123 93.6695 91.3951 93.6695C90.7854 93.6695 90.1871 93.756 89.6 93.9291C89.0129 94.1022 88.4258 94.3205 87.8387 94.584L86.6984 92.2582C87.3683 91.9045 88.1172 91.626 88.9452 91.4228C89.7806 91.2195 90.6424 91.1179 91.5306 91.1179ZM93.3595 98.1516L92.0273 98.1968C90.9134 98.2269 90.1381 98.4263 89.7016 98.7951C89.2726 99.1639 89.0581 99.6494 89.0581 100.252C89.0581 100.778 89.2123 101.155 89.5209 101.381C89.8295 101.599 90.2322 101.708 90.729 101.708C91.4666 101.708 92.0875 101.49 92.5918 101.053C93.1036 100.617 93.3595 99.9956 93.3595 99.1903V98.1516ZM103.78 104H100.337V86.4326H103.78V104ZM30.35 122.494C32.4801 122.494 34.0343 122.953 35.0128 123.871C35.9913 124.782 36.4805 126.039 36.4805 127.642C36.4805 128.365 36.3714 129.057 36.1531 129.719C35.9348 130.374 35.5773 130.958 35.0805 131.469C34.5913 131.981 33.9365 132.388 33.1161 132.689C32.2957 132.982 31.2833 133.129 30.0791 133.129H28.5775V139H25.0776V122.494H30.35ZM30.1694 125.361H28.5775V130.261H29.7291C30.3839 130.261 30.9522 130.175 31.4339 130.002C31.9156 129.829 32.2882 129.558 32.5516 129.189C32.815 128.82 32.9467 128.346 32.9467 127.766C32.9467 126.953 32.7209 126.351 32.2693 125.96C31.8177 125.561 31.1178 125.361 30.1694 125.361ZM44.4964 126.118C46.1899 126.118 47.4883 126.487 48.3915 127.224C49.2947 127.962 49.7463 129.083 49.7463 130.589V139H47.3415L46.6754 137.284H46.5851C46.2238 137.735 45.855 138.104 45.4786 138.39C45.1023 138.676 44.6695 138.887 44.1803 139.022C43.6911 139.158 43.0965 139.226 42.3965 139.226C41.6513 139.226 40.9815 139.083 40.3868 138.797C39.7998 138.511 39.3369 138.074 38.9982 137.487C38.6595 136.892 38.4901 136.14 38.4901 135.229C38.4901 133.889 38.9605 132.903 39.9014 132.271C40.8422 131.631 42.2535 131.277 44.1351 131.21L46.3254 131.142V130.589C46.3254 129.926 46.1523 129.441 45.8061 129.132C45.4598 128.824 44.9781 128.669 44.3609 128.669C43.7513 128.669 43.1529 128.756 42.5658 128.929C41.9787 129.102 41.3917 129.321 40.8046 129.584L39.6643 127.258C40.3342 126.904 41.0831 126.626 41.911 126.423C42.7465 126.22 43.6083 126.118 44.4964 126.118ZM46.3254 133.152L44.9932 133.197C43.8792 133.227 43.104 133.426 42.6674 133.795C42.2384 134.164 42.0239 134.649 42.0239 135.252C42.0239 135.778 42.1782 136.155 42.4868 136.381C42.7954 136.599 43.1981 136.708 43.6948 136.708C44.4324 136.708 45.0534 136.49 45.5577 136.053C46.0695 135.617 46.3254 134.996 46.3254 134.19V133.152ZM51.4962 126.378H55.2671L57.6493 133.479C57.7245 133.705 57.7885 133.934 57.8412 134.168C57.8939 134.401 57.939 134.642 57.9767 134.89C58.0143 135.139 58.0444 135.398 58.067 135.669H58.1347C58.1799 135.263 58.2401 134.883 58.3154 134.529C58.3982 134.175 58.4998 133.825 58.6202 133.479L60.9572 126.378H64.6491L59.3089 140.614C58.9852 141.487 58.5638 142.214 58.0444 142.793C57.5251 143.38 56.9267 143.821 56.2493 144.114C55.5794 144.408 54.8418 144.554 54.0365 144.554C53.6451 144.554 53.3064 144.532 53.0204 144.487C52.7343 144.449 52.4897 144.408 52.2865 144.363V141.63C52.4446 141.668 52.644 141.702 52.8849 141.732C53.1257 141.762 53.3779 141.777 53.6413 141.777C54.123 141.777 54.537 141.676 54.8832 141.472C55.2294 141.269 55.5192 140.994 55.7525 140.648C55.9859 140.309 56.1703 139.937 56.3058 139.53L56.509 138.909L51.4962 126.378ZM79.01 129.731H85.5582V138.289C84.6926 138.575 83.7932 138.804 82.8598 138.977C81.9265 139.143 80.869 139.226 79.6874 139.226C78.0465 139.226 76.6541 138.902 75.5101 138.255C74.366 137.607 73.4967 136.651 72.9021 135.387C72.3075 134.123 72.0102 132.568 72.0102 130.724C72.0102 128.993 72.3413 127.495 73.0037 126.231C73.6735 124.966 74.6482 123.988 75.9278 123.295C77.2148 122.603 78.7842 122.257 80.6357 122.257C81.5088 122.257 82.3706 122.351 83.2211 122.539C84.0716 122.727 84.8431 122.972 85.5356 123.273L84.3727 126.073C83.8684 125.817 83.2926 125.602 82.6453 125.429C81.998 125.256 81.3206 125.17 80.6131 125.17C79.597 125.17 78.7127 125.403 77.96 125.87C77.2148 126.336 76.6353 126.991 76.2213 127.834C75.8149 128.669 75.6117 129.655 75.6117 130.792C75.6117 131.868 75.7584 132.824 76.052 133.66C76.3455 134.488 76.8084 135.139 77.4406 135.613C78.0729 136.079 78.8971 136.313 79.9132 136.313C80.4099 136.313 80.8276 136.29 81.1663 136.245C81.5126 136.192 81.8362 136.14 82.1373 136.087V132.644H79.01V129.731ZM94.3982 126.118C96.0917 126.118 97.3901 126.487 98.2933 127.224C99.1965 127.962 99.6481 129.083 99.6481 130.589V139H97.2433L96.5772 137.284H96.4869C96.1256 137.735 95.7568 138.104 95.3805 138.39C95.0041 138.676 94.5713 138.887 94.0821 139.022C93.5929 139.158 92.9983 139.226 92.2983 139.226C91.5531 139.226 90.8833 139.083 90.2887 138.797C89.7016 138.511 89.2387 138.074 88.9 137.487C88.5613 136.892 88.3919 136.14 88.3919 135.229C88.3919 133.889 88.8624 132.903 89.8032 132.271C90.744 131.631 92.1553 131.277 94.0369 131.21L96.2272 131.142V130.589C96.2272 129.926 96.0541 129.441 95.7079 129.132C95.3616 128.824 94.8799 128.669 94.2627 128.669C93.6531 128.669 93.0547 128.756 92.4676 128.929C91.8806 129.102 91.2935 129.321 90.7064 129.584L89.5661 127.258C90.236 126.904 90.9849 126.626 91.8128 126.423C92.6483 126.22 93.5101 126.118 94.3982 126.118ZM96.2272 133.152L94.895 133.197C93.781 133.227 93.0058 133.426 92.5692 133.795C92.1402 134.164 91.9257 134.649 91.9257 135.252C91.9257 135.778 92.08 136.155 92.3886 136.381C92.6972 136.599 93.0999 136.708 93.5966 136.708C94.3343 136.708 94.9552 136.49 95.4595 136.053C95.9713 135.617 96.2272 134.996 96.2272 134.19V133.152ZM110.227 126.141C111.649 126.141 112.797 126.694 113.67 127.8C114.551 128.907 114.991 130.529 114.991 132.666C114.991 134.096 114.784 135.3 114.37 136.279C113.956 137.25 113.384 137.984 112.654 138.48C111.924 138.977 111.085 139.226 110.136 139.226C109.527 139.226 109.004 139.15 108.567 139C108.131 138.842 107.758 138.642 107.449 138.401C107.141 138.153 106.874 137.89 106.648 137.611H106.467C106.527 137.912 106.573 138.221 106.603 138.537C106.633 138.853 106.648 139.162 106.648 139.463V144.554H103.204V126.378H106.004L106.49 128.015H106.648C106.874 127.676 107.148 127.364 107.472 127.078C107.796 126.792 108.183 126.566 108.635 126.4C109.094 126.227 109.625 126.141 110.227 126.141ZM109.12 128.895C108.518 128.895 108.04 129.019 107.687 129.268C107.333 129.516 107.073 129.889 106.908 130.386C106.749 130.882 106.663 131.511 106.648 132.271V132.644C106.648 133.456 106.723 134.145 106.874 134.71C107.032 135.274 107.291 135.703 107.653 135.997C108.021 136.29 108.526 136.437 109.166 136.437C109.692 136.437 110.125 136.29 110.464 135.997C110.803 135.703 111.055 135.274 111.22 134.71C111.393 134.138 111.48 133.441 111.48 132.621C111.48 131.387 111.288 130.457 110.904 129.832C110.52 129.208 109.926 128.895 109.12 128.895ZM38.7724 165.589C38.7724 167.448 38.4149 169.002 37.6998 170.252C36.9923 171.493 35.9649 172.431 34.6177 173.063C33.2704 173.687 31.6484 174 29.7517 174H25.0776V157.494H30.2597C31.9909 157.494 33.4924 157.802 34.7644 158.42C36.0364 159.029 37.0224 159.936 37.7224 161.141C38.4224 162.337 38.7724 163.82 38.7724 165.589ZM35.137 165.679C35.137 164.46 34.9564 163.459 34.5951 162.676C34.2413 161.886 33.7145 161.302 33.0145 160.926C32.322 160.55 31.464 160.361 30.4404 160.361H28.5775V171.11H30.0791C31.7876 171.11 33.0559 170.654 33.8838 169.743C34.7193 168.833 35.137 167.478 35.137 165.679ZM45.3657 161.378V174H41.9223V161.378H45.3657ZM43.6497 156.433C44.1615 156.433 44.6018 156.553 44.9706 156.794C45.3394 157.027 45.5238 157.467 45.5238 158.115C45.5238 158.755 45.3394 159.199 44.9706 159.447C44.6018 159.688 44.1615 159.808 43.6497 159.808C43.1303 159.808 42.6862 159.688 42.3174 159.447C41.9562 159.199 41.7755 158.755 41.7755 158.115C41.7755 157.467 41.9562 157.027 42.3174 156.794C42.6862 156.553 43.1303 156.433 43.6497 156.433ZM57.796 170.252C57.796 171.11 57.5928 171.836 57.1864 172.431C56.7875 173.018 56.1891 173.465 55.3913 173.774C54.5934 174.075 53.5999 174.226 52.4107 174.226C51.5301 174.226 50.7737 174.169 50.1414 174.056C49.5167 173.943 48.8845 173.755 48.2447 173.492V170.647C48.9296 170.955 49.6635 171.211 50.4462 171.414C51.2365 171.61 51.929 171.708 52.5236 171.708C53.1935 171.708 53.6714 171.61 53.9574 171.414C54.251 171.211 54.3977 170.948 54.3977 170.624C54.3977 170.413 54.3375 170.225 54.2171 170.06C54.1042 169.886 53.8558 169.695 53.472 169.484C53.0881 169.266 52.486 168.983 51.6656 168.637C50.8753 168.306 50.2242 167.971 49.7124 167.632C49.2081 167.294 48.8318 166.895 48.5834 166.436C48.3425 165.969 48.2221 165.378 48.2221 164.663C48.2221 163.496 48.6737 162.619 49.5769 162.032C50.4876 161.438 51.7032 161.141 53.2236 161.141C54.0064 161.141 54.7515 161.22 55.459 161.378C56.174 161.536 56.9079 161.788 57.6606 162.134L56.6219 164.618C55.9972 164.347 55.4063 164.125 54.8493 163.952C54.2999 163.779 53.7392 163.692 53.1671 163.692C52.6628 163.692 52.2827 163.76 52.0268 163.895C51.7709 164.031 51.643 164.238 51.643 164.516C51.643 164.719 51.707 164.9 51.8349 165.058C51.9704 165.216 52.2263 165.393 52.6026 165.589C52.9865 165.777 53.5472 166.022 54.2848 166.323C54.9999 166.616 55.6208 166.925 56.1477 167.248C56.6746 167.565 57.081 167.96 57.367 168.434C57.653 168.9 57.796 169.506 57.796 170.252ZM65.6087 174.226C64.3593 174.226 63.2943 174 62.4136 173.548C61.533 173.089 60.8632 172.382 60.404 171.426C59.9449 170.47 59.7153 169.247 59.7153 167.756C59.7153 166.213 59.975 164.957 60.4943 163.986C61.0212 163.007 61.7475 162.288 62.6733 161.829C63.6066 161.37 64.6867 161.141 65.9135 161.141C66.7866 161.141 67.5393 161.227 68.1715 161.4C68.8113 161.566 69.3683 161.765 69.8425 161.999L68.8264 164.663C68.2844 164.445 67.7802 164.268 67.3135 164.132C66.8469 163.989 66.3802 163.918 65.9135 163.918C65.3114 163.918 64.8109 164.061 64.412 164.347C64.0131 164.625 63.7158 165.047 63.5201 165.611C63.3244 166.176 63.2265 166.883 63.2265 167.734C63.2265 168.569 63.3319 169.262 63.5426 169.811C63.7534 170.361 64.0582 170.771 64.4571 171.042C64.8561 171.305 65.3415 171.437 65.9135 171.437C66.6286 171.437 67.2646 171.343 67.8216 171.155C68.3785 170.959 68.9205 170.688 69.4473 170.342V173.289C68.9205 173.62 68.3672 173.857 67.7877 174C67.2157 174.15 66.4893 174.226 65.6087 174.226ZM75.8262 174H72.3827V156.433H75.8262V174ZM90.9209 167.666C90.9209 168.72 90.7779 169.653 90.4919 170.466C90.2134 171.279 89.8032 171.968 89.2613 172.532C88.7269 173.089 88.0796 173.511 87.3194 173.797C86.5667 174.083 85.7162 174.226 84.7679 174.226C83.8797 174.226 83.0631 174.083 82.3179 173.797C81.5803 173.511 80.9368 173.089 80.3873 172.532C79.8454 171.968 79.4239 171.279 79.1229 170.466C78.8293 169.653 78.6825 168.72 78.6825 167.666C78.6825 166.266 78.9309 165.081 79.4277 164.11C79.9244 163.139 80.6319 162.401 81.5502 161.897C82.4685 161.393 83.5636 161.141 84.8356 161.141C86.0173 161.141 87.0635 161.393 87.9742 161.897C88.8925 162.401 89.6113 163.139 90.1306 164.11C90.6575 165.081 90.9209 166.266 90.9209 167.666ZM82.1937 167.666C82.1937 168.494 82.2841 169.19 82.4647 169.755C82.6453 170.319 82.9276 170.745 83.3114 171.031C83.6953 171.317 84.1958 171.46 84.813 171.46C85.4227 171.46 85.9157 171.317 86.292 171.031C86.6759 170.745 86.9543 170.319 87.1275 169.755C87.3081 169.19 87.3984 168.494 87.3984 167.666C87.3984 166.831 87.3081 166.138 87.1275 165.589C86.9543 165.032 86.6759 164.614 86.292 164.336C85.9081 164.057 85.4076 163.918 84.7904 163.918C83.8797 163.918 83.2174 164.23 82.8034 164.855C82.397 165.48 82.1937 166.417 82.1937 167.666ZM102.572 170.252C102.572 171.11 102.369 171.836 101.963 172.431C101.564 173.018 100.965 173.465 100.167 173.774C99.3696 174.075 98.3761 174.226 97.1869 174.226C96.3062 174.226 95.5498 174.169 94.9176 174.056C94.2929 173.943 93.6606 173.755 93.0208 173.492V170.647C93.7058 170.955 94.4396 171.211 95.2224 171.414C96.0127 171.61 96.7052 171.708 97.2998 171.708C97.9696 171.708 98.4476 171.61 98.7336 171.414C99.0271 171.211 99.1739 170.948 99.1739 170.624C99.1739 170.413 99.1137 170.225 98.9933 170.06C98.8804 169.886 98.632 169.695 98.2481 169.484C97.8643 169.266 97.2621 168.983 96.4417 168.637C95.6514 168.306 95.0004 167.971 94.4885 167.632C93.9843 167.294 93.6079 166.895 93.3595 166.436C93.1187 165.969 92.9983 165.378 92.9983 164.663C92.9983 163.496 93.4499 162.619 94.3531 162.032C95.2638 161.438 96.4794 161.141 97.9997 161.141C98.7825 161.141 99.5277 161.22 100.235 161.378C100.95 161.536 101.684 161.788 102.437 162.134L101.398 164.618C100.773 164.347 100.182 164.125 99.6255 163.952C99.0761 163.779 98.5153 163.692 97.9433 163.692C97.439 163.692 97.0589 163.76 96.803 163.895C96.5471 164.031 96.4191 164.238 96.4191 164.516C96.4191 164.719 96.4831 164.9 96.6111 165.058C96.7465 165.216 97.0025 165.393 97.3788 165.589C97.7626 165.777 98.3234 166.022 99.061 166.323C99.776 166.616 100.397 166.925 100.924 167.248C101.451 167.565 101.857 167.96 102.143 168.434C102.429 168.9 102.572 169.506 102.572 170.252ZM116.843 161.378V174H114.201L113.738 172.385H113.557C113.286 172.814 112.948 173.164 112.541 173.435C112.135 173.706 111.687 173.906 111.198 174.034C110.709 174.162 110.2 174.226 109.674 174.226C108.77 174.226 107.984 174.068 107.314 173.751C106.644 173.428 106.121 172.927 105.745 172.25C105.376 171.572 105.191 170.692 105.191 169.608V161.378H108.635V168.75C108.635 169.653 108.797 170.334 109.12 170.793C109.444 171.253 109.96 171.482 110.667 171.482C111.367 171.482 111.917 171.324 112.315 171.008C112.714 170.684 112.993 170.214 113.151 169.597C113.317 168.972 113.399 168.212 113.399 167.316V161.378H116.843ZM127.501 161.141C127.674 161.141 127.873 161.152 128.099 161.174C128.332 161.189 128.52 161.212 128.663 161.242L128.404 164.471C128.291 164.433 128.129 164.407 127.918 164.392C127.715 164.369 127.538 164.358 127.388 164.358C126.944 164.358 126.511 164.415 126.089 164.528C125.675 164.64 125.303 164.825 124.972 165.081C124.64 165.329 124.377 165.66 124.181 166.074C123.993 166.481 123.899 166.981 123.899 167.576V174H120.456V161.378H123.064L123.572 163.5H123.741C123.989 163.071 124.298 162.68 124.667 162.326C125.043 161.965 125.468 161.679 125.942 161.468C126.424 161.25 126.944 161.141 127.501 161.141ZM136.16 161.141C137.327 161.141 138.331 161.366 139.174 161.818C140.017 162.262 140.668 162.909 141.128 163.76C141.587 164.61 141.816 165.649 141.816 166.876V168.547H133.676C133.714 169.518 134.004 170.282 134.545 170.839C135.095 171.388 135.855 171.663 136.826 171.663C137.631 171.663 138.369 171.58 139.039 171.414C139.709 171.249 140.397 171 141.105 170.669V173.334C140.48 173.642 139.825 173.868 139.141 174.011C138.463 174.154 137.639 174.226 136.668 174.226C135.404 174.226 134.282 173.992 133.304 173.526C132.333 173.059 131.569 172.348 131.012 171.392C130.462 170.436 130.188 169.232 130.188 167.779C130.188 166.304 130.436 165.077 130.933 164.098C131.437 163.112 132.137 162.375 133.033 161.886C133.928 161.389 134.971 161.141 136.16 161.141ZM136.183 163.59C135.513 163.59 134.956 163.805 134.512 164.234C134.075 164.663 133.823 165.337 133.755 166.255H138.587C138.58 165.743 138.486 165.288 138.305 164.889C138.132 164.49 137.869 164.174 137.515 163.94C137.169 163.707 136.724 163.59 136.183 163.59Z" fill="#17375E"/>
    <path d="M25.5588 195L143.246 195" stroke="#3860FF" stroke-width="6.39604" stroke-linecap="round"/>
    <rect x="171.155" y="10.8487" width="120.285" height="132.083" rx="4.06826" fill="#FAFBFC"/>
    <rect x="171.155" y="10.8487" width="120.285" height="132.083" rx="4.06826" stroke="#DFE2E6" stroke-width="0.542434"/>
    <g style="mix-blend-mode:multiply">
        <rect x="184.376" y="20.414" width="93.8411" height="86.9335" rx="4.33947" fill="#EFF6FF"/>
        <path d="M233.45 46.3981C236.145 46.3981 238.507 46.7641 240.536 47.496C242.566 48.1947 244.129 49.2094 245.227 50.5402C246.325 51.8709 246.874 53.4346 246.874 55.2311C246.874 56.9944 246.342 58.5581 245.277 59.9221C244.212 61.2861 242.765 62.2343 240.935 62.7666C243.065 63.1991 244.761 64.2305 246.026 65.8607C247.323 67.4576 247.972 69.3706 247.972 71.5996C247.972 73.5625 247.406 75.2925 246.275 76.7896C245.144 78.2535 243.53 79.3846 241.434 80.1831C239.372 80.9816 236.96 81.3808 234.198 81.3808H216.283V46.3981H233.45ZM232.901 60.1217C233.932 60.1217 234.747 59.8556 235.346 59.3233C235.945 58.7577 236.244 58.0091 236.244 57.0776C236.244 56.1793 235.945 55.4807 235.346 54.9816C234.747 54.4493 233.932 54.1832 232.901 54.1832H226.613V60.1217H232.901ZM232.901 73.5958C234.232 73.6291 235.28 73.3463 236.045 72.7474C236.843 72.1486 237.243 71.3335 237.243 70.3021C237.243 69.3373 236.843 68.5888 236.045 68.0564C235.28 67.4909 234.232 67.2247 232.901 67.258H226.613V73.5958H232.901Z" fill="#275087"/>
    </g>
    <path d="M189.11 124.17C189.909 124.17 190.493 124.343 190.86 124.687C191.227 125.029 191.411 125.501 191.411 126.103C191.411 126.374 191.37 126.634 191.288 126.883C191.206 127.128 191.072 127.347 190.886 127.539C190.702 127.732 190.456 127.884 190.148 127.997C189.84 128.107 189.46 128.162 189.008 128.162H188.445V130.366H187.131V124.17H189.11ZM189.042 125.247H188.445V127.086H188.877C189.123 127.086 189.336 127.053 189.517 126.988C189.698 126.924 189.837 126.822 189.936 126.683C190.035 126.545 190.085 126.367 190.085 126.149C190.085 125.844 190 125.618 189.83 125.471C189.661 125.322 189.398 125.247 189.042 125.247ZM194.42 125.531C195.055 125.531 195.543 125.669 195.882 125.946C196.221 126.223 196.39 126.644 196.39 127.209V130.366H195.488L195.238 129.722H195.204C195.068 129.891 194.93 130.03 194.789 130.137C194.647 130.245 194.485 130.324 194.301 130.374C194.118 130.425 193.894 130.451 193.632 130.451C193.352 130.451 193.1 130.397 192.877 130.29C192.657 130.182 192.483 130.019 192.356 129.798C192.229 129.575 192.165 129.292 192.165 128.951C192.165 128.448 192.342 128.078 192.695 127.84C193.048 127.6 193.578 127.467 194.284 127.442L195.106 127.417V127.209C195.106 126.96 195.041 126.778 194.911 126.662C194.781 126.546 194.601 126.488 194.369 126.488C194.14 126.488 193.916 126.521 193.695 126.586C193.475 126.651 193.254 126.733 193.034 126.832L192.606 125.959C192.858 125.826 193.139 125.721 193.449 125.645C193.763 125.569 194.086 125.531 194.42 125.531ZM195.106 128.171L194.606 128.188C194.188 128.199 193.897 128.274 193.733 128.412C193.572 128.551 193.492 128.733 193.492 128.959C193.492 129.157 193.55 129.298 193.666 129.383C193.781 129.465 193.932 129.506 194.119 129.506C194.396 129.506 194.629 129.424 194.818 129.26C195.01 129.096 195.106 128.863 195.106 128.561V128.171ZM197.047 125.628H198.463L199.357 128.294C199.385 128.378 199.409 128.465 199.429 128.552C199.449 128.64 199.466 128.73 199.48 128.823C199.494 128.917 199.505 129.014 199.514 129.116H199.539C199.556 128.963 199.579 128.821 199.607 128.688C199.638 128.555 199.676 128.424 199.721 128.294L200.598 125.628H201.984L199.98 130.972C199.858 131.3 199.7 131.572 199.505 131.79C199.31 132.01 199.086 132.176 198.831 132.286C198.58 132.396 198.303 132.451 198.001 132.451C197.854 132.451 197.727 132.443 197.619 132.426C197.512 132.411 197.42 132.396 197.344 132.379V131.353C197.403 131.368 197.478 131.38 197.568 131.392C197.659 131.403 197.754 131.408 197.852 131.408C198.033 131.408 198.189 131.37 198.319 131.294C198.449 131.218 198.557 131.115 198.645 130.985C198.732 130.858 198.802 130.718 198.853 130.565L198.929 130.332L197.047 125.628ZM206.425 128.645C206.425 129.013 206.336 129.332 206.158 129.603C205.98 129.874 205.721 130.083 205.379 130.23C205.04 130.377 204.627 130.451 204.141 130.451C203.927 130.451 203.716 130.437 203.51 130.408C203.306 130.38 203.11 130.339 202.921 130.285C202.734 130.229 202.556 130.16 202.387 130.078V128.857C202.681 128.987 202.986 129.105 203.302 129.209C203.619 129.314 203.932 129.366 204.243 129.366C204.458 129.366 204.63 129.338 204.76 129.281C204.893 129.225 204.989 129.147 205.048 129.048C205.107 128.949 205.137 128.836 205.137 128.709C205.137 128.554 205.085 128.421 204.98 128.311C204.876 128.2 204.732 128.097 204.548 128.001C204.367 127.905 204.162 127.802 203.934 127.692C203.79 127.624 203.633 127.542 203.463 127.446C203.294 127.347 203.133 127.227 202.98 127.086C202.828 126.945 202.702 126.774 202.603 126.573C202.507 126.37 202.459 126.127 202.459 125.844C202.459 125.474 202.544 125.158 202.713 124.895C202.883 124.632 203.124 124.432 203.438 124.293C203.754 124.152 204.127 124.081 204.557 124.081C204.879 124.081 205.185 124.12 205.476 124.196C205.77 124.269 206.077 124.377 206.396 124.518L205.972 125.539C205.687 125.423 205.431 125.334 205.205 125.272C204.979 125.207 204.749 125.175 204.514 125.175C204.35 125.175 204.21 125.202 204.095 125.255C203.979 125.306 203.891 125.38 203.832 125.476C203.773 125.569 203.743 125.678 203.743 125.802C203.743 125.949 203.785 126.073 203.87 126.175C203.958 126.274 204.088 126.37 204.26 126.463C204.435 126.556 204.653 126.665 204.913 126.789C205.229 126.939 205.499 127.096 205.722 127.26C205.948 127.421 206.122 127.611 206.243 127.832C206.365 128.049 206.425 128.321 206.425 128.645ZM209.443 129.421C209.584 129.421 209.721 129.407 209.854 129.379C209.989 129.35 210.124 129.315 210.256 129.273V130.235C210.118 130.297 209.946 130.348 209.739 130.387C209.536 130.43 209.313 130.451 209.07 130.451C208.787 130.451 208.533 130.406 208.307 130.315C208.084 130.222 207.907 130.062 207.777 129.836C207.65 129.607 207.587 129.29 207.587 128.883V126.599H206.968V126.052L207.68 125.62L208.053 124.62H208.879V125.628H210.206V126.599H208.879V128.883C208.879 129.064 208.93 129.199 209.032 129.29C209.136 129.377 209.273 129.421 209.443 129.421ZM213.159 125.531C213.795 125.531 214.282 125.669 214.621 125.946C214.96 126.223 215.13 126.644 215.13 127.209V130.366H214.227L213.977 129.722H213.943C213.808 129.891 213.669 130.03 213.528 130.137C213.387 130.245 213.224 130.324 213.041 130.374C212.857 130.425 212.634 130.451 212.371 130.451C212.091 130.451 211.84 130.397 211.617 130.29C211.396 130.182 211.223 130.019 211.095 129.798C210.968 129.575 210.905 129.292 210.905 128.951C210.905 128.448 211.081 128.078 211.434 127.84C211.788 127.6 212.317 127.467 213.024 127.442L213.846 127.417V127.209C213.846 126.96 213.781 126.778 213.651 126.662C213.521 126.546 213.34 126.488 213.108 126.488C212.88 126.488 212.655 126.521 212.435 126.586C212.214 126.651 211.994 126.733 211.773 126.832L211.345 125.959C211.597 125.826 211.878 125.721 212.189 125.645C212.502 125.569 212.826 125.531 213.159 125.531ZM213.846 128.171L213.346 128.188C212.928 128.199 212.637 128.274 212.473 128.412C212.312 128.551 212.231 128.733 212.231 128.959C212.231 129.157 212.289 129.298 212.405 129.383C212.521 129.465 212.672 129.506 212.858 129.506C213.135 129.506 213.368 129.424 213.558 129.26C213.75 129.096 213.846 128.863 213.846 128.561V128.171ZM219.156 125.539C219.661 125.539 220.068 125.678 220.376 125.954C220.684 126.229 220.838 126.669 220.838 127.277V130.366H219.546V127.599C219.546 127.26 219.483 127.004 219.359 126.832C219.238 126.659 219.045 126.573 218.783 126.573C218.387 126.573 218.117 126.707 217.973 126.976C217.829 127.244 217.757 127.631 217.757 128.137V130.366H216.465V125.628H217.452L217.626 126.234H217.698C217.8 126.07 217.925 125.938 218.075 125.836C218.228 125.734 218.396 125.659 218.579 125.611C218.766 125.563 218.958 125.539 219.156 125.539ZM223.669 130.451C223.141 130.451 222.71 130.245 222.376 129.832C222.046 129.417 221.881 128.808 221.881 128.006C221.881 127.195 222.049 126.582 222.385 126.166C222.721 125.748 223.16 125.539 223.703 125.539C223.929 125.539 224.128 125.57 224.3 125.632C224.473 125.695 224.621 125.778 224.745 125.882C224.872 125.987 224.98 126.104 225.067 126.234H225.11C225.093 126.144 225.072 126.011 225.046 125.836C225.024 125.658 225.012 125.476 225.012 125.289V123.772H226.309V130.366H225.317L225.067 129.752H225.012C224.93 129.881 224.827 130 224.703 130.107C224.581 130.212 224.436 130.295 224.266 130.358C224.097 130.42 223.898 130.451 223.669 130.451ZM224.122 129.421C224.475 129.421 224.724 129.316 224.868 129.107C225.015 128.895 225.093 128.578 225.101 128.154V128.014C225.101 127.554 225.031 127.202 224.889 126.959C224.748 126.713 224.485 126.59 224.101 126.59C223.816 126.59 223.593 126.713 223.432 126.959C223.271 127.205 223.19 127.559 223.19 128.023C223.19 128.486 223.271 128.835 223.432 129.069C223.595 129.304 223.826 129.421 224.122 129.421ZM229.602 125.531C230.237 125.531 230.725 125.669 231.064 125.946C231.403 126.223 231.572 126.644 231.572 127.209V130.366H230.67L230.42 129.722H230.386C230.25 129.891 230.112 130.03 229.97 130.137C229.829 130.245 229.667 130.324 229.483 130.374C229.299 130.425 229.076 130.451 228.814 130.451C228.534 130.451 228.282 130.397 228.059 130.29C227.839 130.182 227.665 130.019 227.538 129.798C227.411 129.575 227.347 129.292 227.347 128.951C227.347 128.448 227.524 128.078 227.877 127.84C228.23 127.6 228.76 127.467 229.466 127.442L230.288 127.417V127.209C230.288 126.96 230.223 126.778 230.093 126.662C229.963 126.546 229.783 126.488 229.551 126.488C229.322 126.488 229.097 126.521 228.877 126.586C228.657 126.651 228.436 126.733 228.216 126.832L227.788 125.959C228.039 125.826 228.321 125.721 228.631 125.645C228.945 125.569 229.268 125.531 229.602 125.531ZM230.288 128.171L229.788 128.188C229.37 128.199 229.079 128.274 228.915 128.412C228.754 128.551 228.674 128.733 228.674 128.959C228.674 129.157 228.732 129.298 228.847 129.383C228.963 129.465 229.114 129.506 229.301 129.506C229.578 129.506 229.811 129.424 230 129.26C230.192 129.096 230.288 128.863 230.288 128.561V128.171ZM235.552 125.539C235.617 125.539 235.691 125.543 235.776 125.552C235.864 125.558 235.934 125.566 235.988 125.577L235.891 126.789C235.848 126.775 235.787 126.765 235.708 126.76C235.632 126.751 235.566 126.747 235.509 126.747C235.343 126.747 235.18 126.768 235.022 126.811C234.866 126.853 234.727 126.922 234.602 127.018C234.478 127.111 234.379 127.236 234.306 127.391C234.235 127.544 234.2 127.732 234.2 127.955V130.366H232.907V125.628H233.886L234.077 126.425H234.14C234.234 126.264 234.349 126.117 234.488 125.984C234.629 125.849 234.789 125.741 234.967 125.662C235.148 125.58 235.343 125.539 235.552 125.539ZM238.349 130.451C237.82 130.451 237.389 130.245 237.056 129.832C236.725 129.417 236.56 128.808 236.56 128.006C236.56 127.195 236.728 126.582 237.064 126.166C237.401 125.748 237.84 125.539 238.382 125.539C238.608 125.539 238.808 125.57 238.98 125.632C239.152 125.695 239.301 125.778 239.425 125.882C239.552 125.987 239.659 126.104 239.747 126.234H239.789C239.772 126.144 239.751 126.011 239.726 125.836C239.703 125.658 239.692 125.476 239.692 125.289V123.772H240.989V130.366H239.997L239.747 129.752H239.692C239.61 129.881 239.507 130 239.383 130.107C239.261 130.212 239.116 130.295 238.946 130.358C238.777 130.42 238.577 130.451 238.349 130.451ZM238.802 129.421C239.155 129.421 239.404 129.316 239.548 129.107C239.695 128.895 239.772 128.578 239.781 128.154V128.014C239.781 127.554 239.71 127.202 239.569 126.959C239.428 126.713 239.165 126.59 238.781 126.59C238.495 126.59 238.272 126.713 238.111 126.959C237.95 127.205 237.87 127.559 237.87 128.023C237.87 128.486 237.95 128.835 238.111 129.069C238.275 129.304 238.505 129.421 238.802 129.421ZM245.646 128.959C245.646 129.281 245.57 129.554 245.417 129.777C245.267 129.997 245.043 130.165 244.743 130.281C244.444 130.394 244.071 130.451 243.625 130.451C243.294 130.451 243.01 130.43 242.773 130.387C242.538 130.345 242.301 130.274 242.061 130.175V129.107C242.318 129.223 242.593 129.319 242.887 129.396C243.184 129.469 243.444 129.506 243.667 129.506C243.918 129.506 244.098 129.469 244.205 129.396C244.315 129.319 244.37 129.22 244.37 129.099C244.37 129.02 244.348 128.949 244.303 128.887C244.26 128.822 244.167 128.75 244.023 128.671C243.879 128.589 243.653 128.483 243.345 128.353C243.048 128.229 242.804 128.103 242.612 127.976C242.422 127.849 242.281 127.699 242.188 127.527C242.098 127.352 242.052 127.13 242.052 126.861C242.052 126.423 242.222 126.094 242.561 125.874C242.903 125.651 243.359 125.539 243.93 125.539C244.223 125.539 244.503 125.569 244.769 125.628C245.037 125.688 245.313 125.782 245.595 125.912L245.205 126.844C244.971 126.743 244.749 126.659 244.54 126.594C244.334 126.529 244.123 126.497 243.908 126.497C243.719 126.497 243.577 126.522 243.48 126.573C243.384 126.624 243.336 126.702 243.336 126.806C243.336 126.883 243.36 126.95 243.408 127.01C243.459 127.069 243.555 127.135 243.697 127.209C243.841 127.279 244.051 127.371 244.328 127.484C244.596 127.594 244.829 127.71 245.027 127.832C245.225 127.95 245.378 128.099 245.485 128.277C245.592 128.452 245.646 128.679 245.646 128.959ZM250.816 124.17C251.378 124.17 251.842 124.238 252.206 124.374C252.573 124.509 252.846 124.714 253.024 124.988C253.202 125.262 253.291 125.608 253.291 126.027C253.291 126.309 253.237 126.556 253.13 126.768C253.022 126.98 252.881 127.159 252.706 127.306C252.531 127.453 252.342 127.573 252.138 127.667L253.96 130.366H252.503L251.024 127.989H250.324V130.366H249.011V124.17H250.816ZM250.723 125.247H250.324V126.921H250.748C251.183 126.921 251.494 126.849 251.681 126.705C251.87 126.558 251.964 126.343 251.964 126.06C251.964 125.767 251.863 125.558 251.659 125.433C251.459 125.309 251.147 125.247 250.723 125.247ZM256.579 125.531C257.215 125.531 257.702 125.669 258.041 125.946C258.38 126.223 258.55 126.644 258.55 127.209V130.366H257.647L257.397 129.722H257.363C257.228 129.891 257.089 130.03 256.948 130.137C256.807 130.245 256.644 130.324 256.461 130.374C256.277 130.425 256.054 130.451 255.791 130.451C255.511 130.451 255.26 130.397 255.037 130.29C254.816 130.182 254.643 130.019 254.516 129.798C254.388 129.575 254.325 129.292 254.325 128.951C254.325 128.448 254.501 128.078 254.855 127.84C255.208 127.6 255.737 127.467 256.444 127.442L257.266 127.417V127.209C257.266 126.96 257.201 126.778 257.071 126.662C256.941 126.546 256.76 126.488 256.529 126.488C256.3 126.488 256.075 126.521 255.855 126.586C255.634 126.651 255.414 126.733 255.194 126.832L254.766 125.959C255.017 125.826 255.298 125.721 255.609 125.645C255.923 125.569 256.246 125.531 256.579 125.531ZM257.266 128.171L256.766 128.188C256.348 128.199 256.057 128.274 255.893 128.412C255.732 128.551 255.651 128.733 255.651 128.959C255.651 129.157 255.709 129.298 255.825 129.383C255.941 129.465 256.092 129.506 256.279 129.506C256.555 129.506 256.788 129.424 256.978 129.26C257.17 129.096 257.266 128.863 257.266 128.561V128.171ZM261.881 129.421C262.022 129.421 262.159 129.407 262.292 129.379C262.428 129.35 262.562 129.315 262.694 129.273V130.235C262.556 130.297 262.384 130.348 262.177 130.387C261.974 130.43 261.751 130.451 261.508 130.451C261.225 130.451 260.971 130.406 260.745 130.315C260.522 130.222 260.345 130.062 260.215 129.836C260.088 129.607 260.025 129.29 260.025 128.883V126.599H259.406V126.052L260.118 125.62L260.491 124.62H261.317V125.628H262.644V126.599H261.317V128.883C261.317 129.064 261.368 129.199 261.47 129.29C261.574 129.377 261.711 129.421 261.881 129.421ZM264.949 125.628V130.366H263.656V125.628H264.949ZM264.305 123.772C264.497 123.772 264.662 123.817 264.801 123.908C264.939 123.995 265.008 124.16 265.008 124.403C265.008 124.644 264.939 124.81 264.801 124.904C264.662 124.994 264.497 125.039 264.305 125.039C264.11 125.039 263.943 124.994 263.805 124.904C263.669 124.81 263.601 124.644 263.601 124.403C263.601 124.16 263.669 123.995 263.805 123.908C263.943 123.817 264.11 123.772 264.305 123.772ZM269 125.539C269.506 125.539 269.913 125.678 270.221 125.954C270.529 126.229 270.683 126.669 270.683 127.277V130.366H269.39V127.599C269.39 127.26 269.328 127.004 269.204 126.832C269.082 126.659 268.89 126.573 268.627 126.573C268.232 126.573 267.962 126.707 267.818 126.976C267.674 127.244 267.602 127.631 267.602 128.137V130.366H266.309V125.628H267.297L267.47 126.234H267.542C267.644 126.07 267.77 125.938 267.92 125.836C268.072 125.734 268.24 125.659 268.424 125.611C268.61 125.563 268.803 125.539 269 125.539ZM273.399 132.451C272.738 132.451 272.232 132.335 271.882 132.103C271.534 131.875 271.361 131.553 271.361 131.137C271.361 130.852 271.45 130.613 271.628 130.421C271.806 130.229 272.067 130.092 272.412 130.01C272.279 129.954 272.163 129.862 272.064 129.735C271.965 129.605 271.916 129.468 271.916 129.324C271.916 129.143 271.968 128.993 272.073 128.874C272.177 128.753 272.328 128.634 272.526 128.518C272.277 128.411 272.08 128.239 271.933 128.001C271.789 127.764 271.717 127.484 271.717 127.162C271.717 126.818 271.792 126.525 271.941 126.285C272.094 126.042 272.314 125.857 272.602 125.73C272.893 125.603 273.247 125.539 273.662 125.539C273.749 125.539 273.851 125.545 273.967 125.556C274.083 125.567 274.189 125.58 274.285 125.594C274.384 125.608 274.45 125.62 274.484 125.628H276.137V126.285L275.395 126.476C275.463 126.58 275.514 126.692 275.548 126.811C275.582 126.929 275.598 127.055 275.598 127.188C275.598 127.696 275.421 128.093 275.065 128.378C274.711 128.661 274.22 128.802 273.59 128.802C273.44 128.794 273.299 128.782 273.166 128.768C273.101 128.819 273.052 128.873 273.018 128.929C272.984 128.986 272.967 129.045 272.967 129.107C272.967 129.17 272.992 129.222 273.043 129.264C273.097 129.304 273.176 129.335 273.28 129.357C273.388 129.377 273.521 129.387 273.679 129.387H274.484C275.004 129.387 275.399 129.499 275.671 129.722C275.945 129.945 276.082 130.273 276.082 130.705C276.082 131.259 275.85 131.688 275.387 131.993C274.926 132.298 274.264 132.451 273.399 132.451ZM273.454 131.608C273.762 131.608 274.026 131.578 274.247 131.519C274.47 131.462 274.641 131.38 274.759 131.273C274.878 131.168 274.937 131.043 274.937 130.896C274.937 130.777 274.902 130.682 274.831 130.612C274.764 130.544 274.659 130.496 274.518 130.468C274.379 130.439 274.201 130.425 273.984 130.425H273.314C273.156 130.425 273.013 130.451 272.886 130.502C272.762 130.552 272.663 130.623 272.59 130.713C272.516 130.807 272.479 130.914 272.479 131.036C272.479 131.214 272.564 131.353 272.734 131.455C272.906 131.557 273.146 131.608 273.454 131.608ZM273.662 128.014C273.905 128.014 274.083 127.939 274.196 127.789C274.309 127.64 274.365 127.436 274.365 127.179C274.365 126.894 274.306 126.681 274.187 126.539C274.071 126.395 273.896 126.323 273.662 126.323C273.425 126.323 273.247 126.395 273.128 126.539C273.009 126.681 272.95 126.894 272.95 127.179C272.95 127.436 273.008 127.64 273.124 127.789C273.242 127.939 273.422 128.014 273.662 128.014Z" fill="#17375E"/>
    <rect x="302.444" y="10.8487" width="120.285" height="132.083" rx="4.06826" fill="#FAFBFC"/>
    <rect x="302.444" y="10.8487" width="120.285" height="132.083" rx="4.06826" stroke="#DFE2E6" stroke-width="0.542434"/>
    <line x1="308.343" y1="106.902" x2="416.83" y2="106.902" stroke="black" stroke-width="0.542434"/>
    <line y1="-0.271217" x2="132.99" y2="-0.271217" transform="matrix(0.78888 -0.614547 0.764895 0.644155 311.718 106.598)" stroke="#575D66" stroke-width="0.542434"/>
    <path d="M416.631 25.2323C416.631 59.2044 350.263 106.42 311.718 106.42" stroke="#2A7FEF" stroke-width="1.08487" stroke-linecap="round"/>
    <line x1="416.882" y1="20.0457" x2="416.882" y2="106.835" stroke="black" stroke-width="0.542434"/>
    <path d="M328.934 123.996C329.734 123.996 330.317 124.169 330.685 124.513C331.052 124.855 331.236 125.327 331.236 125.929C331.236 126.2 331.195 126.46 331.113 126.708C331.031 126.954 330.896 127.173 330.71 127.365C330.526 127.557 330.281 127.71 329.973 127.823C329.665 127.933 329.285 127.988 328.833 127.988H328.269V130.192H326.955V123.996H328.934ZM328.867 125.073H328.269V126.912H328.701C328.947 126.912 329.16 126.879 329.341 126.814C329.522 126.749 329.662 126.648 329.761 126.509C329.86 126.371 329.909 126.193 329.909 125.975C329.909 125.67 329.824 125.444 329.655 125.297C329.485 125.148 329.223 125.073 328.867 125.073ZM334.244 125.357C334.88 125.357 335.367 125.495 335.706 125.772C336.045 126.049 336.215 126.47 336.215 127.035V130.192H335.312L335.062 129.548H335.028C334.893 129.717 334.754 129.856 334.613 129.963C334.472 130.07 334.309 130.15 334.126 130.2C333.942 130.251 333.719 130.277 333.456 130.277C333.176 130.277 332.925 130.223 332.702 130.116C332.481 130.008 332.308 129.844 332.181 129.624C332.053 129.401 331.99 129.118 331.99 128.777C331.99 128.274 332.166 127.904 332.52 127.666C332.873 127.426 333.402 127.293 334.109 127.268L334.931 127.242V127.035C334.931 126.786 334.866 126.604 334.736 126.488C334.606 126.372 334.425 126.314 334.193 126.314C333.965 126.314 333.74 126.347 333.52 126.412C333.299 126.477 333.079 126.559 332.859 126.658L332.431 125.785C332.682 125.652 332.963 125.547 333.274 125.471C333.587 125.395 333.911 125.357 334.244 125.357ZM334.931 127.997L334.431 128.014C334.013 128.025 333.722 128.1 333.558 128.238C333.397 128.377 333.316 128.559 333.316 128.785C333.316 128.983 333.374 129.124 333.49 129.209C333.606 129.291 333.757 129.332 333.943 129.332C334.22 129.332 334.453 129.25 334.643 129.086C334.835 128.922 334.931 128.689 334.931 128.387V127.997ZM336.872 125.454H338.287L339.181 128.12C339.21 128.204 339.234 128.291 339.253 128.378C339.273 128.466 339.29 128.556 339.304 128.649C339.318 128.743 339.33 128.84 339.338 128.942H339.364C339.381 128.789 339.403 128.647 339.431 128.514C339.462 128.381 339.501 128.25 339.546 128.12L340.423 125.454H341.809L339.804 130.798C339.683 131.126 339.525 131.398 339.33 131.616C339.135 131.836 338.91 132.001 338.656 132.112C338.404 132.222 338.128 132.277 337.825 132.277C337.678 132.277 337.551 132.268 337.444 132.251C337.336 132.237 337.245 132.222 337.168 132.205V131.179C337.228 131.193 337.303 131.206 337.393 131.217C337.483 131.229 337.578 131.234 337.677 131.234C337.858 131.234 338.013 131.196 338.143 131.12C338.273 131.044 338.382 130.941 338.469 130.811C338.557 130.684 338.626 130.544 338.677 130.391L338.753 130.158L336.872 125.454ZM348.415 130.192H344.847V123.996H348.415V125.073H346.161V126.433H348.259V127.509H346.161V129.107H348.415V130.192ZM352.454 132.277V130.289C352.454 130.171 352.458 130.052 352.467 129.933C352.478 129.812 352.492 129.693 352.509 129.577H352.454C352.333 129.772 352.164 129.938 351.95 130.073C351.738 130.209 351.458 130.277 351.111 130.277C350.577 130.277 350.144 130.07 349.814 129.658C349.486 129.243 349.322 128.634 349.322 127.831C349.322 127.292 349.399 126.84 349.551 126.475C349.704 126.108 349.916 125.831 350.187 125.645C350.461 125.458 350.777 125.365 351.136 125.365C351.484 125.365 351.765 125.433 351.979 125.569C352.197 125.701 352.373 125.865 352.509 126.06H352.543L352.657 125.454H353.751V132.277H352.454ZM351.573 129.264C351.81 129.264 351.998 129.217 352.136 129.124C352.277 129.031 352.379 128.891 352.441 128.704C352.503 128.515 352.537 128.279 352.543 127.997V127.84C352.543 127.379 352.472 127.028 352.331 126.785C352.19 126.539 351.93 126.416 351.551 126.416C351.243 126.416 351.015 126.539 350.865 126.785C350.715 127.031 350.64 127.385 350.64 127.848C350.64 128.32 350.717 128.675 350.869 128.912C351.022 129.147 351.256 129.264 351.573 129.264ZM359.451 125.454V130.192H358.459L358.285 129.586H358.217C358.116 129.747 357.989 129.878 357.836 129.98C357.683 130.082 357.515 130.157 357.332 130.205C357.148 130.253 356.957 130.277 356.76 130.277C356.421 130.277 356.125 130.217 355.874 130.099C355.622 129.977 355.426 129.789 355.285 129.535C355.146 129.281 355.077 128.95 355.077 128.543V125.454H356.37V128.221C356.37 128.56 356.43 128.816 356.552 128.988C356.673 129.161 356.867 129.247 357.133 129.247C357.395 129.247 357.601 129.188 357.751 129.069C357.901 128.947 358.005 128.771 358.065 128.539C358.127 128.305 358.158 128.019 358.158 127.683V125.454H359.451ZM362.099 125.454V130.192H360.807V125.454H362.099ZM361.455 123.598C361.647 123.598 361.812 123.643 361.951 123.734C362.089 123.821 362.158 123.986 362.158 124.229C362.158 124.47 362.089 124.636 361.951 124.729C361.812 124.82 361.647 124.865 361.455 124.865C361.26 124.865 361.093 124.82 360.955 124.729C360.819 124.636 360.752 124.47 360.752 124.229C360.752 123.986 360.819 123.821 360.955 123.734C361.093 123.643 361.26 123.598 361.455 123.598ZM365.455 129.247C365.597 129.247 365.734 129.233 365.867 129.205C366.002 129.176 366.136 129.141 366.269 129.099V130.061C366.131 130.123 365.958 130.174 365.752 130.213C365.549 130.255 365.326 130.277 365.083 130.277C364.8 130.277 364.546 130.231 364.32 130.141C364.097 130.048 363.92 129.888 363.79 129.662C363.663 129.433 363.599 129.116 363.599 128.709V126.425H362.981V125.878L363.693 125.446L364.065 124.446H364.892V125.454H366.218V126.425H364.892V128.709C364.892 128.89 364.943 129.025 365.044 129.116C365.149 129.203 365.286 129.247 365.455 129.247ZM366.553 125.454H367.968L368.863 128.12C368.891 128.204 368.915 128.291 368.935 128.378C368.954 128.466 368.971 128.556 368.986 128.649C369 128.743 369.011 128.84 369.019 128.942H369.045C369.062 128.789 369.084 128.647 369.113 128.514C369.144 128.381 369.182 128.25 369.227 128.12L370.104 125.454H371.49L369.486 130.798C369.364 131.126 369.206 131.398 369.011 131.616C368.816 131.836 368.591 132.001 368.337 132.112C368.086 132.222 367.809 132.277 367.507 132.277C367.36 132.277 367.233 132.268 367.125 132.251C367.018 132.237 366.926 132.222 366.85 132.205V131.179C366.909 131.193 366.984 131.206 367.074 131.217C367.165 131.229 367.259 131.234 367.358 131.234C367.539 131.234 367.694 131.196 367.824 131.12C367.954 131.044 368.063 130.941 368.151 130.811C368.238 130.684 368.307 130.544 368.358 130.391L368.435 130.158L366.553 125.454ZM377.16 125.001C376.909 125.001 376.686 125.05 376.491 125.149C376.299 125.245 376.136 125.385 376.003 125.569C375.873 125.752 375.774 125.974 375.707 126.234C375.639 126.494 375.605 126.786 375.605 127.111C375.605 127.549 375.659 127.923 375.766 128.234C375.876 128.542 376.046 128.778 376.274 128.942C376.503 129.103 376.799 129.183 377.16 129.183C377.412 129.183 377.663 129.155 377.915 129.099C378.169 129.042 378.444 128.962 378.741 128.857V129.959C378.467 130.072 378.197 130.152 377.931 130.2C377.666 130.251 377.368 130.277 377.037 130.277C376.399 130.277 375.873 130.145 375.461 129.883C375.051 129.617 374.747 129.247 374.55 128.772C374.352 128.295 374.253 127.738 374.253 127.103C374.253 126.634 374.317 126.204 374.444 125.814C374.571 125.424 374.757 125.087 375.003 124.801C375.249 124.516 375.553 124.296 375.914 124.14C376.276 123.985 376.691 123.907 377.16 123.907C377.468 123.907 377.776 123.947 378.084 124.026C378.395 124.102 378.691 124.208 378.974 124.344L378.55 125.412C378.319 125.302 378.085 125.205 377.851 125.124C377.616 125.042 377.386 125.001 377.16 125.001ZM384.309 125.454V130.192H383.318L383.144 129.586H383.076C382.974 129.747 382.847 129.878 382.695 129.98C382.542 130.082 382.374 130.157 382.19 130.205C382.007 130.253 381.816 130.277 381.618 130.277C381.279 130.277 380.984 130.217 380.733 130.099C380.481 129.977 380.285 129.789 380.144 129.535C380.005 129.281 379.936 128.95 379.936 128.543V125.454H381.228V128.221C381.228 128.56 381.289 128.816 381.411 128.988C381.532 129.161 381.726 129.247 381.991 129.247C382.254 129.247 382.46 129.188 382.61 129.069C382.76 128.947 382.864 128.771 382.924 128.539C382.986 128.305 383.017 128.019 383.017 127.683V125.454H384.309ZM388.31 125.365C388.375 125.365 388.45 125.369 388.534 125.378C388.622 125.383 388.693 125.392 388.746 125.403L388.649 126.615C388.606 126.601 388.546 126.591 388.467 126.586C388.39 126.577 388.324 126.573 388.267 126.573C388.101 126.573 387.938 126.594 387.78 126.636C387.625 126.679 387.485 126.748 387.36 126.844C387.236 126.937 387.137 127.062 387.064 127.217C386.993 127.37 386.958 127.557 386.958 127.781V130.192H385.665V125.454H386.644L386.835 126.251H386.899C386.992 126.09 387.108 125.943 387.246 125.81C387.387 125.674 387.547 125.567 387.725 125.488C387.906 125.406 388.101 125.365 388.31 125.365ZM390.734 130.192L388.928 125.454H390.28L391.196 128.154C391.247 128.312 391.286 128.478 391.314 128.654C391.345 128.829 391.367 128.986 391.378 129.124H391.412C391.42 128.974 391.44 128.815 391.471 128.645C391.505 128.476 391.549 128.312 391.602 128.154L392.514 125.454H393.865L392.06 130.192H390.734ZM396.501 125.365C396.939 125.365 397.316 125.45 397.633 125.619C397.949 125.786 398.194 126.029 398.366 126.348C398.538 126.668 398.624 127.057 398.624 127.518V128.145H395.569C395.583 128.51 395.692 128.796 395.895 129.005C396.102 129.212 396.387 129.315 396.751 129.315C397.054 129.315 397.331 129.284 397.582 129.221C397.833 129.159 398.092 129.066 398.357 128.942V129.942C398.123 130.058 397.877 130.142 397.62 130.196C397.366 130.25 397.056 130.277 396.692 130.277C396.217 130.277 395.796 130.189 395.429 130.014C395.065 129.839 394.778 129.572 394.569 129.213C394.363 128.854 394.26 128.402 394.26 127.857C394.26 127.303 394.353 126.843 394.539 126.475C394.729 126.105 394.991 125.828 395.327 125.645C395.664 125.458 396.055 125.365 396.501 125.365ZM396.51 126.285C396.258 126.285 396.049 126.365 395.883 126.526C395.719 126.687 395.624 126.94 395.599 127.285H397.412C397.41 127.093 397.374 126.922 397.307 126.772C397.242 126.622 397.143 126.504 397.01 126.416C396.88 126.328 396.713 126.285 396.51 126.285Z" fill="#17375E"/>
    <rect x="178.598" y="153.928" width="116.576" height="132.232" rx="3.9428" fill="#FAFBFC"/>
    <rect x="178.598" y="153.928" width="116.576" height="132.232" rx="3.9428" stroke="#DFE2E6" stroke-width="0.525707"/>
    <path d="M224.543 206.325C224.543 207.562 224.458 208.754 224.289 209.902C224.129 211.05 223.858 212.109 223.475 213.079C223.101 214.04 222.603 214.881 221.98 215.602C221.357 216.323 220.592 216.883 219.684 217.284C218.776 217.684 217.7 217.884 216.454 217.884C215.973 217.884 215.502 217.862 215.039 217.818C214.576 217.782 214.118 217.724 213.664 217.644V213.787C214.029 213.884 214.407 213.956 214.799 214C215.199 214.045 215.604 214.067 216.013 214.067C216.957 214.067 217.74 213.889 218.363 213.533C218.986 213.168 219.457 212.603 219.778 211.838C220.098 211.064 220.276 210.067 220.311 208.848H220.178C219.964 209.346 219.711 209.764 219.417 210.102C219.123 210.441 218.785 210.694 218.403 210.863C218.02 211.032 217.588 211.117 217.108 211.117C216.182 211.117 215.39 210.863 214.732 210.356C214.073 209.84 213.571 209.106 213.224 208.154C212.877 207.202 212.703 206.071 212.703 204.763C212.703 203.339 212.93 202.111 213.384 201.079C213.847 200.038 214.505 199.237 215.359 198.677C216.223 198.107 217.255 197.822 218.456 197.822C219.399 197.822 220.245 198.014 220.992 198.396C221.74 198.779 222.376 199.34 222.901 200.078C223.435 200.808 223.84 201.698 224.116 202.748C224.4 203.798 224.543 204.99 224.543 206.325ZM218.536 201.76C218.154 201.76 217.838 201.996 217.588 202.467C217.339 202.939 217.215 203.678 217.215 204.683C217.215 205.546 217.322 206.196 217.535 206.632C217.758 207.068 218.082 207.286 218.509 207.286C218.865 207.286 219.146 207.157 219.35 206.899C219.555 206.632 219.702 206.321 219.791 205.965C219.88 205.6 219.924 205.275 219.924 204.99C219.924 204.768 219.911 204.479 219.884 204.123C219.858 203.767 219.795 203.411 219.697 203.055C219.608 202.69 219.471 202.383 219.284 202.134C219.097 201.885 218.848 201.76 218.536 201.76ZM237.998 207.887C237.998 209.293 237.909 210.605 237.731 211.824C237.562 213.035 237.259 214.094 236.823 215.001C236.396 215.909 235.804 216.616 235.048 217.124C234.3 217.631 233.344 217.884 232.178 217.884C230.896 217.884 229.824 217.511 228.961 216.763C228.107 216.016 227.462 214.903 227.026 213.426C226.598 211.94 226.385 210.094 226.385 207.887C226.385 205.573 226.594 203.673 227.012 202.187C227.43 200.701 228.067 199.602 228.921 198.89C229.784 198.178 230.87 197.822 232.178 197.822C233.468 197.822 234.54 198.2 235.395 198.957C236.258 199.704 236.908 200.826 237.344 202.321C237.78 203.807 237.998 205.662 237.998 207.887ZM230.95 207.887C230.95 209.275 230.981 210.409 231.043 211.29C231.106 212.171 231.221 212.821 231.39 213.239C231.568 213.658 231.831 213.867 232.178 213.867C232.534 213.867 232.801 213.658 232.979 213.239C233.157 212.821 233.277 212.171 233.339 211.29C233.401 210.409 233.433 209.275 233.433 207.887C233.433 206.534 233.401 205.413 233.339 204.523C233.277 203.624 233.157 202.952 232.979 202.507C232.801 202.063 232.534 201.84 232.178 201.84C231.849 201.84 231.595 202.063 231.417 202.507C231.239 202.952 231.114 203.624 231.043 204.523C230.981 205.413 230.95 206.534 230.95 207.887ZM243.911 197.822C245.237 197.822 246.296 198.374 247.088 199.477C247.88 200.581 248.276 202.063 248.276 203.922C248.276 205.88 247.897 207.397 247.141 208.474C246.385 209.542 245.308 210.076 243.911 210.076C242.585 210.076 241.535 209.52 240.761 208.407C239.995 207.295 239.613 205.8 239.613 203.922C239.613 201.965 239.991 200.461 240.747 199.411C241.504 198.352 242.558 197.822 243.911 197.822ZM243.964 200.892C243.653 200.892 243.412 201.146 243.243 201.653C243.083 202.16 243.003 202.935 243.003 203.976C243.003 205.044 243.083 205.827 243.243 206.325C243.412 206.814 243.653 207.059 243.964 207.059C244.276 207.059 244.507 206.814 244.658 206.325C244.81 205.836 244.885 205.052 244.885 203.976C244.885 202.908 244.81 202.129 244.658 201.64C244.507 201.142 244.276 200.892 243.964 200.892ZM256.044 198.103L248.035 217.617H244.752L252.761 198.103H256.044ZM256.885 205.591C258.211 205.591 259.265 206.143 260.049 207.246C260.841 208.349 261.237 209.831 261.237 211.691C261.237 213.64 260.854 215.152 260.089 216.229C259.332 217.297 258.264 217.831 256.885 217.831C255.55 217.831 254.5 217.275 253.735 216.162C252.979 215.05 252.6 213.56 252.6 211.691C252.6 209.733 252.974 208.229 253.722 207.179C254.469 206.12 255.524 205.591 256.885 205.591ZM256.925 208.648C256.605 208.648 256.369 208.906 256.218 209.422C256.066 209.929 255.991 210.703 255.991 211.744C255.991 212.803 256.066 213.582 256.218 214.08C256.369 214.579 256.605 214.828 256.925 214.828C257.281 214.828 257.521 214.547 257.646 213.987C257.779 213.417 257.846 212.67 257.846 211.744C257.846 210.81 257.779 210.062 257.646 209.502C257.521 208.932 257.281 208.648 256.925 208.648Z" fill="#2A7FEF"/>
    <path d="M278.942 207.235C278.942 230.462 260.113 249.292 236.886 249.292C213.659 249.292 194.829 230.462 194.829 207.235C194.829 184.008 213.659 165.179 236.886 165.179C260.113 165.179 278.942 184.008 278.942 207.235ZM200.637 207.235C200.637 227.255 216.866 243.485 236.886 243.485C256.906 243.485 273.135 227.255 273.135 207.235C273.135 187.215 256.906 170.986 236.886 170.986C216.866 170.986 200.637 187.215 200.637 207.235Z" fill="#D7EAFC"/>
    <path d="M236.886 168.082C236.886 166.479 238.188 165.168 239.787 165.279C248.758 165.899 257.323 169.382 264.199 175.255C271.814 181.759 276.858 190.766 278.425 200.656C279.991 210.547 277.977 220.672 272.745 229.21C267.513 237.748 259.406 244.139 249.882 247.233C240.358 250.328 230.043 249.923 220.792 246.09C211.54 242.258 203.959 235.251 199.413 226.328C194.867 217.406 193.654 207.154 195.991 197.417C198.102 188.624 202.984 180.772 209.877 174.997C211.107 173.967 212.93 174.262 213.872 175.56C214.815 176.857 214.518 178.665 213.301 179.708C207.521 184.66 203.426 191.325 201.638 198.773C199.623 207.166 200.669 216.002 204.587 223.692C208.506 231.382 215.04 237.422 223.014 240.725C230.988 244.028 239.879 244.378 248.088 241.71C256.296 239.043 263.284 233.535 267.794 226.175C272.303 218.816 274.039 210.089 272.689 201.565C271.339 193.04 266.991 185.276 260.428 179.671C254.603 174.696 247.373 171.711 239.787 171.102C238.188 170.974 236.886 169.686 236.886 168.082Z" fill="#17375E"/>
    <path d="M212.457 265.904C213.002 265.904 213.451 265.97 213.804 266.101C214.16 266.233 214.424 266.431 214.597 266.697C214.769 266.962 214.855 267.298 214.855 267.703C214.855 267.977 214.803 268.216 214.699 268.422C214.595 268.627 214.458 268.801 214.289 268.943C214.119 269.086 213.935 269.202 213.738 269.293L215.504 271.909H214.091L212.658 269.605H211.98V271.909H210.707V265.904H212.457ZM212.366 266.947H211.98V268.57H212.391C212.813 268.57 213.114 268.5 213.295 268.36C213.478 268.218 213.57 268.01 213.57 267.736C213.57 267.451 213.471 267.249 213.274 267.128C213.08 267.008 212.777 266.947 212.366 266.947ZM218.042 267.223C218.658 267.223 219.131 267.357 219.459 267.625C219.788 267.893 219.952 268.301 219.952 268.849V271.909H219.077L218.835 271.284H218.802C218.671 271.449 218.537 271.583 218.4 271.687C218.263 271.791 218.105 271.868 217.927 271.917C217.749 271.966 217.533 271.991 217.279 271.991C217.007 271.991 216.764 271.939 216.547 271.835C216.334 271.731 216.165 271.572 216.042 271.358C215.919 271.142 215.857 270.868 215.857 270.537C215.857 270.05 216.029 269.691 216.371 269.461C216.713 269.228 217.226 269.1 217.911 269.075L218.708 269.05V268.849C218.708 268.608 218.645 268.431 218.519 268.319C218.393 268.207 218.218 268.151 217.993 268.151C217.771 268.151 217.554 268.182 217.34 268.245C217.127 268.308 216.913 268.388 216.699 268.483L216.285 267.637C216.528 267.509 216.801 267.407 217.102 267.333C217.406 267.26 217.719 267.223 218.042 267.223ZM218.708 269.781L218.223 269.798C217.818 269.809 217.536 269.881 217.377 270.015C217.221 270.15 217.143 270.326 217.143 270.545C217.143 270.737 217.199 270.874 217.311 270.956C217.424 271.035 217.57 271.075 217.751 271.075C218.019 271.075 218.245 270.996 218.428 270.837C218.615 270.678 218.708 270.452 218.708 270.159V269.781ZM225.02 271.909L224.667 270.303C224.648 270.207 224.617 270.066 224.573 269.88C224.529 269.691 224.481 269.49 224.429 269.276C224.38 269.06 224.333 268.86 224.289 268.676C224.248 268.493 224.218 268.359 224.199 268.274H224.162C224.143 268.359 224.113 268.493 224.072 268.676C224.031 268.86 223.984 269.06 223.932 269.276C223.883 269.492 223.836 269.696 223.792 269.888C223.749 270.077 223.716 270.221 223.694 270.319L223.324 271.909H221.977L220.671 267.317H221.92L222.449 269.35C222.485 269.492 222.519 269.662 222.552 269.859C222.585 270.054 222.614 270.243 222.638 270.426C222.666 270.607 222.686 270.751 222.7 270.857H222.733C222.738 270.778 222.749 270.673 222.766 270.541C222.785 270.41 222.805 270.274 222.827 270.134C222.852 269.992 222.874 269.865 222.893 269.753C222.915 269.638 222.931 269.559 222.942 269.518L223.509 267.317H224.889L225.427 269.518C225.446 269.598 225.471 269.724 225.501 269.896C225.534 270.069 225.563 270.247 225.587 270.43C225.612 270.611 225.625 270.753 225.628 270.857H225.661C225.672 270.764 225.691 270.626 225.719 270.443C225.746 270.259 225.777 270.067 225.813 269.868C225.851 269.665 225.89 269.492 225.928 269.35L226.478 267.317H227.706L226.384 271.909H225.02ZM232.651 265.904C233.426 265.904 233.992 266.071 234.348 266.405C234.704 266.737 234.881 267.194 234.881 267.777C234.881 268.04 234.842 268.292 234.762 268.533C234.683 268.771 234.553 268.983 234.372 269.169C234.194 269.356 233.956 269.503 233.658 269.613C233.359 269.72 232.991 269.773 232.553 269.773H232.007V271.909H230.733V265.904H232.651ZM232.586 266.947H232.007V268.73H232.425C232.664 268.73 232.87 268.698 233.046 268.635C233.221 268.572 233.356 268.474 233.452 268.34C233.548 268.206 233.596 268.033 233.596 267.822C233.596 267.526 233.514 267.307 233.35 267.165C233.185 267.02 232.931 266.947 232.586 266.947ZM237.798 267.223C238.414 267.223 238.886 267.357 239.214 267.625C239.543 267.893 239.707 268.301 239.707 268.849V271.909H238.833L238.59 271.284H238.557C238.426 271.449 238.292 271.583 238.155 271.687C238.018 271.791 237.86 271.868 237.683 271.917C237.505 271.966 237.288 271.991 237.034 271.991C236.763 271.991 236.519 271.939 236.303 271.835C236.089 271.731 235.921 271.572 235.797 271.358C235.674 271.142 235.613 270.868 235.613 270.537C235.613 270.05 235.784 269.691 236.126 269.461C236.468 269.228 236.982 269.1 237.666 269.075L238.463 269.05V268.849C238.463 268.608 238.4 268.431 238.274 268.319C238.148 268.207 237.973 268.151 237.748 268.151C237.526 268.151 237.309 268.182 237.095 268.245C236.882 268.308 236.668 268.388 236.454 268.483L236.04 267.637C236.283 267.509 236.556 267.407 236.857 267.333C237.161 267.26 237.474 267.223 237.798 267.223ZM238.463 269.781L237.978 269.798C237.573 269.809 237.291 269.881 237.132 270.015C236.976 270.15 236.898 270.326 236.898 270.545C236.898 270.737 236.954 270.874 237.066 270.956C237.179 271.035 237.325 271.075 237.506 271.075C237.774 271.075 238 270.996 238.184 270.837C238.37 270.678 238.463 270.452 238.463 270.159V269.781ZM240.344 267.317H241.716L242.582 269.9C242.61 269.983 242.633 270.066 242.652 270.151C242.671 270.236 242.688 270.323 242.701 270.414C242.715 270.504 242.726 270.599 242.734 270.697H242.759C242.775 270.549 242.797 270.411 242.825 270.282C242.855 270.154 242.892 270.026 242.935 269.9L243.786 267.317H245.129L243.186 272.496C243.068 272.814 242.915 273.078 242.726 273.289C242.537 273.502 242.319 273.662 242.073 273.769C241.829 273.876 241.561 273.929 241.268 273.929C241.126 273.929 241.002 273.921 240.898 273.905C240.794 273.891 240.705 273.876 240.631 273.86V272.866C240.689 272.879 240.761 272.892 240.849 272.903C240.937 272.914 241.028 272.919 241.124 272.919C241.299 272.919 241.45 272.882 241.576 272.808C241.702 272.734 241.807 272.634 241.892 272.508C241.977 272.385 242.044 272.25 242.094 272.102L242.167 271.876L240.344 267.317ZM250.353 268.537H252.735V271.65C252.42 271.754 252.093 271.838 251.753 271.901C251.414 271.961 251.029 271.991 250.599 271.991C250.002 271.991 249.496 271.873 249.08 271.638C248.663 271.402 248.347 271.054 248.131 270.594C247.915 270.134 247.806 269.569 247.806 268.898C247.806 268.269 247.927 267.724 248.168 267.264C248.412 266.804 248.766 266.448 249.232 266.196C249.7 265.944 250.271 265.818 250.944 265.818C251.262 265.818 251.575 265.852 251.885 265.921C252.194 265.989 252.475 266.078 252.727 266.188L252.304 267.206C252.12 267.113 251.911 267.035 251.675 266.972C251.44 266.909 251.193 266.878 250.936 266.878C250.566 266.878 250.245 266.962 249.971 267.132C249.7 267.302 249.489 267.54 249.338 267.847C249.191 268.151 249.117 268.509 249.117 268.923C249.117 269.314 249.17 269.662 249.277 269.966C249.384 270.267 249.552 270.504 249.782 270.677C250.012 270.846 250.312 270.931 250.681 270.931C250.862 270.931 251.014 270.923 251.137 270.907C251.263 270.887 251.381 270.868 251.491 270.849V269.596H250.353V268.537ZM255.951 267.223C256.567 267.223 257.039 267.357 257.368 267.625C257.696 267.893 257.861 268.301 257.861 268.849V271.909H256.986L256.744 271.284H256.711C256.579 271.449 256.445 271.583 256.308 271.687C256.171 271.791 256.014 271.868 255.836 271.917C255.658 271.966 255.442 271.991 255.187 271.991C254.916 271.991 254.672 271.939 254.456 271.835C254.242 271.731 254.074 271.572 253.951 271.358C253.827 271.142 253.766 270.868 253.766 270.537C253.766 270.05 253.937 269.691 254.279 269.461C254.622 269.228 255.135 269.1 255.819 269.075L256.616 269.05V268.849C256.616 268.608 256.553 268.431 256.427 268.319C256.301 268.207 256.126 268.151 255.902 268.151C255.68 268.151 255.462 268.182 255.249 268.245C255.035 268.308 254.821 268.388 254.608 268.483L254.193 267.637C254.437 267.509 254.709 267.407 255.01 267.333C255.314 267.26 255.628 267.223 255.951 267.223ZM256.616 269.781L256.132 269.798C255.726 269.809 255.444 269.881 255.285 270.015C255.129 270.15 255.051 270.326 255.051 270.545C255.051 270.737 255.108 270.874 255.22 270.956C255.332 271.035 255.479 271.075 255.659 271.075C255.928 271.075 256.153 270.996 256.337 270.837C256.523 270.678 256.616 270.452 256.616 270.159V269.781ZM261.709 267.231C262.226 267.231 262.644 267.432 262.962 267.835C263.282 268.237 263.442 268.827 263.442 269.605C263.442 270.125 263.367 270.563 263.216 270.919C263.066 271.272 262.858 271.539 262.592 271.72C262.326 271.901 262.021 271.991 261.676 271.991C261.454 271.991 261.264 271.964 261.105 271.909C260.946 271.851 260.811 271.779 260.699 271.691C260.586 271.601 260.489 271.505 260.407 271.404H260.341C260.363 271.513 260.38 271.625 260.391 271.74C260.402 271.855 260.407 271.968 260.407 272.077V273.929H259.154V267.317H260.173L260.35 267.913H260.407C260.489 267.789 260.589 267.676 260.707 267.572C260.825 267.468 260.966 267.385 261.13 267.325C261.297 267.262 261.49 267.231 261.709 267.231ZM261.306 268.233C261.087 268.233 260.914 268.278 260.785 268.368C260.656 268.459 260.562 268.594 260.501 268.775C260.444 268.956 260.413 269.184 260.407 269.461V269.596C260.407 269.892 260.434 270.143 260.489 270.348C260.547 270.553 260.641 270.709 260.773 270.816C260.907 270.923 261.09 270.976 261.323 270.976C261.515 270.976 261.672 270.923 261.795 270.816C261.918 270.709 262.01 270.553 262.07 270.348C262.133 270.14 262.165 269.887 262.165 269.588C262.165 269.139 262.095 268.801 261.955 268.574C261.816 268.347 261.599 268.233 261.306 268.233Z" fill="#17375E"/>
    <rect x="306.162" y="153.928" width="116.576" height="132.232" rx="3.9428" fill="#FAFBFC"/>
    <rect x="306.162" y="153.928" width="116.576" height="132.232" rx="3.9428" stroke="#DFE2E6" stroke-width="0.525707"/>
    <path d="M406.506 207.235C406.506 230.462 387.677 249.292 364.449 249.292C341.222 249.292 322.393 230.462 322.393 207.235C322.393 184.008 341.222 165.179 364.449 165.179C387.677 165.179 406.506 184.008 406.506 207.235ZM328.2 207.235C328.2 227.255 344.429 243.485 364.449 243.485C384.469 243.485 400.699 227.255 400.699 207.235C400.699 187.215 384.469 170.986 364.449 170.986C344.429 170.986 328.2 187.215 328.2 207.235Z" fill="#D7EAFC"/>
    <path d="M364.449 168.082C364.449 166.479 365.751 165.168 367.351 165.279C377.332 165.969 386.778 170.201 393.953 177.264C401.821 185.009 406.327 195.536 406.501 206.575C406.674 217.613 402.5 228.277 394.88 236.265C387.26 244.253 376.805 248.924 365.77 249.271C354.736 249.618 344.008 245.612 335.901 238.118C327.795 230.625 322.96 220.244 322.44 209.216C321.919 198.189 325.756 187.399 333.122 179.176C339.839 171.676 349.001 166.859 358.919 165.544C360.509 165.333 361.89 166.559 361.991 168.16C362.092 169.76 360.873 171.127 359.286 171.355C350.89 172.564 343.148 176.686 337.447 183.05C331.099 190.138 327.792 199.438 328.24 208.943C328.689 218.448 332.856 227.395 339.843 233.854C346.831 240.313 356.077 243.766 365.588 243.467C375.099 243.168 384.11 239.141 390.678 232.256C397.246 225.371 400.844 216.18 400.694 206.666C400.545 197.152 396.66 188.078 389.879 181.403C383.791 175.409 375.805 171.781 367.35 171.102C365.752 170.974 364.449 169.686 364.449 168.082Z" fill="#17375E"/>
    <path d="M352.106 206.325C352.106 207.562 352.022 208.754 351.853 209.902C351.692 211.05 351.421 212.109 351.038 213.079C350.665 214.04 350.166 214.881 349.543 215.602C348.921 216.322 348.155 216.883 347.248 217.283C346.34 217.684 345.263 217.884 344.017 217.884C343.537 217.884 343.065 217.862 342.602 217.817C342.14 217.782 341.681 217.724 341.228 217.644V213.786C341.592 213.884 341.971 213.955 342.362 214C342.763 214.044 343.168 214.066 343.577 214.066C344.52 214.066 345.303 213.889 345.926 213.533C346.549 213.168 347.021 212.603 347.341 211.837C347.661 211.063 347.839 210.067 347.875 208.847H347.741C347.528 209.346 347.274 209.764 346.981 210.102C346.687 210.44 346.349 210.694 345.966 210.863C345.584 211.032 345.152 211.117 344.671 211.117C343.746 211.117 342.954 210.863 342.295 210.356C341.637 209.84 341.134 209.105 340.787 208.153C340.44 207.201 340.267 206.071 340.267 204.763C340.267 203.339 340.493 202.111 340.947 201.079C341.41 200.038 342.069 199.237 342.923 198.676C343.786 198.107 344.818 197.822 346.02 197.822C346.963 197.822 347.808 198.013 348.556 198.396C349.303 198.779 349.939 199.339 350.464 200.078C350.998 200.807 351.403 201.697 351.679 202.747C351.964 203.797 352.106 204.99 352.106 206.325ZM346.1 201.76C345.717 201.76 345.401 201.995 345.152 202.467C344.903 202.939 344.778 203.677 344.778 204.683C344.778 205.546 344.885 206.196 345.099 206.632C345.321 207.068 345.646 207.286 346.073 207.286C346.429 207.286 346.709 207.157 346.914 206.899C347.119 206.632 347.265 206.32 347.354 205.964C347.443 205.599 347.488 205.275 347.488 204.99C347.488 204.767 347.475 204.478 347.448 204.122C347.421 203.766 347.359 203.41 347.261 203.054C347.172 202.69 347.034 202.383 346.847 202.133C346.66 201.884 346.411 201.76 346.1 201.76ZM365.641 206.325C365.641 207.562 365.557 208.754 365.388 209.902C365.227 211.05 364.956 212.109 364.573 213.079C364.2 214.04 363.701 214.881 363.078 215.602C362.455 216.322 361.69 216.883 360.782 217.283C359.875 217.684 358.798 217.884 357.552 217.884C357.072 217.884 356.6 217.862 356.137 217.817C355.675 217.782 355.216 217.724 354.763 217.644V213.786C355.127 213.884 355.506 213.955 355.897 214C356.298 214.044 356.702 214.066 357.112 214.066C358.055 214.066 358.838 213.889 359.461 213.533C360.084 213.168 360.556 212.603 360.876 211.837C361.196 211.063 361.374 210.067 361.41 208.847H361.276C361.063 209.346 360.809 209.764 360.516 210.102C360.222 210.44 359.884 210.694 359.501 210.863C359.118 211.032 358.687 211.117 358.206 211.117C357.281 211.117 356.489 210.863 355.83 210.356C355.172 209.84 354.669 209.105 354.322 208.153C353.975 207.201 353.801 206.071 353.801 204.763C353.801 203.339 354.028 202.111 354.482 201.079C354.945 200.038 355.603 199.237 356.458 198.676C357.321 198.107 358.353 197.822 359.554 197.822C360.498 197.822 361.343 198.013 362.091 198.396C362.838 198.779 363.474 199.339 363.999 200.078C364.533 200.807 364.938 201.697 365.214 202.747C365.499 203.797 365.641 204.99 365.641 206.325ZM359.635 201.76C359.252 201.76 358.936 201.995 358.687 202.467C358.438 202.939 358.313 203.677 358.313 204.683C358.313 205.546 358.42 206.196 358.633 206.632C358.856 207.068 359.181 207.286 359.608 207.286C359.964 207.286 360.244 207.157 360.449 206.899C360.653 206.632 360.8 206.32 360.889 205.964C360.978 205.599 361.023 205.275 361.023 204.99C361.023 204.767 361.009 204.478 360.983 204.122C360.956 203.766 360.894 203.41 360.796 203.054C360.707 202.69 360.569 202.383 360.382 202.133C360.195 201.884 359.946 201.76 359.635 201.76ZM371.474 197.822C372.8 197.822 373.859 198.374 374.651 199.477C375.443 200.581 375.839 202.062 375.839 203.922C375.839 205.88 375.461 207.397 374.704 208.474C373.948 209.542 372.871 210.075 371.474 210.075C370.148 210.075 369.098 209.519 368.324 208.407C367.559 207.295 367.176 205.8 367.176 203.922C367.176 201.964 367.554 200.46 368.311 199.41C369.067 198.351 370.122 197.822 371.474 197.822ZM371.528 200.892C371.216 200.892 370.976 201.146 370.807 201.653C370.647 202.16 370.567 202.934 370.567 203.975C370.567 205.043 370.647 205.826 370.807 206.325C370.976 206.814 371.216 207.059 371.528 207.059C371.839 207.059 372.07 206.814 372.222 206.325C372.373 205.835 372.449 205.052 372.449 203.975C372.449 202.908 372.373 202.129 372.222 201.639C372.07 201.141 371.839 200.892 371.528 200.892ZM383.608 198.102L375.599 217.617H372.315L380.324 198.102H383.608ZM384.449 205.59C385.774 205.59 386.829 206.142 387.612 207.246C388.404 208.349 388.8 209.831 388.8 211.691C388.8 213.639 388.417 215.152 387.652 216.229C386.896 217.297 385.828 217.831 384.449 217.831C383.114 217.831 382.064 217.274 381.298 216.162C380.542 215.05 380.164 213.559 380.164 211.691C380.164 209.733 380.538 208.229 381.285 207.179C382.033 206.12 383.087 205.59 384.449 205.59ZM384.489 208.647C384.168 208.647 383.932 208.905 383.781 209.421C383.63 209.929 383.554 210.703 383.554 211.744C383.554 212.803 383.63 213.582 383.781 214.08C383.932 214.578 384.168 214.827 384.489 214.827C384.845 214.827 385.085 214.547 385.209 213.986C385.343 213.417 385.41 212.669 385.41 211.744C385.41 210.81 385.343 210.062 385.209 209.501C385.085 208.932 384.845 208.647 384.489 208.647Z" fill="#2A7FEF"/>
    <path d="M332.188 271.909L331.753 270.479H329.564L329.128 271.909H327.757L329.876 265.88H331.432L333.56 271.909H332.188ZM331.449 269.412L331.013 268.015C330.986 267.922 330.949 267.803 330.903 267.658C330.859 267.51 330.814 267.361 330.767 267.21C330.723 267.057 330.688 266.924 330.66 266.812C330.633 266.924 330.595 267.064 330.545 267.231C330.499 267.395 330.453 267.551 330.41 267.699C330.366 267.847 330.334 267.952 330.315 268.015L329.884 269.412H331.449ZM335.675 271.991C335.163 271.991 334.745 271.791 334.422 271.391C334.102 270.989 333.942 270.399 333.942 269.621C333.942 268.835 334.105 268.241 334.431 267.839C334.756 267.433 335.182 267.231 335.708 267.231C335.927 267.231 336.12 267.261 336.287 267.321C336.454 267.381 336.598 267.462 336.718 267.563C336.841 267.665 336.945 267.778 337.03 267.904H337.071C337.055 267.817 337.034 267.688 337.01 267.518C336.988 267.346 336.977 267.169 336.977 266.988V265.518H338.234V271.909H337.273L337.03 271.313H336.977C336.898 271.439 336.798 271.554 336.677 271.658C336.559 271.76 336.418 271.84 336.254 271.901C336.09 271.961 335.897 271.991 335.675 271.991ZM336.114 270.993C336.457 270.993 336.698 270.892 336.837 270.689C336.98 270.484 337.055 270.176 337.063 269.765V269.629C337.063 269.183 336.995 268.842 336.858 268.607C336.721 268.368 336.466 268.249 336.094 268.249C335.817 268.249 335.601 268.368 335.445 268.607C335.289 268.845 335.211 269.188 335.211 269.638C335.211 270.087 335.289 270.425 335.445 270.652C335.604 270.879 335.827 270.993 336.114 270.993ZM339.174 273.929C339.032 273.929 338.884 273.918 338.731 273.897C338.577 273.877 338.45 273.854 338.349 273.827V272.841C338.45 272.868 338.546 272.888 338.636 272.899C338.724 272.912 338.824 272.919 338.936 272.919C339.106 272.919 339.25 272.871 339.367 272.775C339.485 272.682 339.544 272.497 339.544 272.221V267.317H340.797V272.406C340.797 272.685 340.743 272.94 340.636 273.17C340.53 273.402 340.357 273.587 340.119 273.724C339.881 273.861 339.566 273.929 339.174 273.929ZM339.49 266.13C339.49 265.895 339.556 265.734 339.688 265.65C339.822 265.562 339.983 265.518 340.172 265.518C340.358 265.518 340.519 265.562 340.653 265.65C340.787 265.734 340.854 265.895 340.854 266.13C340.854 266.363 340.787 266.524 340.653 266.615C340.519 266.702 340.358 266.746 340.172 266.746C339.983 266.746 339.822 266.702 339.688 266.615C339.556 266.524 339.49 266.363 339.49 266.13ZM346.329 267.317V271.909H345.368L345.199 271.321H345.134C345.035 271.478 344.912 271.605 344.764 271.703C344.616 271.802 344.453 271.875 344.275 271.921C344.097 271.968 343.912 271.991 343.721 271.991C343.392 271.991 343.106 271.933 342.862 271.818C342.619 271.701 342.428 271.519 342.291 271.272C342.157 271.026 342.09 270.705 342.09 270.311V267.317H343.343V269.999C343.343 270.328 343.402 270.575 343.52 270.742C343.637 270.909 343.825 270.993 344.082 270.993C344.337 270.993 344.537 270.935 344.682 270.82C344.827 270.703 344.928 270.532 344.986 270.307C345.046 270.08 345.076 269.803 345.076 269.477V267.317H346.329ZM350.847 270.545C350.847 270.857 350.773 271.122 350.625 271.338C350.48 271.551 350.262 271.714 349.972 271.827C349.682 271.936 349.32 271.991 348.887 271.991C348.567 271.991 348.292 271.97 348.062 271.929C347.835 271.888 347.605 271.82 347.372 271.724V270.689C347.621 270.801 347.888 270.894 348.173 270.968C348.46 271.039 348.712 271.075 348.929 271.075C349.172 271.075 349.346 271.039 349.45 270.968C349.557 270.894 349.61 270.798 349.61 270.681C349.61 270.604 349.588 270.536 349.545 270.475C349.504 270.412 349.413 270.343 349.274 270.266C349.134 270.187 348.915 270.084 348.616 269.958C348.329 269.837 348.092 269.716 347.906 269.592C347.722 269.469 347.586 269.324 347.495 269.157C347.408 268.987 347.364 268.772 347.364 268.512C347.364 268.088 347.528 267.769 347.857 267.555C348.188 267.339 348.63 267.231 349.183 267.231C349.468 267.231 349.739 267.26 349.996 267.317C350.256 267.375 350.523 267.466 350.797 267.592L350.419 268.496C350.192 268.397 349.977 268.316 349.775 268.253C349.575 268.19 349.371 268.159 349.163 268.159C348.979 268.159 348.841 268.184 348.748 268.233C348.655 268.282 348.608 268.357 348.608 268.459C348.608 268.533 348.631 268.598 348.678 268.656C348.727 268.713 348.82 268.778 348.957 268.849C349.097 268.917 349.301 269.006 349.569 269.116C349.829 269.223 350.055 269.335 350.247 269.453C350.439 269.568 350.586 269.711 350.69 269.884C350.795 270.054 350.847 270.274 350.847 270.545ZM353.758 270.993C353.895 270.993 354.028 270.979 354.157 270.952C354.288 270.924 354.418 270.89 354.547 270.849V271.781C354.413 271.842 354.246 271.891 354.046 271.929C353.849 271.97 353.633 271.991 353.397 271.991C353.123 271.991 352.877 271.947 352.658 271.859C352.441 271.769 352.27 271.614 352.144 271.395C352.021 271.174 351.96 270.866 351.96 270.471V268.258H351.36V267.728L352.05 267.309L352.411 266.34H353.212V267.317H354.498V268.258H353.212V270.471C353.212 270.647 353.262 270.778 353.36 270.866C353.461 270.95 353.594 270.993 353.758 270.993ZM357.373 267.231C357.797 267.231 358.163 267.313 358.469 267.477C358.776 267.639 359.013 267.874 359.18 268.184C359.347 268.493 359.43 268.871 359.43 269.317V269.925H356.469C356.483 270.278 356.588 270.556 356.785 270.759C356.985 270.959 357.262 271.059 357.615 271.059C357.908 271.059 358.176 271.028 358.42 270.968C358.664 270.908 358.914 270.818 359.172 270.697V271.666C358.944 271.779 358.706 271.861 358.457 271.913C358.211 271.965 357.911 271.991 357.558 271.991C357.098 271.991 356.69 271.906 356.334 271.736C355.98 271.566 355.702 271.308 355.5 270.96C355.3 270.612 355.2 270.174 355.2 269.646C355.2 269.109 355.29 268.663 355.471 268.307C355.655 267.948 355.909 267.68 356.235 267.502C356.561 267.321 356.94 267.231 357.373 267.231ZM357.381 268.122C357.137 268.122 356.935 268.2 356.773 268.356C356.614 268.512 356.523 268.757 356.498 269.091H358.256C358.253 268.905 358.219 268.739 358.153 268.594C358.09 268.449 357.994 268.334 357.866 268.249C357.74 268.164 357.578 268.122 357.381 268.122ZM361.903 271.991C361.391 271.991 360.973 271.791 360.65 271.391C360.33 270.989 360.17 270.399 360.17 269.621C360.17 268.835 360.333 268.241 360.658 267.839C360.984 267.433 361.41 267.231 361.936 267.231C362.155 267.231 362.348 267.261 362.515 267.321C362.682 267.381 362.826 267.462 362.946 267.563C363.069 267.665 363.173 267.778 363.258 267.904H363.299C363.283 267.817 363.262 267.688 363.238 267.518C363.216 267.346 363.205 267.169 363.205 266.988V265.518H364.462V271.909H363.5L363.258 271.313H363.205C363.125 271.439 363.025 271.554 362.905 271.658C362.787 271.76 362.646 271.84 362.482 271.901C362.318 271.961 362.125 271.991 361.903 271.991ZM362.342 270.993C362.685 270.993 362.925 270.892 363.065 270.689C363.208 270.484 363.283 270.176 363.291 269.765V269.629C363.291 269.183 363.223 268.842 363.086 268.607C362.949 268.368 362.694 268.249 362.322 268.249C362.045 268.249 361.829 268.368 361.673 268.607C361.517 268.845 361.439 269.188 361.439 269.638C361.439 270.087 361.517 270.425 361.673 270.652C361.832 270.879 362.055 270.993 362.342 270.993ZM369.973 265.904C370.748 265.904 371.314 266.071 371.669 266.405C372.025 266.737 372.203 267.194 372.203 267.777C372.203 268.04 372.164 268.292 372.084 268.533C372.005 268.771 371.875 268.983 371.694 269.169C371.516 269.356 371.278 269.503 370.979 269.613C370.681 269.72 370.313 269.773 369.875 269.773H369.328V271.909H368.055V265.904H369.973ZM369.908 266.947H369.328V268.73H369.747C369.986 268.73 370.192 268.698 370.368 268.635C370.543 268.572 370.678 268.474 370.774 268.34C370.87 268.206 370.918 268.033 370.918 267.822C370.918 267.526 370.836 267.307 370.671 267.165C370.507 267.02 370.253 266.947 369.908 266.947ZM375.119 267.223C375.735 267.223 376.208 267.357 376.536 267.625C376.865 267.893 377.029 268.301 377.029 268.849V271.909H376.154L375.912 271.284H375.879C375.748 271.449 375.614 271.583 375.477 271.687C375.34 271.791 375.182 271.868 375.004 271.917C374.826 271.966 374.61 271.991 374.356 271.991C374.084 271.991 373.841 271.939 373.624 271.835C373.411 271.731 373.242 271.572 373.119 271.358C372.996 271.142 372.934 270.868 372.934 270.537C372.934 270.05 373.106 269.691 373.448 269.461C373.79 269.228 374.303 269.1 374.988 269.075L375.785 269.05V268.849C375.785 268.608 375.722 268.431 375.596 268.319C375.47 268.207 375.295 268.151 375.07 268.151C374.848 268.151 374.631 268.182 374.417 268.245C374.204 268.308 373.99 268.388 373.776 268.483L373.362 267.637C373.605 267.509 373.878 267.407 374.179 267.333C374.483 267.26 374.796 267.223 375.119 267.223ZM375.785 269.781L375.3 269.798C374.895 269.809 374.613 269.881 374.454 270.015C374.298 270.15 374.22 270.326 374.22 270.545C374.22 270.737 374.276 270.874 374.388 270.956C374.501 271.035 374.647 271.075 374.828 271.075C375.096 271.075 375.322 270.996 375.505 270.837C375.692 270.678 375.785 270.452 375.785 270.159V269.781ZM377.666 267.317H379.038L379.904 269.9C379.932 269.983 379.955 270.066 379.974 270.151C379.993 270.236 380.01 270.323 380.023 270.414C380.037 270.504 380.048 270.599 380.056 270.697H380.081C380.097 270.549 380.119 270.411 380.147 270.282C380.177 270.154 380.214 270.026 380.257 269.9L381.108 267.317H382.451L380.508 272.496C380.39 272.814 380.237 273.078 380.048 273.289C379.859 273.502 379.641 273.662 379.395 273.769C379.151 273.876 378.883 273.929 378.59 273.929C378.448 273.929 378.324 273.921 378.22 273.905C378.116 273.891 378.027 273.876 377.953 273.86V272.866C378.011 272.879 378.083 272.892 378.171 272.903C378.259 272.914 378.35 272.919 378.446 272.919C378.621 272.919 378.772 272.882 378.898 272.808C379.024 272.734 379.129 272.634 379.214 272.508C379.299 272.385 379.366 272.25 379.415 272.102L379.489 271.876L377.666 267.317ZM387.675 268.537H390.057V271.65C389.742 271.754 389.415 271.838 389.075 271.901C388.736 271.961 388.351 271.991 387.921 271.991C387.324 271.991 386.818 271.873 386.402 271.638C385.985 271.402 385.669 271.054 385.453 270.594C385.237 270.134 385.128 269.569 385.128 268.898C385.128 268.269 385.249 267.724 385.49 267.264C385.734 266.804 386.088 266.448 386.554 266.196C387.022 265.944 387.593 265.818 388.266 265.818C388.584 265.818 388.897 265.852 389.207 265.921C389.516 265.989 389.797 266.078 390.049 266.188L389.626 267.206C389.442 267.113 389.233 267.035 388.997 266.972C388.762 266.909 388.515 266.878 388.258 266.878C387.888 266.878 387.567 266.962 387.293 267.132C387.022 267.302 386.811 267.54 386.66 267.847C386.512 268.151 386.439 268.509 386.439 268.923C386.439 269.314 386.492 269.662 386.599 269.966C386.706 270.267 386.874 270.504 387.104 270.677C387.334 270.846 387.634 270.931 388.003 270.931C388.184 270.931 388.336 270.923 388.459 270.907C388.585 270.887 388.703 270.868 388.812 270.849V269.596H387.675V268.537ZM393.273 267.223C393.889 267.223 394.361 267.357 394.69 267.625C395.018 267.893 395.183 268.301 395.183 268.849V271.909H394.308L394.065 271.284H394.033C393.901 271.449 393.767 271.583 393.63 271.687C393.493 271.791 393.336 271.868 393.158 271.917C392.98 271.966 392.763 271.991 392.509 271.991C392.238 271.991 391.994 271.939 391.778 271.835C391.564 271.731 391.396 271.572 391.273 271.358C391.149 271.142 391.088 270.868 391.088 270.537C391.088 270.05 391.259 269.691 391.601 269.461C391.943 269.228 392.457 269.1 393.141 269.075L393.938 269.05V268.849C393.938 268.608 393.875 268.431 393.749 268.319C393.623 268.207 393.448 268.151 393.223 268.151C393.002 268.151 392.784 268.182 392.57 268.245C392.357 268.308 392.143 268.388 391.93 268.483L391.515 267.637C391.759 267.509 392.031 267.407 392.332 267.333C392.636 267.26 392.95 267.223 393.273 267.223ZM393.938 269.781L393.453 269.798C393.048 269.809 392.766 269.881 392.607 270.015C392.451 270.15 392.373 270.326 392.373 270.545C392.373 270.737 392.429 270.874 392.542 270.956C392.654 271.035 392.8 271.075 392.981 271.075C393.249 271.075 393.475 270.996 393.659 270.837C393.845 270.678 393.938 270.452 393.938 270.159V269.781ZM399.031 267.231C399.548 267.231 399.966 267.432 400.284 267.835C400.604 268.237 400.764 268.827 400.764 269.605C400.764 270.125 400.689 270.563 400.538 270.919C400.388 271.272 400.18 271.539 399.914 271.72C399.648 271.901 399.343 271.991 398.998 271.991C398.776 271.991 398.586 271.964 398.427 271.909C398.268 271.851 398.133 271.779 398.021 271.691C397.908 271.601 397.811 271.505 397.729 271.404H397.663C397.685 271.513 397.702 271.625 397.713 271.74C397.723 271.855 397.729 271.968 397.729 272.077V273.929H396.476V267.317H397.495L397.671 267.913H397.729C397.811 267.789 397.911 267.676 398.029 267.572C398.147 267.468 398.288 267.385 398.452 267.325C398.619 267.262 398.812 267.231 399.031 267.231ZM398.628 268.233C398.409 268.233 398.235 268.278 398.107 268.368C397.978 268.459 397.884 268.594 397.823 268.775C397.766 268.956 397.734 269.184 397.729 269.461V269.596C397.729 269.892 397.756 270.143 397.811 270.348C397.869 270.553 397.963 270.709 398.094 270.816C398.229 270.923 398.412 270.976 398.645 270.976C398.836 270.976 398.994 270.923 399.117 270.816C399.24 270.709 399.332 270.553 399.392 270.348C399.455 270.14 399.487 269.887 399.487 269.588C399.487 269.139 399.417 268.801 399.277 268.574C399.138 268.347 398.921 268.233 398.628 268.233Z" fill="#17375E"/>
</svg>
