<svg width="71" height="71" viewBox="0 0 71 71" fill="none" xmlns="http://www.w3.org/2000/svg">
<g id="Layer_1" clip-path="url(#clip0_1143_19254)">
<path id="Vector" d="M35.5 71C15.9243 71 0 55.0276 0 35.4C0 17.1984 13.5855 1.98407 31.6042 0.00969441C32.4889 -0.0870886 33.2802 0.551679 33.3768 1.43886C33.4733 2.32603 32.8363 3.11965 31.9516 3.21644C15.5705 5.01015 3.21704 18.8469 3.21704 35.4C3.21704 53.25 17.7001 67.7739 35.5 67.7739C53.2999 67.7739 67.783 53.25 67.783 35.4C67.783 18.8469 55.4295 5.01337 39.0484 3.21966C38.1637 3.12288 37.5267 2.32603 37.6232 1.44208C37.7198 0.558131 38.5079 -0.0774103 39.3958 0.0129205C57.4112 1.98729 71 17.2016 71 35.4C71 55.0308 55.0757 71 35.5 71ZM23.6098 25.7959V17.9823C23.6098 17.0919 22.8892 16.3692 22.0013 16.3692H14.2097C13.3217 16.3692 12.6011 17.0919 12.6011 17.9823V25.7959C12.6011 26.6863 13.3217 27.409 14.2097 27.409H22.0013C22.8892 27.409 23.6098 26.6863 23.6098 25.7959ZM15.8214 19.5953H20.396V24.1829H15.8214V19.5953ZM59.5087 21.8891C59.5087 20.9987 58.7881 20.2761 57.9002 20.2761H28.5158C27.6279 20.2761 26.9073 20.9987 26.9073 21.8891C26.9073 22.7795 27.6279 23.5022 28.5158 23.5022H57.9002C58.7881 23.5022 59.5087 22.7795 59.5087 21.8891ZM23.6098 39.4068V31.5932C23.6098 30.7028 22.8892 29.9802 22.0013 29.9802H14.2097C13.3217 29.9802 12.6011 30.7028 12.6011 31.5932V39.4068C12.6011 40.2972 13.3217 41.0199 14.2097 41.0199H22.0013C22.8892 41.0199 23.6098 40.2972 23.6098 39.4068ZM15.8214 33.2063H20.396V37.7938H15.8214V33.2063ZM59.5087 35.5C59.5087 34.6096 58.7881 33.887 57.9002 33.887H28.5158C27.6279 33.887 26.9073 34.6096 26.9073 35.5C26.9073 36.3904 27.6279 37.1131 28.5158 37.1131H57.9002C58.7881 37.1131 59.5087 36.3904 59.5087 35.5ZM23.6098 53.0177V45.2041C23.6098 44.3137 22.8892 43.5911 22.0013 43.5911H14.2097C13.3217 43.5911 12.6011 44.3137 12.6011 45.2041V53.0177C12.6011 53.9081 13.3217 54.6308 14.2097 54.6308H22.0013C22.8892 54.6308 23.6098 53.9081 23.6098 53.0177ZM15.8214 46.8172H20.396V51.4047H15.8214V46.8172ZM59.5087 49.1109C59.5087 48.2205 58.7881 47.4979 57.9002 47.4979H28.5158C27.6279 47.4979 26.9073 48.2205 26.9073 49.1109C26.9073 50.0013 27.6279 50.724 28.5158 50.724H57.9002C58.7881 50.724 59.5087 50.0013 59.5087 49.1109Z" fill="#3860FF"/>
</g>
<defs>
<clipPath id="clip0_1143_19254">
<rect width="71" height="71" fill="white"/>
</clipPath>
</defs>
</svg>
