<svg width="282" height="320" viewBox="0 0 282 320" fill="none" xmlns="http://www.w3.org/2000/svg">
    <rect x="0.573438" y="0.542188" width="280.853" height="345.916" rx="26.5672" fill="white" stroke="#505069" stroke-width="1.08438"/>
    <path d="M40.1533 291L250.522 291" stroke="#3860FF" stroke-width="8.675" stroke-linecap="round"/>
    <path d="M40.1533 83L250.522 83" stroke="#3860FF" stroke-width="8.675" stroke-linecap="round"/>
    <path d="M38.0566 263.511L94.2847 109.464H151.857L208.085 263.511H155.665L149.168 241.792H95.1807L88.6843 263.511H38.0566ZM105.485 207.311H139.088L131.695 182.681C131.098 180.89 130.426 178.726 129.679 176.188C128.932 173.651 128.186 170.964 127.439 168.128C126.692 165.292 125.946 162.53 125.199 159.843C124.452 157.007 123.78 154.544 123.183 152.454H121.391C120.793 155.141 119.972 158.201 118.927 161.634C118.03 165.067 117.059 168.65 116.014 172.382C114.969 175.964 113.923 179.397 112.878 182.681L105.485 207.311Z" fill="url(#paint0_linear_1572_26353)"/>
    <path d="M202.486 178.318V155.336H179.493V140.016H202.486V117.035H217.814V140.016H240.806V155.336H217.814V178.318H202.486Z" fill="url(#paint1_linear_1572_26353)"/>
    <path d="M43.1946 44.6031V28.2378H51.7113C52.8882 28.2378 53.8663 28.4604 54.6456 28.9057C55.4408 29.3351 56.0373 29.9475 56.4349 30.7427C56.8484 31.522 57.0551 32.4524 57.0551 33.5338C57.0551 34.6153 56.8404 35.5616 56.411 36.3727C55.9975 37.168 55.3852 37.7882 54.5741 38.2335C53.763 38.6788 52.7689 38.9015 51.592 38.9015H46.7492V44.6031H43.1946ZM46.7492 35.991H51.1149C51.8624 35.991 52.435 35.7763 52.8326 35.3469C53.2461 34.9175 53.4528 34.3211 53.4528 33.5577C53.4528 33.0329 53.3654 32.5955 53.1904 32.2456C53.0155 31.8957 52.753 31.6253 52.4031 31.4345C52.0692 31.2436 51.6397 31.1482 51.1149 31.1482H46.7492V35.991ZM62.1829 44.8894C61.7694 44.8894 61.3241 44.8417 60.847 44.7463C60.3857 44.6509 59.9484 44.4839 59.5349 44.2453C59.1214 43.9908 58.7794 43.633 58.509 43.1718C58.2546 42.6946 58.1273 42.0903 58.1273 41.3587C58.1273 40.484 58.3182 39.7603 58.6999 39.1878C59.0816 38.6152 59.6223 38.1699 60.3221 37.8518C61.0378 37.5178 61.8887 37.2872 62.8747 37.16C63.8608 37.0328 64.9502 36.9691 66.143 36.9691V36.0388C66.143 35.673 66.0794 35.3549 65.9522 35.0845C65.8409 34.8141 65.6341 34.5994 65.3319 34.4404C65.0457 34.2813 64.6401 34.2018 64.1153 34.2018C63.5904 34.2018 63.161 34.2654 62.827 34.3927C62.5089 34.5199 62.2783 34.6869 62.1352 34.8937C62.008 35.0845 61.9443 35.2992 61.9443 35.5378V35.824H58.7238C58.7078 35.7445 58.6999 35.673 58.6999 35.6093C58.6999 35.5298 58.6999 35.4344 58.6999 35.3231C58.6999 34.5915 58.9226 33.9633 59.3679 33.4384C59.8132 32.8977 60.4414 32.4842 61.2525 32.1979C62.0636 31.9116 63.0099 31.7685 64.0914 31.7685C65.2524 31.7685 66.2226 31.9196 67.0019 32.2218C67.7971 32.5239 68.4014 32.9693 68.8149 33.5577C69.2444 34.1462 69.4591 34.8857 69.4591 35.7763V41.478C69.4591 41.7643 69.5386 41.979 69.6976 42.1221C69.8726 42.2493 70.0634 42.3129 70.2702 42.3129H71.0574V44.4839C70.8984 44.5634 70.6519 44.6429 70.3179 44.7224C69.9839 44.8179 69.5783 44.8656 69.1012 44.8656C68.64 44.8656 68.2265 44.794 67.8607 44.6509C67.5108 44.5236 67.2166 44.3407 66.978 44.1022C66.7395 43.8477 66.5725 43.5455 66.477 43.1956H66.31C66.0397 43.5296 65.7057 43.8238 65.3081 44.0783C64.9264 44.3328 64.4731 44.5316 63.9483 44.6747C63.4393 44.8179 62.8509 44.8894 62.1829 44.8894ZM63.3042 42.3845C63.7495 42.3845 64.1471 42.3209 64.497 42.1937C64.8469 42.0505 65.1411 41.8676 65.3796 41.645C65.6182 41.4064 65.8011 41.1201 65.9283 40.7861C66.0715 40.4522 66.143 40.0943 66.143 39.7126V39.0208C65.2524 39.0208 64.4572 39.0844 63.7574 39.2116C63.0576 39.323 62.501 39.5218 62.0875 39.808C61.6899 40.0943 61.4911 40.4919 61.4911 41.0009C61.4911 41.2871 61.5626 41.5336 61.7058 41.7404C61.8489 41.9472 62.0557 42.1062 62.326 42.2175C62.5964 42.3289 62.9225 42.3845 63.3042 42.3845ZM74.5185 49.0881C73.93 49.0881 73.437 49.0404 73.0394 48.945C72.6577 48.8655 72.4112 48.8098 72.2998 48.778V46.5355H73.7551C74.1527 46.5355 74.5105 46.4401 74.8286 46.2492C75.1467 46.0743 75.425 45.8357 75.6636 45.5335C75.9021 45.2473 76.0771 44.9371 76.1884 44.6031L71.274 32.0548H74.7809L76.9279 37.8518C77.0234 38.1222 77.1267 38.4641 77.2381 38.8776C77.3653 39.2753 77.4925 39.6967 77.6198 40.142C77.747 40.5714 77.8504 40.9531 77.9299 41.2871H78.0492C78.1128 41.0645 78.1844 40.8021 78.2639 40.4999C78.3434 40.1977 78.4229 39.8876 78.5024 39.5695C78.5979 39.2514 78.6853 38.9492 78.7649 38.6629C78.8603 38.3608 78.9398 38.0983 79.0034 37.8757L80.7926 32.0548H84.1325L79.8623 44.0067C79.6237 44.7065 79.3454 45.3586 79.0273 45.963C78.7251 46.5832 78.3673 47.124 77.9538 47.5852C77.5402 48.0623 77.0472 48.4281 76.4747 48.6826C75.918 48.9529 75.2659 49.0881 74.5185 49.0881ZM90.7208 44.6031V28.2378H103.794V31.1482H94.2992V34.7982H102.697V37.6848H94.2992V41.6688H103.937V44.6031H90.7208ZM114.854 48.8496V43.2195H114.711C114.457 43.5853 114.146 43.8954 113.781 44.1499C113.415 44.3884 113.001 44.5713 112.54 44.6986C112.079 44.8258 111.578 44.8894 111.037 44.8894C110.067 44.8894 109.208 44.6588 108.461 44.1976C107.729 43.7205 107.149 42.9968 106.719 42.0267C106.306 41.0565 106.099 39.8319 106.099 38.3528C106.099 36.826 106.306 35.5775 106.719 34.6074C107.133 33.6372 107.713 32.9215 108.461 32.4603C109.224 31.9991 110.123 31.7685 111.156 31.7685C111.968 31.7685 112.707 31.9355 113.375 32.2695C114.059 32.5876 114.6 33.0806 114.997 33.7486H115.164L115.451 32.0548H118.17V48.8496H114.854ZM112.206 42.1698C112.683 42.1698 113.089 42.0903 113.423 41.9312C113.757 41.7563 114.027 41.5098 114.234 41.1917C114.457 40.8736 114.616 40.4919 114.711 40.0466C114.822 39.5854 114.878 39.0765 114.878 38.5198V38.1142C114.878 37.3508 114.783 36.6988 114.592 36.158C114.401 35.6173 114.107 35.2038 113.709 34.9175C113.327 34.6312 112.826 34.4881 112.206 34.4881C111.538 34.4881 111.005 34.6233 110.608 34.8937C110.21 35.1481 109.924 35.5457 109.749 36.0865C109.574 36.6113 109.487 37.2713 109.487 38.0665V38.6152C109.487 39.3945 109.574 40.0546 109.749 40.5953C109.924 41.1201 110.21 41.5177 110.608 41.7881C111.005 42.0426 111.538 42.1698 112.206 42.1698ZM125.289 44.8894C124.017 44.8894 123.007 44.5395 122.259 43.8397C121.512 43.14 121.138 42.0108 121.138 40.4522V32.0548H124.454V39.9035C124.454 40.317 124.502 40.6669 124.597 40.9531C124.692 41.2235 124.828 41.4462 125.003 41.6211C125.193 41.7961 125.424 41.9233 125.694 42.0028C125.965 42.0823 126.267 42.1221 126.601 42.1221C127.094 42.1221 127.539 42.0028 127.937 41.7643C128.334 41.5257 128.645 41.1997 128.867 40.7861C129.09 40.3567 129.201 39.8796 129.201 39.3548V32.0548H132.517V44.6031H129.798L129.559 42.8855H129.392C129.09 43.2831 128.732 43.633 128.319 43.9352C127.921 44.2374 127.468 44.468 126.959 44.627C126.45 44.802 125.893 44.8894 125.289 44.8894ZM135.561 30.2178V27.3551H138.877V30.2178H135.561ZM135.561 44.6031V32.0548H138.877V44.6031H135.561ZM145.667 44.8894C144.871 44.8894 144.227 44.7463 143.734 44.46C143.241 44.1737 142.883 43.792 142.661 43.3149C142.438 42.8219 142.327 42.2811 142.327 41.6927V34.6074H140.776V32.0548H142.446L143.066 28.4763H145.643V32.0548H147.933V34.6074H145.643V41.144C145.643 41.5257 145.73 41.8199 145.905 42.0267C146.08 42.2175 146.366 42.3129 146.764 42.3129H147.933V44.5077C147.742 44.5713 147.519 44.627 147.265 44.6747C147.01 44.7383 146.74 44.786 146.454 44.8179C146.168 44.8656 145.905 44.8894 145.667 44.8894ZM151.888 49.0881C151.3 49.0881 150.807 49.0404 150.409 48.945C150.027 48.8655 149.781 48.8098 149.67 48.778V46.5355H151.125C151.522 46.5355 151.88 46.4401 152.198 46.2492C152.516 46.0743 152.795 45.8357 153.033 45.5335C153.272 45.2473 153.447 44.9371 153.558 44.6031L148.644 32.0548H152.151L154.298 37.8518C154.393 38.1222 154.496 38.4641 154.608 38.8776C154.735 39.2753 154.862 39.6967 154.989 40.142C155.117 40.5714 155.22 40.9531 155.3 41.2871H155.419C155.483 41.0645 155.554 40.8021 155.634 40.4999C155.713 40.1977 155.793 39.8876 155.872 39.5695C155.968 39.2514 156.055 38.9492 156.135 38.6629C156.23 38.3608 156.31 38.0983 156.373 37.8757L158.162 32.0548H161.502L157.232 44.0067C156.993 44.7065 156.715 45.3586 156.397 45.963C156.095 46.5832 155.737 47.124 155.323 47.5852C154.91 48.0623 154.417 48.4281 153.844 48.6826C153.288 48.9529 152.636 49.0881 151.888 49.0881ZM168.09 44.6031V28.2378H177.06C178.269 28.2378 179.271 28.4525 180.066 28.8819C180.877 29.3113 181.482 29.9157 181.879 30.695C182.277 31.4584 182.476 32.341 182.476 33.343C182.476 34.4086 182.237 35.3549 181.76 36.1819C181.283 36.993 180.591 37.6133 179.685 38.0427L183.025 44.6031H179.088L176.202 38.6391H171.645V44.6031H168.09ZM171.645 35.824H176.583C177.299 35.824 177.856 35.6093 178.253 35.1799C178.651 34.7346 178.85 34.1382 178.85 33.3907C178.85 32.9136 178.762 32.508 178.587 32.174C178.412 31.8242 178.158 31.5617 177.824 31.3868C177.49 31.2118 177.076 31.1244 176.583 31.1244H171.645V35.824ZM188.267 44.8894C187.853 44.8894 187.408 44.8417 186.931 44.7463C186.47 44.6509 186.032 44.4839 185.619 44.2453C185.205 43.9908 184.863 43.633 184.593 43.1718C184.339 42.6946 184.211 42.0903 184.211 41.3587C184.211 40.484 184.402 39.7603 184.784 39.1878C185.166 38.6152 185.706 38.1699 186.406 37.8518C187.122 37.5178 187.973 37.2872 188.959 37.16C189.945 37.0328 191.034 36.9691 192.227 36.9691V36.0388C192.227 35.673 192.163 35.3549 192.036 35.0845C191.925 34.8141 191.718 34.5994 191.416 34.4404C191.13 34.2813 190.724 34.2018 190.199 34.2018C189.674 34.2018 189.245 34.2654 188.911 34.3927C188.593 34.5199 188.362 34.6869 188.219 34.8937C188.092 35.0845 188.028 35.2992 188.028 35.5378V35.824H184.808C184.792 35.7445 184.784 35.673 184.784 35.6093C184.784 35.5298 184.784 35.4344 184.784 35.3231C184.784 34.5915 185.007 33.9633 185.452 33.4384C185.897 32.8977 186.525 32.4842 187.337 32.1979C188.148 31.9116 189.094 31.7685 190.175 31.7685C191.336 31.7685 192.307 31.9196 193.086 32.2218C193.881 32.5239 194.485 32.9693 194.899 33.5577C195.328 34.1462 195.543 34.8857 195.543 35.7763V41.478C195.543 41.7643 195.623 41.979 195.782 42.1221C195.957 42.2493 196.147 42.3129 196.354 42.3129H197.141V44.4839C196.982 44.5634 196.736 44.6429 196.402 44.7224C196.068 44.8179 195.662 44.8656 195.185 44.8656C194.724 44.8656 194.311 44.794 193.945 44.6509C193.595 44.5236 193.301 44.3407 193.062 44.1022C192.823 43.8477 192.656 43.5455 192.561 43.1956H192.394C192.124 43.5296 191.79 43.8238 191.392 44.0783C191.01 44.3328 190.557 44.5316 190.032 44.6747C189.523 44.8179 188.935 44.8894 188.267 44.8894ZM189.388 42.3845C189.833 42.3845 190.231 42.3209 190.581 42.1937C190.931 42.0505 191.225 41.8676 191.464 41.645C191.702 41.4064 191.885 41.1201 192.012 40.7861C192.155 40.4522 192.227 40.0943 192.227 39.7126V39.0208C191.336 39.0208 190.541 39.0844 189.841 39.2116C189.142 39.323 188.585 39.5218 188.171 39.808C187.774 40.0943 187.575 40.4919 187.575 41.0009C187.575 41.2871 187.647 41.5336 187.79 41.7404C187.933 41.9472 188.14 42.1062 188.41 42.2175C188.68 42.3289 189.006 42.3845 189.388 42.3845ZM202.535 44.8894C201.74 44.8894 201.095 44.7463 200.602 44.46C200.109 44.1737 199.752 43.792 199.529 43.3149C199.306 42.8219 199.195 42.2811 199.195 41.6927V34.6074H197.644V32.0548H199.314L199.934 28.4763H202.511V32.0548H204.801V34.6074H202.511V41.144C202.511 41.5257 202.598 41.8199 202.773 42.0267C202.948 42.2175 203.235 42.3129 203.632 42.3129H204.801V44.5077C204.61 44.5713 204.388 44.627 204.133 44.6747C203.879 44.7383 203.608 44.786 203.322 44.8179C203.036 44.8656 202.773 44.8894 202.535 44.8894ZM206.943 30.2178V27.3551H210.259V30.2178H206.943ZM206.943 44.6031V32.0548H210.259V44.6031H206.943ZM213.304 44.6031V32.0548H216.047L216.309 33.7724H216.476C216.763 33.3589 217.105 33.0011 217.502 32.6989C217.916 32.3967 218.377 32.1661 218.886 32.007C219.395 31.848 219.951 31.7685 220.556 31.7685C221.383 31.7685 222.106 31.9196 222.727 32.2218C223.347 32.5239 223.824 33.0011 224.158 33.6531C224.508 34.3052 224.683 35.1561 224.683 36.2057V44.6031H221.367V36.7306C221.367 36.333 221.319 35.999 221.224 35.7286C221.128 35.4423 220.985 35.2117 220.794 35.0368C220.619 34.8459 220.397 34.7108 220.126 34.6312C219.856 34.5517 219.554 34.512 219.22 34.512C218.727 34.512 218.282 34.6312 217.884 34.8698C217.486 35.1084 217.176 35.4344 216.954 35.8479C216.731 36.2614 216.62 36.7385 216.62 37.2793V44.6031H213.304ZM229.706 49.0881C229.15 49.0881 228.625 48.9688 228.132 48.7303C227.639 48.5076 227.241 48.1736 226.939 47.7283C226.637 47.283 226.486 46.7502 226.486 46.1299C226.486 45.4302 226.684 44.8735 227.082 44.46C227.495 44.0306 227.957 43.7125 228.466 43.5058C228.1 43.299 227.798 43.0286 227.559 42.6946C227.336 42.3607 227.225 41.971 227.225 41.5257C227.225 40.9054 227.448 40.4044 227.893 40.0227C228.354 39.6251 228.879 39.3707 229.468 39.2593C228.879 38.8936 228.418 38.4323 228.084 37.8757C227.766 37.3031 227.607 36.667 227.607 35.9672C227.607 35.0606 227.829 34.2972 228.275 33.677C228.736 33.0567 229.388 32.5876 230.231 32.2695C231.09 31.9355 232.1 31.7685 233.261 31.7685C233.722 31.7685 234.151 31.7923 234.549 31.8401C234.962 31.8878 235.336 31.9673 235.67 32.0786C236.259 31.7287 236.656 31.347 236.863 30.9335C237.086 30.5041 237.205 30.1622 237.221 29.9077H240.298C240.298 30.4962 240.187 31.0051 239.964 31.4345C239.758 31.8639 239.455 32.2218 239.058 32.508C238.66 32.7784 238.183 32.9772 237.626 33.1044C238.04 33.4543 238.358 33.8758 238.581 34.3688C238.803 34.8618 238.915 35.3946 238.915 35.9672C238.915 36.8578 238.7 37.6212 238.271 38.2574C237.841 38.8776 237.229 39.3548 236.434 39.6888C235.654 40.0227 234.716 40.1897 233.619 40.1897H231.71C231.328 40.1897 231.042 40.2613 230.851 40.4044C230.66 40.5317 230.565 40.7225 230.565 40.977C230.565 41.1838 230.644 41.3667 230.804 41.5257C230.978 41.6688 231.257 41.7404 231.639 41.7404H236.863C237.913 41.7404 238.748 42.0664 239.368 42.7185C240.004 43.3547 240.322 44.1737 240.322 45.1757C240.322 45.9391 240.123 46.615 239.726 47.2035C239.328 47.7919 238.779 48.2532 238.08 48.5871C237.38 48.9211 236.577 49.0881 235.67 49.0881H229.706ZM231.09 46.8695H235.503C235.789 46.8695 236.044 46.8138 236.267 46.7025C236.489 46.6071 236.664 46.4639 236.791 46.2731C236.919 46.0981 236.982 45.8914 236.982 45.6528C236.982 45.2393 236.855 44.9292 236.601 44.7224C236.346 44.5157 236.028 44.4123 235.646 44.4123H231.09C230.708 44.4123 230.39 44.5236 230.136 44.7463C229.897 44.9689 229.778 45.2632 229.778 45.629C229.778 45.9948 229.897 46.289 230.136 46.5116C230.39 46.7502 230.708 46.8695 231.09 46.8695ZM233.261 38.0427C234.04 38.0427 234.628 37.8677 235.026 37.5178C235.44 37.152 235.646 36.6352 235.646 35.9672C235.646 35.2992 235.44 34.7903 235.026 34.4404C234.628 34.0746 234.04 33.8917 233.261 33.8917C232.497 33.8917 231.909 34.0746 231.495 34.4404C231.098 34.7903 230.899 35.2992 230.899 35.9672C230.899 36.3966 230.986 36.7703 231.161 37.0884C231.336 37.4065 231.599 37.6451 231.949 37.8041C232.299 37.9632 232.736 38.0427 233.261 38.0427Z" fill="#505069"/>
    <defs>
        <linearGradient id="paint0_linear_1572_26353" x1="38.0566" y1="109.464" x2="191.356" y2="278.668" gradientUnits="userSpaceOnUse">
            <stop stop-color="#3860FF"/>
            <stop offset="1" stop-color="#090C1A"/>
        </linearGradient>
        <linearGradient id="paint1_linear_1572_26353" x1="179.493" y1="117.035" x2="240.776" y2="178.348" gradientUnits="userSpaceOnUse">
            <stop stop-color="#3860FF"/>
            <stop offset="1" stop-color="#090C1A"/>
        </linearGradient>
    </defs>
</svg>
