<svg width="447" height="292" viewBox="0 0 447 292" fill="none" xmlns="http://www.w3.org/2000/svg">
<rect x="0.25" y="0.25" width="446.5" height="291.08" rx="13.7299" fill="white" stroke="#505069" stroke-width="0.5"/>
<rect x="22.7983" y="120.626" width="401.406" height="47.5315" rx="23.7658" fill="url(#paint0_linear_1143_23706)"/>
<path d="M147.557 143.793C147.557 146.62 144.978 148.986 141.699 148.986C138.42 148.986 135.84 146.62 135.84 143.793C135.84 140.966 138.42 138.6 141.699 138.6C144.978 138.6 147.557 140.966 147.557 143.793Z" stroke="#505069" stroke-width="0.798849"/>
<path d="M146.723 143.793C146.723 146.208 144.517 148.24 141.699 148.24C138.88 148.24 136.674 146.208 136.674 143.793C136.674 141.378 138.88 139.346 141.699 139.346C144.517 139.346 146.723 141.378 146.723 143.793Z" stroke="#DCDCE1" stroke-width="0.798849"/>
<path d="M141.698 206.503V149.385" stroke="#505069" stroke-width="0.798849" stroke-linecap="round"/>
<path d="M98.2936 144.192C98.2936 141.366 100.873 139 104.152 139C107.431 139 110.011 141.366 110.011 144.192C110.011 147.019 107.431 149.385 104.152 149.385C100.873 149.385 98.2936 147.019 98.2936 144.192Z" stroke="#505069" stroke-width="0.798849"/>
<path d="M99.1284 144.192C99.1284 141.777 101.334 139.745 104.153 139.745C106.971 139.745 109.177 141.777 109.177 144.192C109.177 146.607 106.971 148.639 104.153 148.639C101.334 148.639 99.1284 146.607 99.1284 144.192Z" stroke="#DCDCE1" stroke-width="0.798849"/>
<path d="M104.152 81.4826L104.152 138.6" stroke="#505069" stroke-width="0.798849" stroke-linecap="round"/>
<path d="M375.882 144.192C375.882 141.366 378.461 139 381.741 139C385.02 139 387.599 141.366 387.599 144.192C387.599 147.019 385.02 149.385 381.741 149.385C378.461 149.385 375.882 147.019 375.882 144.192Z" stroke="#505069" stroke-width="0.798849"/>
<path d="M376.717 144.192C376.717 141.777 378.923 139.745 381.741 139.745C384.559 139.745 386.765 141.777 386.765 144.192C386.765 146.607 384.559 148.639 381.741 148.639C378.923 148.639 376.717 146.607 376.717 144.192Z" stroke="#DCDCE1" stroke-width="0.798849"/>
<path d="M381.74 81.4826L381.74 138.6" stroke="#505069" stroke-width="0.798849" stroke-linecap="round"/>
<path d="M242.499 89.8399C241.595 89.8399 240.811 89.6737 240.147 89.3414C239.491 89.0091 238.984 88.5064 238.626 87.8332C238.276 87.16 238.102 86.3164 238.102 85.3024C238.102 84.2799 238.276 83.4363 238.626 82.7717C238.984 82.0985 239.491 81.5958 240.147 81.2635C240.811 80.9311 241.595 80.765 242.499 80.765C243.419 80.765 244.207 80.9311 244.863 81.2635C245.519 81.5958 246.022 82.0985 246.371 82.7717C246.729 83.4363 246.908 84.2799 246.908 85.3024C246.908 86.3164 246.729 87.16 246.371 87.8332C246.022 88.5064 245.519 89.0091 244.863 89.3414C244.207 89.6737 243.419 89.8399 242.499 89.8399ZM242.499 88.6257C242.967 88.6257 243.38 88.5617 243.738 88.4339C244.105 88.3061 244.411 88.1101 244.659 87.846C244.914 87.5818 245.106 87.2495 245.234 86.849C245.37 86.4485 245.438 85.9841 245.438 85.4558V85.1746C245.438 84.6293 245.37 84.1564 245.234 83.7559C245.106 83.3554 244.914 83.0231 244.659 82.7589C244.411 82.4947 244.105 82.2988 243.738 82.1709C243.38 82.0431 242.967 81.9792 242.499 81.9792C242.038 81.9792 241.625 82.0431 241.259 82.1709C240.901 82.2988 240.594 82.4947 240.338 82.7589C240.091 83.0231 239.904 83.3554 239.776 83.7559C239.648 84.1564 239.584 84.6293 239.584 85.1746V85.4558C239.584 85.9841 239.648 86.4485 239.776 86.849C239.904 87.2495 240.091 87.5818 240.338 87.846C240.594 88.1101 240.901 88.3061 241.259 88.4339C241.625 88.5617 242.038 88.6257 242.499 88.6257ZM248.674 89.6865V84.0626H247.69V82.9634H248.674V81.992C248.674 81.7108 248.717 81.4467 248.802 81.1995C248.896 80.9524 249.053 80.7479 249.275 80.586C249.505 80.4241 249.829 80.3432 250.246 80.3432C250.365 80.3432 250.485 80.3517 250.604 80.3687C250.732 80.3773 250.851 80.3943 250.962 80.4199C251.073 80.4454 251.171 80.4753 251.256 80.5093V81.4424H250.604C250.4 81.4424 250.246 81.4935 250.144 81.5958C250.05 81.698 250.003 81.8471 250.003 82.0431V82.9634H252.125V81.992C252.125 81.7108 252.168 81.4467 252.253 81.1995C252.347 80.9524 252.508 80.7479 252.739 80.586C252.969 80.4241 253.288 80.3432 253.697 80.3432C253.816 80.3432 253.936 80.3517 254.055 80.3687C254.183 80.3773 254.302 80.3943 254.413 80.4199C254.524 80.4454 254.622 80.4753 254.707 80.5093V81.4424H254.055C253.851 81.4424 253.697 81.4935 253.595 81.5958C253.501 81.698 253.454 81.8471 253.454 82.0431V82.9634H254.707V84.0626H253.454V89.6865H252.125V84.0626H250.003V89.6865H248.674ZM255.112 86.8746V85.5964H258.346V86.8746H255.112ZM263.689 89.8399C262.794 89.8399 262.031 89.6823 261.401 89.367C260.779 89.0432 260.302 88.5447 259.969 87.8715C259.637 87.1984 259.471 86.342 259.471 85.3024C259.471 83.7686 259.842 82.6311 260.583 81.8898C261.333 81.1399 262.372 80.765 263.702 80.765C264.434 80.765 265.091 80.8885 265.67 81.1356C266.258 81.3828 266.718 81.7534 267.05 82.2476C267.391 82.7333 267.562 83.3554 267.562 84.1138H266.105C266.105 83.6451 266.007 83.2531 265.811 82.9378C265.615 82.6226 265.333 82.384 264.967 82.2221C264.609 82.0602 264.192 81.9792 263.714 81.9792C263.118 81.9792 262.611 82.0985 262.193 82.3371C261.784 82.5672 261.473 82.9165 261.26 83.3852C261.056 83.8539 260.954 84.4503 260.954 85.1746V85.4558C260.954 86.1801 261.056 86.7766 261.26 87.2452C261.473 87.7139 261.784 88.0633 262.193 88.2933C262.602 88.5149 263.109 88.6257 263.714 88.6257C264.209 88.6257 264.639 88.549 265.005 88.3956C265.372 88.2337 265.653 87.9951 265.849 87.6798C266.053 87.3645 266.156 86.9726 266.156 86.5039H267.562C267.562 87.2623 267.391 87.8886 267.05 88.3828C266.718 88.877 266.258 89.2434 265.67 89.482C265.091 89.7206 264.43 89.8399 263.689 89.8399ZM269.704 92.0128C269.448 92.0128 269.235 91.9915 269.065 91.9489C268.894 91.9148 268.788 91.8935 268.745 91.885V90.9263H269.384C269.572 90.9263 269.759 90.8837 269.947 90.7985C270.143 90.7133 270.317 90.577 270.471 90.3895C270.624 90.202 270.752 89.9677 270.854 89.6865L268.234 82.9634H269.627L270.931 86.3122C270.991 86.4656 271.055 86.6573 271.123 86.8874C271.199 87.1174 271.272 87.3518 271.34 87.5903C271.417 87.8289 271.481 88.042 271.532 88.2294H271.596C271.638 88.1016 271.681 87.9567 271.723 87.7948C271.775 87.6244 271.826 87.4497 271.877 87.2708C271.928 87.0919 271.979 86.9214 272.03 86.7595C272.081 86.5891 272.124 86.4443 272.158 86.325L273.244 82.9634H274.599L272.324 89.4309C272.196 89.7888 272.056 90.1254 271.902 90.4406C271.749 90.7559 271.57 91.0286 271.366 91.2587C271.17 91.4972 270.935 91.6805 270.663 91.8083C270.39 91.9446 270.07 92.0128 269.704 92.0128ZM278.212 89.8399C277.539 89.8399 276.977 89.7163 276.525 89.4692C276.073 89.2136 275.733 88.8259 275.503 88.3061C275.281 87.7863 275.17 87.1259 275.17 86.325C275.17 85.524 275.285 84.8679 275.515 84.3566C275.745 83.8368 276.086 83.4491 276.538 83.1935C276.998 82.9378 277.56 82.81 278.225 82.81C278.685 82.81 279.086 82.8697 279.427 82.989C279.767 83.0997 280.057 83.2702 280.296 83.5002C280.534 83.7218 280.709 83.9987 280.82 84.331C280.939 84.6634 280.999 85.0425 280.999 85.4686H279.657C279.657 85.1107 279.605 84.8167 279.503 84.5867C279.401 84.3566 279.243 84.1862 279.03 84.0754C278.817 83.9561 278.54 83.8965 278.199 83.8965C277.842 83.8965 277.539 83.9817 277.292 84.1521C277.045 84.314 276.857 84.5654 276.73 84.9062C276.602 85.2385 276.538 85.6774 276.538 86.2227V86.44C276.538 86.9598 276.598 87.3944 276.717 87.7437C276.845 88.0846 277.032 88.3402 277.279 88.5106C277.535 88.6725 277.859 88.7535 278.251 88.7535C278.591 88.7535 278.864 88.6938 279.069 88.5745C279.282 88.4467 279.439 88.2678 279.542 88.0377C279.652 87.7991 279.708 87.5137 279.708 87.1813H280.999C280.999 87.5818 280.939 87.944 280.82 88.2678C280.709 88.5916 280.534 88.8728 280.296 89.1114C280.066 89.3414 279.776 89.5204 279.427 89.6482C279.077 89.776 278.672 89.8399 278.212 89.8399ZM282.344 89.6865V80.4454H283.673V89.6865H282.344ZM288.176 89.8399C287.485 89.8399 286.906 89.7163 286.437 89.4692C285.977 89.2136 285.628 88.8259 285.389 88.3061C285.151 87.7863 285.031 87.1259 285.031 86.325C285.031 85.5155 285.151 84.8551 285.389 84.3438C285.628 83.824 285.981 83.4406 286.45 83.1935C286.919 82.9378 287.502 82.81 288.201 82.81C288.84 82.81 289.373 82.9336 289.799 83.1807C290.233 83.4193 290.562 83.7857 290.783 84.2799C291.005 84.7741 291.115 85.3962 291.115 86.146V86.6573H286.399C286.416 87.1345 286.488 87.535 286.616 87.8588C286.744 88.174 286.936 88.4084 287.191 88.5617C287.456 88.7066 287.788 88.779 288.188 88.779C288.436 88.779 288.657 88.7492 288.853 88.6896C289.049 88.6214 289.215 88.5277 289.352 88.4084C289.488 88.2805 289.594 88.1314 289.671 87.961C289.748 87.7821 289.786 87.5818 289.786 87.3603H291.09C291.09 87.7608 291.022 88.1144 290.885 88.4211C290.749 88.7279 290.549 88.9878 290.285 89.2008C290.029 89.4053 289.722 89.563 289.364 89.6737C289.006 89.7845 288.61 89.8399 288.176 89.8399ZM286.425 85.6859H289.722C289.722 85.3536 289.684 85.0766 289.607 84.8551C289.539 84.625 289.437 84.4376 289.3 84.2927C289.164 84.1478 289.002 84.0456 288.815 83.9859C288.627 83.9178 288.414 83.8837 288.176 83.8837C287.818 83.8837 287.511 83.9476 287.255 84.0754C287.008 84.2032 286.817 84.4035 286.68 84.6761C286.544 84.9403 286.459 85.2769 286.425 85.6859ZM295.267 89.6865V80.9184H299.638C300.26 80.9184 300.776 81.0334 301.185 81.2635C301.594 81.4935 301.9 81.8131 302.105 82.2221C302.318 82.6226 302.424 83.0997 302.424 83.6536C302.424 84.2075 302.314 84.6974 302.092 85.1235C301.871 85.541 301.547 85.8648 301.121 86.0949C300.703 86.325 300.192 86.44 299.587 86.44H296.698V89.6865H295.267ZM296.698 85.213H299.523C299.975 85.213 300.328 85.0766 300.584 84.804C300.848 84.5313 300.98 84.1521 300.98 83.6664C300.98 83.3426 300.925 83.0699 300.814 82.8484C300.703 82.6183 300.541 82.4436 300.328 82.3243C300.115 82.205 299.847 82.1454 299.523 82.1454H296.698V85.213ZM305.188 89.8399C304.975 89.8399 304.745 89.8143 304.498 89.7632C304.251 89.7121 304.016 89.6184 303.795 89.482C303.582 89.3457 303.407 89.1582 303.271 88.9196C303.135 88.6725 303.066 88.353 303.066 87.961C303.066 87.5009 303.173 87.1217 303.386 86.8234C303.599 86.5252 303.897 86.2909 304.281 86.1205C304.664 85.95 305.12 85.8307 305.648 85.7626C306.185 85.6944 306.769 85.6603 307.399 85.6603V84.9957C307.399 84.7741 307.361 84.5781 307.284 84.4077C307.216 84.2373 307.084 84.1052 306.888 84.0115C306.701 83.9178 306.428 83.8709 306.07 83.8709C305.712 83.8709 305.431 83.9178 305.226 84.0115C305.03 84.0967 304.89 84.2075 304.805 84.3438C304.728 84.4716 304.69 84.6122 304.69 84.7656V84.9573H303.411C303.403 84.9147 303.399 84.8721 303.399 84.8295C303.399 84.7869 303.399 84.7358 303.399 84.6761C303.399 84.2757 303.509 83.9391 303.731 83.6664C303.961 83.3852 304.281 83.1722 304.69 83.0273C305.099 82.8825 305.572 82.81 306.108 82.81C306.688 82.81 307.169 82.8952 307.553 83.0657C307.945 83.2276 308.239 83.4619 308.435 83.7686C308.631 84.0754 308.729 84.4461 308.729 84.8806V88.2933C308.729 88.4552 308.767 88.5703 308.844 88.6384C308.929 88.7066 309.027 88.7407 309.138 88.7407H309.598V89.6354C309.496 89.678 309.368 89.7206 309.214 89.7632C309.061 89.8058 308.882 89.8271 308.677 89.8271C308.447 89.8271 308.251 89.7845 308.09 89.6993C307.936 89.6226 307.808 89.5118 307.706 89.367C307.612 89.2136 307.548 89.0432 307.514 88.8557H307.438C307.284 89.0517 307.097 89.2264 306.875 89.3798C306.662 89.5246 306.415 89.6354 306.134 89.7121C305.853 89.7973 305.537 89.8399 305.188 89.8399ZM305.559 88.7407C305.823 88.7407 306.066 88.7023 306.287 88.6257C306.517 88.5404 306.713 88.4254 306.875 88.2805C307.037 88.1272 307.165 87.9482 307.259 87.7437C307.352 87.5307 307.399 87.3006 307.399 87.0535V86.6062C306.811 86.6062 306.296 86.6402 305.853 86.7084C305.41 86.7766 305.065 86.9044 304.817 87.0919C304.57 87.2708 304.447 87.5222 304.447 87.846C304.447 88.042 304.489 88.2081 304.575 88.3445C304.66 88.4723 304.788 88.5703 304.958 88.6384C305.128 88.7066 305.329 88.7407 305.559 88.7407ZM311.244 92.0128C310.988 92.0128 310.775 91.9915 310.605 91.9489C310.435 91.9148 310.328 91.8935 310.285 91.885V90.9263H310.925C311.112 90.9263 311.299 90.8837 311.487 90.7985C311.683 90.7133 311.858 90.577 312.011 90.3895C312.164 90.202 312.292 89.9677 312.394 89.6865L309.774 82.9634H311.167L312.471 86.3122C312.531 86.4656 312.595 86.6573 312.663 86.8874C312.74 87.1174 312.812 87.3518 312.88 87.5903C312.957 87.8289 313.021 88.042 313.072 88.2294H313.136C313.178 88.1016 313.221 87.9567 313.264 87.7948C313.315 87.6244 313.366 87.4497 313.417 87.2708C313.468 87.0919 313.519 86.9214 313.57 86.7595C313.621 86.5891 313.664 86.4443 313.698 86.325L314.785 82.9634H316.139L313.864 89.4309C313.736 89.7888 313.596 90.1254 313.443 90.4406C313.289 90.7559 313.11 91.0286 312.906 91.2587C312.71 91.4972 312.475 91.6805 312.203 91.8083C311.93 91.9446 311.61 92.0128 311.244 92.0128ZM319.906 89.6865V80.9184H323.293C324.197 80.9184 324.968 81.076 325.607 81.3913C326.246 81.698 326.736 82.1752 327.077 82.8228C327.426 83.4619 327.601 84.2884 327.601 85.3024C327.601 86.3079 327.426 87.1345 327.077 87.7821C326.736 88.4297 326.246 88.9111 325.607 89.2264C324.968 89.5331 324.197 89.6865 323.293 89.6865H319.906ZM321.338 88.4595H323.281C323.732 88.4595 324.133 88.3998 324.482 88.2805C324.84 88.1613 325.138 87.9781 325.377 87.7309C325.624 87.4838 325.807 87.1728 325.926 86.7979C326.054 86.4144 326.118 85.9628 326.118 85.443V85.1746C326.118 84.6463 326.054 84.1947 325.926 83.8198C325.807 83.4363 325.624 83.121 325.377 82.8739C325.138 82.6268 324.84 82.4436 324.482 82.3243C324.133 82.205 323.732 82.1454 323.281 82.1454H321.338V88.4595ZM331.863 89.8399C331.172 89.8399 330.593 89.7163 330.124 89.4692C329.664 89.2136 329.315 88.8259 329.076 88.3061C328.838 87.7863 328.718 87.1259 328.718 86.325C328.718 85.5155 328.838 84.8551 329.076 84.3438C329.315 83.824 329.669 83.4406 330.137 83.1935C330.606 82.9378 331.19 82.81 331.888 82.81C332.527 82.81 333.06 82.9336 333.486 83.1807C333.921 83.4193 334.249 83.7857 334.47 84.2799C334.692 84.7741 334.802 85.3962 334.802 86.146V86.6573H330.086C330.103 87.1345 330.176 87.535 330.303 87.8588C330.431 88.174 330.623 88.4084 330.879 88.5617C331.143 88.7066 331.475 88.779 331.875 88.779C332.123 88.779 332.344 88.7492 332.54 88.6896C332.736 88.6214 332.902 88.5277 333.039 88.4084C333.175 88.2805 333.281 88.1314 333.358 87.961C333.435 87.7821 333.473 87.5818 333.473 87.3603H334.777C334.777 87.7608 334.709 88.1144 334.572 88.4211C334.436 88.7279 334.236 88.9878 333.972 89.2008C333.716 89.4053 333.409 89.563 333.051 89.6737C332.693 89.7845 332.297 89.8399 331.863 89.8399ZM330.112 85.6859H333.409C333.409 85.3536 333.371 85.0766 333.294 84.8551C333.226 84.625 333.124 84.4376 332.987 84.2927C332.851 84.1478 332.689 84.0456 332.502 83.9859C332.314 83.9178 332.101 83.8837 331.863 83.8837C331.505 83.8837 331.198 83.9476 330.942 84.0754C330.695 84.2032 330.504 84.4035 330.367 84.6761C330.231 84.9403 330.146 85.2769 330.112 85.6859ZM338.825 89.8399C338.152 89.8399 337.589 89.7163 337.138 89.4692C336.686 89.2136 336.345 88.8259 336.115 88.3061C335.894 87.7863 335.783 87.1259 335.783 86.325C335.783 85.524 335.898 84.8679 336.128 84.3566C336.358 83.8368 336.699 83.4491 337.151 83.1935C337.611 82.9378 338.173 82.81 338.838 82.81C339.298 82.81 339.698 82.8697 340.039 82.989C340.38 83.0997 340.67 83.2702 340.908 83.5002C341.147 83.7218 341.322 83.9987 341.432 84.331C341.552 84.6634 341.611 85.0425 341.611 85.4686H340.269C340.269 85.1107 340.218 84.8167 340.116 84.5867C340.014 84.3566 339.856 84.1862 339.643 84.0754C339.43 83.9561 339.153 83.8965 338.812 83.8965C338.454 83.8965 338.152 83.9817 337.905 84.1521C337.658 84.314 337.47 84.5654 337.342 84.9062C337.214 85.2385 337.151 85.6774 337.151 86.2227V86.44C337.151 86.9598 337.21 87.3944 337.33 87.7437C337.457 88.0846 337.645 88.3402 337.892 88.5106C338.148 88.6725 338.471 88.7535 338.863 88.7535C339.204 88.7535 339.477 88.6938 339.681 88.5745C339.894 88.4467 340.052 88.2678 340.154 88.0377C340.265 87.7991 340.32 87.5137 340.32 87.1813H341.611C341.611 87.5818 341.552 87.944 341.432 88.2678C341.322 88.5916 341.147 88.8728 340.908 89.1114C340.678 89.3414 340.389 89.5204 340.039 89.6482C339.69 89.776 339.285 89.8399 338.825 89.8399ZM342.956 81.8003V80.4454H344.286V81.8003H342.956ZM342.956 89.6865V82.9634H344.286V89.6865H342.956ZM348.482 89.8399C348.013 89.8399 347.6 89.7888 347.242 89.6865C346.884 89.5843 346.586 89.4437 346.347 89.2647C346.108 89.0858 345.925 88.8728 345.797 88.6257C345.678 88.37 345.618 88.0888 345.618 87.7821C345.618 87.7395 345.618 87.7011 345.618 87.667C345.627 87.6329 345.631 87.6031 345.631 87.5776H346.948C346.948 87.6031 346.948 87.6287 346.948 87.6543C346.948 87.6713 346.948 87.6926 346.948 87.7182C346.948 87.9823 347.02 88.1953 347.165 88.3572C347.31 88.5106 347.502 88.6214 347.74 88.6896C347.987 88.7492 348.256 88.779 348.545 88.779C348.801 88.779 349.035 88.7492 349.248 88.6896C349.47 88.6214 349.649 88.5234 349.785 88.3956C349.93 88.2678 350.003 88.1059 350.003 87.9099C350.003 87.6543 349.913 87.4583 349.734 87.3219C349.555 87.1856 349.321 87.0791 349.031 87.0024C348.741 86.9172 348.439 86.8277 348.124 86.734C347.842 86.6573 347.561 86.5763 347.28 86.4911C347.007 86.3974 346.76 86.2781 346.539 86.1332C346.317 85.9884 346.138 85.8052 346.002 85.5836C345.866 85.3621 345.797 85.0852 345.797 84.7528C345.797 84.4376 345.866 84.1606 346.002 83.922C346.138 83.6834 346.326 83.4832 346.564 83.3213C346.811 83.1594 347.101 83.0358 347.433 82.9506C347.774 82.8654 348.145 82.8228 348.545 82.8228C348.963 82.8228 349.334 82.8697 349.657 82.9634C349.981 83.0486 350.254 83.1722 350.475 83.3341C350.706 83.496 350.88 83.692 351 83.922C351.119 84.1436 351.178 84.3822 351.178 84.6378C351.178 84.6889 351.174 84.7443 351.166 84.804C351.166 84.8551 351.166 84.8892 351.166 84.9062H349.862V84.7912C349.862 84.6208 349.815 84.4674 349.721 84.331C349.628 84.1947 349.479 84.0839 349.274 83.9987C349.078 83.9135 348.814 83.8709 348.482 83.8709C348.26 83.8709 348.064 83.8922 347.894 83.9348C347.723 83.9689 347.583 84.02 347.472 84.0882C347.361 84.1564 347.276 84.2373 347.216 84.331C347.165 84.4248 347.139 84.5313 347.139 84.6506C347.139 84.8466 347.208 84.9999 347.344 85.1107C347.489 85.213 347.676 85.3024 347.906 85.3791C348.136 85.4473 348.384 85.524 348.648 85.6092C348.954 85.6944 349.265 85.7839 349.581 85.8776C349.896 85.9628 350.186 86.0736 350.45 86.2099C350.723 86.3463 350.94 86.5337 351.102 86.7723C351.272 87.0109 351.357 87.3305 351.357 87.7309C351.357 88.0973 351.285 88.4169 351.14 88.6896C350.995 88.9622 350.791 89.1838 350.527 89.3542C350.271 89.5161 349.968 89.6354 349.619 89.7121C349.27 89.7973 348.891 89.8399 348.482 89.8399ZM352.705 81.8003V80.4454H354.034V81.8003H352.705ZM352.705 89.6865V82.9634H354.034V89.6865H352.705ZM358.613 89.8399C357.915 89.8399 357.323 89.7163 356.837 89.4692C356.36 89.2136 355.997 88.8259 355.75 88.3061C355.512 87.7863 355.392 87.1259 355.392 86.325C355.392 85.5155 355.512 84.8551 355.75 84.3438C355.997 83.824 356.36 83.4406 356.837 83.1935C357.323 82.9378 357.915 82.81 358.613 82.81C359.329 82.81 359.926 82.9378 360.403 83.1935C360.88 83.4406 361.238 83.824 361.477 84.3438C361.724 84.8551 361.847 85.5155 361.847 86.325C361.847 87.1259 361.724 87.7863 361.477 88.3061C361.238 88.8259 360.88 89.2136 360.403 89.4692C359.926 89.7163 359.329 89.8399 358.613 89.8399ZM358.613 88.7407C359.04 88.7407 359.389 88.6597 359.662 88.4978C359.934 88.3274 360.134 88.0718 360.262 87.7309C360.399 87.3901 360.467 86.9598 360.467 86.44V86.2099C360.467 85.6901 360.399 85.2598 360.262 84.919C360.134 84.5781 359.934 84.3268 359.662 84.1649C359.389 83.9945 359.04 83.9092 358.613 83.9092C358.196 83.9092 357.851 83.9945 357.578 84.1649C357.305 84.3268 357.101 84.5781 356.965 84.919C356.837 85.2598 356.773 85.6901 356.773 86.2099V86.44C356.773 86.9598 356.837 87.3901 356.965 87.7309C357.101 88.0718 357.305 88.3274 357.578 88.4978C357.851 88.6597 358.196 88.7407 358.613 88.7407ZM363.202 89.6865V82.9634H364.301L364.416 83.922H364.506C364.668 83.6749 364.86 83.4704 365.081 83.3085C365.303 83.1466 365.545 83.0231 365.81 82.9378C366.082 82.8526 366.381 82.81 366.704 82.81C367.13 82.81 367.505 82.8867 367.829 83.0401C368.153 83.185 368.404 83.4235 368.583 83.7559C368.771 84.0882 368.864 84.5355 368.864 85.0979V89.6865H367.535V85.3024C367.535 85.0468 367.501 84.8338 367.433 84.6634C367.373 84.4929 367.284 84.3566 367.164 84.2543C367.045 84.1521 366.905 84.0797 366.743 84.0371C366.581 83.9945 366.402 83.9732 366.206 83.9732C365.899 83.9732 365.618 84.0498 365.362 84.2032C365.115 84.3481 364.915 84.5526 364.762 84.8167C364.608 85.0809 364.531 85.3919 364.531 85.7498V89.6865H363.202ZM373.009 89.8399C372.54 89.8399 372.127 89.7888 371.769 89.6865C371.411 89.5843 371.113 89.4437 370.874 89.2647C370.636 89.0858 370.452 88.8728 370.325 88.6257C370.205 88.37 370.146 88.0888 370.146 87.7821C370.146 87.7395 370.146 87.7011 370.146 87.667C370.154 87.6329 370.158 87.6031 370.158 87.5776H371.475C371.475 87.6031 371.475 87.6287 371.475 87.6543C371.475 87.6713 371.475 87.6926 371.475 87.7182C371.475 87.9823 371.547 88.1953 371.692 88.3572C371.837 88.5106 372.029 88.6214 372.267 88.6896C372.515 88.7492 372.783 88.779 373.073 88.779C373.328 88.779 373.563 88.7492 373.776 88.6896C373.997 88.6214 374.176 88.5234 374.312 88.3956C374.457 88.2678 374.53 88.1059 374.53 87.9099C374.53 87.6543 374.44 87.4583 374.261 87.3219C374.082 87.1856 373.848 87.0791 373.558 87.0024C373.269 86.9172 372.966 86.8277 372.651 86.734C372.37 86.6573 372.088 86.5763 371.807 86.4911C371.535 86.3974 371.287 86.2781 371.066 86.1332C370.844 85.9884 370.665 85.8052 370.529 85.5836C370.393 85.3621 370.325 85.0852 370.325 84.7528C370.325 84.4376 370.393 84.1606 370.529 83.922C370.665 83.6834 370.853 83.4832 371.091 83.3213C371.339 83.1594 371.628 83.0358 371.961 82.9506C372.301 82.8654 372.672 82.8228 373.073 82.8228C373.49 82.8228 373.861 82.8697 374.185 82.9634C374.508 83.0486 374.781 83.1722 375.003 83.3341C375.233 83.496 375.407 83.692 375.527 83.922C375.646 84.1436 375.706 84.3822 375.706 84.6378C375.706 84.6889 375.701 84.7443 375.693 84.804C375.693 84.8551 375.693 84.8892 375.693 84.9062H374.389V84.7912C374.389 84.6208 374.342 84.4674 374.249 84.331C374.155 84.1947 374.006 84.0839 373.801 83.9987C373.605 83.9135 373.341 83.8709 373.009 83.8709C372.787 83.8709 372.591 83.8922 372.421 83.9348C372.25 83.9689 372.11 84.02 371.999 84.0882C371.888 84.1564 371.803 84.2373 371.743 84.331C371.692 84.4248 371.667 84.5313 371.667 84.6506C371.667 84.8466 371.735 84.9999 371.871 85.1107C372.016 85.213 372.203 85.3024 372.434 85.3791C372.664 85.4473 372.911 85.524 373.175 85.6092C373.482 85.6944 373.793 85.7839 374.108 85.8776C374.423 85.9628 374.713 86.0736 374.977 86.2099C375.25 86.3463 375.467 86.5337 375.629 86.7723C375.799 87.0109 375.885 87.3305 375.885 87.7309C375.885 88.0973 375.812 88.4169 375.667 88.6896C375.522 88.9622 375.318 89.1838 375.054 89.3542C374.798 89.5161 374.496 89.6354 374.146 89.7121C373.797 89.7973 373.418 89.8399 373.009 89.8399Z" fill="#505069"/>
<path d="M148.994 210.313V201.545H153.365C153.987 201.545 154.503 201.66 154.912 201.89C155.321 202.12 155.627 202.439 155.832 202.848C156.045 203.249 156.151 203.726 156.151 204.28C156.151 204.834 156.041 205.324 155.819 205.75C155.598 206.167 155.274 206.491 154.848 206.721C154.43 206.951 153.919 207.066 153.314 207.066H150.425V210.313H148.994ZM150.425 205.839H153.25C153.702 205.839 154.055 205.703 154.311 205.43C154.575 205.158 154.707 204.778 154.707 204.293C154.707 203.969 154.652 203.696 154.541 203.475C154.43 203.245 154.268 203.07 154.055 202.951C153.842 202.831 153.574 202.772 153.25 202.772H150.425V205.839ZM157.34 210.313V203.59H158.439L158.554 204.676H158.631C158.708 204.463 158.806 204.263 158.925 204.075C159.053 203.888 159.215 203.734 159.411 203.615C159.615 203.496 159.862 203.436 160.152 203.436C160.288 203.436 160.408 203.449 160.51 203.475C160.621 203.5 160.706 203.521 160.766 203.539V204.791H160.318C160.046 204.791 159.803 204.834 159.59 204.919C159.385 205.004 159.21 205.132 159.066 205.302C158.929 205.464 158.827 205.665 158.759 205.903C158.699 206.142 158.669 206.41 158.669 206.708V210.313H157.34ZM164.497 210.466C163.798 210.466 163.206 210.343 162.72 210.095C162.243 209.84 161.881 209.452 161.634 208.932C161.395 208.413 161.276 207.752 161.276 206.951C161.276 206.142 161.395 205.481 161.634 204.97C161.881 204.45 162.243 204.067 162.72 203.82C163.206 203.564 163.798 203.436 164.497 203.436C165.213 203.436 165.809 203.564 166.286 203.82C166.764 204.067 167.121 204.45 167.36 204.97C167.607 205.481 167.731 206.142 167.731 206.951C167.731 207.752 167.607 208.413 167.36 208.932C167.121 209.452 166.764 209.84 166.286 210.095C165.809 210.343 165.213 210.466 164.497 210.466ZM164.497 209.367C164.923 209.367 165.272 209.286 165.545 209.124C165.818 208.954 166.018 208.698 166.146 208.357C166.282 208.016 166.35 207.586 166.35 207.066V206.836C166.35 206.316 166.282 205.886 166.146 205.545C166.018 205.204 165.818 204.953 165.545 204.791C165.272 204.621 164.923 204.535 164.497 204.535C164.079 204.535 163.734 204.621 163.462 204.791C163.189 204.953 162.984 205.204 162.848 205.545C162.72 205.886 162.656 206.316 162.656 206.836V207.066C162.656 207.586 162.72 208.016 162.848 208.357C162.984 208.698 163.189 208.954 163.462 209.124C163.734 209.286 164.079 209.367 164.497 209.367ZM169.086 210.313V203.59H170.185L170.3 204.548H170.389C170.543 204.301 170.717 204.097 170.913 203.935C171.118 203.773 171.344 203.649 171.591 203.564C171.846 203.479 172.119 203.436 172.409 203.436C172.826 203.436 173.189 203.521 173.495 203.692C173.811 203.862 174.049 204.148 174.211 204.548H174.301C174.454 204.31 174.633 204.109 174.837 203.948C175.042 203.777 175.272 203.649 175.528 203.564C175.792 203.479 176.073 203.436 176.371 203.436C176.772 203.436 177.125 203.509 177.432 203.654C177.739 203.79 177.982 204.024 178.161 204.357C178.34 204.68 178.429 205.115 178.429 205.66V210.313H177.1V205.903C177.1 205.647 177.07 205.439 177.01 205.277C176.951 205.106 176.87 204.974 176.767 204.881C176.665 204.778 176.542 204.706 176.397 204.663C176.252 204.621 176.094 204.599 175.924 204.599C175.643 204.599 175.391 204.676 175.17 204.829C174.948 204.974 174.769 205.179 174.633 205.443C174.497 205.707 174.428 206.018 174.428 206.376V210.313H173.099V205.903C173.099 205.647 173.069 205.439 173.01 205.277C172.95 205.106 172.869 204.974 172.767 204.881C172.665 204.778 172.541 204.706 172.396 204.663C172.251 204.621 172.098 204.599 171.936 204.599C171.655 204.599 171.399 204.676 171.169 204.829C170.939 204.974 170.756 205.179 170.619 205.443C170.483 205.707 170.415 206.018 170.415 206.376V210.313H169.086ZM182.945 210.466C182.247 210.466 181.654 210.343 181.169 210.095C180.692 209.84 180.329 209.452 180.082 208.932C179.844 208.413 179.724 207.752 179.724 206.951C179.724 206.142 179.844 205.481 180.082 204.97C180.329 204.45 180.692 204.067 181.169 203.82C181.654 203.564 182.247 203.436 182.945 203.436C183.661 203.436 184.258 203.564 184.735 203.82C185.212 204.067 185.57 204.45 185.808 204.97C186.056 205.481 186.179 206.142 186.179 206.951C186.179 207.752 186.056 208.413 185.808 208.932C185.57 209.452 185.212 209.84 184.735 210.095C184.258 210.343 183.661 210.466 182.945 210.466ZM182.945 209.367C183.371 209.367 183.721 209.286 183.993 209.124C184.266 208.954 184.466 208.698 184.594 208.357C184.731 208.016 184.799 207.586 184.799 207.066V206.836C184.799 206.316 184.731 205.886 184.594 205.545C184.466 205.204 184.266 204.953 183.993 204.791C183.721 204.621 183.371 204.535 182.945 204.535C182.528 204.535 182.183 204.621 181.91 204.791C181.637 204.953 181.433 205.204 181.297 205.545C181.169 205.886 181.105 206.316 181.105 206.836V207.066C181.105 207.586 181.169 208.016 181.297 208.357C181.433 208.698 181.637 208.954 181.91 209.124C182.183 209.286 182.528 209.367 182.945 209.367ZM189.208 210.466C188.825 210.466 188.523 210.394 188.301 210.249C188.088 210.095 187.935 209.904 187.841 209.674C187.756 209.435 187.713 209.184 187.713 208.92V204.689H186.869V203.59H187.739L187.981 201.711H189.042V203.59H190.257V204.689H189.042V208.766C189.042 208.962 189.085 209.111 189.17 209.214C189.255 209.316 189.396 209.367 189.592 209.367H190.257V210.262C190.171 210.296 190.065 210.326 189.937 210.351C189.818 210.385 189.694 210.411 189.566 210.428C189.439 210.453 189.319 210.466 189.208 210.466ZM191.428 202.427V201.072H192.758V202.427H191.428ZM191.428 210.313V203.59H192.758V210.313H191.428ZM197.337 210.466C196.638 210.466 196.046 210.343 195.561 210.095C195.083 209.84 194.721 209.452 194.474 208.932C194.236 208.413 194.116 207.752 194.116 206.951C194.116 206.142 194.236 205.481 194.474 204.97C194.721 204.45 195.083 204.067 195.561 203.82C196.046 203.564 196.638 203.436 197.337 203.436C198.053 203.436 198.649 203.564 199.127 203.82C199.604 204.067 199.962 204.45 200.2 204.97C200.447 205.481 200.571 206.142 200.571 206.951C200.571 207.752 200.447 208.413 200.2 208.932C199.962 209.452 199.604 209.84 199.127 210.095C198.649 210.343 198.053 210.466 197.337 210.466ZM197.337 209.367C197.763 209.367 198.113 209.286 198.385 209.124C198.658 208.954 198.858 208.698 198.986 208.357C199.122 208.016 199.191 207.586 199.191 207.066V206.836C199.191 206.316 199.122 205.886 198.986 205.545C198.858 205.204 198.658 204.953 198.385 204.791C198.113 204.621 197.763 204.535 197.337 204.535C196.92 204.535 196.575 204.621 196.302 204.791C196.029 204.953 195.825 205.204 195.688 205.545C195.561 205.886 195.497 206.316 195.497 206.836V207.066C195.497 207.586 195.561 208.016 195.688 208.357C195.825 208.698 196.029 208.954 196.302 209.124C196.575 209.286 196.92 209.367 197.337 209.367ZM201.926 210.313V203.59H203.025L203.14 204.548H203.23C203.391 204.301 203.583 204.097 203.805 203.935C204.026 203.773 204.269 203.649 204.533 203.564C204.806 203.479 205.104 203.436 205.428 203.436C205.854 203.436 206.229 203.513 206.553 203.666C206.877 203.811 207.128 204.05 207.307 204.382C207.494 204.714 207.588 205.162 207.588 205.724V210.313H206.259V205.929C206.259 205.673 206.225 205.46 206.157 205.29C206.097 205.119 206.007 204.983 205.888 204.881C205.769 204.778 205.628 204.706 205.466 204.663C205.304 204.621 205.126 204.599 204.93 204.599C204.623 204.599 204.342 204.676 204.086 204.829C203.839 204.974 203.639 205.179 203.485 205.443C203.332 205.707 203.255 206.018 203.255 206.376V210.313H201.926ZM211.732 210.466C211.264 210.466 210.851 210.415 210.493 210.313C210.135 210.21 209.837 210.07 209.598 209.891C209.359 209.712 209.176 209.499 209.048 209.252C208.929 208.996 208.869 208.715 208.869 208.408C208.869 208.366 208.869 208.327 208.869 208.293C208.878 208.259 208.882 208.229 208.882 208.204H210.199C210.199 208.229 210.199 208.255 210.199 208.28C210.199 208.298 210.199 208.319 210.199 208.344C210.199 208.609 210.271 208.822 210.416 208.983C210.561 209.137 210.753 209.248 210.991 209.316C211.238 209.375 211.507 209.405 211.796 209.405C212.052 209.405 212.286 209.375 212.499 209.316C212.721 209.248 212.9 209.15 213.036 209.022C213.181 208.894 213.253 208.732 213.253 208.536C213.253 208.28 213.164 208.084 212.985 207.948C212.806 207.812 212.572 207.705 212.282 207.629C211.992 207.543 211.69 207.454 211.375 207.36C211.093 207.284 210.812 207.203 210.531 207.117C210.258 207.024 210.011 206.904 209.79 206.759C209.568 206.615 209.389 206.431 209.253 206.21C209.116 205.988 209.048 205.711 209.048 205.379C209.048 205.064 209.116 204.787 209.253 204.548C209.389 204.31 209.577 204.109 209.815 203.948C210.062 203.786 210.352 203.662 210.684 203.577C211.025 203.492 211.396 203.449 211.796 203.449C212.214 203.449 212.585 203.496 212.908 203.59C213.232 203.675 213.505 203.798 213.726 203.96C213.956 204.122 214.131 204.318 214.25 204.548C214.37 204.77 214.429 205.008 214.429 205.264C214.429 205.315 214.425 205.371 214.417 205.43C214.417 205.481 214.417 205.515 214.417 205.532H213.113V205.417C213.113 205.247 213.066 205.094 212.972 204.957C212.879 204.821 212.729 204.71 212.525 204.625C212.329 204.54 212.065 204.497 211.732 204.497C211.511 204.497 211.315 204.518 211.144 204.561C210.974 204.595 210.833 204.646 210.723 204.714C210.612 204.783 210.527 204.864 210.467 204.957C210.416 205.051 210.39 205.158 210.39 205.277C210.39 205.473 210.459 205.626 210.595 205.737C210.74 205.839 210.927 205.929 211.157 206.005C211.387 206.074 211.634 206.15 211.899 206.235C212.205 206.321 212.516 206.41 212.832 206.504C213.147 206.589 213.437 206.7 213.701 206.836C213.973 206.972 214.191 207.16 214.353 207.399C214.523 207.637 214.608 207.957 214.608 208.357C214.608 208.724 214.536 209.043 214.391 209.316C214.246 209.588 214.042 209.81 213.777 209.98C213.522 210.142 213.219 210.262 212.87 210.338C212.521 210.424 212.141 210.466 211.732 210.466Z" fill="#505069"/>
<path d="M112.86 89.6865V80.9184H114.292V84.5867H118.74V80.9184H120.171V89.6865H118.74V85.8137H114.292V89.6865H112.86ZM122.068 81.8003V80.4454H123.397V81.8003H122.068ZM122.068 89.6865V82.9634H123.397V89.6865H122.068ZM125.113 89.6865V82.9634H126.213L126.328 84.0498H126.404C126.481 83.8368 126.579 83.6366 126.698 83.4491C126.826 83.2616 126.988 83.1083 127.184 82.989C127.389 82.8697 127.636 82.81 127.925 82.81C128.062 82.81 128.181 82.8228 128.283 82.8484C128.394 82.8739 128.479 82.8952 128.539 82.9123V84.1649H128.091C127.819 84.1649 127.576 84.2075 127.363 84.2927C127.158 84.3779 126.984 84.5057 126.839 84.6761C126.703 84.838 126.6 85.0383 126.532 85.2769C126.472 85.5155 126.443 85.7839 126.443 86.0821V89.6865H125.113ZM129.532 81.8003V80.4454H130.861V81.8003H129.532ZM129.532 89.6865V82.9634H130.861V89.6865H129.532ZM132.578 89.6865V82.9634H133.677L133.792 83.922H133.881C134.043 83.6749 134.235 83.4704 134.457 83.3085C134.678 83.1466 134.921 83.0231 135.185 82.9378C135.458 82.8526 135.756 82.81 136.08 82.81C136.506 82.81 136.881 82.8867 137.205 83.0401C137.528 83.185 137.78 83.4235 137.959 83.7559C138.146 84.0882 138.24 84.5355 138.24 85.0979V89.6865H136.911V85.3024C136.911 85.0468 136.877 84.8338 136.808 84.6634C136.749 84.4929 136.659 84.3566 136.54 84.2543C136.421 84.1521 136.28 84.0797 136.118 84.0371C135.956 83.9945 135.777 83.9732 135.581 83.9732C135.275 83.9732 134.993 84.0498 134.738 84.2032C134.491 84.3481 134.29 84.5526 134.137 84.8167C133.984 85.0809 133.907 85.3919 133.907 85.7498V89.6865H132.578ZM141.029 92.0128C140.723 92.0128 140.433 91.9489 140.16 91.821C139.896 91.6932 139.683 91.51 139.521 91.2714C139.359 91.0329 139.278 90.7431 139.278 90.4023C139.278 90.0274 139.381 89.7249 139.585 89.4948C139.798 89.2562 140.045 89.0773 140.326 88.958C140.122 88.8642 139.956 88.7279 139.828 88.549C139.709 88.37 139.649 88.1655 139.649 87.9354C139.649 87.6202 139.764 87.3645 139.994 87.1686C140.224 86.9726 140.493 86.8447 140.799 86.7851C140.501 86.5891 140.267 86.342 140.096 86.0438C139.934 85.7455 139.853 85.409 139.853 85.034C139.853 84.5824 139.96 84.1947 140.173 83.8709C140.386 83.5386 140.701 83.2787 141.119 83.0912C141.545 82.9038 142.06 82.81 142.665 82.81C142.93 82.81 143.177 82.8313 143.407 82.8739C143.645 82.908 143.858 82.9591 144.046 83.0273C144.344 82.8739 144.557 82.6907 144.685 82.4777C144.813 82.2562 144.889 82.0517 144.915 81.8642H146.219C146.219 82.1454 146.159 82.401 146.04 82.6311C145.929 82.8526 145.771 83.0401 145.567 83.1935C145.371 83.3383 145.132 83.4406 144.851 83.5002C145.064 83.6962 145.222 83.9263 145.324 84.1904C145.435 84.4461 145.49 84.7273 145.49 85.034C145.49 85.4771 145.388 85.8648 145.183 86.1971C144.979 86.5295 144.668 86.7894 144.25 86.9768C143.841 87.1643 143.334 87.258 142.729 87.258H141.681C141.477 87.258 141.311 87.3006 141.183 87.3858C141.063 87.471 141.004 87.5989 141.004 87.7693C141.004 87.9141 141.063 88.0334 141.183 88.1272C141.302 88.2209 141.46 88.2678 141.656 88.2678H144.493C144.987 88.2678 145.396 88.4339 145.72 88.7662C146.044 89.09 146.206 89.5076 146.206 90.0188C146.206 90.3938 146.108 90.7304 145.912 91.0286C145.724 91.3353 145.456 91.5739 145.107 91.7444C144.766 91.9233 144.37 92.0128 143.918 92.0128H141.029ZM141.464 91.0286H143.905C144.084 91.0286 144.246 90.9945 144.391 90.9263C144.536 90.8582 144.651 90.7602 144.736 90.6324C144.821 90.5131 144.864 90.3767 144.864 90.2234C144.864 89.9677 144.783 89.7675 144.621 89.6226C144.468 89.4778 144.276 89.4053 144.046 89.4053H141.464C141.225 89.4053 141.025 89.4863 140.863 89.6482C140.701 89.8016 140.62 89.9933 140.62 90.2234C140.62 90.4619 140.697 90.6537 140.85 90.7985C141.012 90.9519 141.217 91.0286 141.464 91.0286ZM142.678 86.2994C143.181 86.2994 143.556 86.1886 143.803 85.9671C144.05 85.737 144.174 85.426 144.174 85.034C144.174 84.6335 144.05 84.3268 143.803 84.1138C143.556 83.8922 143.181 83.7814 142.678 83.7814C142.175 83.7814 141.801 83.8922 141.553 84.1138C141.306 84.3268 141.183 84.6335 141.183 85.034C141.183 85.2897 141.234 85.5155 141.336 85.7114C141.447 85.8989 141.613 86.0438 141.835 86.146C142.065 86.2483 142.346 86.2994 142.678 86.2994Z" fill="#505069"/>
<path d="M34.9663 248.99C34.1834 248.99 33.5161 248.852 32.9644 248.576C32.4201 248.293 32.0025 247.857 31.7118 247.268C31.421 246.679 31.2756 245.929 31.2756 245.02C31.2756 243.678 31.5999 242.682 32.2486 242.034C32.9047 241.378 33.8143 241.05 34.9775 241.05C35.6187 241.05 36.1928 241.158 36.6998 241.374C37.2142 241.59 37.6169 241.914 37.9076 242.347C38.2059 242.772 38.355 243.316 38.355 243.98H37.08C37.08 243.57 36.9943 243.227 36.8228 242.951C36.6513 242.675 36.4053 242.466 36.0847 242.325C35.7715 242.183 35.4062 242.112 34.9886 242.112C34.4667 242.112 34.0231 242.216 33.6578 242.425C33.2999 242.626 33.0277 242.932 32.8413 243.342C32.6624 243.752 32.5729 244.274 32.5729 244.908V245.154C32.5729 245.788 32.6624 246.31 32.8413 246.72C33.0277 247.13 33.2999 247.436 33.6578 247.637C34.0156 247.831 34.4593 247.928 34.9886 247.928C35.4211 247.928 35.7976 247.861 36.1182 247.726C36.4388 247.585 36.6849 247.376 36.8564 247.1C37.0353 246.824 37.1248 246.481 37.1248 246.071H38.355C38.355 246.735 38.2059 247.283 37.9076 247.715C37.6169 248.148 37.2142 248.468 36.6998 248.677C36.1928 248.886 35.6149 248.99 34.9663 248.99ZM39.7486 248.856V241.184H41.0012V247.771H44.8261V248.856H39.7486ZM49.059 248.99C48.2687 248.99 47.5828 248.845 47.0012 248.554C46.4271 248.263 45.9835 247.823 45.6703 247.234C45.3646 246.645 45.2118 245.907 45.2118 245.02C45.2118 244.125 45.3646 243.387 45.6703 242.805C45.9835 242.216 46.4271 241.776 47.0012 241.486C47.5828 241.195 48.2687 241.05 49.059 241.05C49.8643 241.05 50.5539 241.195 51.128 241.486C51.7022 241.776 52.1421 242.216 52.4477 242.805C52.7609 243.387 52.9175 244.125 52.9175 245.02C52.9175 245.907 52.7609 246.645 52.4477 247.234C52.1421 247.823 51.7022 248.263 51.128 248.554C50.5539 248.845 49.8643 248.99 49.059 248.99ZM49.059 247.928C49.4691 247.928 49.8307 247.872 50.1439 247.76C50.4645 247.648 50.7329 247.477 50.9491 247.245C51.1728 247.014 51.3405 246.724 51.4524 246.373C51.5717 246.023 51.6313 245.616 51.6313 245.154V244.908C51.6313 244.431 51.5717 244.017 51.4524 243.667C51.3405 243.316 51.1728 243.025 50.9491 242.794C50.7329 242.563 50.4645 242.392 50.1439 242.28C49.8307 242.168 49.4691 242.112 49.059 242.112C48.6564 242.112 48.2948 242.168 47.9742 242.28C47.661 242.392 47.3926 242.563 47.169 242.794C46.9527 243.025 46.7887 243.316 46.6769 243.667C46.565 244.017 46.5091 244.431 46.5091 244.908V245.154C46.5091 245.616 46.565 246.023 46.6769 246.373C46.7887 246.724 46.9527 247.014 47.169 247.245C47.3926 247.477 47.661 247.648 47.9742 247.76C48.2948 247.872 48.6564 247.928 49.059 247.928ZM57.2027 248.99C56.7851 248.99 56.3825 248.945 55.9948 248.856C55.6071 248.774 55.2641 248.64 54.9659 248.453C54.6676 248.259 54.4328 248.017 54.2613 247.726C54.0898 247.428 54.0041 247.074 54.0041 246.664C54.0041 246.619 54.0041 246.578 54.0041 246.541C54.0115 246.496 54.0152 246.459 54.0152 246.429H55.2678C55.2678 246.451 55.2641 246.485 55.2567 246.53C55.2567 246.574 55.2567 246.612 55.2567 246.641C55.2567 246.917 55.3387 247.152 55.5027 247.346C55.6667 247.54 55.8941 247.685 56.1849 247.782C56.4832 247.879 56.8224 247.928 57.2027 247.928C57.4114 247.928 57.6127 247.916 57.8066 247.894C58.0004 247.864 58.1756 247.823 58.3322 247.771C58.4963 247.711 58.6379 247.641 58.7572 247.559C58.8765 247.469 58.9697 247.365 59.0368 247.245C59.1039 247.126 59.1375 246.988 59.1375 246.832C59.1375 246.593 59.0666 246.395 58.925 246.239C58.7908 246.082 58.6044 245.952 58.3658 245.847C58.1346 245.743 57.87 245.65 57.5717 245.568C57.2809 245.486 56.979 245.404 56.6658 245.322C56.3527 245.24 56.047 245.143 55.7487 245.031C55.458 244.919 55.1933 244.785 54.9547 244.628C54.7236 244.464 54.5372 244.263 54.3955 244.024C54.2613 243.778 54.1942 243.48 54.1942 243.13C54.1942 242.794 54.265 242.496 54.4067 242.235C54.5483 241.974 54.7534 241.758 55.0218 241.586C55.2902 241.407 55.6108 241.273 55.9836 241.184C56.3564 241.094 56.7777 241.05 57.2474 241.05C57.65 241.05 58.0303 241.094 58.3881 241.184C58.746 241.266 59.0592 241.396 59.3276 241.575C59.596 241.754 59.8048 241.982 59.9539 242.257C60.1105 242.533 60.1887 242.861 60.1887 243.242V243.376H58.9473V243.23C58.9473 242.992 58.8765 242.79 58.7348 242.626C58.5932 242.462 58.3956 242.336 58.1421 242.246C57.8886 242.157 57.5941 242.112 57.2586 242.112C56.8634 242.112 56.5316 242.153 56.2632 242.235C55.9948 242.31 55.7898 242.418 55.6481 242.559C55.5139 242.694 55.4468 242.858 55.4468 243.051C55.4468 243.268 55.5176 243.447 55.6593 243.588C55.8009 243.722 55.9873 243.838 56.2185 243.935C56.4571 244.032 56.7217 244.121 57.0125 244.203C57.3108 244.278 57.6127 244.36 57.9184 244.449C58.2316 244.531 58.5335 244.628 58.8243 244.74C59.1226 244.852 59.3872 244.99 59.6184 245.154C59.857 245.318 60.0471 245.523 60.1887 245.769C60.3304 246.008 60.4012 246.302 60.4012 246.653C60.4012 247.204 60.2633 247.655 59.9874 248.006C59.7116 248.349 59.3313 248.599 58.8467 248.755C58.3695 248.912 57.8215 248.99 57.2027 248.99ZM61.8543 248.856V241.184H67.8041V242.257H63.1069V244.394H67.312V245.467H63.1069V247.782H67.8712V248.856H61.8543Z" fill="#0DC840"/>
<path d="M206.107 249.655V241.983H207.315L210.815 246.792C210.86 246.836 210.909 246.9 210.961 246.982C211.021 247.064 211.076 247.146 211.129 247.228C211.181 247.31 211.218 247.377 211.24 247.429H211.296C211.296 247.317 211.296 247.209 211.296 247.105C211.296 247 211.296 246.896 211.296 246.792V241.983H212.504V249.655H211.341L207.796 244.79C207.736 244.7 207.662 244.588 207.572 244.454C207.483 244.313 207.416 244.205 207.371 244.13H207.315C207.315 244.234 207.315 244.342 207.315 244.454C207.315 244.559 207.315 244.67 207.315 244.79V249.655H206.107ZM214.32 249.655V241.983H220.27V243.056H215.573V245.192H219.778V246.266H215.573V248.581H220.337V249.655H214.32ZM221.017 249.655L224.026 241.983H225.625L228.645 249.655H227.303L226.621 247.877H222.986L222.304 249.655H221.017ZM223.388 246.814H226.207L225.346 244.566C225.323 244.499 225.29 244.406 225.245 244.287C225.2 244.167 225.152 244.037 225.1 243.895C225.055 243.753 225.006 243.612 224.954 243.47C224.909 243.321 224.868 243.187 224.831 243.067H224.764C224.719 243.209 224.663 243.377 224.596 243.571C224.529 243.765 224.462 243.951 224.395 244.13C224.335 244.309 224.283 244.454 224.238 244.566L223.388 246.814ZM229.633 249.655V241.983H233.67C234.214 241.983 234.665 242.08 235.023 242.273C235.381 242.467 235.649 242.739 235.828 243.09C236.007 243.433 236.097 243.835 236.097 244.298C236.097 244.812 235.981 245.26 235.75 245.64C235.519 246.02 235.191 246.3 234.766 246.479L236.365 249.655H235.001L233.547 246.691H230.885V249.655H229.633ZM230.885 245.64H233.569C233.972 245.64 234.281 245.52 234.498 245.282C234.721 245.043 234.833 244.712 234.833 244.287C234.833 244.026 234.785 243.806 234.688 243.627C234.591 243.44 234.449 243.299 234.263 243.202C234.076 243.105 233.845 243.056 233.569 243.056H230.885V245.64Z" fill="#FFE501"/>
<path d="M395.596 248.856V241.184H401.076V242.257H396.849V244.528H400.674V245.59H396.849V248.856H395.596ZM400.983 248.856L403.991 241.184H405.591L408.61 248.856H407.268L406.586 247.078H402.951L402.269 248.856H400.983ZM403.354 246.015H406.172L405.311 243.767C405.289 243.7 405.255 243.607 405.21 243.488C405.166 243.368 405.117 243.238 405.065 243.096C405.02 242.955 404.972 242.813 404.92 242.671C404.875 242.522 404.834 242.388 404.797 242.269H404.729C404.685 242.41 404.629 242.578 404.562 242.772C404.495 242.966 404.427 243.152 404.36 243.331C404.301 243.51 404.248 243.655 404.204 243.767L403.354 246.015ZM409.598 248.856V241.184H413.635C414.18 241.184 414.631 241.281 414.989 241.475C415.346 241.668 415.615 241.941 415.794 242.291C415.973 242.634 416.062 243.037 416.062 243.499C416.062 244.013 415.947 244.461 415.715 244.841C415.484 245.221 415.156 245.501 414.731 245.68L416.331 248.856H414.966L413.512 245.892H410.85V248.856H409.598ZM410.85 244.841H413.535C413.937 244.841 414.247 244.722 414.463 244.483C414.687 244.244 414.798 243.913 414.798 243.488C414.798 243.227 414.75 243.007 414.653 242.828C414.556 242.641 414.414 242.5 414.228 242.403C414.042 242.306 413.81 242.257 413.535 242.257H410.85V244.841Z" fill="#FF1101"/>
<path d="M22.7983 236.459V256.031H424.204V236.459" stroke="#505069" stroke-width="0.798849"/>
<path d="M163.266 271.116C162.706 271.116 162.232 271.014 161.844 270.812C161.455 270.604 161.157 270.293 160.949 269.877C160.746 269.457 160.645 268.924 160.645 268.28C160.645 267.326 160.877 266.615 161.34 266.147C161.804 265.678 162.448 265.444 163.274 265.444C163.742 265.444 164.158 265.521 164.52 265.675C164.882 265.824 165.164 266.053 165.366 266.362C165.574 266.666 165.678 267.049 165.678 267.513H164.911C164.911 267.193 164.842 266.93 164.703 266.722C164.57 266.514 164.381 266.36 164.136 266.259C163.891 266.152 163.604 266.099 163.274 266.099C162.89 266.099 162.56 266.173 162.283 266.322C162.006 266.472 161.796 266.703 161.652 267.017C161.508 267.326 161.436 267.726 161.436 268.216V268.383C161.436 268.868 161.508 269.265 161.652 269.574C161.796 269.877 162.003 270.101 162.275 270.245C162.552 270.389 162.885 270.46 163.274 270.46C163.614 270.46 163.907 270.41 164.152 270.309C164.403 270.207 164.594 270.053 164.727 269.845C164.866 269.632 164.935 269.366 164.935 269.046H165.678C165.678 269.52 165.572 269.909 165.358 270.213C165.151 270.516 164.866 270.743 164.504 270.892C164.142 271.041 163.729 271.116 163.266 271.116ZM166.737 271.02V265.54H167.496V270.357H170.22V271.02H166.737ZM173.238 271.116C172.668 271.116 172.179 271.012 171.768 270.804C171.364 270.596 171.049 270.282 170.826 269.861C170.607 269.441 170.498 268.913 170.498 268.28C170.498 267.641 170.607 267.113 170.826 266.698C171.049 266.277 171.364 265.963 171.768 265.755C172.179 265.548 172.668 265.444 173.238 265.444C173.808 265.444 174.295 265.548 174.7 265.755C175.11 265.963 175.425 266.277 175.643 266.698C175.867 267.113 175.978 267.641 175.978 268.28C175.978 268.913 175.867 269.441 175.643 269.861C175.425 270.282 175.11 270.596 174.7 270.804C174.295 271.012 173.808 271.116 173.238 271.116ZM173.238 270.46C173.537 270.46 173.806 270.421 174.045 270.341C174.29 270.261 174.495 270.136 174.66 269.965C174.831 269.789 174.961 269.571 175.052 269.31C175.142 269.044 175.188 268.73 175.188 268.367V268.2C175.188 267.832 175.142 267.518 175.052 267.257C174.961 266.991 174.831 266.772 174.66 266.602C174.495 266.426 174.29 266.298 174.045 266.219C173.806 266.139 173.537 266.099 173.238 266.099C172.935 266.099 172.663 266.139 172.424 266.219C172.184 266.298 171.979 266.426 171.808 266.602C171.638 266.772 171.507 266.991 171.417 267.257C171.332 267.518 171.289 267.832 171.289 268.2V268.367C171.289 268.73 171.332 269.044 171.417 269.31C171.507 269.571 171.638 269.789 171.808 269.965C171.979 270.136 172.184 270.261 172.424 270.341C172.663 270.421 172.935 270.46 173.238 270.46ZM179.087 271.116C178.788 271.116 178.501 271.086 178.224 271.028C177.952 270.969 177.71 270.876 177.497 270.748C177.284 270.615 177.113 270.444 176.986 270.237C176.863 270.029 176.802 269.773 176.802 269.47C176.802 269.443 176.802 269.417 176.802 269.39C176.807 269.363 176.81 269.337 176.81 269.31H177.577C177.577 269.326 177.574 269.353 177.569 269.39C177.569 269.422 177.569 269.451 177.569 269.478C177.569 269.691 177.633 269.872 177.761 270.021C177.888 270.17 178.064 270.282 178.288 270.357C178.517 270.426 178.775 270.46 179.063 270.46C179.19 270.46 179.324 270.452 179.462 270.436C179.606 270.421 179.742 270.394 179.869 270.357C180.003 270.314 180.12 270.261 180.221 270.197C180.327 270.128 180.41 270.045 180.469 269.949C180.533 269.848 180.564 269.726 180.564 269.582C180.564 269.401 180.511 269.252 180.405 269.134C180.304 269.012 180.168 268.913 179.997 268.839C179.827 268.759 179.632 268.69 179.414 268.631C179.201 268.567 178.98 268.506 178.751 268.447C178.522 268.389 178.298 268.322 178.08 268.248C177.867 268.168 177.675 268.072 177.505 267.96C177.334 267.843 177.196 267.699 177.089 267.529C176.988 267.358 176.938 267.151 176.938 266.906C176.938 266.677 176.983 266.472 177.073 266.29C177.169 266.109 177.308 265.958 177.489 265.835C177.675 265.707 177.904 265.611 178.176 265.548C178.448 265.478 178.759 265.444 179.111 265.444C179.398 265.444 179.664 265.476 179.909 265.54C180.16 265.598 180.378 265.691 180.564 265.819C180.756 265.942 180.905 266.099 181.012 266.29C181.118 266.482 181.172 266.714 181.172 266.985V267.081H180.421V266.961C180.421 266.78 180.365 266.626 180.253 266.498C180.141 266.37 179.987 266.272 179.79 266.203C179.598 266.133 179.38 266.099 179.135 266.099C178.815 266.099 178.549 266.131 178.336 266.195C178.123 266.253 177.963 266.341 177.856 266.458C177.755 266.57 177.705 266.698 177.705 266.842C177.705 267.007 177.755 267.145 177.856 267.257C177.963 267.369 178.101 267.462 178.272 267.537C178.442 267.606 178.637 267.67 178.855 267.728C179.073 267.787 179.294 267.848 179.518 267.912C179.747 267.971 179.968 268.04 180.181 268.12C180.399 268.194 180.594 268.29 180.764 268.407C180.94 268.519 181.078 268.663 181.18 268.839C181.281 269.009 181.331 269.22 181.331 269.47C181.331 269.859 181.236 270.176 181.044 270.421C180.852 270.66 180.588 270.836 180.253 270.948C179.917 271.06 179.529 271.116 179.087 271.116ZM182.449 271.02V265.54H186.666V266.195H183.207V267.888H186.315V268.543H183.207V270.365H186.714V271.02H182.449ZM187.855 271.02V265.54H188.59L191.25 269.15C191.277 269.182 191.311 269.23 191.354 269.294C191.396 269.358 191.439 269.422 191.482 269.486C191.524 269.544 191.559 269.598 191.585 269.646H191.617C191.617 269.56 191.617 269.478 191.617 269.398C191.617 269.313 191.617 269.23 191.617 269.15V265.54H192.36V271.02H191.665L188.973 267.345C188.936 267.286 188.88 267.204 188.805 267.097C188.736 266.991 188.678 266.906 188.63 266.842H188.59C188.59 266.927 188.59 267.012 188.59 267.097C188.59 267.177 188.59 267.26 188.59 267.345V271.02H187.855ZM193.737 271.02V265.54H197.955V266.195H194.496V267.888H197.603V268.543H194.496V270.365H198.003V271.02H193.737ZM201.156 271.116C200.858 271.116 200.571 271.086 200.294 271.028C200.022 270.969 199.78 270.876 199.567 270.748C199.354 270.615 199.183 270.444 199.055 270.237C198.933 270.029 198.872 269.773 198.872 269.47C198.872 269.443 198.872 269.417 198.872 269.39C198.877 269.363 198.88 269.337 198.88 269.31H199.647C199.647 269.326 199.644 269.353 199.639 269.39C199.639 269.422 199.639 269.451 199.639 269.478C199.639 269.691 199.702 269.872 199.83 270.021C199.958 270.17 200.134 270.282 200.358 270.357C200.587 270.426 200.845 270.46 201.132 270.46C201.26 270.46 201.393 270.452 201.532 270.436C201.676 270.421 201.811 270.394 201.939 270.357C202.072 270.314 202.19 270.261 202.291 270.197C202.397 270.128 202.48 270.045 202.538 269.949C202.602 269.848 202.634 269.726 202.634 269.582C202.634 269.401 202.581 269.252 202.474 269.134C202.373 269.012 202.237 268.913 202.067 268.839C201.897 268.759 201.702 268.69 201.484 268.631C201.271 268.567 201.05 268.506 200.821 268.447C200.592 268.389 200.368 268.322 200.15 268.248C199.937 268.168 199.745 268.072 199.575 267.96C199.404 267.843 199.266 267.699 199.159 267.529C199.058 267.358 199.007 267.151 199.007 266.906C199.007 266.677 199.053 266.472 199.143 266.29C199.239 266.109 199.378 265.958 199.559 265.835C199.745 265.707 199.974 265.611 200.246 265.548C200.517 265.478 200.829 265.444 201.18 265.444C201.468 265.444 201.734 265.476 201.979 265.54C202.229 265.598 202.448 265.691 202.634 265.819C202.826 265.942 202.975 266.099 203.082 266.29C203.188 266.482 203.241 266.714 203.241 266.985V267.081H202.49V266.961C202.49 266.78 202.435 266.626 202.323 266.498C202.211 266.37 202.056 266.272 201.859 266.203C201.668 266.133 201.449 266.099 201.204 266.099C200.885 266.099 200.618 266.131 200.405 266.195C200.192 266.253 200.033 266.341 199.926 266.458C199.825 266.57 199.774 266.698 199.774 266.842C199.774 267.007 199.825 267.145 199.926 267.257C200.033 267.369 200.171 267.462 200.342 267.537C200.512 267.606 200.706 267.67 200.925 267.728C201.143 267.787 201.364 267.848 201.588 267.912C201.817 267.971 202.038 268.04 202.251 268.12C202.469 268.194 202.664 268.29 202.834 268.407C203.01 268.519 203.148 268.663 203.249 268.839C203.351 269.009 203.401 269.22 203.401 269.47C203.401 269.859 203.305 270.176 203.114 270.421C202.922 270.66 202.658 270.836 202.323 270.948C201.987 271.06 201.598 271.116 201.156 271.116ZM206.531 271.116C206.233 271.116 205.946 271.086 205.669 271.028C205.397 270.969 205.155 270.876 204.942 270.748C204.729 270.615 204.558 270.444 204.43 270.237C204.308 270.029 204.247 269.773 204.247 269.47C204.247 269.443 204.247 269.417 204.247 269.39C204.252 269.363 204.255 269.337 204.255 269.31H205.022C205.022 269.326 205.019 269.353 205.014 269.39C205.014 269.422 205.014 269.451 205.014 269.478C205.014 269.691 205.078 269.872 205.205 270.021C205.333 270.17 205.509 270.282 205.733 270.357C205.962 270.426 206.22 270.46 206.507 270.46C206.635 270.46 206.768 270.452 206.907 270.436C207.051 270.421 207.187 270.394 207.314 270.357C207.447 270.314 207.565 270.261 207.666 270.197C207.772 270.128 207.855 270.045 207.913 269.949C207.977 269.848 208.009 269.726 208.009 269.582C208.009 269.401 207.956 269.252 207.85 269.134C207.748 269.012 207.613 268.913 207.442 268.839C207.272 268.759 207.077 268.69 206.859 268.631C206.646 268.567 206.425 268.506 206.196 268.447C205.967 268.389 205.743 268.322 205.525 268.248C205.312 268.168 205.12 268.072 204.95 267.96C204.779 267.843 204.641 267.699 204.534 267.529C204.433 267.358 204.383 267.151 204.383 266.906C204.383 266.677 204.428 266.472 204.518 266.29C204.614 266.109 204.753 265.958 204.934 265.835C205.12 265.707 205.349 265.611 205.621 265.548C205.892 265.478 206.204 265.444 206.555 265.444C206.843 265.444 207.109 265.476 207.354 265.54C207.605 265.598 207.823 265.691 208.009 265.819C208.201 265.942 208.35 266.099 208.457 266.29C208.563 266.482 208.616 266.714 208.616 266.985V267.081H207.866V266.961C207.866 266.78 207.81 266.626 207.698 266.498C207.586 266.37 207.431 266.272 207.234 266.203C207.043 266.133 206.824 266.099 206.579 266.099C206.26 266.099 205.994 266.131 205.781 266.195C205.567 266.253 205.408 266.341 205.301 266.458C205.2 266.57 205.149 266.698 205.149 266.842C205.149 267.007 205.2 267.145 205.301 267.257C205.408 267.369 205.546 267.462 205.717 267.537C205.887 267.606 206.081 267.67 206.3 267.728C206.518 267.787 206.739 267.848 206.963 267.912C207.192 267.971 207.413 268.04 207.626 268.12C207.844 268.194 208.039 268.29 208.209 268.407C208.385 268.519 208.523 268.663 208.624 268.839C208.726 269.009 208.776 269.22 208.776 269.47C208.776 269.859 208.68 270.176 208.489 270.421C208.297 270.66 208.033 270.836 207.698 270.948C207.362 271.06 206.973 271.116 206.531 271.116ZM212.905 271.02V266.203H211.028V265.54H215.557V266.203H213.664V271.02H212.905ZM218.681 271.116C218.111 271.116 217.621 271.012 217.211 270.804C216.806 270.596 216.492 270.282 216.268 269.861C216.05 269.441 215.941 268.913 215.941 268.28C215.941 267.641 216.05 267.113 216.268 266.698C216.492 266.277 216.806 265.963 217.211 265.755C217.621 265.548 218.111 265.444 218.681 265.444C219.251 265.444 219.738 265.548 220.143 265.755C220.553 265.963 220.867 266.277 221.085 266.698C221.309 267.113 221.421 267.641 221.421 268.28C221.421 268.913 221.309 269.441 221.085 269.861C220.867 270.282 220.553 270.596 220.143 270.804C219.738 271.012 219.251 271.116 218.681 271.116ZM218.681 270.46C218.979 270.46 219.248 270.421 219.488 270.341C219.733 270.261 219.938 270.136 220.103 269.965C220.273 269.789 220.404 269.571 220.494 269.31C220.585 269.044 220.63 268.73 220.63 268.367V268.2C220.63 267.832 220.585 267.518 220.494 267.257C220.404 266.991 220.273 266.772 220.103 266.602C219.938 266.426 219.733 266.298 219.488 266.219C219.248 266.139 218.979 266.099 218.681 266.099C218.377 266.099 218.106 266.139 217.866 266.219C217.626 266.298 217.421 266.426 217.251 266.602C217.08 266.772 216.95 266.991 216.859 267.257C216.774 267.518 216.732 267.832 216.732 268.2V268.367C216.732 268.73 216.774 269.044 216.859 269.31C216.95 269.571 217.08 269.789 217.251 269.965C217.421 270.136 217.626 270.261 217.866 270.341C218.106 270.421 218.377 270.46 218.681 270.46ZM224.185 271.02V265.54H226.893C227.272 265.54 227.586 265.611 227.836 265.755C228.086 265.894 228.273 266.088 228.395 266.338C228.523 266.589 228.587 266.879 228.587 267.209C228.587 267.545 228.518 267.843 228.379 268.104C228.241 268.359 228.044 268.559 227.788 268.703C227.538 268.847 227.237 268.919 226.885 268.919H224.944V271.02H224.185ZM224.944 268.264H226.838C227.136 268.264 227.373 268.17 227.548 267.984C227.73 267.798 227.82 267.542 227.82 267.217C227.82 266.999 227.783 266.815 227.708 266.666C227.634 266.517 227.525 266.402 227.381 266.322C227.237 266.237 227.056 266.195 226.838 266.195H224.944V268.264ZM229.498 271.02V265.54H232.382C232.755 265.54 233.064 265.609 233.308 265.747C233.559 265.88 233.745 266.069 233.868 266.314C233.99 266.554 234.051 266.831 234.051 267.145C234.051 267.523 233.966 267.848 233.796 268.12C233.625 268.391 233.391 268.586 233.093 268.703L234.243 271.02H233.412L232.342 268.839H230.257V271.02H229.498ZM230.257 268.192H232.31C232.613 268.192 232.85 268.099 233.021 267.912C233.197 267.726 233.285 267.47 233.285 267.145C233.285 266.943 233.247 266.772 233.173 266.634C233.098 266.496 232.989 266.389 232.845 266.314C232.701 266.235 232.523 266.195 232.31 266.195H230.257V268.192ZM235.302 271.02V265.54H239.52V266.195H236.061V267.888H239.169V268.543H236.061V270.365H239.568V271.02H235.302ZM240.708 271.02V265.54H242.753C243.329 265.54 243.819 265.635 244.223 265.827C244.628 266.019 244.937 266.317 245.15 266.722C245.368 267.121 245.478 267.641 245.478 268.28C245.478 268.908 245.368 269.425 245.15 269.829C244.937 270.234 244.628 270.535 244.223 270.732C243.819 270.924 243.329 271.02 242.753 271.02H240.708ZM241.467 270.365H242.737C243.041 270.365 243.313 270.327 243.552 270.253C243.792 270.173 243.997 270.053 244.167 269.893C244.338 269.734 244.466 269.528 244.551 269.278C244.641 269.023 244.687 268.719 244.687 268.367V268.208C244.687 267.846 244.641 267.539 244.551 267.289C244.466 267.033 244.338 266.826 244.167 266.666C244.002 266.506 243.8 266.389 243.56 266.314C243.321 266.235 243.046 266.195 242.737 266.195H241.467V270.365ZM246.575 271.02V265.54H247.334V271.02H246.575ZM251.045 271.116C250.486 271.116 250.012 271.014 249.623 270.812C249.235 270.604 248.936 270.293 248.729 269.877C248.526 269.457 248.425 268.924 248.425 268.28C248.425 267.326 248.657 266.615 249.12 266.147C249.583 265.678 250.228 265.444 251.053 265.444C251.522 265.444 251.937 265.521 252.3 265.675C252.662 265.824 252.944 266.053 253.146 266.362C253.354 266.666 253.458 267.049 253.458 267.513H252.691C252.691 267.193 252.622 266.93 252.483 266.722C252.35 266.514 252.161 266.36 251.916 266.259C251.671 266.152 251.384 266.099 251.053 266.099C250.67 266.099 250.34 266.173 250.063 266.322C249.786 266.472 249.575 266.703 249.432 267.017C249.288 267.326 249.216 267.726 249.216 268.216V268.383C249.216 268.868 249.288 269.265 249.432 269.574C249.575 269.877 249.783 270.101 250.055 270.245C250.332 270.389 250.665 270.46 251.053 270.46C251.394 270.46 251.687 270.41 251.932 270.309C252.182 270.207 252.374 270.053 252.507 269.845C252.646 269.632 252.715 269.366 252.715 269.046H253.458C253.458 269.52 253.351 269.909 253.138 270.213C252.931 270.516 252.646 270.743 252.284 270.892C251.921 271.041 251.509 271.116 251.045 271.116ZM255.703 271.02V266.203H253.825V265.54H258.355V266.203H256.462V271.02H255.703ZM259.205 271.02V265.54H263.423V266.195H259.964V267.888H263.072V268.543H259.964V270.365H263.471V271.02H259.205ZM264.611 271.02V265.54H266.657C267.232 265.54 267.722 265.635 268.126 265.827C268.531 266.019 268.84 266.317 269.053 266.722C269.271 267.121 269.381 267.641 269.381 268.28C269.381 268.908 269.271 269.425 269.053 269.829C268.84 270.234 268.531 270.535 268.126 270.732C267.722 270.924 267.232 271.02 266.657 271.02H264.611ZM265.37 270.365H266.641C266.944 270.365 267.216 270.327 267.455 270.253C267.695 270.173 267.9 270.053 268.07 269.893C268.241 269.734 268.369 269.528 268.454 269.278C268.544 269.023 268.59 268.719 268.59 268.367V268.208C268.59 267.846 268.544 267.539 268.454 267.289C268.369 267.033 268.241 266.826 268.07 266.666C267.905 266.506 267.703 266.389 267.463 266.314C267.224 266.235 266.949 266.195 266.641 266.195H265.37V270.365ZM272.147 271.02V265.54H274.856C275.234 265.54 275.548 265.611 275.798 265.755C276.049 265.894 276.235 266.088 276.357 266.338C276.485 266.589 276.549 266.879 276.549 267.209C276.549 267.545 276.48 267.843 276.341 268.104C276.203 268.359 276.006 268.559 275.75 268.703C275.5 268.847 275.199 268.919 274.848 268.919H272.906V271.02H272.147ZM272.906 268.264H274.8C275.098 268.264 275.335 268.17 275.511 267.984C275.692 267.798 275.782 267.542 275.782 267.217C275.782 266.999 275.745 266.815 275.67 266.666C275.596 266.517 275.487 266.402 275.343 266.322C275.199 266.237 275.018 266.195 274.8 266.195H272.906V268.264ZM276.431 271.02L278.596 265.54H279.595L281.768 271.02H280.945L280.409 269.662H277.741L277.214 271.02H276.431ZM277.989 269.015H280.154L279.491 267.297C279.475 267.249 279.451 267.183 279.419 267.097C279.387 267.012 279.352 266.919 279.315 266.818C279.278 266.711 279.24 266.605 279.203 266.498C279.166 266.386 279.131 266.285 279.099 266.195H279.051C279.014 266.301 278.972 266.424 278.924 266.562C278.876 266.701 278.828 266.836 278.78 266.969C278.732 267.097 278.692 267.206 278.66 267.297L277.989 269.015ZM283.457 271.02V268.743L281.3 265.54H282.17L283.84 268.072H283.88L285.542 265.54H286.372L284.224 268.743V271.02H283.457Z" fill="#505069"/>
<path d="M126.567 39.9684V26.2681H133.397C134.369 26.2681 135.175 26.4479 135.814 26.8074C136.453 27.1669 136.932 27.6661 137.252 28.3052C137.585 28.931 137.751 29.6766 137.751 30.542C137.751 31.4074 137.578 32.173 137.232 32.8387C136.886 33.4911 136.38 33.997 135.714 34.3565C135.062 34.716 134.263 34.8957 133.318 34.8957H128.804V39.9684H126.567ZM128.804 32.9785H133.218C133.923 32.9785 134.476 32.7655 134.875 32.3394C135.288 31.9133 135.494 31.3209 135.494 30.562C135.494 30.056 135.408 29.63 135.235 29.2838C135.062 28.9243 134.809 28.6514 134.476 28.465C134.143 28.2786 133.724 28.1854 133.218 28.1854H128.804V32.9785ZM142.07 40.2081C141.737 40.2081 141.377 40.1681 140.991 40.0882C140.605 40.0084 140.239 39.8619 139.893 39.6489C139.56 39.4358 139.287 39.1429 139.074 38.7701C138.861 38.384 138.754 37.8847 138.754 37.2723C138.754 36.5533 138.921 35.9609 139.254 35.4949C139.586 35.0289 140.052 34.6627 140.652 34.3964C141.251 34.1302 141.963 33.9438 142.788 33.8372C143.627 33.7307 144.539 33.6775 145.525 33.6775V32.639C145.525 32.2928 145.465 31.9866 145.345 31.7203C145.238 31.454 145.032 31.2476 144.726 31.1012C144.433 30.9547 144.007 30.8815 143.448 30.8815C142.888 30.8815 142.449 30.9547 142.129 31.1012C141.823 31.2343 141.604 31.4074 141.47 31.6204C141.351 31.8202 141.291 32.0398 141.291 32.2795V32.5791H139.294C139.28 32.5125 139.274 32.4459 139.274 32.3793C139.274 32.3128 139.274 32.2329 139.274 32.1397C139.274 31.5139 139.447 30.988 139.793 30.562C140.152 30.1226 140.652 29.7897 141.291 29.5634C141.93 29.3371 142.669 29.2239 143.507 29.2239C144.413 29.2239 145.165 29.357 145.764 29.6233C146.377 29.8763 146.836 30.2424 147.142 30.7217C147.448 31.201 147.602 31.7802 147.602 32.4592V37.7915C147.602 38.0445 147.661 38.2243 147.781 38.3308C147.914 38.4373 148.068 38.4905 148.241 38.4905H148.96V39.8885C148.8 39.9551 148.6 40.0217 148.36 40.0882C148.121 40.1548 147.841 40.1881 147.522 40.1881C147.162 40.1881 146.856 40.1215 146.603 39.9884C146.363 39.8686 146.164 39.6955 146.004 39.4691C145.857 39.2295 145.758 38.9632 145.704 38.6703H145.584C145.345 38.9765 145.052 39.2494 144.706 39.4891C144.373 39.7154 143.987 39.8885 143.547 40.0084C143.108 40.1415 142.615 40.2081 142.07 40.2081ZM142.649 38.4905C143.061 38.4905 143.441 38.4306 143.787 38.3108C144.147 38.1777 144.453 37.9979 144.706 37.7716C144.959 37.5319 145.158 37.2523 145.305 36.9328C145.451 36.5999 145.525 36.2405 145.525 35.8543V35.1553C144.606 35.1553 143.8 35.2086 143.108 35.3151C142.416 35.4216 141.876 35.6213 141.49 35.9143C141.104 36.1939 140.911 36.5866 140.911 37.0926C140.911 37.3988 140.978 37.6584 141.111 37.8714C141.244 38.0711 141.444 38.2243 141.71 38.3308C141.976 38.4373 142.289 38.4905 142.649 38.4905ZM151.532 43.6032C151.133 43.6032 150.8 43.5699 150.533 43.5033C150.267 43.4501 150.101 43.4168 150.034 43.4035V41.9056H151.033C151.326 41.9056 151.619 41.8391 151.911 41.7059C152.218 41.5728 152.491 41.3597 152.73 41.0668C152.97 40.7739 153.17 40.4078 153.329 39.9684L149.235 29.4635H151.412L153.449 34.696C153.542 34.9357 153.642 35.2352 153.749 35.5947C153.869 35.9542 153.982 36.3203 154.088 36.6931C154.208 37.0659 154.308 37.3988 154.388 37.6917H154.488C154.554 37.492 154.621 37.2656 154.687 37.0127C154.767 36.7464 154.847 36.4734 154.927 36.1939C155.007 35.9143 155.087 35.648 155.167 35.395C155.247 35.1287 155.313 34.9024 155.366 34.716L157.064 29.4635H159.181L155.626 39.569C155.426 40.1282 155.207 40.6541 154.967 41.1467C154.727 41.6393 154.448 42.0654 154.128 42.4249C153.822 42.7977 153.456 43.0839 153.03 43.2836C152.604 43.4967 152.104 43.6032 151.532 43.6032ZM165.067 39.9684V26.2681H170.359C171.77 26.2681 172.975 26.5145 173.974 27.0071C174.972 27.4864 175.738 28.232 176.27 29.2439C176.816 30.2424 177.089 31.5339 177.089 33.1183C177.089 34.6894 176.816 35.9808 176.27 36.9927C175.738 38.0046 174.972 38.7568 173.974 39.2494C172.975 39.7288 171.77 39.9684 170.359 39.9684H165.067ZM167.303 38.0512H170.339C171.045 38.0512 171.67 37.958 172.216 37.7716C172.775 37.5852 173.241 37.2989 173.614 36.9128C174 36.5267 174.287 36.0407 174.473 35.4549C174.673 34.8558 174.773 34.1501 174.773 33.338V32.9186C174.773 32.0931 174.673 31.3874 174.473 30.8016C174.287 30.2025 174 29.7099 173.614 29.3237C173.241 28.9376 172.775 28.6514 172.216 28.465C171.67 28.2786 171.045 28.1854 170.339 28.1854H167.303V38.0512ZM183.749 40.2081C182.67 40.2081 181.765 40.015 181.032 39.6289C180.313 39.2295 179.768 38.6237 179.395 37.8115C179.022 36.9994 178.836 35.9675 178.836 34.716C178.836 33.4511 179.022 32.4193 179.395 31.6204C179.768 30.8083 180.32 30.2091 181.052 29.823C181.785 29.4236 182.697 29.2239 183.788 29.2239C184.787 29.2239 185.619 29.4169 186.285 29.8031C186.964 30.1759 187.477 30.7484 187.823 31.5206C188.169 32.2928 188.342 33.2647 188.342 34.4364V35.2352H180.973C180.999 35.9808 181.112 36.6066 181.312 37.1125C181.512 37.6052 181.811 37.9713 182.211 38.2109C182.624 38.4373 183.143 38.5505 183.769 38.5505C184.155 38.5505 184.501 38.5039 184.807 38.4107C185.113 38.3041 185.373 38.1577 185.586 37.9713C185.799 37.7716 185.965 37.5386 186.085 37.2723C186.205 36.9927 186.265 36.6798 186.265 36.3336H188.302C188.302 36.9594 188.195 37.512 187.982 37.9913C187.769 38.4706 187.457 38.8767 187.044 39.2095C186.644 39.529 186.165 39.7754 185.606 39.9484C185.047 40.1215 184.428 40.2081 183.749 40.2081ZM181.012 33.7174H186.165C186.165 33.1982 186.105 32.7655 185.985 32.4193C185.879 32.0598 185.719 31.7669 185.506 31.5406C185.293 31.3142 185.04 31.1544 184.747 31.0612C184.454 30.9547 184.121 30.9015 183.749 30.9015C183.189 30.9015 182.71 31.0013 182.311 31.201C181.925 31.4008 181.625 31.7136 181.412 32.1397C181.199 32.5524 181.066 33.0783 181.012 33.7174ZM194.627 40.2081C193.575 40.2081 192.697 40.015 191.991 39.6289C191.285 39.2295 190.753 38.6237 190.393 37.8115C190.047 36.9994 189.874 35.9675 189.874 34.716C189.874 33.4644 190.054 32.4393 190.413 31.6404C190.773 30.8282 191.305 30.2225 192.011 29.823C192.73 29.4236 193.609 29.2239 194.647 29.2239C195.366 29.2239 195.992 29.3171 196.524 29.5035C197.057 29.6766 197.51 29.9429 197.882 30.3023C198.255 30.6485 198.528 31.0812 198.701 31.6005C198.888 32.1197 198.981 32.7122 198.981 33.3779H196.884C196.884 32.8187 196.804 32.3594 196.644 31.9999C196.484 31.6404 196.238 31.3741 195.905 31.201C195.572 31.0146 195.14 30.9214 194.607 30.9214C194.048 30.9214 193.575 31.0546 193.189 31.3209C192.803 31.5738 192.51 31.9666 192.31 32.4992C192.111 33.0184 192.011 33.7041 192.011 34.5562V34.8957C192.011 35.7079 192.104 36.3869 192.29 36.9328C192.49 37.4654 192.783 37.8648 193.169 38.1311C193.569 38.384 194.075 38.5105 194.687 38.5105C195.22 38.5105 195.646 38.4173 195.965 38.2309C196.298 38.0312 196.544 37.7516 196.704 37.3921C196.877 37.0193 196.964 36.5733 196.964 36.0541H198.981C198.981 36.6798 198.888 37.2457 198.701 37.7516C198.528 38.2575 198.255 38.6969 197.882 39.0697C197.523 39.4292 197.07 39.7088 196.524 39.9085C195.978 40.1082 195.346 40.2081 194.627 40.2081ZM201.082 27.6462V25.5292H203.159V27.6462H201.082ZM201.082 39.9684V29.4635H203.159V39.9684H201.082ZM209.716 40.2081C208.983 40.2081 208.338 40.1282 207.778 39.9684C207.219 39.8086 206.753 39.589 206.38 39.3094C206.008 39.0298 205.721 38.6969 205.522 38.3108C205.335 37.9114 205.242 37.472 205.242 36.9927C205.242 36.9261 205.242 36.8662 205.242 36.813C205.255 36.7597 205.262 36.7131 205.262 36.6732H207.319C207.319 36.7131 207.319 36.753 207.319 36.793C207.319 36.8196 207.319 36.8529 207.319 36.8928C207.319 37.3056 207.432 37.6384 207.658 37.8914C207.885 38.1311 208.184 38.3041 208.557 38.4107C208.943 38.5039 209.363 38.5505 209.815 38.5505C210.215 38.5505 210.581 38.5039 210.914 38.4107C211.26 38.3041 211.54 38.151 211.753 37.9513C211.979 37.7516 212.092 37.4986 212.092 37.1924C212.092 36.793 211.952 36.4868 211.673 36.2737C211.393 36.0607 211.027 35.8943 210.574 35.7745C210.122 35.6413 209.649 35.5015 209.156 35.3551C208.717 35.2352 208.278 35.1087 207.838 34.9756C207.412 34.8292 207.026 34.6428 206.68 34.4164C206.334 34.1901 206.054 33.9038 205.841 33.5576C205.628 33.2115 205.522 32.7788 205.522 32.2595C205.522 31.7669 205.628 31.3342 205.841 30.9614C206.054 30.5886 206.347 30.2757 206.72 30.0227C207.106 29.7698 207.559 29.5767 208.078 29.4436C208.61 29.3104 209.19 29.2439 209.815 29.2439C210.468 29.2439 211.047 29.3171 211.553 29.4635C212.059 29.5967 212.485 29.7897 212.831 30.0427C213.191 30.2957 213.463 30.6019 213.65 30.9614C213.836 31.3076 213.929 31.6804 213.929 32.0798C213.929 32.1597 213.923 32.2462 213.909 32.3394C213.909 32.4193 213.909 32.4725 213.909 32.4992H211.872V32.3194C211.872 32.0531 211.799 31.8135 211.653 31.6005C211.506 31.3874 211.273 31.2144 210.954 31.0812C210.648 30.9481 210.235 30.8815 209.716 30.8815C209.369 30.8815 209.063 30.9148 208.797 30.9814C208.531 31.0346 208.311 31.1145 208.138 31.221C207.965 31.3275 207.832 31.454 207.738 31.6005C207.658 31.7469 207.619 31.9133 207.619 32.0997C207.619 32.406 207.725 32.6456 207.938 32.8187C208.164 32.9785 208.457 33.1183 208.817 33.2381C209.176 33.3446 209.562 33.4644 209.975 33.5976C210.454 33.7307 210.94 33.8705 211.433 34.017C211.926 34.1501 212.378 34.3232 212.791 34.5362C213.217 34.7493 213.557 35.0422 213.81 35.415C214.076 35.7878 214.209 36.2871 214.209 36.9128C214.209 37.4853 214.096 37.9846 213.87 38.4107C213.643 38.8367 213.324 39.1829 212.911 39.4492C212.511 39.7021 212.039 39.8885 211.493 40.0084C210.947 40.1415 210.355 40.2081 209.716 40.2081ZM216.314 27.6462V25.5292H218.391V27.6462H216.314ZM216.314 39.9684V29.4635H218.391V39.9684H216.314ZM225.547 40.2081C224.455 40.2081 223.53 40.015 222.771 39.6289C222.025 39.2295 221.459 38.6237 221.073 37.8115C220.7 36.9994 220.514 35.9675 220.514 34.716C220.514 33.4511 220.7 32.4193 221.073 31.6204C221.459 30.8083 222.025 30.2091 222.771 29.823C223.53 29.4236 224.455 29.2239 225.547 29.2239C226.665 29.2239 227.597 29.4236 228.343 29.823C229.088 30.2091 229.647 30.8083 230.02 31.6204C230.406 32.4193 230.599 33.4511 230.599 34.716C230.599 35.9675 230.406 36.9994 230.02 37.8115C229.647 38.6237 229.088 39.2295 228.343 39.6289C227.597 40.015 226.665 40.2081 225.547 40.2081ZM225.547 38.4905C226.212 38.4905 226.758 38.3641 227.184 38.1111C227.61 37.8448 227.923 37.4454 228.123 36.9128C228.336 36.3802 228.442 35.7079 228.442 34.8957V34.5362C228.442 33.7241 228.336 33.0517 228.123 32.5191C227.923 31.9866 227.61 31.5938 227.184 31.3408C226.758 31.0746 226.212 30.9414 225.547 30.9414C224.894 30.9414 224.355 31.0746 223.929 31.3408C223.503 31.5938 223.183 31.9866 222.97 32.5191C222.771 33.0517 222.671 33.7241 222.671 34.5362V34.8957C222.671 35.7079 222.771 36.3802 222.97 36.9128C223.183 37.4454 223.503 37.8448 223.929 38.1111C224.355 38.3641 224.894 38.4905 225.547 38.4905ZM232.716 39.9684V29.4635H234.434L234.614 30.9614H234.754C235.006 30.5753 235.306 30.2557 235.652 30.0028C235.998 29.7498 236.378 29.5567 236.791 29.4236C237.217 29.2905 237.683 29.2239 238.189 29.2239C238.854 29.2239 239.44 29.3437 239.946 29.5834C240.452 29.8097 240.845 30.1825 241.124 30.7018C241.417 31.221 241.564 31.92 241.564 32.7987V39.9684H239.487V33.1183C239.487 32.7189 239.433 32.386 239.327 32.1197C239.234 31.8534 239.094 31.6404 238.908 31.4806C238.721 31.3209 238.501 31.2077 238.248 31.1411C237.996 31.0746 237.716 31.0413 237.41 31.0413C236.93 31.0413 236.491 31.1611 236.092 31.4008C235.705 31.6271 235.393 31.9466 235.153 32.3594C234.913 32.7721 234.793 33.2581 234.793 33.8173V39.9684H232.716ZM248.039 40.2081C247.307 40.2081 246.661 40.1282 246.102 39.9684C245.543 39.8086 245.077 39.589 244.704 39.3094C244.331 39.0298 244.045 38.6969 243.845 38.3108C243.659 37.9114 243.566 37.472 243.566 36.9927C243.566 36.9261 243.566 36.8662 243.566 36.813C243.579 36.7597 243.586 36.7131 243.586 36.6732H245.643C245.643 36.7131 245.643 36.753 245.643 36.793C245.643 36.8196 245.643 36.8529 245.643 36.8928C245.643 37.3056 245.756 37.6384 245.982 37.8914C246.209 38.1311 246.508 38.3041 246.881 38.4107C247.267 38.5039 247.686 38.5505 248.139 38.5505C248.538 38.5505 248.905 38.5039 249.237 38.4107C249.584 38.3041 249.863 38.151 250.076 37.9513C250.303 37.7516 250.416 37.4986 250.416 37.1924C250.416 36.793 250.276 36.4868 249.996 36.2737C249.717 36.0607 249.351 35.8943 248.898 35.7745C248.445 35.6413 247.973 35.5015 247.48 35.3551C247.041 35.2352 246.601 35.1087 246.162 34.9756C245.736 34.8292 245.35 34.6428 245.004 34.4164C244.657 34.1901 244.378 33.9038 244.165 33.5576C243.952 33.2115 243.845 32.7788 243.845 32.2595C243.845 31.7669 243.952 31.3342 244.165 30.9614C244.378 30.5886 244.671 30.2757 245.044 30.0227C245.43 29.7698 245.882 29.5767 246.402 29.4436C246.934 29.3104 247.513 29.2439 248.139 29.2439C248.791 29.2439 249.371 29.3171 249.877 29.4635C250.383 29.5967 250.809 29.7897 251.155 30.0427C251.514 30.2957 251.787 30.6019 251.974 30.9614C252.16 31.3076 252.253 31.6804 252.253 32.0798C252.253 32.1597 252.246 32.2462 252.233 32.3394C252.233 32.4193 252.233 32.4725 252.233 32.4992H250.196V32.3194C250.196 32.0531 250.123 31.8135 249.976 31.6005C249.83 31.3874 249.597 31.2144 249.277 31.0812C248.971 30.9481 248.558 30.8815 248.039 30.8815C247.693 30.8815 247.387 30.9148 247.121 30.9814C246.854 31.0346 246.635 31.1145 246.461 31.221C246.288 31.3275 246.155 31.454 246.062 31.6005C245.982 31.7469 245.942 31.9133 245.942 32.0997C245.942 32.406 246.049 32.6456 246.262 32.8187C246.488 32.9785 246.781 33.1183 247.141 33.2381C247.5 33.3446 247.886 33.4644 248.299 33.5976C248.778 33.7307 249.264 33.8705 249.757 34.017C250.249 34.1501 250.702 34.3232 251.115 34.5362C251.541 34.7493 251.88 35.0422 252.133 35.415C252.4 35.7878 252.533 36.2871 252.533 36.9128C252.533 37.4853 252.42 37.9846 252.193 38.4107C251.967 38.8367 251.647 39.1829 251.235 39.4492C250.835 39.7021 250.363 39.8885 249.817 40.0084C249.271 40.1415 248.678 40.2081 248.039 40.2081ZM258.734 27.6462V25.5292H260.811V27.6462H258.734ZM258.734 39.9684V29.4635H260.811V39.9684H258.734ZM263.492 39.9684V29.4635H265.21L265.39 30.9614H265.529C265.782 30.5753 266.082 30.2557 266.428 30.0028C266.774 29.7498 267.154 29.5567 267.567 29.4236C267.993 29.2905 268.459 29.2239 268.965 29.2239C269.63 29.2239 270.216 29.3437 270.722 29.5834C271.228 29.8097 271.621 30.1825 271.9 30.7018C272.193 31.221 272.34 31.92 272.34 32.7987V39.9684H270.263V33.1183C270.263 32.7189 270.209 32.386 270.103 32.1197C270.01 31.8534 269.87 31.6404 269.684 31.4806C269.497 31.3209 269.277 31.2077 269.024 31.1411C268.771 31.0746 268.492 31.0413 268.186 31.0413C267.706 31.0413 267.267 31.1611 266.868 31.4008C266.481 31.6271 266.169 31.9466 265.929 32.3594C265.689 32.7721 265.569 33.2581 265.569 33.8173V39.9684H263.492ZM282.971 40.2081C281.999 40.2081 281.173 40.055 280.494 39.7487C279.815 39.4425 279.296 38.9965 278.937 38.4107C278.577 37.8248 278.397 37.0926 278.397 36.2138V35.5548H280.614V36.2737C280.614 36.9261 280.814 37.4321 281.213 37.7915C281.613 38.1377 282.199 38.3108 282.971 38.3108C283.73 38.3108 284.309 38.0578 284.708 37.5519C285.108 37.046 285.307 36.3203 285.307 35.375V26.2681H287.544V35.3351C287.544 36.4135 287.364 37.3189 287.005 38.0512C286.645 38.7701 286.126 39.3094 285.447 39.6688C284.768 40.0283 283.943 40.2081 282.971 40.2081ZM293.741 40.2081C292.729 40.2081 291.91 39.9418 291.285 39.4092C290.659 38.8633 290.346 37.938 290.346 36.6332V29.4635H292.423V36.3137C292.423 36.7131 292.47 37.046 292.563 37.3122C292.669 37.5785 292.816 37.7915 293.002 37.9513C293.189 38.1111 293.408 38.2243 293.661 38.2908C293.914 38.3574 294.194 38.3907 294.5 38.3907C294.979 38.3907 295.412 38.2775 295.798 38.0512C296.198 37.8115 296.517 37.4853 296.757 37.0726C296.996 36.6465 297.116 36.1606 297.116 35.6147V29.4635H299.193V39.9684H297.496L297.316 38.4706H297.176C296.923 38.8567 296.624 39.1762 296.277 39.4292C295.931 39.6822 295.545 39.8752 295.119 40.0084C294.706 40.1415 294.247 40.2081 293.741 40.2081ZM301.875 39.9684V29.4635H303.592L303.772 30.9614H303.912C304.165 30.5753 304.464 30.2557 304.81 30.0028C305.157 29.7498 305.536 29.5567 305.949 29.4236C306.375 29.2905 306.841 29.2239 307.347 29.2239C308.012 29.2239 308.598 29.3437 309.104 29.5834C309.61 29.8097 310.003 30.1825 310.283 30.7018C310.575 31.221 310.722 31.92 310.722 32.7987V39.9684H308.645V33.1183C308.645 32.7189 308.592 32.386 308.485 32.1197C308.392 31.8534 308.252 31.6404 308.066 31.4806C307.879 31.3209 307.66 31.2077 307.407 31.1411C307.154 31.0746 306.874 31.0413 306.568 31.0413C306.089 31.0413 305.649 31.1611 305.25 31.4008C304.864 31.6271 304.551 31.9466 304.311 32.3594C304.071 32.7721 303.952 33.2581 303.952 33.8173V39.9684H301.875ZM317.677 40.2081C316.598 40.2081 315.693 40.015 314.961 39.6289C314.242 39.2295 313.696 38.6237 313.323 37.8115C312.95 36.9994 312.764 35.9675 312.764 34.716C312.764 33.4511 312.95 32.4193 313.323 31.6204C313.696 30.8083 314.248 30.2091 314.981 29.823C315.713 29.4236 316.625 29.2239 317.717 29.2239C318.715 29.2239 319.547 29.4169 320.213 29.8031C320.892 30.1759 321.405 30.7484 321.751 31.5206C322.097 32.2928 322.27 33.2647 322.27 34.4364V35.2352H314.901C314.927 35.9808 315.041 36.6066 315.24 37.1125C315.44 37.6052 315.74 37.9713 316.139 38.2109C316.552 38.4373 317.071 38.5505 317.697 38.5505C318.083 38.5505 318.429 38.5039 318.735 38.4107C319.041 38.3041 319.301 38.1577 319.514 37.9713C319.727 37.7716 319.894 37.5386 320.013 37.2723C320.133 36.9927 320.193 36.6798 320.193 36.3336H322.23C322.23 36.9594 322.124 37.512 321.911 37.9913C321.698 38.4706 321.385 38.8767 320.972 39.2095C320.573 39.529 320.093 39.7754 319.534 39.9484C318.975 40.1215 318.356 40.2081 317.677 40.2081ZM314.941 33.7174H320.093C320.093 33.1982 320.033 32.7655 319.914 32.4193C319.807 32.0598 319.647 31.7669 319.434 31.5406C319.221 31.3142 318.968 31.1544 318.675 31.0612C318.382 30.9547 318.05 30.9015 317.677 30.9015C317.118 30.9015 316.638 31.0013 316.239 31.201C315.853 31.4008 315.553 31.7136 315.34 32.1397C315.127 32.5524 314.994 33.0783 314.941 33.7174Z" fill="#505069"/>
<line x1="22.7969" y1="55.1207" x2="424.203" y2="55.1207" stroke="#505069" stroke-width="0.798849"/>
<defs>
<linearGradient id="paint0_linear_1143_23706" x1="22.7983" y1="144.392" x2="424.204" y2="144.392" gradientUnits="userSpaceOnUse">
<stop stop-color="#00C744"/>
<stop offset="0.35" stop-color="#FFE500"/>
<stop offset="0.65" stop-color="#FFE600"/>
<stop offset="1" stop-color="#FF0000"/>
</linearGradient>
</defs>
</svg>
