<svg width="71" height="71" viewBox="0 0 71 71" fill="none" xmlns="http://www.w3.org/2000/svg">
    <g clip-path="url(#clip0_1143_21091)">
        <path d="M35.5 71.0003C15.9243 71.0003 0 55.0279 0 35.3971C0 17.1954 13.5855 1.98436 31.6042 0.00998856C32.4889 -0.0835683 33.2802 0.551973 33.3768 1.43915C33.4733 2.32633 32.8363 3.11995 31.9516 3.21673C15.5705 5.01044 3.21704 18.8472 3.21704 35.3971C3.21704 53.2471 17.7001 67.771 35.5 67.771C53.2999 67.771 67.783 53.2471 67.783 35.3971C67.783 18.844 55.4295 5.01044 39.0484 3.21673C38.1637 3.11995 37.5267 2.3231 37.6232 1.43915C37.7198 0.551973 38.5144 -0.0803422 39.3958 0.00998856C57.4112 1.98436 71 17.1986 71 35.3971C71 55.0279 55.0757 70.9971 35.5 70.9971V71.0003ZM20.8947 54.7182V30.6966C20.8947 29.8062 20.174 29.0836 19.2861 29.0836C18.3982 29.0836 17.6776 29.8062 17.6776 30.6966V54.7182C17.6776 55.6086 18.3982 56.3312 19.2861 56.3312C20.174 56.3312 20.8947 55.6086 20.8947 54.7182ZM37.1407 40.1362V16.2824C37.1407 15.392 36.4201 14.6694 35.5322 14.6694C34.6443 14.6694 33.9237 15.392 33.9237 16.2824V40.1362C33.9237 41.0266 34.6443 41.7493 35.5322 41.7493C36.4201 41.7493 37.1407 41.0266 37.1407 40.1362ZM53.3867 31.5935V16.2824C53.3867 15.392 52.6661 14.6694 51.7782 14.6694C50.8903 14.6694 50.1697 15.392 50.1697 16.2824V31.5935C50.1697 32.4839 50.8903 33.2066 51.7782 33.2066C52.6661 33.2066 53.3867 32.4839 53.3867 31.5935ZM24.7261 30.6966V22.883C24.7261 21.9926 24.0055 21.27 23.1176 21.27H15.326C14.4381 21.27 13.7174 21.9926 13.7174 22.883V30.6966C13.7174 31.587 14.4381 32.3097 15.326 32.3097H23.1176C24.0055 32.3097 24.7261 31.587 24.7261 30.6966ZM16.9345 24.4961H21.5091V29.0836H16.9345V24.4961ZM41.0365 47.9498V40.1362C41.0365 39.2458 40.3159 38.5232 39.428 38.5232H31.6363C30.7484 38.5232 30.0278 39.2458 30.0278 40.1362V47.9498C30.0278 48.8402 30.7484 49.5629 31.6363 49.5629H39.428C40.3159 49.5629 41.0365 48.8402 41.0365 47.9498ZM33.2449 41.7493H37.8195V46.3368H33.2449V41.7493ZM57.2826 39.4071V31.5935C57.2826 30.7031 56.5619 29.9805 55.674 29.9805H47.8824C46.9945 29.9805 46.2739 30.7031 46.2739 31.5935V39.4071C46.2739 40.2975 46.9945 41.0202 47.8824 41.0202H55.674C56.5619 41.0202 57.2826 40.2975 57.2826 39.4071ZM49.4909 33.2066H54.0655V37.7941H49.4909V33.2066ZM20.8947 22.883V16.2824C20.8947 15.392 20.174 14.6694 19.2861 14.6694C18.3982 14.6694 17.6776 15.392 17.6776 16.2824V22.883C17.6776 23.7734 18.3982 24.4961 19.2861 24.4961C20.174 24.4961 20.8947 23.7734 20.8947 22.883ZM37.1407 54.7182V47.9498C37.1407 47.0594 36.4201 46.3368 35.5322 46.3368C34.6443 46.3368 33.9237 47.0594 33.9237 47.9498V54.7182C33.9237 55.6086 34.6443 56.3312 35.5322 56.3312C36.4201 56.3312 37.1407 55.6086 37.1407 54.7182ZM53.3867 54.7182V39.4071C53.3867 38.5167 52.6661 37.7941 51.7782 37.7941C50.8903 37.7941 50.1697 38.5167 50.1697 39.4071V54.7182C50.1697 55.6086 50.8903 56.3312 51.7782 56.3312C52.6661 56.3312 53.3867 55.6086 53.3867 54.7182Z" fill="#3860FF"/>
    </g>
    <defs>
        <clipPath id="clip0_1143_21091">
            <rect width="71" height="71" fill="white"/>
        </clipPath>
    </defs>
</svg>
