<svg xmlns="http://www.w3.org/2000/svg" width="55" height="48" viewBox="0 0 55 48" fill="none">
    <path d="M0.0868111 47.7024L0.0868118 39.0233C2.56861 38.7133 4.68873 37.7318 6.44683 36.0786C8.10159 34.4255 9.39398 32.3074 10.3247 29.7243C11.1521 27.2446 11.5658 24.5582 11.5658 21.6652L1.01753 21.6652L1.01753 0.277328L22.7346 0.277329L22.7346 19.6504C22.7346 25.8497 21.7005 30.9125 19.6322 34.8387C17.4604 38.765 14.6683 41.7613 11.2554 43.8278C7.8429 45.8942 4.12004 47.1857 0.0868111 47.7024ZM32.5073 47.7024L32.5073 39.0233C34.8859 38.7133 36.9541 37.7318 38.7122 36.0786C40.3668 34.4255 41.6595 32.3074 42.5902 29.7243C43.4176 27.2446 43.8312 24.5582 43.8312 21.6652L33.2829 21.6652L33.2829 0.27733L55 0.277332L55 19.6504C55 25.8497 53.9659 30.9125 51.8976 34.8387C49.7258 38.765 46.9336 41.7613 43.521 43.8278C40.1083 45.8942 36.4371 47.1857 32.5073 47.7024Z" fill="url(#paint0_linear_2070_10922)"/>
    <defs>
        <linearGradient id="paint0_linear_2070_10922" x1="0.169239" y1="47.7024" x2="32.3699" y2="-11.9257" gradientUnits="userSpaceOnUse">
            <stop stop-color="#3860FF"/>
            <stop offset="1" stop-color="#152461"/>
        </linearGradient>
    </defs>
</svg>