<svg xmlns="http://www.w3.org/2000/svg" width="55" height="48" viewBox="0 0 55 48" fill="none">
    <path d="M54.9132 0V8.67907C52.4314 8.98904 50.3113 9.97058 48.5532 11.6238C46.8984 13.2769 45.606 15.395 44.6753 17.978C43.8479 20.4578 43.4342 23.1442 43.4342 26.0372H53.9825V47.425H32.2654V28.052C32.2654 21.8527 33.2995 16.7898 35.3678 12.8636C37.5396 8.93739 40.3317 5.94104 43.7446 3.87457C47.1571 1.80814 50.88 0.516612 54.9132 0ZM22.4927 0V8.67907C20.1141 8.98904 18.0459 9.97058 16.2878 11.6238C14.6332 13.2769 13.3405 15.395 12.4098 17.978C11.5824 20.4578 11.1688 23.1442 11.1688 26.0372H21.7171V47.425H0V28.052C0 21.8527 1.03415 16.7898 3.10244 12.8636C5.27417 8.93739 8.06635 5.94104 11.479 3.87457C14.8917 1.80814 18.5629 0.516612 22.4927 0Z" fill="url(#paint0_linear_2070_10921)"/>
    <defs>
        <linearGradient id="paint0_linear_2070_10921" x1="54.8308" y1="1.56852e-06" x2="22.6301" y2="59.6281" gradientUnits="userSpaceOnUse">
            <stop stop-color="#3860FF"/>
            <stop offset="1" stop-color="#152461"/>
        </linearGradient>
    </defs>
</svg>