<svg width="71" height="70" viewBox="0 0 71 70" fill="none" xmlns="http://www.w3.org/2000/svg">
    <path d="M54.549 49.7922L43.5108 38.7229C42.924 38.1344 41.9946 38.109 41.3729 38.637L38.5373 35.7934C42.3657 30.844 42.02 23.6744 37.4874 19.129C32.5773 14.2051 24.5873 14.2051 19.6772 19.129C14.7671 24.0529 14.7671 32.0654 19.6772 36.9893C22.1322 39.4513 25.358 40.6823 28.5839 40.6823C31.3085 40.6823 34.0332 39.798 36.2947 38.039L39.1304 40.8827C38.6039 41.5061 38.6293 42.4381 39.2161 43.0266L50.2542 54.0958C50.5651 54.4076 50.9711 54.5602 51.3771 54.5602C51.7831 54.5602 52.1891 54.4044 52.5 54.0958L54.5522 52.0378C55.1707 51.4176 55.1707 50.4093 54.5522 49.789L54.549 49.7922ZM21.9229 34.7469C18.2498 31.0635 18.2498 25.0676 21.9229 21.3842C23.7594 19.5425 26.1732 18.62 28.5839 18.62C30.9945 18.62 33.4083 19.5425 35.2448 21.3842C38.9179 25.0676 38.9179 31.0635 35.2448 34.7469C31.5718 38.4303 25.5928 38.4303 21.9197 34.7469H21.9229ZM70.5036 34.8995C70.5036 16.9565 57.1087 1.95567 39.3461 0.00900589C38.477 -0.0832382 37.6935 0.543385 37.5984 1.41811C37.5032 2.29284 38.1313 3.07533 39.0035 3.17075C55.1548 4.93929 67.3349 18.5819 67.3349 34.8995C67.3349 52.4991 53.055 66.8192 35.5049 66.8192C17.9548 66.8192 3.6718 52.5023 3.6718 34.8995C3.6718 18.5819 15.8519 4.93929 32.0063 3.17075C32.8786 3.07533 33.5066 2.28966 33.4115 1.41811C33.3163 0.546566 32.5329 -0.0832382 31.6606 0.00900589C13.8948 1.95567 0.499908 16.9533 0.499908 34.8995C0.499908 54.2549 16.2008 70 35.5018 70C54.8027 70 70.5036 54.2549 70.5036 34.8995Z" fill="#3860FF"/>
</svg>
