<svg width="70" height="70" viewBox="0 0 70 70" fill="#3860FF" xmlns="http://www.w3.org/2000/svg">
    <g clip-path="url(#clip0_1143_17589)">
        <path d="M35 70C15.7 70 0 54.2526 0 34.9014C0 16.9561 13.3942 1.95612 31.159 0.00955787C32.0313 -0.085862 32.8115 0.543909 32.9067 1.41859C33.0018 2.29327 32.3738 3.07572 31.5016 3.17114C15.3512 4.93958 3.17173 18.5814 3.17173 34.9014C3.17173 52.5 17.4508 66.8194 35 66.8194C52.5492 66.8194 66.8283 52.5 66.8283 34.9014C66.8283 18.5814 54.6488 4.94276 38.4984 3.17432C37.6262 3.0789 36.9982 2.29327 37.0933 1.42177C37.1885 0.55027 37.9656 -0.07632 38.841 0.0127385C56.6026 1.9593 70 16.9593 70 34.9014C70 54.2557 54.3 70 35 70ZM23.2773 25.4326V17.729C23.2773 16.8512 22.5668 16.1387 21.6914 16.1387H14.0095C13.1341 16.1387 12.4237 16.8512 12.4237 17.729V25.4326C12.4237 26.3104 13.1341 27.0229 14.0095 27.0229H21.6914C22.5668 27.0229 23.2773 26.3104 23.2773 25.4326ZM15.5986 19.3194H20.1087V23.8423H15.5986V19.3194ZM58.6706 21.5808C58.6706 20.7029 57.9601 19.9905 57.0847 19.9905H28.1142C27.2388 19.9905 26.5283 20.7029 26.5283 21.5808C26.5283 22.4587 27.2388 23.1711 28.1142 23.1711H57.0847C57.9601 23.1711 58.6706 22.4587 58.6706 21.5808ZM23.2773 38.8518V31.1482C23.2773 30.2704 22.5668 29.5579 21.6914 29.5579H14.0095C13.1341 29.5579 12.4237 30.2704 12.4237 31.1482V38.8518C12.4237 39.7297 13.1341 40.4421 14.0095 40.4421H21.6914C22.5668 40.4421 23.2773 39.7297 23.2773 38.8518ZM15.5986 32.7386H20.1087V37.2615H15.5986V32.7386ZM58.6706 35C58.6706 34.1222 57.9601 33.4097 57.0847 33.4097H28.1142C27.2388 33.4097 26.5283 34.1222 26.5283 35C26.5283 35.8779 27.2388 36.5903 28.1142 36.5903H57.0847C57.9601 36.5903 58.6706 35.8779 58.6706 35ZM23.2773 52.271V44.5674C23.2773 43.6896 22.5668 42.9771 21.6914 42.9771H14.0095C13.1341 42.9771 12.4237 43.6896 12.4237 44.5674V52.271C12.4237 53.1489 13.1341 53.8613 14.0095 53.8613H21.6914C22.5668 53.8613 23.2773 53.1489 23.2773 52.271ZM15.5986 46.1578H20.1087V50.6807H15.5986V46.1578ZM58.6706 48.4192C58.6706 47.5414 57.9601 46.8289 57.0847 46.8289H28.1142C27.2388 46.8289 26.5283 47.5414 26.5283 48.4192C26.5283 49.2971 27.2388 50.0096 28.1142 50.0096H57.0847C57.9601 50.0096 58.6706 49.2971 58.6706 48.4192Z" fill="3860FF"/>
    </g>
    <defs>
        <clipPath id="clip0_1143_17589">
            <rect width="70" height="70" fill="#3860FF"/>
        </clipPath>
    </defs>
</svg>
