<svg width="70" height="70" viewBox="0 0 70 70" fill="none" xmlns="http://www.w3.org/2000/svg">
<path d="M35.0003 70C15.7002 70 0 54.2524 0 34.8979C0 16.9525 13.3943 1.95559 31.1593 0.00900549C32.0315 -0.0832344 32.8118 0.543361 32.9069 1.41805C33.0021 2.29274 32.3741 3.07519 31.5018 3.17061C15.3513 4.93907 3.17175 18.581 3.17175 34.8979C3.17175 52.4967 17.451 66.8161 35.0003 66.8161C52.5496 66.8161 66.8288 52.4967 66.8288 34.8979C66.8288 18.5779 54.6493 4.93907 38.4987 3.17061C37.6265 3.07519 36.9985 2.28956 37.0936 1.41805C37.1888 0.543361 37.9722 -0.0800537 38.8413 0.00900549C56.6031 1.95559 70.0005 16.9557 70.0005 34.8979C70.0005 54.2524 54.3004 69.9968 35.0003 69.9968V70ZM20.6005 53.9471V30.2637C20.6005 29.3858 19.8901 28.6733 19.0146 28.6733C18.1392 28.6733 17.4288 29.3858 17.4288 30.2637V53.9471C17.4288 54.8249 18.1392 55.5374 19.0146 55.5374C19.8901 55.5374 20.6005 54.8249 20.6005 53.9471ZM36.6179 39.5704V16.0524C36.6179 15.1745 35.9074 14.462 35.032 14.462C34.1566 14.462 33.4461 15.1745 33.4461 16.0524V39.5704C33.4461 40.4482 34.1566 41.1607 35.032 41.1607C35.9074 41.1607 36.6179 40.4482 36.6179 39.5704ZM52.6352 31.1479V16.0524C52.6352 15.1745 51.9247 14.462 51.0493 14.462C50.1739 14.462 49.4635 15.1745 49.4635 16.0524V31.1479C49.4635 32.0258 50.1739 32.7383 51.0493 32.7383C51.9247 32.7383 52.6352 32.0258 52.6352 31.1479ZM24.3781 30.2637V22.5601C24.3781 21.6822 23.6676 20.9697 22.7922 20.9697H15.1102C14.2348 20.9697 13.5243 21.6822 13.5243 22.5601V30.2637C13.5243 31.1416 14.2348 31.854 15.1102 31.854H22.7922C23.6676 31.854 24.3781 31.1416 24.3781 30.2637ZM16.6961 24.1504H21.2063V28.6733H16.6961V24.1504ZM40.4589 47.274V39.5704C40.4589 38.6925 39.7484 37.98 38.873 37.98H31.191C30.3156 37.98 29.6051 38.6925 29.6051 39.5704V47.274C29.6051 48.1519 30.3156 48.8643 31.191 48.8643H38.873C39.7484 48.8643 40.4589 48.1519 40.4589 47.274ZM32.7769 41.1607H37.2871V45.6837H32.7769V41.1607ZM56.4762 38.8515V31.1479C56.4762 30.2701 55.7657 29.5576 54.8903 29.5576H47.2083C46.3329 29.5576 45.6225 30.2701 45.6225 31.1479V38.8515C45.6225 39.7294 46.3329 40.4419 47.2083 40.4419H54.8903C55.7657 40.4419 56.4762 39.7294 56.4762 38.8515ZM48.7942 32.7383H53.3044V37.2612H48.7942V32.7383ZM20.6005 22.5601V16.0524C20.6005 15.1745 19.8901 14.462 19.0146 14.462C18.1392 14.462 17.4288 15.1745 17.4288 16.0524V22.5601C17.4288 23.4379 18.1392 24.1504 19.0146 24.1504C19.8901 24.1504 20.6005 23.4379 20.6005 22.5601ZM36.6179 53.9471V47.274C36.6179 46.3961 35.9074 45.6837 35.032 45.6837C34.1566 45.6837 33.4461 46.3961 33.4461 47.274V53.9471C33.4461 54.8249 34.1566 55.5374 35.032 55.5374C35.9074 55.5374 36.6179 54.8249 36.6179 53.9471ZM52.6352 53.9471V38.8515C52.6352 37.9737 51.9247 37.2612 51.0493 37.2612C50.1739 37.2612 49.4635 37.9737 49.4635 38.8515V53.9471C49.4635 54.8249 50.1739 55.5374 51.0493 55.5374C51.9247 55.5374 52.6352 54.8249 52.6352 53.9471Z" fill="white"/>
</svg>
