<svg width="25" height="25" viewBox="0 0 25 25" fill="none" xmlns="http://www.w3.org/2000/svg">
<path d="M2.5 7.57617L10.6649 13.2916C11.3261 13.7544 11.6567 13.9858 12.0163 14.0755C12.3339 14.1547 12.6661 14.1547 12.9837 14.0755C13.3433 13.9858 13.6739 13.7544 14.3351 13.2916L22.5 7.57617M7.3 20.5762H17.7C19.3802 20.5762 20.2202 20.5762 20.862 20.2492C21.4265 19.9616 21.8854 19.5026 22.173 18.9381C22.5 18.2964 22.5 17.4563 22.5 15.7762V9.37617C22.5 7.69601 22.5 6.85594 22.173 6.2142C21.8854 5.64971 21.4265 5.19077 20.862 4.90315C20.2202 4.57617 19.3802 4.57617 17.7 4.57617H7.3C5.61984 4.57617 4.77976 4.57617 4.13803 4.90315C3.57354 5.19077 3.1146 5.64971 2.82698 6.2142C2.5 6.85594 2.5 7.69601 2.5 9.37617V15.7762C2.5 17.4563 2.5 18.2964 2.82698 18.9381C3.1146 19.5026 3.57354 19.9616 4.13803 20.2492C4.77976 20.5762 5.61984 20.5762 7.3 20.5762Z" stroke="#283167" stroke-width="2" stroke-linecap="round" stroke-linejoin="round"/>
</svg>
