<svg width="64" height="64" viewBox="0 0 64 64" fill="none" xmlns="http://www.w3.org/2000/svg">
<rect width="64" height="64" rx="32" fill="#375EFF"/>
<path d="M41.5 38L34.8571 32M29.1429 32L22.5 38M22 27L30.1649 32.7154C30.8261 33.1783 31.1567 33.4097 31.5163 33.4993C31.8339 33.5785 32.1661 33.5785 32.4837 33.4993C32.8433 33.4097 33.1739 33.1783 33.8351 32.7154L42 27M26.8 40H37.2C38.8802 40 39.7202 40 40.362 39.673C40.9265 39.3854 41.3854 38.9265 41.673 38.362C42 37.7202 42 36.8802 42 35.2V28.8C42 27.1198 42 26.2798 41.673 25.638C41.3854 25.0735 40.9265 24.6146 40.362 24.327C39.7202 24 38.8802 24 37.2 24H26.8C25.1198 24 24.2798 24 23.638 24.327C23.0735 24.6146 22.6146 25.0735 22.327 25.638C22 26.2798 22 27.1198 22 28.8V35.2C22 36.8802 22 37.7202 22.327 38.362C22.6146 38.9265 23.0735 39.3854 23.638 39.673C24.2798 40 25.1198 40 26.8 40Z" stroke="white" stroke-width="2" stroke-linecap="round" stroke-linejoin="round"/>
</svg>
