<svg width="24" height="24" viewBox="0 0 24 24" fill="none" xmlns="http://www.w3.org/2000/svg">
    <path d="M23.7188 12.043C23.7188 18.5148 18.4718 23.7617 12 23.7617C5.52811 23.7617 0.28125 18.5148 0.28125 12.043C0.28125 5.57108 5.52811 0.324219 12 0.324219C18.4718 0.324219 23.7188 5.57108 23.7188 12.043Z" fill="#0A7BBA"/>
    <path d="M19.0017 12.9861V17.8178H16.2007V13.3104C16.2007 12.1783 15.7968 11.4051 14.7819 11.4051C14.0088 11.4051 13.5487 11.9263 13.3457 12.4302C13.2713 12.6098 13.2529 12.8596 13.2529 13.1126V17.8178H10.451C10.451 17.8178 10.4887 10.1832 10.451 9.39281H13.2529V10.5871C13.2479 10.5963 13.2397 10.6053 13.2345 10.6145H13.2529V10.5871C13.6252 10.014 14.2892 9.19481 15.7774 9.19481C17.6206 9.19481 19.0017 10.3994 19.0017 12.9861ZM7.5216 5.33203C6.56277 5.33203 5.93652 5.96138 5.93652 6.78759C5.93652 7.59642 6.54445 8.24302 7.4849 8.24302H7.50224C8.4794 8.24302 9.08732 7.59647 9.08732 6.78759C9.06895 5.96142 8.4794 5.33203 7.5216 5.33203ZM6.10279 17.8178H8.90268V9.39281H6.10279V17.8178Z" fill="#F2F2F2"/>
</svg>
