<svg width="306" height="49" viewBox="0 0 306 49" fill="none" xmlns="http://www.w3.org/2000/svg">
    <path d="M38.2568 48.1119H3.34451C1.9946 48.1119 0.898438 47.0164 0.898438 45.6623C0.898438 44.3082 1.99206 43.2128 3.34451 43.2128H38.2543C39.6042 43.2128 40.7003 44.3082 40.7003 45.6623C40.7003 47.0164 39.6067 48.1119 38.2543 48.1119H38.2568Z" fill="white"/>
    <path d="M20.802 40.1927C9.83019 40.1927 0.903564 31.254 0.903564 20.2665C0.903564 11.1605 7.04918 3.22356 15.8489 0.964179C17.1532 0.629456 18.4853 1.41808 18.8203 2.72401C19.1552 4.03247 18.3686 5.36375 17.0618 5.69848C10.4214 7.40252 5.78555 13.392 5.78555 20.2665C5.78555 28.5585 12.5224 35.3037 20.802 35.3037C29.0816 35.3037 35.8184 28.5585 35.8184 20.2665C35.8184 13.392 31.18 7.40252 24.5421 5.69848C23.2354 5.36375 22.4488 4.03247 22.7837 2.72401C23.1186 1.41555 24.4482 0.629456 25.755 0.964179C34.5548 3.22102 40.7004 11.1605 40.7004 20.2665C40.7004 31.254 31.7738 40.1927 20.802 40.1927Z" fill="white"/>
    <path d="M66.7394 7.57996H55.6255V35.2199H60.0127V24.9475H66.7394C71.7076 24.9475 75.1763 21.4177 75.1763 16.3614C75.1763 11.305 71.7076 7.57996 66.7394 7.57996ZM60.0127 11.2644H65.9249C68.7871 11.2644 70.6368 13.25 70.6368 16.3208C70.6368 19.3916 68.7871 21.3391 65.9249 21.3391H60.0127V11.2644Z" fill="white"/>
    <path d="M93.0422 15.3319V17.9387C91.3726 15.9253 89.0991 14.9059 86.2749 14.9059C80.5556 14.9059 76.4019 19.2674 76.4019 25.2772C76.4019 31.287 80.5531 35.646 86.2749 35.646C89.0991 35.646 91.3701 34.6266 93.0422 32.6132V35.22H97.3127V15.3319H93.0422ZM93.1183 25.2721C93.0803 29.1189 90.4566 31.8043 86.7393 31.8043C83.022 31.8043 80.6698 29.1189 80.6698 25.2747C80.6698 21.4304 83.1641 18.7451 86.7393 18.7451C90.3145 18.7451 93.0803 21.4304 93.1183 25.2721Z" fill="white"/>
    <path d="M115.196 15.3319L109.855 29.3522L104.1 15.3319H99.2361L107.533 34.3122L103.831 43.9H108.016L120.137 15.3319H115.196Z" fill="white"/>
    <path d="M133.862 19.9976L129.751 18.4483C126.785 17.3275 126.386 15.981 126.386 14.8094C126.386 12.294 128.749 11.1478 130.941 11.1478C133.742 11.1478 135.473 12.4258 136.087 14.9464L136.15 15.205L140.121 14.0157L140.071 13.7875C139.185 9.69478 135.686 7.15393 130.941 7.15393C126.478 7.15393 121.961 9.81143 121.961 14.8881C121.961 18.461 124.133 20.9815 128.416 22.3762L132.484 23.7683C135.024 24.7041 136.313 26.0582 136.313 27.7952C136.313 30.123 134.108 31.6901 130.827 31.6901C127.546 31.6901 125.209 29.6463 124.793 27.6278L124.74 27.3666L120.594 28.424L120.654 28.6675C121.702 32.9048 125.729 35.6434 130.908 35.6434C136.81 35.6434 140.626 32.4559 140.626 27.5213C140.626 24.9069 138.848 21.5546 133.869 19.9976H133.862Z" fill="white"/>
    <path d="M173.585 15.3319V17.9387C171.915 15.9253 169.642 14.9059 166.818 14.9059C161.098 14.9059 156.944 19.2674 156.944 25.2772C156.944 31.287 161.096 35.646 166.818 35.646C169.642 35.646 171.913 34.6266 173.585 32.6132V35.22H177.855V15.3319H173.585ZM173.663 25.2721C173.625 29.1189 171.002 31.8043 167.284 31.8043C163.567 31.8043 161.215 29.1189 161.215 25.2747C161.215 21.4304 163.709 18.7451 167.284 18.7451C170.86 18.7451 173.625 21.4304 173.663 25.2721Z" fill="white"/>
    <path d="M193.095 14.9059C190.213 14.9059 187.959 16.1078 186.833 18.1846V15.3319H182.562V35.22H186.833V25.9746C186.833 20.2691 190.598 18.7476 192.824 18.7476C195.176 18.7476 196.526 20.6748 196.526 24.0372V35.22H200.796V24.0372C200.796 18.2354 197.99 14.9084 193.095 14.9084V14.9059Z" fill="white"/>
    <path d="M220.715 6.68738V17.9361C219.045 15.9227 216.772 14.9033 213.948 14.9033C208.226 14.9033 204.074 19.2648 204.074 25.2746C204.074 31.2844 208.226 35.6434 213.948 35.6434C216.772 35.6434 219.043 34.624 220.715 32.6106V35.2174H224.985V6.68738H220.715ZM220.791 25.2721C220.753 29.1189 218.129 31.8043 214.412 31.8043C210.695 31.8043 208.342 29.1189 208.342 25.2746C208.342 21.4304 210.839 18.745 214.412 18.745C217.985 18.745 220.753 21.4304 220.791 25.2721Z" fill="white"/>
    <path d="M245.127 15.3319V17.9387C243.458 15.9253 241.184 14.9059 238.36 14.9059C232.641 14.9059 228.487 19.2674 228.487 25.2772C228.487 31.287 232.638 35.646 238.36 35.646C241.184 35.646 243.455 34.6266 245.127 32.6132V35.22H249.398V15.3319H245.127ZM245.206 25.2721C245.168 29.1189 242.544 31.8043 238.827 31.8043C235.11 31.8043 232.757 29.1189 232.757 25.2747C232.757 21.4304 235.252 18.7451 238.827 18.7451C242.402 18.7451 245.168 21.4304 245.206 25.2721Z" fill="white"/>
    <path d="M265.247 15.3522C264.742 15.1366 264.135 14.9059 263.361 14.9059C261.194 14.9059 259.37 16.2169 258.418 18.3571V15.3319H254.148V35.22H258.418V27.6406C258.418 19.8583 261.687 19.0189 263.09 19.0189C263.795 19.0189 264.48 19.1863 265.021 19.4906L265.399 19.7036V15.4206L265.244 15.3547L265.247 15.3522Z" fill="white"/>
    <path d="M282.818 6.62146V17.8702C281.148 15.8568 278.875 14.8374 276.051 14.8374C270.329 14.8374 266.178 19.1989 266.178 25.2087C266.178 31.2185 270.329 35.5775 276.051 35.5775C278.875 35.5775 281.146 34.5581 282.818 32.5447V35.1515H287.089V6.62146H282.818ZM282.897 25.2062C282.859 29.0529 280.235 31.7383 276.518 31.7383C272.8 31.7383 270.448 29.0529 270.448 25.2087C270.448 21.3645 272.945 18.6791 276.518 18.6791C280.09 18.6791 282.859 21.3645 282.897 25.2062Z" fill="white"/>
    <path d="M300.273 23.8065L297.482 22.8758C296.033 22.394 295.328 21.7119 295.328 20.7914C295.328 19.4804 296.403 18.565 297.944 18.565C299.387 18.565 300.245 19.1711 300.73 20.5277L300.806 20.7382L304.63 19.8938L304.549 19.6301C303.315 15.6692 300.215 14.84 297.829 14.84C293.975 14.84 291.176 17.3757 291.176 20.87C291.176 23.5808 292.795 25.3863 296.119 26.3828L298.718 27.2729C300.311 27.8181 300.989 28.4774 300.989 29.4739C300.989 30.8534 299.692 31.855 297.906 31.855C296.119 31.855 294.394 30.8052 293.96 29.3624L293.891 29.1316L290.07 30.0648L290.136 30.3158C290.991 33.516 294.026 35.5826 297.868 35.5826C302.128 35.5826 305.104 33.0874 305.104 29.5145C305.104 27.5823 304.264 25.0262 300.276 23.809L300.273 23.8065Z" fill="white"/>
    <path d="M155.351 18.783V15.3293H149.068V9.74805H145.689L144.836 15.3293H141.621V18.783H144.8V28.8399C144.8 34.9816 149.21 35.6434 151.106 35.6434H155.354V31.8423H151.144C149.807 31.8423 149.071 30.8736 149.071 29.1112V18.783H155.354H155.351Z" fill="white"/>
</svg>
