<svg width="71" height="71" viewBox="0 0 71 71" fill="none" xmlns="http://www.w3.org/2000/svg">
<path id="Vector" d="M54.8183 50.5008L43.623 39.274C43.0279 38.6772 42.0853 38.6514 41.4547 39.1869L38.5787 36.3028C42.4617 31.2829 42.111 24.0113 37.5139 19.4012C32.5339 14.4072 24.4302 14.4072 19.4502 19.4012C14.4702 24.3952 14.4702 32.5218 19.4502 37.5158C21.9402 40.0128 25.2119 41.2613 28.4836 41.2613C31.2471 41.2613 34.0105 40.3644 36.3043 38.5804L39.1803 41.4645C38.6463 42.0968 38.672 43.0421 39.2672 43.6389L50.4624 54.8657C50.7777 55.1819 51.1895 55.3367 51.6013 55.3367C52.013 55.3367 52.4248 55.1787 52.7401 54.8657L54.8215 52.7784C55.4488 52.1494 55.4488 51.1267 54.8215 50.4976L54.8183 50.5008ZM21.7279 35.2414C18.0025 31.5055 18.0025 25.4243 21.7279 21.6885C23.5905 19.8206 26.0387 18.885 28.4836 18.885C30.9286 18.885 33.3768 19.8206 35.2394 21.6885C38.9647 25.4243 38.9647 31.5055 35.2394 35.2414C31.5141 38.9772 25.45 38.9772 21.7246 35.2414H21.7279ZM71 35.3962C71 17.1978 57.4145 1.98351 39.399 0.00913407C38.5176 -0.0844228 37.723 0.551119 37.6265 1.4383C37.5299 2.32547 38.1669 3.11909 39.0516 3.21588C55.4328 5.00959 67.7862 18.8463 67.7862 35.3962C67.7862 53.2462 53.3031 67.7701 35.5032 67.7701C17.7034 67.7701 3.21704 53.2495 3.21704 35.3962C3.21704 18.8463 15.5705 5.00959 31.9548 3.21588C32.8395 3.11909 33.4765 2.32225 33.38 1.4383C33.2835 0.554345 32.4889 -0.0844228 31.6042 0.00913407C13.5855 1.98351 0 17.1946 0 35.3962C0 55.027 15.9243 70.9962 35.5 70.9962C55.0757 70.9962 71 55.027 71 35.3962Z" fill="#3860FF"/>
</svg>
