<svg width="59" height="62" viewBox="0 0 59 62" fill="none" xmlns="http://www.w3.org/2000/svg">
<mask id="path-1-outside-1_1143_17551" maskUnits="userSpaceOnUse" x="0" y="-0.00012207" width="59" height="62" fill="black">
<rect fill="white" y="-0.00012207" width="59" height="62"/>
<path fill-rule="evenodd" clip-rule="evenodd" d="M48.9356 26.1776C49.6048 26.1776 50.2127 26.4497 50.6514 26.8884C51.0901 27.3272 51.3622 27.935 51.3622 28.6042C51.3622 29.2733 51.0901 29.8812 50.6514 30.3199C50.2127 30.7587 49.6048 31.0308 48.9356 31.0308C48.2665 31.0308 47.6586 30.7587 47.2199 30.3199C46.9405 30.0405 46.7297 29.6949 46.6145 29.3076H42.4574C42.2515 29.3076 42.0457 29.2194 41.8986 29.0503L39.0406 25.7144H30.4569L30.4668 33.3691H38.195C38.3151 32.9941 38.521 32.6607 38.7931 32.3887C39.2318 31.9499 39.8397 31.6778 40.5088 31.6778C41.178 31.6778 41.7858 31.9499 42.2246 32.3887C42.6633 32.8274 42.9354 33.4353 42.9354 34.1044C42.9354 34.7736 42.6633 35.3814 42.2246 35.8202C41.7858 36.2589 41.178 36.531 40.5088 36.531C39.8397 36.531 39.2318 36.2589 38.7931 35.8202C38.521 35.5481 38.3151 35.2147 38.195 34.8397H30.4692L30.479 42.5092H37.1459C37.5528 42.5092 37.8813 42.8376 37.8813 43.2445C37.8813 43.2715 37.8813 43.296 37.8764 43.3205L37.793 48.8035C38.1778 48.9212 38.521 49.1295 38.7955 49.4065C39.2343 49.8452 39.5039 50.4482 39.5039 51.1174C39.5039 51.7865 39.2318 52.3895 38.7955 52.8282C38.3592 53.267 37.7538 53.5366 37.0847 53.5366C36.4155 53.5366 35.8126 53.2645 35.3738 52.8282C34.9351 52.3919 34.6655 51.7865 34.6655 51.1174C34.6655 50.4482 34.9375 49.8452 35.3738 49.4065C35.6385 49.1418 35.9621 48.9384 36.3248 48.8207L36.3959 43.9823H30.4741L30.4839 53.0954C30.4962 56.5244 31.4962 58.3922 32.8884 59.1348C33.8958 59.6716 35.1459 59.6398 36.3886 59.201C37.6974 58.7378 38.9843 57.8284 39.9892 56.6494C41.7687 54.5636 42.6364 51.6345 41.0922 48.8771C40.8936 48.5241 41.0211 48.0756 41.3741 47.8795C41.727 47.6809 42.1756 47.8084 42.3716 48.1614C42.8643 49.0437 43.1609 49.9359 43.2883 50.8208C44.9796 51.8895 46.7909 51.5193 48.2444 50.4262C49.0092 49.8526 49.6808 49.0805 50.1979 48.2104C50.7151 47.3402 51.0705 46.3794 51.2004 45.421C51.4652 43.4871 50.7985 41.5532 48.6464 40.4674C48.2861 40.286 48.139 39.8448 48.3229 39.4821C48.5067 39.1193 48.9454 38.9747 49.3082 39.1585C50.1955 39.6071 50.8916 40.1659 51.4161 40.7983C53.3966 40.8253 55.0045 39.384 55.9653 37.4305C56.4139 36.5138 56.7203 35.4844 56.8575 34.4353C56.9948 33.3936 56.9605 32.3347 56.7325 31.3518C56.2374 29.2072 54.7864 27.4154 52.0951 26.984C51.6956 26.9203 51.4235 26.5453 51.4872 26.1458C51.5509 25.7462 51.926 25.4742 52.3255 25.5379C52.7887 25.6114 53.2226 25.7193 53.627 25.8516C54.9383 24.3761 55.0633 22.2902 54.4212 20.2828C54.0609 19.1626 53.4628 18.067 52.6956 17.1062C51.9333 16.1502 51.0044 15.334 49.9823 14.7678C48.0729 13.709 45.8081 13.53 43.6511 14.9811C43.3129 15.2066 42.8594 15.1159 42.6339 14.7801C42.4084 14.4443 42.4991 13.9884 42.8349 13.7629C43.4795 13.3291 44.1315 13.0129 44.786 12.7972C45.2443 10.0299 42.8521 6.72339 39.8691 4.5983C38.6117 3.70121 37.2538 3.02716 35.9621 2.69626C34.7439 2.38498 33.5992 2.38743 32.6923 2.81882C31.3835 3.44139 30.4986 5.01499 30.479 7.92197C30.479 8.01756 30.4618 8.10825 30.4275 8.18913L30.4349 15.1281H38.2171V12.8682C37.8421 12.7481 37.5087 12.5423 37.2366 12.2702C36.7979 11.8314 36.5258 11.2236 36.5258 10.5544C36.5258 9.88528 36.7979 9.27741 37.2366 8.83867C37.6754 8.39993 38.2832 8.12786 38.9524 8.12786C39.6215 8.12786 40.2294 8.39993 40.6681 8.83867C41.1069 9.27741 41.379 9.88528 41.379 10.5544C41.379 11.2236 41.1069 11.8314 40.6681 12.2702C40.3961 12.5423 40.0627 12.7481 39.6877 12.8682V15.8635C39.6877 16.2703 39.3593 16.5988 38.9524 16.5988C38.9009 16.5988 38.8494 16.5939 38.8004 16.5841C38.7514 16.5939 38.6999 16.5988 38.6485 16.5988H30.4373L30.4471 24.2511H39.3666C39.6093 24.2511 39.825 24.3687 39.9573 24.5501L42.781 27.8444H46.6218C46.7419 27.4816 46.9454 27.1605 47.2076 26.8958C47.6537 26.4521 48.2591 26.1825 48.9307 26.1825L48.9356 26.1776ZM39.6387 9.87058C39.8127 10.0446 39.9181 10.2824 39.9181 10.5471C39.9181 10.8118 39.8103 11.0495 39.6387 11.2236C39.4647 11.3976 39.2269 11.503 38.9622 11.503C38.6975 11.503 38.4597 11.3951 38.2857 11.2236C38.1117 11.0495 38.0063 10.8118 38.0063 10.5471C38.0063 10.2824 38.1141 10.0446 38.2857 9.87058C38.4597 9.69655 38.6975 9.59115 38.9622 9.59115C39.2269 9.59115 39.4647 9.699 39.6387 9.87058ZM41.1829 33.4279C41.3569 33.6019 41.4623 33.8397 41.4623 34.1044C41.4623 34.3691 41.3545 34.6069 41.1829 34.7809C41.0088 34.9549 40.7711 35.0603 40.5064 35.0603C40.2417 35.0603 40.0039 34.9525 39.8299 34.7809C39.6558 34.6069 39.5505 34.3691 39.5505 34.1044C39.5505 33.8397 39.6583 33.6019 39.8299 33.4279C40.0039 33.2539 40.2417 33.1485 40.5064 33.1485C40.7711 33.1485 41.0088 33.2563 41.1829 33.4279ZM37.7563 50.4433C37.9278 50.6149 38.0332 50.8526 38.0332 51.1149C38.0332 51.3772 37.9278 51.6149 37.7563 51.7865C37.5847 51.9581 37.3469 52.0635 37.0847 52.0635C36.8224 52.0635 36.5846 51.9581 36.4131 51.7865C36.2415 51.6149 36.1361 51.3772 36.1361 51.1149C36.1361 50.8526 36.2415 50.6149 36.4131 50.4433C36.5846 50.2717 36.8224 50.1663 37.0847 50.1663C37.3469 50.1663 37.5847 50.2717 37.7563 50.4433ZM29.7045 57.3799C29.1383 58.8775 28.2559 59.8628 27.2044 60.4241C25.8048 61.1717 24.1405 61.1521 22.5277 60.581C20.9811 60.0319 19.4712 58.9706 18.302 57.6005C17.0789 56.1666 16.2211 54.392 16.0642 52.5022C14.0372 53.3797 11.9684 52.8601 10.2796 51.5929C9.35559 50.9017 8.55164 49.9825 7.94132 48.9531C7.331 47.9212 6.90941 46.7691 6.75009 45.6122C6.58832 44.4382 6.69372 43.2641 7.13491 42.2028C4.93139 41.8817 3.18377 40.2272 2.12491 38.0654C1.60528 37.004 1.25232 35.8202 1.093 34.6167C0.936131 33.4058 0.972897 32.1681 1.24007 31.016C1.67146 29.1483 2.6813 27.4914 4.39461 26.4717C2.96317 24.6065 2.84062 22.1603 3.59065 19.8269C4.00488 18.5351 4.68628 17.2802 5.56132 16.1846C6.43881 15.084 7.51728 14.1404 8.71096 13.4786C10.0664 12.7261 11.5689 12.3339 13.1131 12.4761C12.9219 9.24555 15.4955 5.67187 18.6869 3.39727C20.0913 2.39723 21.6159 1.63985 23.0816 1.26483C24.6185 0.870208 26.1038 0.894719 27.3465 1.48543C28.3515 1.96339 29.175 2.79431 29.7094 4.05661C30.2462 2.79676 31.0697 1.96584 32.0722 1.48543C33.3125 0.894719 34.7978 0.870208 36.3346 1.26483C37.7979 1.6374 39.3274 2.39723 40.727 3.39727C43.9183 5.67187 46.4944 9.24555 46.3007 12.4761C47.8425 12.3339 49.345 12.7261 50.7029 13.4786C51.899 14.1428 52.975 15.0865 53.8525 16.1846C54.7275 17.2777 55.4089 18.5351 55.8232 19.8269C56.5732 22.1603 56.4482 24.6065 55.0192 26.4717C56.7301 27.4914 57.7424 29.1483 58.1738 31.016C58.4409 32.1705 58.4777 33.4034 58.3208 34.6167C58.164 35.8202 57.811 37.004 57.2889 38.0654C56.2301 40.2272 54.4824 41.8817 52.2789 42.2028C52.7226 43.2666 52.8255 44.4406 52.6637 45.6122C52.5044 46.7691 52.0828 47.9212 51.4725 48.9531C50.8622 49.9825 50.0582 50.9017 49.1342 51.5929C47.4454 52.8601 45.3791 53.3797 43.3496 52.5022C43.1928 54.392 42.3349 56.1666 41.1118 57.6005C39.9426 58.9706 38.4303 60.0344 36.8861 60.581C35.2733 61.1521 33.609 61.1717 32.2095 60.4241C31.1531 59.8628 30.2707 58.8775 29.7045 57.3799ZM16.1108 50.8159C16.2382 49.931 16.5348 49.0388 17.0275 48.1565C17.226 47.8035 17.6746 47.676 18.0275 47.8746C18.3805 48.0731 18.5079 48.5217 18.3094 48.8722C16.7652 51.6296 17.6329 54.5587 19.4124 56.6445C20.4173 57.8235 21.7041 58.7304 23.013 59.1961C24.2557 59.6349 25.5058 59.6692 26.5132 59.1299C27.9078 58.3848 28.9054 56.5195 28.9177 53.0905L28.9691 8.17933C28.9348 8.09599 28.9177 8.0053 28.9177 7.91216C28.9005 5.00518 28.0132 3.43404 26.7043 2.80901C25.795 2.37762 24.6528 2.37272 23.4346 2.68646C22.1429 3.0149 20.785 3.69385 19.5276 4.5885C16.5471 6.71358 14.1524 10.0201 14.6107 12.7874C15.2627 13.0006 15.9171 13.3168 16.5618 13.7531C16.8976 13.9786 16.9883 14.4345 16.7628 14.7703C16.5373 15.1061 16.0814 15.1968 15.7456 14.9713C13.5911 13.5202 11.3238 13.6992 9.41442 14.758C8.38987 15.3242 7.46336 16.1404 6.70107 17.0964C5.93388 18.0572 5.33582 19.1528 4.97551 20.273C4.33088 22.2804 4.45588 24.3638 5.76966 25.8418C6.17409 25.707 6.60793 25.6016 7.07119 25.5281C7.47071 25.4644 7.84573 25.7389 7.90946 26.1359C7.97318 26.5355 7.69866 26.9105 7.30159 26.9742C4.60785 27.4056 3.15681 29.1973 2.66414 31.342C2.43864 32.3249 2.40433 33.3838 2.53914 34.4255C2.6764 35.4746 2.98278 36.504 3.43133 37.4207C4.3897 39.3767 5.99761 40.8155 7.98054 40.7885C8.50507 40.1561 9.19872 39.5973 10.0885 39.1487C10.4512 38.9674 10.89 39.112 11.0738 39.4723C11.2576 39.8326 11.1106 40.2738 10.7478 40.4576C8.59576 41.5434 7.92661 43.4798 8.19378 45.4112C8.32614 46.3672 8.68155 47.328 9.19627 48.2006C9.711 49.0732 10.385 49.8428 11.1498 50.4164C12.6057 51.5095 14.4171 51.8796 16.1083 50.811L16.1108 50.8159ZM12.9636 23.3393C13.4538 23.8393 13.8215 24.4472 14.0445 25.104C14.3043 25.8688 14.3656 26.6997 14.1916 27.5086C14.0175 28.315 13.6058 29.0969 12.9195 29.7684C12.3042 30.369 11.4684 30.8861 10.3801 31.2563C9.99532 31.3862 9.78943 31.8028 9.91934 32.1852C10.0492 32.57 10.4659 32.7759 10.8483 32.646C12.1547 32.2024 13.1793 31.5651 13.944 30.8126C14.8485 29.9278 15.3926 28.8885 15.623 27.8174C15.8534 26.7463 15.7725 25.6457 15.4294 24.6334C15.1377 23.7707 14.6499 22.9741 14.0028 22.3098C13.7185 22.0206 13.2553 22.0181 12.966 22.3C12.6793 22.5843 12.6744 23.05 12.9587 23.3393H12.9636ZM20.9664 11.5643C21.1575 12.2408 21.1919 12.9516 21.0742 13.633C20.9369 14.4271 20.5938 15.187 20.057 15.812C19.5202 16.4346 18.7849 16.9272 17.8608 17.1895C17.0324 17.4248 16.0495 17.4787 14.9171 17.2851C14.5176 17.2165 14.1377 17.4861 14.069 17.8856C14.0004 18.2851 14.27 18.6651 14.6695 18.7337C16.0323 18.969 17.2334 18.8979 18.2628 18.6038C19.481 18.2582 20.4541 17.6037 21.1698 16.7704C21.8855 15.9395 22.339 14.9345 22.5203 13.8781C22.6748 12.981 22.6282 12.0471 22.3757 11.1598C22.2654 10.7701 21.8586 10.5446 21.4664 10.6549C21.0767 10.7677 20.8512 11.1746 20.9615 11.5643H20.9664ZM14.5886 44.0313C15.2186 43.72 15.9098 43.5582 16.6034 43.5509C17.4147 43.5411 18.2236 43.7421 18.9344 44.1587C19.6428 44.573 20.2605 45.2103 20.6845 46.073C21.0669 46.8476 21.2948 47.8035 21.3095 48.9482C21.312 49.3526 21.6429 49.6786 22.0473 49.6737C22.4517 49.6712 22.7753 49.3403 22.7728 48.9359C22.7581 47.551 22.4713 46.3819 21.9983 45.4235C21.4394 44.2911 20.6208 43.4504 19.6722 42.8964C18.7261 42.3425 17.655 42.0778 16.5887 42.0876C15.6745 42.0974 14.7651 42.3106 13.9367 42.7175C13.5739 42.8964 13.4244 43.3376 13.6033 43.7004C13.7822 44.0656 14.221 44.2127 14.5862 44.0337L14.5886 44.0313ZM18.0177 30.7366C18.6991 30.9107 19.329 31.2391 19.8609 31.6827C20.4835 32.2024 20.9664 32.8813 21.236 33.6583C21.5031 34.4329 21.5571 35.3152 21.3193 36.2516C21.1061 37.0874 20.6575 37.9624 19.9197 38.8423C19.6599 39.1536 19.7016 39.6169 20.0129 39.8767C20.3242 40.1365 20.7874 40.0948 21.0472 39.7836C21.937 38.7247 22.4787 37.6511 22.7458 36.6143C23.0571 35.3937 22.9836 34.2221 22.6233 33.1828C22.2654 32.1435 21.6233 31.244 20.807 30.5577C20.1085 29.9719 19.2776 29.5405 18.3854 29.3125C17.9907 29.2121 17.5912 29.4498 17.4932 29.8444C17.3902 30.2366 17.628 30.6361 18.0226 30.7366H18.0177ZM49.6121 27.9301C49.7862 28.1042 49.8916 28.3419 49.8916 28.6066C49.8916 28.8714 49.7837 29.1091 49.6121 29.2831C49.4381 29.4572 49.2004 29.5626 48.9356 29.5626C48.6709 29.5626 48.4332 29.4547 48.2591 29.2831C48.0851 29.1116 47.9797 28.8714 47.9797 28.6066C47.9797 28.3419 48.0876 28.1042 48.2591 27.9301C48.4332 27.7561 48.6709 27.6507 48.9356 27.6507C49.2004 27.6507 49.4381 27.7586 49.6121 27.9301Z"/>
</mask>
<path fill-rule="evenodd" clip-rule="evenodd" d="M48.9356 26.1776C49.6048 26.1776 50.2127 26.4497 50.6514 26.8884C51.0901 27.3272 51.3622 27.935 51.3622 28.6042C51.3622 29.2733 51.0901 29.8812 50.6514 30.3199C50.2127 30.7587 49.6048 31.0308 48.9356 31.0308C48.2665 31.0308 47.6586 30.7587 47.2199 30.3199C46.9405 30.0405 46.7297 29.6949 46.6145 29.3076H42.4574C42.2515 29.3076 42.0457 29.2194 41.8986 29.0503L39.0406 25.7144H30.4569L30.4668 33.3691H38.195C38.3151 32.9941 38.521 32.6607 38.7931 32.3887C39.2318 31.9499 39.8397 31.6778 40.5088 31.6778C41.178 31.6778 41.7858 31.9499 42.2246 32.3887C42.6633 32.8274 42.9354 33.4353 42.9354 34.1044C42.9354 34.7736 42.6633 35.3814 42.2246 35.8202C41.7858 36.2589 41.178 36.531 40.5088 36.531C39.8397 36.531 39.2318 36.2589 38.7931 35.8202C38.521 35.5481 38.3151 35.2147 38.195 34.8397H30.4692L30.479 42.5092H37.1459C37.5528 42.5092 37.8813 42.8376 37.8813 43.2445C37.8813 43.2715 37.8813 43.296 37.8764 43.3205L37.793 48.8035C38.1778 48.9212 38.521 49.1295 38.7955 49.4065C39.2343 49.8452 39.5039 50.4482 39.5039 51.1174C39.5039 51.7865 39.2318 52.3895 38.7955 52.8282C38.3592 53.267 37.7538 53.5366 37.0847 53.5366C36.4155 53.5366 35.8126 53.2645 35.3738 52.8282C34.9351 52.3919 34.6655 51.7865 34.6655 51.1174C34.6655 50.4482 34.9375 49.8452 35.3738 49.4065C35.6385 49.1418 35.9621 48.9384 36.3248 48.8207L36.3959 43.9823H30.4741L30.4839 53.0954C30.4962 56.5244 31.4962 58.3922 32.8884 59.1348C33.8958 59.6716 35.1459 59.6398 36.3886 59.201C37.6974 58.7378 38.9843 57.8284 39.9892 56.6494C41.7687 54.5636 42.6364 51.6345 41.0922 48.8771C40.8936 48.5241 41.0211 48.0756 41.3741 47.8795C41.727 47.6809 42.1756 47.8084 42.3716 48.1614C42.8643 49.0437 43.1609 49.9359 43.2883 50.8208C44.9796 51.8895 46.7909 51.5193 48.2444 50.4262C49.0092 49.8526 49.6808 49.0805 50.1979 48.2104C50.7151 47.3402 51.0705 46.3794 51.2004 45.421C51.4652 43.4871 50.7985 41.5532 48.6464 40.4674C48.2861 40.286 48.139 39.8448 48.3229 39.4821C48.5067 39.1193 48.9454 38.9747 49.3082 39.1585C50.1955 39.6071 50.8916 40.1659 51.4161 40.7983C53.3966 40.8253 55.0045 39.384 55.9653 37.4305C56.4139 36.5138 56.7203 35.4844 56.8575 34.4353C56.9948 33.3936 56.9605 32.3347 56.7325 31.3518C56.2374 29.2072 54.7864 27.4154 52.0951 26.984C51.6956 26.9203 51.4235 26.5453 51.4872 26.1458C51.5509 25.7462 51.926 25.4742 52.3255 25.5379C52.7887 25.6114 53.2226 25.7193 53.627 25.8516C54.9383 24.3761 55.0633 22.2902 54.4212 20.2828C54.0609 19.1626 53.4628 18.067 52.6956 17.1062C51.9333 16.1502 51.0044 15.334 49.9823 14.7678C48.0729 13.709 45.8081 13.53 43.6511 14.9811C43.3129 15.2066 42.8594 15.1159 42.6339 14.7801C42.4084 14.4443 42.4991 13.9884 42.8349 13.7629C43.4795 13.3291 44.1315 13.0129 44.786 12.7972C45.2443 10.0299 42.8521 6.72339 39.8691 4.5983C38.6117 3.70121 37.2538 3.02716 35.9621 2.69626C34.7439 2.38498 33.5992 2.38743 32.6923 2.81882C31.3835 3.44139 30.4986 5.01499 30.479 7.92197C30.479 8.01756 30.4618 8.10825 30.4275 8.18913L30.4349 15.1281H38.2171V12.8682C37.8421 12.7481 37.5087 12.5423 37.2366 12.2702C36.7979 11.8314 36.5258 11.2236 36.5258 10.5544C36.5258 9.88528 36.7979 9.27741 37.2366 8.83867C37.6754 8.39993 38.2832 8.12786 38.9524 8.12786C39.6215 8.12786 40.2294 8.39993 40.6681 8.83867C41.1069 9.27741 41.379 9.88528 41.379 10.5544C41.379 11.2236 41.1069 11.8314 40.6681 12.2702C40.3961 12.5423 40.0627 12.7481 39.6877 12.8682V15.8635C39.6877 16.2703 39.3593 16.5988 38.9524 16.5988C38.9009 16.5988 38.8494 16.5939 38.8004 16.5841C38.7514 16.5939 38.6999 16.5988 38.6485 16.5988H30.4373L30.4471 24.2511H39.3666C39.6093 24.2511 39.825 24.3687 39.9573 24.5501L42.781 27.8444H46.6218C46.7419 27.4816 46.9454 27.1605 47.2076 26.8958C47.6537 26.4521 48.2591 26.1825 48.9307 26.1825L48.9356 26.1776ZM39.6387 9.87058C39.8127 10.0446 39.9181 10.2824 39.9181 10.5471C39.9181 10.8118 39.8103 11.0495 39.6387 11.2236C39.4647 11.3976 39.2269 11.503 38.9622 11.503C38.6975 11.503 38.4597 11.3951 38.2857 11.2236C38.1117 11.0495 38.0063 10.8118 38.0063 10.5471C38.0063 10.2824 38.1141 10.0446 38.2857 9.87058C38.4597 9.69655 38.6975 9.59115 38.9622 9.59115C39.2269 9.59115 39.4647 9.699 39.6387 9.87058ZM41.1829 33.4279C41.3569 33.6019 41.4623 33.8397 41.4623 34.1044C41.4623 34.3691 41.3545 34.6069 41.1829 34.7809C41.0088 34.9549 40.7711 35.0603 40.5064 35.0603C40.2417 35.0603 40.0039 34.9525 39.8299 34.7809C39.6558 34.6069 39.5505 34.3691 39.5505 34.1044C39.5505 33.8397 39.6583 33.6019 39.8299 33.4279C40.0039 33.2539 40.2417 33.1485 40.5064 33.1485C40.7711 33.1485 41.0088 33.2563 41.1829 33.4279ZM37.7563 50.4433C37.9278 50.6149 38.0332 50.8526 38.0332 51.1149C38.0332 51.3772 37.9278 51.6149 37.7563 51.7865C37.5847 51.9581 37.3469 52.0635 37.0847 52.0635C36.8224 52.0635 36.5846 51.9581 36.4131 51.7865C36.2415 51.6149 36.1361 51.3772 36.1361 51.1149C36.1361 50.8526 36.2415 50.6149 36.4131 50.4433C36.5846 50.2717 36.8224 50.1663 37.0847 50.1663C37.3469 50.1663 37.5847 50.2717 37.7563 50.4433ZM29.7045 57.3799C29.1383 58.8775 28.2559 59.8628 27.2044 60.4241C25.8048 61.1717 24.1405 61.1521 22.5277 60.581C20.9811 60.0319 19.4712 58.9706 18.302 57.6005C17.0789 56.1666 16.2211 54.392 16.0642 52.5022C14.0372 53.3797 11.9684 52.8601 10.2796 51.5929C9.35559 50.9017 8.55164 49.9825 7.94132 48.9531C7.331 47.9212 6.90941 46.7691 6.75009 45.6122C6.58832 44.4382 6.69372 43.2641 7.13491 42.2028C4.93139 41.8817 3.18377 40.2272 2.12491 38.0654C1.60528 37.004 1.25232 35.8202 1.093 34.6167C0.936131 33.4058 0.972897 32.1681 1.24007 31.016C1.67146 29.1483 2.6813 27.4914 4.39461 26.4717C2.96317 24.6065 2.84062 22.1603 3.59065 19.8269C4.00488 18.5351 4.68628 17.2802 5.56132 16.1846C6.43881 15.084 7.51728 14.1404 8.71096 13.4786C10.0664 12.7261 11.5689 12.3339 13.1131 12.4761C12.9219 9.24555 15.4955 5.67187 18.6869 3.39727C20.0913 2.39723 21.6159 1.63985 23.0816 1.26483C24.6185 0.870208 26.1038 0.894719 27.3465 1.48543C28.3515 1.96339 29.175 2.79431 29.7094 4.05661C30.2462 2.79676 31.0697 1.96584 32.0722 1.48543C33.3125 0.894719 34.7978 0.870208 36.3346 1.26483C37.7979 1.6374 39.3274 2.39723 40.727 3.39727C43.9183 5.67187 46.4944 9.24555 46.3007 12.4761C47.8425 12.3339 49.345 12.7261 50.7029 13.4786C51.899 14.1428 52.975 15.0865 53.8525 16.1846C54.7275 17.2777 55.4089 18.5351 55.8232 19.8269C56.5732 22.1603 56.4482 24.6065 55.0192 26.4717C56.7301 27.4914 57.7424 29.1483 58.1738 31.016C58.4409 32.1705 58.4777 33.4034 58.3208 34.6167C58.164 35.8202 57.811 37.004 57.2889 38.0654C56.2301 40.2272 54.4824 41.8817 52.2789 42.2028C52.7226 43.2666 52.8255 44.4406 52.6637 45.6122C52.5044 46.7691 52.0828 47.9212 51.4725 48.9531C50.8622 49.9825 50.0582 50.9017 49.1342 51.5929C47.4454 52.8601 45.3791 53.3797 43.3496 52.5022C43.1928 54.392 42.3349 56.1666 41.1118 57.6005C39.9426 58.9706 38.4303 60.0344 36.8861 60.581C35.2733 61.1521 33.609 61.1717 32.2095 60.4241C31.1531 59.8628 30.2707 58.8775 29.7045 57.3799ZM16.1108 50.8159C16.2382 49.931 16.5348 49.0388 17.0275 48.1565C17.226 47.8035 17.6746 47.676 18.0275 47.8746C18.3805 48.0731 18.5079 48.5217 18.3094 48.8722C16.7652 51.6296 17.6329 54.5587 19.4124 56.6445C20.4173 57.8235 21.7041 58.7304 23.013 59.1961C24.2557 59.6349 25.5058 59.6692 26.5132 59.1299C27.9078 58.3848 28.9054 56.5195 28.9177 53.0905L28.9691 8.17933C28.9348 8.09599 28.9177 8.0053 28.9177 7.91216C28.9005 5.00518 28.0132 3.43404 26.7043 2.80901C25.795 2.37762 24.6528 2.37272 23.4346 2.68646C22.1429 3.0149 20.785 3.69385 19.5276 4.5885C16.5471 6.71358 14.1524 10.0201 14.6107 12.7874C15.2627 13.0006 15.9171 13.3168 16.5618 13.7531C16.8976 13.9786 16.9883 14.4345 16.7628 14.7703C16.5373 15.1061 16.0814 15.1968 15.7456 14.9713C13.5911 13.5202 11.3238 13.6992 9.41442 14.758C8.38987 15.3242 7.46336 16.1404 6.70107 17.0964C5.93388 18.0572 5.33582 19.1528 4.97551 20.273C4.33088 22.2804 4.45588 24.3638 5.76966 25.8418C6.17409 25.707 6.60793 25.6016 7.07119 25.5281C7.47071 25.4644 7.84573 25.7389 7.90946 26.1359C7.97318 26.5355 7.69866 26.9105 7.30159 26.9742C4.60785 27.4056 3.15681 29.1973 2.66414 31.342C2.43864 32.3249 2.40433 33.3838 2.53914 34.4255C2.6764 35.4746 2.98278 36.504 3.43133 37.4207C4.3897 39.3767 5.99761 40.8155 7.98054 40.7885C8.50507 40.1561 9.19872 39.5973 10.0885 39.1487C10.4512 38.9674 10.89 39.112 11.0738 39.4723C11.2576 39.8326 11.1106 40.2738 10.7478 40.4576C8.59576 41.5434 7.92661 43.4798 8.19378 45.4112C8.32614 46.3672 8.68155 47.328 9.19627 48.2006C9.711 49.0732 10.385 49.8428 11.1498 50.4164C12.6057 51.5095 14.4171 51.8796 16.1083 50.811L16.1108 50.8159ZM12.9636 23.3393C13.4538 23.8393 13.8215 24.4472 14.0445 25.104C14.3043 25.8688 14.3656 26.6997 14.1916 27.5086C14.0175 28.315 13.6058 29.0969 12.9195 29.7684C12.3042 30.369 11.4684 30.8861 10.3801 31.2563C9.99532 31.3862 9.78943 31.8028 9.91934 32.1852C10.0492 32.57 10.4659 32.7759 10.8483 32.646C12.1547 32.2024 13.1793 31.5651 13.944 30.8126C14.8485 29.9278 15.3926 28.8885 15.623 27.8174C15.8534 26.7463 15.7725 25.6457 15.4294 24.6334C15.1377 23.7707 14.6499 22.9741 14.0028 22.3098C13.7185 22.0206 13.2553 22.0181 12.966 22.3C12.6793 22.5843 12.6744 23.05 12.9587 23.3393H12.9636ZM20.9664 11.5643C21.1575 12.2408 21.1919 12.9516 21.0742 13.633C20.9369 14.4271 20.5938 15.187 20.057 15.812C19.5202 16.4346 18.7849 16.9272 17.8608 17.1895C17.0324 17.4248 16.0495 17.4787 14.9171 17.2851C14.5176 17.2165 14.1377 17.4861 14.069 17.8856C14.0004 18.2851 14.27 18.6651 14.6695 18.7337C16.0323 18.969 17.2334 18.8979 18.2628 18.6038C19.481 18.2582 20.4541 17.6037 21.1698 16.7704C21.8855 15.9395 22.339 14.9345 22.5203 13.8781C22.6748 12.981 22.6282 12.0471 22.3757 11.1598C22.2654 10.7701 21.8586 10.5446 21.4664 10.6549C21.0767 10.7677 20.8512 11.1746 20.9615 11.5643H20.9664ZM14.5886 44.0313C15.2186 43.72 15.9098 43.5582 16.6034 43.5509C17.4147 43.5411 18.2236 43.7421 18.9344 44.1587C19.6428 44.573 20.2605 45.2103 20.6845 46.073C21.0669 46.8476 21.2948 47.8035 21.3095 48.9482C21.312 49.3526 21.6429 49.6786 22.0473 49.6737C22.4517 49.6712 22.7753 49.3403 22.7728 48.9359C22.7581 47.551 22.4713 46.3819 21.9983 45.4235C21.4394 44.2911 20.6208 43.4504 19.6722 42.8964C18.7261 42.3425 17.655 42.0778 16.5887 42.0876C15.6745 42.0974 14.7651 42.3106 13.9367 42.7175C13.5739 42.8964 13.4244 43.3376 13.6033 43.7004C13.7822 44.0656 14.221 44.2127 14.5862 44.0337L14.5886 44.0313ZM18.0177 30.7366C18.6991 30.9107 19.329 31.2391 19.8609 31.6827C20.4835 32.2024 20.9664 32.8813 21.236 33.6583C21.5031 34.4329 21.5571 35.3152 21.3193 36.2516C21.1061 37.0874 20.6575 37.9624 19.9197 38.8423C19.6599 39.1536 19.7016 39.6169 20.0129 39.8767C20.3242 40.1365 20.7874 40.0948 21.0472 39.7836C21.937 38.7247 22.4787 37.6511 22.7458 36.6143C23.0571 35.3937 22.9836 34.2221 22.6233 33.1828C22.2654 32.1435 21.6233 31.244 20.807 30.5577C20.1085 29.9719 19.2776 29.5405 18.3854 29.3125C17.9907 29.2121 17.5912 29.4498 17.4932 29.8444C17.3902 30.2366 17.628 30.6361 18.0226 30.7366H18.0177ZM49.6121 27.9301C49.7862 28.1042 49.8916 28.3419 49.8916 28.6066C49.8916 28.8714 49.7837 29.1091 49.6121 29.2831C49.4381 29.4572 49.2004 29.5626 48.9356 29.5626C48.6709 29.5626 48.4332 29.4547 48.2591 29.2831C48.0851 29.1116 47.9797 28.8714 47.9797 28.6066C47.9797 28.3419 48.0876 28.1042 48.2591 27.9301C48.4332 27.7561 48.6709 27.6507 48.9356 27.6507C49.2004 27.6507 49.4381 27.7586 49.6121 27.9301Z" fill="#152461"/>
<path fill-rule="evenodd" clip-rule="evenodd" d="M48.9356 26.1776C49.6048 26.1776 50.2127 26.4497 50.6514 26.8884C51.0901 27.3272 51.3622 27.935 51.3622 28.6042C51.3622 29.2733 51.0901 29.8812 50.6514 30.3199C50.2127 30.7587 49.6048 31.0308 48.9356 31.0308C48.2665 31.0308 47.6586 30.7587 47.2199 30.3199C46.9405 30.0405 46.7297 29.6949 46.6145 29.3076H42.4574C42.2515 29.3076 42.0457 29.2194 41.8986 29.0503L39.0406 25.7144H30.4569L30.4668 33.3691H38.195C38.3151 32.9941 38.521 32.6607 38.7931 32.3887C39.2318 31.9499 39.8397 31.6778 40.5088 31.6778C41.178 31.6778 41.7858 31.9499 42.2246 32.3887C42.6633 32.8274 42.9354 33.4353 42.9354 34.1044C42.9354 34.7736 42.6633 35.3814 42.2246 35.8202C41.7858 36.2589 41.178 36.531 40.5088 36.531C39.8397 36.531 39.2318 36.2589 38.7931 35.8202C38.521 35.5481 38.3151 35.2147 38.195 34.8397H30.4692L30.479 42.5092H37.1459C37.5528 42.5092 37.8813 42.8376 37.8813 43.2445C37.8813 43.2715 37.8813 43.296 37.8764 43.3205L37.793 48.8035C38.1778 48.9212 38.521 49.1295 38.7955 49.4065C39.2343 49.8452 39.5039 50.4482 39.5039 51.1174C39.5039 51.7865 39.2318 52.3895 38.7955 52.8282C38.3592 53.267 37.7538 53.5366 37.0847 53.5366C36.4155 53.5366 35.8126 53.2645 35.3738 52.8282C34.9351 52.3919 34.6655 51.7865 34.6655 51.1174C34.6655 50.4482 34.9375 49.8452 35.3738 49.4065C35.6385 49.1418 35.9621 48.9384 36.3248 48.8207L36.3959 43.9823H30.4741L30.4839 53.0954C30.4962 56.5244 31.4962 58.3922 32.8884 59.1348C33.8958 59.6716 35.1459 59.6398 36.3886 59.201C37.6974 58.7378 38.9843 57.8284 39.9892 56.6494C41.7687 54.5636 42.6364 51.6345 41.0922 48.8771C40.8936 48.5241 41.0211 48.0756 41.3741 47.8795C41.727 47.6809 42.1756 47.8084 42.3716 48.1614C42.8643 49.0437 43.1609 49.9359 43.2883 50.8208C44.9796 51.8895 46.7909 51.5193 48.2444 50.4262C49.0092 49.8526 49.6808 49.0805 50.1979 48.2104C50.7151 47.3402 51.0705 46.3794 51.2004 45.421C51.4652 43.4871 50.7985 41.5532 48.6464 40.4674C48.2861 40.286 48.139 39.8448 48.3229 39.4821C48.5067 39.1193 48.9454 38.9747 49.3082 39.1585C50.1955 39.6071 50.8916 40.1659 51.4161 40.7983C53.3966 40.8253 55.0045 39.384 55.9653 37.4305C56.4139 36.5138 56.7203 35.4844 56.8575 34.4353C56.9948 33.3936 56.9605 32.3347 56.7325 31.3518C56.2374 29.2072 54.7864 27.4154 52.0951 26.984C51.6956 26.9203 51.4235 26.5453 51.4872 26.1458C51.5509 25.7462 51.926 25.4742 52.3255 25.5379C52.7887 25.6114 53.2226 25.7193 53.627 25.8516C54.9383 24.3761 55.0633 22.2902 54.4212 20.2828C54.0609 19.1626 53.4628 18.067 52.6956 17.1062C51.9333 16.1502 51.0044 15.334 49.9823 14.7678C48.0729 13.709 45.8081 13.53 43.6511 14.9811C43.3129 15.2066 42.8594 15.1159 42.6339 14.7801C42.4084 14.4443 42.4991 13.9884 42.8349 13.7629C43.4795 13.3291 44.1315 13.0129 44.786 12.7972C45.2443 10.0299 42.8521 6.72339 39.8691 4.5983C38.6117 3.70121 37.2538 3.02716 35.9621 2.69626C34.7439 2.38498 33.5992 2.38743 32.6923 2.81882C31.3835 3.44139 30.4986 5.01499 30.479 7.92197C30.479 8.01756 30.4618 8.10825 30.4275 8.18913L30.4349 15.1281H38.2171V12.8682C37.8421 12.7481 37.5087 12.5423 37.2366 12.2702C36.7979 11.8314 36.5258 11.2236 36.5258 10.5544C36.5258 9.88528 36.7979 9.27741 37.2366 8.83867C37.6754 8.39993 38.2832 8.12786 38.9524 8.12786C39.6215 8.12786 40.2294 8.39993 40.6681 8.83867C41.1069 9.27741 41.379 9.88528 41.379 10.5544C41.379 11.2236 41.1069 11.8314 40.6681 12.2702C40.3961 12.5423 40.0627 12.7481 39.6877 12.8682V15.8635C39.6877 16.2703 39.3593 16.5988 38.9524 16.5988C38.9009 16.5988 38.8494 16.5939 38.8004 16.5841C38.7514 16.5939 38.6999 16.5988 38.6485 16.5988H30.4373L30.4471 24.2511H39.3666C39.6093 24.2511 39.825 24.3687 39.9573 24.5501L42.781 27.8444H46.6218C46.7419 27.4816 46.9454 27.1605 47.2076 26.8958C47.6537 26.4521 48.2591 26.1825 48.9307 26.1825L48.9356 26.1776ZM39.6387 9.87058C39.8127 10.0446 39.9181 10.2824 39.9181 10.5471C39.9181 10.8118 39.8103 11.0495 39.6387 11.2236C39.4647 11.3976 39.2269 11.503 38.9622 11.503C38.6975 11.503 38.4597 11.3951 38.2857 11.2236C38.1117 11.0495 38.0063 10.8118 38.0063 10.5471C38.0063 10.2824 38.1141 10.0446 38.2857 9.87058C38.4597 9.69655 38.6975 9.59115 38.9622 9.59115C39.2269 9.59115 39.4647 9.699 39.6387 9.87058ZM41.1829 33.4279C41.3569 33.6019 41.4623 33.8397 41.4623 34.1044C41.4623 34.3691 41.3545 34.6069 41.1829 34.7809C41.0088 34.9549 40.7711 35.0603 40.5064 35.0603C40.2417 35.0603 40.0039 34.9525 39.8299 34.7809C39.6558 34.6069 39.5505 34.3691 39.5505 34.1044C39.5505 33.8397 39.6583 33.6019 39.8299 33.4279C40.0039 33.2539 40.2417 33.1485 40.5064 33.1485C40.7711 33.1485 41.0088 33.2563 41.1829 33.4279ZM37.7563 50.4433C37.9278 50.6149 38.0332 50.8526 38.0332 51.1149C38.0332 51.3772 37.9278 51.6149 37.7563 51.7865C37.5847 51.9581 37.3469 52.0635 37.0847 52.0635C36.8224 52.0635 36.5846 51.9581 36.4131 51.7865C36.2415 51.6149 36.1361 51.3772 36.1361 51.1149C36.1361 50.8526 36.2415 50.6149 36.4131 50.4433C36.5846 50.2717 36.8224 50.1663 37.0847 50.1663C37.3469 50.1663 37.5847 50.2717 37.7563 50.4433ZM29.7045 57.3799C29.1383 58.8775 28.2559 59.8628 27.2044 60.4241C25.8048 61.1717 24.1405 61.1521 22.5277 60.581C20.9811 60.0319 19.4712 58.9706 18.302 57.6005C17.0789 56.1666 16.2211 54.392 16.0642 52.5022C14.0372 53.3797 11.9684 52.8601 10.2796 51.5929C9.35559 50.9017 8.55164 49.9825 7.94132 48.9531C7.331 47.9212 6.90941 46.7691 6.75009 45.6122C6.58832 44.4382 6.69372 43.2641 7.13491 42.2028C4.93139 41.8817 3.18377 40.2272 2.12491 38.0654C1.60528 37.004 1.25232 35.8202 1.093 34.6167C0.936131 33.4058 0.972897 32.1681 1.24007 31.016C1.67146 29.1483 2.6813 27.4914 4.39461 26.4717C2.96317 24.6065 2.84062 22.1603 3.59065 19.8269C4.00488 18.5351 4.68628 17.2802 5.56132 16.1846C6.43881 15.084 7.51728 14.1404 8.71096 13.4786C10.0664 12.7261 11.5689 12.3339 13.1131 12.4761C12.9219 9.24555 15.4955 5.67187 18.6869 3.39727C20.0913 2.39723 21.6159 1.63985 23.0816 1.26483C24.6185 0.870208 26.1038 0.894719 27.3465 1.48543C28.3515 1.96339 29.175 2.79431 29.7094 4.05661C30.2462 2.79676 31.0697 1.96584 32.0722 1.48543C33.3125 0.894719 34.7978 0.870208 36.3346 1.26483C37.7979 1.6374 39.3274 2.39723 40.727 3.39727C43.9183 5.67187 46.4944 9.24555 46.3007 12.4761C47.8425 12.3339 49.345 12.7261 50.7029 13.4786C51.899 14.1428 52.975 15.0865 53.8525 16.1846C54.7275 17.2777 55.4089 18.5351 55.8232 19.8269C56.5732 22.1603 56.4482 24.6065 55.0192 26.4717C56.7301 27.4914 57.7424 29.1483 58.1738 31.016C58.4409 32.1705 58.4777 33.4034 58.3208 34.6167C58.164 35.8202 57.811 37.004 57.2889 38.0654C56.2301 40.2272 54.4824 41.8817 52.2789 42.2028C52.7226 43.2666 52.8255 44.4406 52.6637 45.6122C52.5044 46.7691 52.0828 47.9212 51.4725 48.9531C50.8622 49.9825 50.0582 50.9017 49.1342 51.5929C47.4454 52.8601 45.3791 53.3797 43.3496 52.5022C43.1928 54.392 42.3349 56.1666 41.1118 57.6005C39.9426 58.9706 38.4303 60.0344 36.8861 60.581C35.2733 61.1521 33.609 61.1717 32.2095 60.4241C31.1531 59.8628 30.2707 58.8775 29.7045 57.3799ZM16.1108 50.8159C16.2382 49.931 16.5348 49.0388 17.0275 48.1565C17.226 47.8035 17.6746 47.676 18.0275 47.8746C18.3805 48.0731 18.5079 48.5217 18.3094 48.8722C16.7652 51.6296 17.6329 54.5587 19.4124 56.6445C20.4173 57.8235 21.7041 58.7304 23.013 59.1961C24.2557 59.6349 25.5058 59.6692 26.5132 59.1299C27.9078 58.3848 28.9054 56.5195 28.9177 53.0905L28.9691 8.17933C28.9348 8.09599 28.9177 8.0053 28.9177 7.91216C28.9005 5.00518 28.0132 3.43404 26.7043 2.80901C25.795 2.37762 24.6528 2.37272 23.4346 2.68646C22.1429 3.0149 20.785 3.69385 19.5276 4.5885C16.5471 6.71358 14.1524 10.0201 14.6107 12.7874C15.2627 13.0006 15.9171 13.3168 16.5618 13.7531C16.8976 13.9786 16.9883 14.4345 16.7628 14.7703C16.5373 15.1061 16.0814 15.1968 15.7456 14.9713C13.5911 13.5202 11.3238 13.6992 9.41442 14.758C8.38987 15.3242 7.46336 16.1404 6.70107 17.0964C5.93388 18.0572 5.33582 19.1528 4.97551 20.273C4.33088 22.2804 4.45588 24.3638 5.76966 25.8418C6.17409 25.707 6.60793 25.6016 7.07119 25.5281C7.47071 25.4644 7.84573 25.7389 7.90946 26.1359C7.97318 26.5355 7.69866 26.9105 7.30159 26.9742C4.60785 27.4056 3.15681 29.1973 2.66414 31.342C2.43864 32.3249 2.40433 33.3838 2.53914 34.4255C2.6764 35.4746 2.98278 36.504 3.43133 37.4207C4.3897 39.3767 5.99761 40.8155 7.98054 40.7885C8.50507 40.1561 9.19872 39.5973 10.0885 39.1487C10.4512 38.9674 10.89 39.112 11.0738 39.4723C11.2576 39.8326 11.1106 40.2738 10.7478 40.4576C8.59576 41.5434 7.92661 43.4798 8.19378 45.4112C8.32614 46.3672 8.68155 47.328 9.19627 48.2006C9.711 49.0732 10.385 49.8428 11.1498 50.4164C12.6057 51.5095 14.4171 51.8796 16.1083 50.811L16.1108 50.8159ZM12.9636 23.3393C13.4538 23.8393 13.8215 24.4472 14.0445 25.104C14.3043 25.8688 14.3656 26.6997 14.1916 27.5086C14.0175 28.315 13.6058 29.0969 12.9195 29.7684C12.3042 30.369 11.4684 30.8861 10.3801 31.2563C9.99532 31.3862 9.78943 31.8028 9.91934 32.1852C10.0492 32.57 10.4659 32.7759 10.8483 32.646C12.1547 32.2024 13.1793 31.5651 13.944 30.8126C14.8485 29.9278 15.3926 28.8885 15.623 27.8174C15.8534 26.7463 15.7725 25.6457 15.4294 24.6334C15.1377 23.7707 14.6499 22.9741 14.0028 22.3098C13.7185 22.0206 13.2553 22.0181 12.966 22.3C12.6793 22.5843 12.6744 23.05 12.9587 23.3393H12.9636ZM20.9664 11.5643C21.1575 12.2408 21.1919 12.9516 21.0742 13.633C20.9369 14.4271 20.5938 15.187 20.057 15.812C19.5202 16.4346 18.7849 16.9272 17.8608 17.1895C17.0324 17.4248 16.0495 17.4787 14.9171 17.2851C14.5176 17.2165 14.1377 17.4861 14.069 17.8856C14.0004 18.2851 14.27 18.6651 14.6695 18.7337C16.0323 18.969 17.2334 18.8979 18.2628 18.6038C19.481 18.2582 20.4541 17.6037 21.1698 16.7704C21.8855 15.9395 22.339 14.9345 22.5203 13.8781C22.6748 12.981 22.6282 12.0471 22.3757 11.1598C22.2654 10.7701 21.8586 10.5446 21.4664 10.6549C21.0767 10.7677 20.8512 11.1746 20.9615 11.5643H20.9664ZM14.5886 44.0313C15.2186 43.72 15.9098 43.5582 16.6034 43.5509C17.4147 43.5411 18.2236 43.7421 18.9344 44.1587C19.6428 44.573 20.2605 45.2103 20.6845 46.073C21.0669 46.8476 21.2948 47.8035 21.3095 48.9482C21.312 49.3526 21.6429 49.6786 22.0473 49.6737C22.4517 49.6712 22.7753 49.3403 22.7728 48.9359C22.7581 47.551 22.4713 46.3819 21.9983 45.4235C21.4394 44.2911 20.6208 43.4504 19.6722 42.8964C18.7261 42.3425 17.655 42.0778 16.5887 42.0876C15.6745 42.0974 14.7651 42.3106 13.9367 42.7175C13.5739 42.8964 13.4244 43.3376 13.6033 43.7004C13.7822 44.0656 14.221 44.2127 14.5862 44.0337L14.5886 44.0313ZM18.0177 30.7366C18.6991 30.9107 19.329 31.2391 19.8609 31.6827C20.4835 32.2024 20.9664 32.8813 21.236 33.6583C21.5031 34.4329 21.5571 35.3152 21.3193 36.2516C21.1061 37.0874 20.6575 37.9624 19.9197 38.8423C19.6599 39.1536 19.7016 39.6169 20.0129 39.8767C20.3242 40.1365 20.7874 40.0948 21.0472 39.7836C21.937 38.7247 22.4787 37.6511 22.7458 36.6143C23.0571 35.3937 22.9836 34.2221 22.6233 33.1828C22.2654 32.1435 21.6233 31.244 20.807 30.5577C20.1085 29.9719 19.2776 29.5405 18.3854 29.3125C17.9907 29.2121 17.5912 29.4498 17.4932 29.8444C17.3902 30.2366 17.628 30.6361 18.0226 30.7366H18.0177ZM49.6121 27.9301C49.7862 28.1042 49.8916 28.3419 49.8916 28.6066C49.8916 28.8714 49.7837 29.1091 49.6121 29.2831C49.4381 29.4572 49.2004 29.5626 48.9356 29.5626C48.6709 29.5626 48.4332 29.4547 48.2591 29.2831C48.0851 29.1116 47.9797 28.8714 47.9797 28.6066C47.9797 28.3419 48.0876 28.1042 48.2591 27.9301C48.4332 27.7561 48.6709 27.6507 48.9356 27.6507C49.2004 27.6507 49.4381 27.7586 49.6121 27.9301Z" stroke="#152461" mask="url(#path-1-outside-1_1143_17551)"/>
</svg>
