<svg width="68" height="60" viewBox="0 0 68 60" fill="none" xmlns="http://www.w3.org/2000/svg">
<path d="M21.6667 29.9993L8.12525 22.5V28.1252H0V31.8748H8.12525V37.5L21.6667 29.9993Z" fill="#152461"/>
<path d="M45.8333 29.9993L59.3748 22.5V28.1252H67.5V31.8748H59.3748V37.5L45.8333 29.9993Z" fill="#152461"/>
<path d="M26.8333 1.14817C26.8333 1.09532 26.8351 1.04582 26.8382 1H27.3284C27.3315 1.04582 27.3333 1.09532 27.3333 1.14817V58.8518C27.3333 58.9047 27.3315 58.9542 27.3284 59H26.8382C26.8351 58.9542 26.8333 58.9047 26.8333 58.8518V1.14817ZM27.2645 0.655025C27.2646 0.654966 27.2653 0.656411 27.2666 0.659534C27.2651 0.656645 27.2645 0.655084 27.2645 0.655025ZM27.2645 59.345C27.2645 59.3449 27.2651 59.3434 27.2666 59.3405C27.2653 59.3436 27.2646 59.345 27.2645 59.345ZM26.9021 59.345C26.9021 59.345 26.9014 59.3436 26.9001 59.3405C26.9015 59.3433 26.9021 59.3449 26.9021 59.345ZM26.9001 0.659534C26.9013 0.656411 26.9021 0.654967 26.9021 0.655025C26.9021 0.655084 26.9015 0.656645 26.9001 0.659534Z" stroke="#152461" stroke-width="2"/>
<path d="M40.6667 1.14817C40.6667 1.09532 40.6649 1.04582 40.6618 1H40.1716C40.1685 1.04582 40.1667 1.09532 40.1667 1.14817V58.8518C40.1667 58.9047 40.1685 58.9542 40.1716 59H40.6618C40.6649 58.9542 40.6667 58.9047 40.6667 58.8518V1.14817ZM40.2355 0.655025C40.2354 0.654966 40.2347 0.656411 40.2334 0.659534C40.2349 0.656645 40.2355 0.655084 40.2355 0.655025ZM40.2355 59.345C40.2355 59.3449 40.2349 59.3434 40.2334 59.3405C40.2347 59.3436 40.2354 59.345 40.2355 59.345ZM40.5979 59.345C40.5979 59.345 40.5986 59.3436 40.5999 59.3405C40.5985 59.3433 40.5979 59.3449 40.5979 59.345ZM40.5999 0.659534C40.5987 0.656411 40.5979 0.654967 40.5979 0.655025C40.5979 0.655084 40.5985 0.656645 40.5999 0.659534Z" stroke="#152461" stroke-width="2"/>
</svg>
