<svg width="62" height="62" viewBox="0 0 62 62" fill="none" xmlns="http://www.w3.org/2000/svg">
<path d="M60.8913 39.2403H60.8609C60.777 39.6443 60.4939 39.9765 60.1166 40.1251C59.5892 44.6446 55.0661 46.9469 50.7148 46.9469C46.3828 46.9469 41.8954 44.6746 41.3211 40.2095C40.6589 40.1989 40.1215 39.6549 40.1215 38.9903C40.1215 38.319 40.6697 37.7709 41.3409 37.7709H41.6292L49.6542 16.7535C48.6949 16.2667 47.6724 15.6684 46.6284 15.0537L60.8913 39.2403ZM60.8913 39.2403V38.9903C60.8913 38.3679 60.42 37.8513 59.8163 37.7794L52.5622 17.7941C52.7201 17.8151 52.8755 17.8266 53.0268 17.8266C53.698 17.8266 54.2462 17.2784 54.2462 16.6072C54.2462 15.936 53.698 15.3878 53.0268 15.3878C52.797 15.3878 52.4794 15.3143 52.0867 15.172C51.6988 15.0314 51.2572 14.831 50.7861 14.5936C49.8466 14.1202 48.8094 13.5103 47.8745 12.9605L47.8656 12.9552L47.8655 12.9552L47.8344 12.9369C46.7025 12.2716 45.6347 11.6441 44.6749 11.1824C43.712 10.7192 42.8231 10.4052 42.0631 10.4052C40.9367 10.4052 39.7066 10.4966 38.4167 10.5926L38.3851 10.5949L38.3845 10.5949C37.2688 10.6808 36.1234 10.7621 34.9458 10.8V4.63531C34.9458 2.4904 33.2002 0.750122 31.0606 0.750122C28.9207 0.750122 27.1754 2.49546 27.1754 4.63531V7.90111C26.3339 7.4797 25.5199 7.04866 24.7228 6.62043L24.7222 6.6201C24.6443 6.57855 24.5667 6.53711 24.4894 6.4958C23.4239 5.92677 22.4066 5.38349 21.439 4.95447L21.439 4.95445C20.7447 4.64679 19.8059 4.57305 18.7381 4.60596C17.6639 4.63907 16.4203 4.78233 15.1001 4.93466L15.0781 4.93719C14.0058 5.06037 12.8154 5.1971 11.7684 5.24897C11.2415 5.27508 10.7565 5.27936 10.345 5.25057C9.92854 5.22142 9.60895 5.1596 9.39987 5.06622L9.39987 5.06621L9.39777 5.0653C8.78517 4.79842 8.06462 5.0646 7.78961 5.68797C7.51615 6.30781 7.79025 7.0227 8.41138 7.297C8.89162 7.5104 9.46924 7.62099 10.1061 7.67058L2.25775 28.2079H1.96938C1.29815 28.2079 0.75 28.7561 0.75 29.4273C0.75 30.0919 1.28742 30.6359 1.94962 30.6465C2.52388 35.1116 7.01132 37.3839 11.3433 37.3839C15.6946 37.3839 20.2176 35.0817 20.7451 30.5621C21.1978 30.3839 21.515 29.9411 21.515 29.4273C21.515 28.8049 21.0437 28.2883 20.44 28.2165L12.9647 7.61068C13.7399 7.54384 14.5518 7.45326 15.376 7.35553C16.3589 7.24148 17.4515 7.11642 18.3976 7.063C18.8706 7.03628 19.3016 7.02783 19.6605 7.04676C20.0259 7.06605 20.2903 7.11277 20.4471 7.18102C21.3578 7.58378 22.3533 8.11405 23.4181 8.68118C23.4687 8.70816 23.5195 8.73522 23.5705 8.76236C24.6594 9.34652 25.8838 9.99644 27.1754 10.6012V54.7884H19.806C16.9198 54.7884 14.5686 57.1396 14.5686 60.0259C14.5686 60.6971 15.1167 61.2453 15.7879 61.2453H46.3332C47.0045 61.2453 47.5526 60.6971 47.5526 60.0259C47.5526 57.1396 45.2014 54.7884 42.3151 54.7884H34.9458V13.2394C36.2214 13.2005 37.4527 13.1097 38.5629 13.0278L38.5675 13.0275L38.5682 13.0274C39.8349 12.9303 41.0225 12.844 42.0631 12.844C42.2334 12.844 42.4937 12.9075 42.8361 13.0378C43.1718 13.1656 43.5624 13.3479 43.9842 13.5641C44.8206 13.9927 45.7599 14.544 46.6065 15.0408L46.6281 15.0535L60.8913 39.2403ZM32.507 4.63531V54.7933H29.6142V9.84575V4.63531C29.6142 3.83793 30.2632 3.18889 31.0606 3.18889C31.858 3.18889 32.507 3.83793 32.507 4.63531ZM11.3433 34.9451C9.74187 34.9451 8.09385 34.5755 6.79876 33.8145C5.5883 33.1032 4.69381 32.0564 4.41198 30.6467H18.2703C17.9905 32.0564 17.0972 33.1032 15.8872 33.8145C14.5928 34.5755 12.9448 34.9451 11.3433 34.9451ZM4.87226 28.2079L11.5264 10.785L17.8499 28.2079H4.87226ZM42.32 57.232C43.4255 57.232 44.3819 57.877 44.8366 58.8114H17.2895C17.7442 57.877 18.7006 57.232 19.806 57.232H42.32ZM44.2438 37.7709L50.8979 20.348L57.2214 37.7709H44.2438ZM50.7197 44.5081C49.1182 44.5081 47.4702 44.1385 46.1751 43.3775C44.9647 42.6662 44.0702 41.6193 43.7883 40.2096H57.6466C57.3669 41.6193 56.4735 42.6662 55.2636 43.3775C53.9692 44.1385 52.3212 44.5081 50.7197 44.5081Z" fill="#152461" stroke="#152461" stroke-width="0.5"/>
</svg>
