<svg width="54" height="62" viewBox="0 0 54 62" fill="none" xmlns="http://www.w3.org/2000/svg">
<mask id="path-1-outside-1_1143_17555" maskUnits="userSpaceOnUse" x="0" y="0" width="54" height="62" fill="black">
<rect fill="white" width="54" height="62"/>
<path fill-rule="evenodd" clip-rule="evenodd" d="M10.4729 10.693C10.4729 10.355 10.7477 10.0802 11.0857 10.0802C11.4236 10.0802 11.6984 10.355 11.6984 10.693V15.2647L14.2647 16.9359C14.5469 17.1179 14.6249 17.5004 14.4429 17.7789C14.261 18.0612 13.8821 18.1429 13.5999 17.9572L10.7923 16.13C10.5992 16.026 10.4692 15.8217 10.4692 15.5915V10.6893L10.4729 10.693ZM24.4107 6.65982C23.4674 6.65982 22.6133 7.04234 21.9968 7.65883C21.3803 8.27532 20.9978 9.12949 20.9978 10.0728C20.9978 10.693 21.1649 11.2723 21.4509 11.7774L19.2189 13.664C18.7621 11.5732 17.5105 9.65685 15.5682 8.41273C13.6259 7.16861 11.3642 6.82694 9.28076 7.28373C7.19361 7.74053 5.28101 8.99208 4.03689 10.9344C3.85491 11.2166 3.94033 11.5954 4.21886 11.7774C4.50111 11.9594 4.87992 11.8777 5.06189 11.5954C6.12404 9.93909 7.7581 8.86952 9.53701 8.48329C11.3196 8.09334 13.2508 8.38673 14.9034 9.44516C16.5598 10.5073 17.6256 12.1414 18.0156 13.9203C18.4055 15.7029 18.1122 17.6341 17.0537 19.2867C15.9916 20.9431 14.3575 22.0126 12.5786 22.3989C10.796 22.7888 8.86481 22.4954 7.21218 21.437C5.86407 20.5717 4.90591 19.335 4.38598 17.946C4.00718 16.9322 3.85862 15.8403 3.96261 14.7559L4.60138 15.6286C4.80193 15.8997 5.18445 15.9591 5.45555 15.7586C5.72666 15.5618 5.78608 15.1793 5.58554 14.9044L4.13344 12.9213C3.94033 12.6427 3.55781 12.5759 3.28299 12.769L1.25897 14.1988C0.98415 14.3919 0.917301 14.7744 1.11042 15.0493C1.30725 15.3241 1.68606 15.3909 1.96088 15.1978L2.75191 14.6408C2.63307 15.9109 2.80391 17.1884 3.24585 18.3694C3.85491 19.9998 4.98019 21.4556 6.55484 22.462C8.49715 23.7061 10.7588 24.0478 12.8423 23.591C14.9294 23.1342 16.842 21.8826 18.0862 19.9403C19.0443 18.4437 19.4677 16.7539 19.4008 15.105L22.2382 12.7059C22.825 13.1924 23.5826 13.4858 24.407 13.4858C25.3503 13.4858 26.2045 13.1032 26.821 12.4868C27.0475 12.2639 27.2407 12.0077 27.3966 11.7254L33.2533 13.7012C33.231 13.8609 33.2199 14.028 33.2199 14.1951C33.2199 15.1384 33.6024 15.9926 34.2189 16.6091C34.8354 17.2255 35.6895 17.6081 36.6328 17.6081C37.5761 17.6081 38.4303 17.2255 39.0468 16.6091C39.6633 15.9926 40.0458 15.1384 40.0458 14.1951C40.0458 13.6083 39.8972 13.055 39.6373 12.5722L46.6155 6.98663C47.2171 7.51027 48.0007 7.82595 48.8586 7.82595C49.8019 7.82595 50.6561 7.44343 51.2726 6.82694C51.8891 6.21045 52.2716 5.35628 52.2716 4.41297C52.2716 3.46967 51.8891 2.6155 51.2726 1.99901C50.6561 1.38252 49.8019 1 48.8586 1C47.9153 1 47.0612 1.38252 46.4447 1.99901C45.8282 2.6155 45.4457 3.46967 45.4457 4.41297C45.4457 4.99975 45.5942 5.55311 45.8542 6.0359L38.876 11.6177C38.2743 11.0941 37.4907 10.7784 36.6328 10.7784C35.6895 10.7784 34.8354 11.1609 34.2189 11.7774C33.9923 12.004 33.7992 12.2565 33.6469 12.5387L27.7866 10.563C27.8089 10.3996 27.8237 10.2362 27.8237 10.0654C27.8237 9.12206 27.4412 8.26789 26.8247 7.6514C26.2082 7.03491 25.354 6.65239 24.4107 6.65239V6.65982ZM25.9594 8.52414C26.3531 8.92151 26.5982 9.46744 26.5982 10.0728C26.5982 10.6781 26.3531 11.2241 25.9594 11.6214C25.562 12.0188 25.0161 12.2602 24.4107 12.2602C23.8054 12.2602 23.2595 12.0151 22.8621 11.6214C22.4647 11.2241 22.2233 10.6781 22.2233 10.0728C22.2233 9.46744 22.4684 8.92151 22.8621 8.52414C23.2595 8.12676 23.8054 7.88537 24.4107 7.88537C25.0161 7.88537 25.562 8.13048 25.9594 8.52414ZM38.1852 12.6539C38.5789 13.0513 38.824 13.5972 38.824 14.2025C38.824 14.8079 38.5789 15.3538 38.1852 15.7512C37.7878 16.1486 37.2419 16.3899 36.6365 16.3899C36.0312 16.3899 35.4853 16.1448 35.0879 15.7512C34.6905 15.3538 34.4491 14.8079 34.4491 14.2025C34.4491 13.5972 34.6942 13.0513 35.0879 12.6539C35.4853 12.2565 36.0312 12.0151 36.6365 12.0151C37.2419 12.0151 37.7878 12.2602 38.1852 12.6539ZM50.4073 2.87175C50.8046 3.26913 51.046 3.81505 51.046 4.4204C51.046 5.02575 50.8009 5.57168 50.4073 5.96905C50.0099 6.36643 49.464 6.60782 48.8586 6.60782C48.2533 6.60782 47.7074 6.36271 47.31 5.96905C46.9126 5.57168 46.6712 5.02575 46.6712 4.4204C46.6712 3.81505 46.9163 3.26913 47.31 2.87175C47.7074 2.47437 48.2533 2.23298 48.8586 2.23298C49.464 2.23298 50.0099 2.47809 50.4073 2.87175ZM8.51943 30.8032H15.8542C16.1921 30.8032 16.4669 31.078 16.4669 31.4159V43.029C16.4669 43.3669 16.1921 43.6417 15.8542 43.6417H8.51943C8.18148 43.6417 7.90666 43.3669 7.90666 43.029V31.4159C7.90666 31.078 8.18148 30.8032 8.51943 30.8032ZM15.2414 32.0287H9.13221V42.4162H15.2414V32.0287ZM26.7244 42.9473C26.7244 42.9695 26.7281 42.9881 26.7281 43.0141C26.7356 43.1181 26.7467 43.2221 26.7579 43.3261C27.0661 46.0631 28.4513 48.414 30.4457 50.0035C32.44 51.593 35.0396 52.4249 37.7767 52.1166C40.51 51.8084 42.8609 50.4231 44.4504 48.4288C45.6648 46.9062 46.4335 45.0307 46.5969 43.0141C46.5969 42.9955 46.5969 42.977 46.6006 42.9584C46.6452 42.3493 46.6341 41.7291 46.5672 41.0978C46.3667 39.3152 45.7093 37.696 44.7215 36.3441C44.7066 36.3256 44.6918 36.307 44.6806 36.2847C44.1644 35.5865 43.559 34.9626 42.8831 34.4204C42.055 33.7593 41.1265 33.232 40.1238 32.8606C40.1052 32.8569 40.0829 32.8495 40.0644 32.842C38.6643 32.3333 37.1305 32.1327 35.5521 32.311C34.7351 32.4038 33.9552 32.5895 33.2199 32.8606C33.1976 32.8717 33.1753 32.8792 33.1493 32.8866C31.4447 33.5254 29.9777 34.6172 28.8747 35.9988C28.7782 36.1176 28.6853 36.2402 28.5962 36.3664C28.585 36.385 28.5702 36.4036 28.5553 36.4221C27.2407 38.2567 26.5462 40.5444 26.7244 42.9547V42.9473ZM25.5694 43.6417H20.7452C20.4073 43.6417 20.1325 43.3669 20.1325 43.029V21.1287C20.1325 20.7908 20.4073 20.516 20.7452 20.516H28.08C28.4179 20.516 28.6927 20.7908 28.6927 21.1287V34.3647C29.7252 33.3174 30.9656 32.4669 32.3583 31.8839V27.0374C32.3583 26.6994 32.6331 26.4246 32.971 26.4246H40.3058C40.6437 26.4246 40.9185 26.6994 40.9185 27.0374V31.8616C41.899 32.2664 42.8163 32.8086 43.6445 33.466C43.975 33.7259 44.2869 34.0082 44.5841 34.3053V14.3028C44.5841 13.9648 44.8552 13.69 45.1931 13.69H52.5279C52.8658 13.69 53.1406 13.9648 53.1406 14.3028V43.0327C53.1406 43.3706 52.8658 43.6455 52.5279 43.6455H47.7631C47.4994 45.7066 46.6638 47.6192 45.4085 49.1901C43.6222 51.4296 40.9817 52.9856 37.9104 53.331C35.4221 53.6096 33.0342 53.0525 31.0287 51.8789L29.8849 53.1788C30.13 53.4016 30.1523 53.7841 29.9294 54.0329L23.9651 60.7995C23.7423 61.052 23.356 61.078 23.0998 60.8552L19.8725 58.0104C19.62 57.7876 19.5977 57.4013 19.8168 57.1451L25.7811 50.3786C26.0002 50.1297 26.3753 50.1037 26.6316 50.3117L27.7754 49.0119C26.6167 47.4929 25.8257 45.662 25.5657 43.6417H25.5694ZM27.4635 35.8391C26.1637 37.7182 25.4246 39.9985 25.4729 42.4162H21.3506V21.7378H27.4598V35.8391H27.4635ZM39.693 31.4345V27.6464H33.5801V31.4531C34.1706 31.286 34.7834 31.1634 35.4147 31.0928C36.8928 30.9257 38.3375 31.0594 39.693 31.4382V31.4345ZM40.5509 34.5949C40.5769 34.6061 40.5992 34.6172 40.6214 34.6284C41.1079 34.8846 41.5722 35.1817 41.9993 35.5234C43.7002 36.8789 44.8849 38.8807 45.1597 41.2092C45.1634 41.2352 45.1671 41.2649 45.1708 41.2909C45.4234 43.6232 44.7103 45.8366 43.3548 47.5375C41.9993 49.2384 39.9975 50.4231 37.669 50.6979C37.643 50.7017 37.6133 50.7054 37.5873 50.7091C35.255 50.9616 33.0416 50.2486 31.3407 48.893C29.6398 47.5375 28.4551 45.5358 28.1802 43.2072C28.1765 43.1812 28.1728 43.1515 28.1691 43.1255C27.9166 40.7933 28.6296 38.5798 29.9851 36.8826C30.7056 35.9765 31.6118 35.2189 32.6516 34.6655C32.6776 34.6507 32.7036 34.6395 32.7259 34.6247C33.6209 34.1604 34.6088 33.8485 35.671 33.7222C35.697 33.7185 35.7267 33.7148 35.7527 33.7111C37.4684 33.5254 39.1211 33.8633 40.5546 34.5912L40.5509 34.5949ZM40.9148 36.2439C41.0225 36.3219 41.1265 36.4036 41.2342 36.4853C42.6974 37.6551 43.7187 39.382 43.9453 41.3912C44.1718 43.4041 43.5628 45.313 42.3892 46.7799C41.2194 48.2431 39.4924 49.2644 37.4833 49.491C35.4704 49.7175 33.5615 49.1084 32.0946 47.9349C30.6313 46.765 29.6101 45.0381 29.3835 43.0253C29.157 41.0161 29.766 39.1035 30.9396 37.6365C31.3481 37.124 31.8272 36.6672 32.3583 36.2773V43.0253C32.3583 43.3632 32.6331 43.638 32.971 43.638H40.3058C40.6437 43.638 40.9185 43.3632 40.9185 43.0253V36.2364L40.9148 36.2439ZM33.5801 35.5605C34.2783 35.2374 35.0359 35.022 35.8418 34.9292C37.2048 34.7769 38.5231 35.0072 39.6893 35.5382V42.4199H33.5764V35.5642L33.5801 35.5605ZM47.8522 42.4199C47.8633 41.9408 47.8373 41.4543 47.7816 40.9641C47.5625 39.0181 46.8606 37.2503 45.8059 35.7611V14.9156H51.9188V42.4199H47.8559H47.8522ZM30 51.1956L28.9713 52.3654L27.5526 51.1139L28.5813 49.944C28.9267 50.3043 29.2981 50.6422 29.688 50.9542C29.792 51.0359 29.8923 51.1176 30.0037 51.1956H30ZM28.6073 53.6801L23.4526 59.5293L21.1426 57.4905L26.3011 51.6412L28.611 53.6801H28.6073Z"/>
</mask>
<path fill-rule="evenodd" clip-rule="evenodd" d="M10.4729 10.693C10.4729 10.355 10.7477 10.0802 11.0857 10.0802C11.4236 10.0802 11.6984 10.355 11.6984 10.693V15.2647L14.2647 16.9359C14.5469 17.1179 14.6249 17.5004 14.4429 17.7789C14.261 18.0612 13.8821 18.1429 13.5999 17.9572L10.7923 16.13C10.5992 16.026 10.4692 15.8217 10.4692 15.5915V10.6893L10.4729 10.693ZM24.4107 6.65982C23.4674 6.65982 22.6133 7.04234 21.9968 7.65883C21.3803 8.27532 20.9978 9.12949 20.9978 10.0728C20.9978 10.693 21.1649 11.2723 21.4509 11.7774L19.2189 13.664C18.7621 11.5732 17.5105 9.65685 15.5682 8.41273C13.6259 7.16861 11.3642 6.82694 9.28076 7.28373C7.19361 7.74053 5.28101 8.99208 4.03689 10.9344C3.85491 11.2166 3.94033 11.5954 4.21886 11.7774C4.50111 11.9594 4.87992 11.8777 5.06189 11.5954C6.12404 9.93909 7.7581 8.86952 9.53701 8.48329C11.3196 8.09334 13.2508 8.38673 14.9034 9.44516C16.5598 10.5073 17.6256 12.1414 18.0156 13.9203C18.4055 15.7029 18.1122 17.6341 17.0537 19.2867C15.9916 20.9431 14.3575 22.0126 12.5786 22.3989C10.796 22.7888 8.86481 22.4954 7.21218 21.437C5.86407 20.5717 4.90591 19.335 4.38598 17.946C4.00718 16.9322 3.85862 15.8403 3.96261 14.7559L4.60138 15.6286C4.80193 15.8997 5.18445 15.9591 5.45555 15.7586C5.72666 15.5618 5.78608 15.1793 5.58554 14.9044L4.13344 12.9213C3.94033 12.6427 3.55781 12.5759 3.28299 12.769L1.25897 14.1988C0.98415 14.3919 0.917301 14.7744 1.11042 15.0493C1.30725 15.3241 1.68606 15.3909 1.96088 15.1978L2.75191 14.6408C2.63307 15.9109 2.80391 17.1884 3.24585 18.3694C3.85491 19.9998 4.98019 21.4556 6.55484 22.462C8.49715 23.7061 10.7588 24.0478 12.8423 23.591C14.9294 23.1342 16.842 21.8826 18.0862 19.9403C19.0443 18.4437 19.4677 16.7539 19.4008 15.105L22.2382 12.7059C22.825 13.1924 23.5826 13.4858 24.407 13.4858C25.3503 13.4858 26.2045 13.1032 26.821 12.4868C27.0475 12.2639 27.2407 12.0077 27.3966 11.7254L33.2533 13.7012C33.231 13.8609 33.2199 14.028 33.2199 14.1951C33.2199 15.1384 33.6024 15.9926 34.2189 16.6091C34.8354 17.2255 35.6895 17.6081 36.6328 17.6081C37.5761 17.6081 38.4303 17.2255 39.0468 16.6091C39.6633 15.9926 40.0458 15.1384 40.0458 14.1951C40.0458 13.6083 39.8972 13.055 39.6373 12.5722L46.6155 6.98663C47.2171 7.51027 48.0007 7.82595 48.8586 7.82595C49.8019 7.82595 50.6561 7.44343 51.2726 6.82694C51.8891 6.21045 52.2716 5.35628 52.2716 4.41297C52.2716 3.46967 51.8891 2.6155 51.2726 1.99901C50.6561 1.38252 49.8019 1 48.8586 1C47.9153 1 47.0612 1.38252 46.4447 1.99901C45.8282 2.6155 45.4457 3.46967 45.4457 4.41297C45.4457 4.99975 45.5942 5.55311 45.8542 6.0359L38.876 11.6177C38.2743 11.0941 37.4907 10.7784 36.6328 10.7784C35.6895 10.7784 34.8354 11.1609 34.2189 11.7774C33.9923 12.004 33.7992 12.2565 33.6469 12.5387L27.7866 10.563C27.8089 10.3996 27.8237 10.2362 27.8237 10.0654C27.8237 9.12206 27.4412 8.26789 26.8247 7.6514C26.2082 7.03491 25.354 6.65239 24.4107 6.65239V6.65982ZM25.9594 8.52414C26.3531 8.92151 26.5982 9.46744 26.5982 10.0728C26.5982 10.6781 26.3531 11.2241 25.9594 11.6214C25.562 12.0188 25.0161 12.2602 24.4107 12.2602C23.8054 12.2602 23.2595 12.0151 22.8621 11.6214C22.4647 11.2241 22.2233 10.6781 22.2233 10.0728C22.2233 9.46744 22.4684 8.92151 22.8621 8.52414C23.2595 8.12676 23.8054 7.88537 24.4107 7.88537C25.0161 7.88537 25.562 8.13048 25.9594 8.52414ZM38.1852 12.6539C38.5789 13.0513 38.824 13.5972 38.824 14.2025C38.824 14.8079 38.5789 15.3538 38.1852 15.7512C37.7878 16.1486 37.2419 16.3899 36.6365 16.3899C36.0312 16.3899 35.4853 16.1448 35.0879 15.7512C34.6905 15.3538 34.4491 14.8079 34.4491 14.2025C34.4491 13.5972 34.6942 13.0513 35.0879 12.6539C35.4853 12.2565 36.0312 12.0151 36.6365 12.0151C37.2419 12.0151 37.7878 12.2602 38.1852 12.6539ZM50.4073 2.87175C50.8046 3.26913 51.046 3.81505 51.046 4.4204C51.046 5.02575 50.8009 5.57168 50.4073 5.96905C50.0099 6.36643 49.464 6.60782 48.8586 6.60782C48.2533 6.60782 47.7074 6.36271 47.31 5.96905C46.9126 5.57168 46.6712 5.02575 46.6712 4.4204C46.6712 3.81505 46.9163 3.26913 47.31 2.87175C47.7074 2.47437 48.2533 2.23298 48.8586 2.23298C49.464 2.23298 50.0099 2.47809 50.4073 2.87175ZM8.51943 30.8032H15.8542C16.1921 30.8032 16.4669 31.078 16.4669 31.4159V43.029C16.4669 43.3669 16.1921 43.6417 15.8542 43.6417H8.51943C8.18148 43.6417 7.90666 43.3669 7.90666 43.029V31.4159C7.90666 31.078 8.18148 30.8032 8.51943 30.8032ZM15.2414 32.0287H9.13221V42.4162H15.2414V32.0287ZM26.7244 42.9473C26.7244 42.9695 26.7281 42.9881 26.7281 43.0141C26.7356 43.1181 26.7467 43.2221 26.7579 43.3261C27.0661 46.0631 28.4513 48.414 30.4457 50.0035C32.44 51.593 35.0396 52.4249 37.7767 52.1166C40.51 51.8084 42.8609 50.4231 44.4504 48.4288C45.6648 46.9062 46.4335 45.0307 46.5969 43.0141C46.5969 42.9955 46.5969 42.977 46.6006 42.9584C46.6452 42.3493 46.6341 41.7291 46.5672 41.0978C46.3667 39.3152 45.7093 37.696 44.7215 36.3441C44.7066 36.3256 44.6918 36.307 44.6806 36.2847C44.1644 35.5865 43.559 34.9626 42.8831 34.4204C42.055 33.7593 41.1265 33.232 40.1238 32.8606C40.1052 32.8569 40.0829 32.8495 40.0644 32.842C38.6643 32.3333 37.1305 32.1327 35.5521 32.311C34.7351 32.4038 33.9552 32.5895 33.2199 32.8606C33.1976 32.8717 33.1753 32.8792 33.1493 32.8866C31.4447 33.5254 29.9777 34.6172 28.8747 35.9988C28.7782 36.1176 28.6853 36.2402 28.5962 36.3664C28.585 36.385 28.5702 36.4036 28.5553 36.4221C27.2407 38.2567 26.5462 40.5444 26.7244 42.9547V42.9473ZM25.5694 43.6417H20.7452C20.4073 43.6417 20.1325 43.3669 20.1325 43.029V21.1287C20.1325 20.7908 20.4073 20.516 20.7452 20.516H28.08C28.4179 20.516 28.6927 20.7908 28.6927 21.1287V34.3647C29.7252 33.3174 30.9656 32.4669 32.3583 31.8839V27.0374C32.3583 26.6994 32.6331 26.4246 32.971 26.4246H40.3058C40.6437 26.4246 40.9185 26.6994 40.9185 27.0374V31.8616C41.899 32.2664 42.8163 32.8086 43.6445 33.466C43.975 33.7259 44.2869 34.0082 44.5841 34.3053V14.3028C44.5841 13.9648 44.8552 13.69 45.1931 13.69H52.5279C52.8658 13.69 53.1406 13.9648 53.1406 14.3028V43.0327C53.1406 43.3706 52.8658 43.6455 52.5279 43.6455H47.7631C47.4994 45.7066 46.6638 47.6192 45.4085 49.1901C43.6222 51.4296 40.9817 52.9856 37.9104 53.331C35.4221 53.6096 33.0342 53.0525 31.0287 51.8789L29.8849 53.1788C30.13 53.4016 30.1523 53.7841 29.9294 54.0329L23.9651 60.7995C23.7423 61.052 23.356 61.078 23.0998 60.8552L19.8725 58.0104C19.62 57.7876 19.5977 57.4013 19.8168 57.1451L25.7811 50.3786C26.0002 50.1297 26.3753 50.1037 26.6316 50.3117L27.7754 49.0119C26.6167 47.4929 25.8257 45.662 25.5657 43.6417H25.5694ZM27.4635 35.8391C26.1637 37.7182 25.4246 39.9985 25.4729 42.4162H21.3506V21.7378H27.4598V35.8391H27.4635ZM39.693 31.4345V27.6464H33.5801V31.4531C34.1706 31.286 34.7834 31.1634 35.4147 31.0928C36.8928 30.9257 38.3375 31.0594 39.693 31.4382V31.4345ZM40.5509 34.5949C40.5769 34.6061 40.5992 34.6172 40.6214 34.6284C41.1079 34.8846 41.5722 35.1817 41.9993 35.5234C43.7002 36.8789 44.8849 38.8807 45.1597 41.2092C45.1634 41.2352 45.1671 41.2649 45.1708 41.2909C45.4234 43.6232 44.7103 45.8366 43.3548 47.5375C41.9993 49.2384 39.9975 50.4231 37.669 50.6979C37.643 50.7017 37.6133 50.7054 37.5873 50.7091C35.255 50.9616 33.0416 50.2486 31.3407 48.893C29.6398 47.5375 28.4551 45.5358 28.1802 43.2072C28.1765 43.1812 28.1728 43.1515 28.1691 43.1255C27.9166 40.7933 28.6296 38.5798 29.9851 36.8826C30.7056 35.9765 31.6118 35.2189 32.6516 34.6655C32.6776 34.6507 32.7036 34.6395 32.7259 34.6247C33.6209 34.1604 34.6088 33.8485 35.671 33.7222C35.697 33.7185 35.7267 33.7148 35.7527 33.7111C37.4684 33.5254 39.1211 33.8633 40.5546 34.5912L40.5509 34.5949ZM40.9148 36.2439C41.0225 36.3219 41.1265 36.4036 41.2342 36.4853C42.6974 37.6551 43.7187 39.382 43.9453 41.3912C44.1718 43.4041 43.5628 45.313 42.3892 46.7799C41.2194 48.2431 39.4924 49.2644 37.4833 49.491C35.4704 49.7175 33.5615 49.1084 32.0946 47.9349C30.6313 46.765 29.6101 45.0381 29.3835 43.0253C29.157 41.0161 29.766 39.1035 30.9396 37.6365C31.3481 37.124 31.8272 36.6672 32.3583 36.2773V43.0253C32.3583 43.3632 32.6331 43.638 32.971 43.638H40.3058C40.6437 43.638 40.9185 43.3632 40.9185 43.0253V36.2364L40.9148 36.2439ZM33.5801 35.5605C34.2783 35.2374 35.0359 35.022 35.8418 34.9292C37.2048 34.7769 38.5231 35.0072 39.6893 35.5382V42.4199H33.5764V35.5642L33.5801 35.5605ZM47.8522 42.4199C47.8633 41.9408 47.8373 41.4543 47.7816 40.9641C47.5625 39.0181 46.8606 37.2503 45.8059 35.7611V14.9156H51.9188V42.4199H47.8559H47.8522ZM30 51.1956L28.9713 52.3654L27.5526 51.1139L28.5813 49.944C28.9267 50.3043 29.2981 50.6422 29.688 50.9542C29.792 51.0359 29.8923 51.1176 30.0037 51.1956H30ZM28.6073 53.6801L23.4526 59.5293L21.1426 57.4905L26.3011 51.6412L28.611 53.6801H28.6073Z" fill="#152461"/>
<path fill-rule="evenodd" clip-rule="evenodd" d="M10.4729 10.693C10.4729 10.355 10.7477 10.0802 11.0857 10.0802C11.4236 10.0802 11.6984 10.355 11.6984 10.693V15.2647L14.2647 16.9359C14.5469 17.1179 14.6249 17.5004 14.4429 17.7789C14.261 18.0612 13.8821 18.1429 13.5999 17.9572L10.7923 16.13C10.5992 16.026 10.4692 15.8217 10.4692 15.5915V10.6893L10.4729 10.693ZM24.4107 6.65982C23.4674 6.65982 22.6133 7.04234 21.9968 7.65883C21.3803 8.27532 20.9978 9.12949 20.9978 10.0728C20.9978 10.693 21.1649 11.2723 21.4509 11.7774L19.2189 13.664C18.7621 11.5732 17.5105 9.65685 15.5682 8.41273C13.6259 7.16861 11.3642 6.82694 9.28076 7.28373C7.19361 7.74053 5.28101 8.99208 4.03689 10.9344C3.85491 11.2166 3.94033 11.5954 4.21886 11.7774C4.50111 11.9594 4.87992 11.8777 5.06189 11.5954C6.12404 9.93909 7.7581 8.86952 9.53701 8.48329C11.3196 8.09334 13.2508 8.38673 14.9034 9.44516C16.5598 10.5073 17.6256 12.1414 18.0156 13.9203C18.4055 15.7029 18.1122 17.6341 17.0537 19.2867C15.9916 20.9431 14.3575 22.0126 12.5786 22.3989C10.796 22.7888 8.86481 22.4954 7.21218 21.437C5.86407 20.5717 4.90591 19.335 4.38598 17.946C4.00718 16.9322 3.85862 15.8403 3.96261 14.7559L4.60138 15.6286C4.80193 15.8997 5.18445 15.9591 5.45555 15.7586C5.72666 15.5618 5.78608 15.1793 5.58554 14.9044L4.13344 12.9213C3.94033 12.6427 3.55781 12.5759 3.28299 12.769L1.25897 14.1988C0.98415 14.3919 0.917301 14.7744 1.11042 15.0493C1.30725 15.3241 1.68606 15.3909 1.96088 15.1978L2.75191 14.6408C2.63307 15.9109 2.80391 17.1884 3.24585 18.3694C3.85491 19.9998 4.98019 21.4556 6.55484 22.462C8.49715 23.7061 10.7588 24.0478 12.8423 23.591C14.9294 23.1342 16.842 21.8826 18.0862 19.9403C19.0443 18.4437 19.4677 16.7539 19.4008 15.105L22.2382 12.7059C22.825 13.1924 23.5826 13.4858 24.407 13.4858C25.3503 13.4858 26.2045 13.1032 26.821 12.4868C27.0475 12.2639 27.2407 12.0077 27.3966 11.7254L33.2533 13.7012C33.231 13.8609 33.2199 14.028 33.2199 14.1951C33.2199 15.1384 33.6024 15.9926 34.2189 16.6091C34.8354 17.2255 35.6895 17.6081 36.6328 17.6081C37.5761 17.6081 38.4303 17.2255 39.0468 16.6091C39.6633 15.9926 40.0458 15.1384 40.0458 14.1951C40.0458 13.6083 39.8972 13.055 39.6373 12.5722L46.6155 6.98663C47.2171 7.51027 48.0007 7.82595 48.8586 7.82595C49.8019 7.82595 50.6561 7.44343 51.2726 6.82694C51.8891 6.21045 52.2716 5.35628 52.2716 4.41297C52.2716 3.46967 51.8891 2.6155 51.2726 1.99901C50.6561 1.38252 49.8019 1 48.8586 1C47.9153 1 47.0612 1.38252 46.4447 1.99901C45.8282 2.6155 45.4457 3.46967 45.4457 4.41297C45.4457 4.99975 45.5942 5.55311 45.8542 6.0359L38.876 11.6177C38.2743 11.0941 37.4907 10.7784 36.6328 10.7784C35.6895 10.7784 34.8354 11.1609 34.2189 11.7774C33.9923 12.004 33.7992 12.2565 33.6469 12.5387L27.7866 10.563C27.8089 10.3996 27.8237 10.2362 27.8237 10.0654C27.8237 9.12206 27.4412 8.26789 26.8247 7.6514C26.2082 7.03491 25.354 6.65239 24.4107 6.65239V6.65982ZM25.9594 8.52414C26.3531 8.92151 26.5982 9.46744 26.5982 10.0728C26.5982 10.6781 26.3531 11.2241 25.9594 11.6214C25.562 12.0188 25.0161 12.2602 24.4107 12.2602C23.8054 12.2602 23.2595 12.0151 22.8621 11.6214C22.4647 11.2241 22.2233 10.6781 22.2233 10.0728C22.2233 9.46744 22.4684 8.92151 22.8621 8.52414C23.2595 8.12676 23.8054 7.88537 24.4107 7.88537C25.0161 7.88537 25.562 8.13048 25.9594 8.52414ZM38.1852 12.6539C38.5789 13.0513 38.824 13.5972 38.824 14.2025C38.824 14.8079 38.5789 15.3538 38.1852 15.7512C37.7878 16.1486 37.2419 16.3899 36.6365 16.3899C36.0312 16.3899 35.4853 16.1448 35.0879 15.7512C34.6905 15.3538 34.4491 14.8079 34.4491 14.2025C34.4491 13.5972 34.6942 13.0513 35.0879 12.6539C35.4853 12.2565 36.0312 12.0151 36.6365 12.0151C37.2419 12.0151 37.7878 12.2602 38.1852 12.6539ZM50.4073 2.87175C50.8046 3.26913 51.046 3.81505 51.046 4.4204C51.046 5.02575 50.8009 5.57168 50.4073 5.96905C50.0099 6.36643 49.464 6.60782 48.8586 6.60782C48.2533 6.60782 47.7074 6.36271 47.31 5.96905C46.9126 5.57168 46.6712 5.02575 46.6712 4.4204C46.6712 3.81505 46.9163 3.26913 47.31 2.87175C47.7074 2.47437 48.2533 2.23298 48.8586 2.23298C49.464 2.23298 50.0099 2.47809 50.4073 2.87175ZM8.51943 30.8032H15.8542C16.1921 30.8032 16.4669 31.078 16.4669 31.4159V43.029C16.4669 43.3669 16.1921 43.6417 15.8542 43.6417H8.51943C8.18148 43.6417 7.90666 43.3669 7.90666 43.029V31.4159C7.90666 31.078 8.18148 30.8032 8.51943 30.8032ZM15.2414 32.0287H9.13221V42.4162H15.2414V32.0287ZM26.7244 42.9473C26.7244 42.9695 26.7281 42.9881 26.7281 43.0141C26.7356 43.1181 26.7467 43.2221 26.7579 43.3261C27.0661 46.0631 28.4513 48.414 30.4457 50.0035C32.44 51.593 35.0396 52.4249 37.7767 52.1166C40.51 51.8084 42.8609 50.4231 44.4504 48.4288C45.6648 46.9062 46.4335 45.0307 46.5969 43.0141C46.5969 42.9955 46.5969 42.977 46.6006 42.9584C46.6452 42.3493 46.6341 41.7291 46.5672 41.0978C46.3667 39.3152 45.7093 37.696 44.7215 36.3441C44.7066 36.3256 44.6918 36.307 44.6806 36.2847C44.1644 35.5865 43.559 34.9626 42.8831 34.4204C42.055 33.7593 41.1265 33.232 40.1238 32.8606C40.1052 32.8569 40.0829 32.8495 40.0644 32.842C38.6643 32.3333 37.1305 32.1327 35.5521 32.311C34.7351 32.4038 33.9552 32.5895 33.2199 32.8606C33.1976 32.8717 33.1753 32.8792 33.1493 32.8866C31.4447 33.5254 29.9777 34.6172 28.8747 35.9988C28.7782 36.1176 28.6853 36.2402 28.5962 36.3664C28.585 36.385 28.5702 36.4036 28.5553 36.4221C27.2407 38.2567 26.5462 40.5444 26.7244 42.9547V42.9473ZM25.5694 43.6417H20.7452C20.4073 43.6417 20.1325 43.3669 20.1325 43.029V21.1287C20.1325 20.7908 20.4073 20.516 20.7452 20.516H28.08C28.4179 20.516 28.6927 20.7908 28.6927 21.1287V34.3647C29.7252 33.3174 30.9656 32.4669 32.3583 31.8839V27.0374C32.3583 26.6994 32.6331 26.4246 32.971 26.4246H40.3058C40.6437 26.4246 40.9185 26.6994 40.9185 27.0374V31.8616C41.899 32.2664 42.8163 32.8086 43.6445 33.466C43.975 33.7259 44.2869 34.0082 44.5841 34.3053V14.3028C44.5841 13.9648 44.8552 13.69 45.1931 13.69H52.5279C52.8658 13.69 53.1406 13.9648 53.1406 14.3028V43.0327C53.1406 43.3706 52.8658 43.6455 52.5279 43.6455H47.7631C47.4994 45.7066 46.6638 47.6192 45.4085 49.1901C43.6222 51.4296 40.9817 52.9856 37.9104 53.331C35.4221 53.6096 33.0342 53.0525 31.0287 51.8789L29.8849 53.1788C30.13 53.4016 30.1523 53.7841 29.9294 54.0329L23.9651 60.7995C23.7423 61.052 23.356 61.078 23.0998 60.8552L19.8725 58.0104C19.62 57.7876 19.5977 57.4013 19.8168 57.1451L25.7811 50.3786C26.0002 50.1297 26.3753 50.1037 26.6316 50.3117L27.7754 49.0119C26.6167 47.4929 25.8257 45.662 25.5657 43.6417H25.5694ZM27.4635 35.8391C26.1637 37.7182 25.4246 39.9985 25.4729 42.4162H21.3506V21.7378H27.4598V35.8391H27.4635ZM39.693 31.4345V27.6464H33.5801V31.4531C34.1706 31.286 34.7834 31.1634 35.4147 31.0928C36.8928 30.9257 38.3375 31.0594 39.693 31.4382V31.4345ZM40.5509 34.5949C40.5769 34.6061 40.5992 34.6172 40.6214 34.6284C41.1079 34.8846 41.5722 35.1817 41.9993 35.5234C43.7002 36.8789 44.8849 38.8807 45.1597 41.2092C45.1634 41.2352 45.1671 41.2649 45.1708 41.2909C45.4234 43.6232 44.7103 45.8366 43.3548 47.5375C41.9993 49.2384 39.9975 50.4231 37.669 50.6979C37.643 50.7017 37.6133 50.7054 37.5873 50.7091C35.255 50.9616 33.0416 50.2486 31.3407 48.893C29.6398 47.5375 28.4551 45.5358 28.1802 43.2072C28.1765 43.1812 28.1728 43.1515 28.1691 43.1255C27.9166 40.7933 28.6296 38.5798 29.9851 36.8826C30.7056 35.9765 31.6118 35.2189 32.6516 34.6655C32.6776 34.6507 32.7036 34.6395 32.7259 34.6247C33.6209 34.1604 34.6088 33.8485 35.671 33.7222C35.697 33.7185 35.7267 33.7148 35.7527 33.7111C37.4684 33.5254 39.1211 33.8633 40.5546 34.5912L40.5509 34.5949ZM40.9148 36.2439C41.0225 36.3219 41.1265 36.4036 41.2342 36.4853C42.6974 37.6551 43.7187 39.382 43.9453 41.3912C44.1718 43.4041 43.5628 45.313 42.3892 46.7799C41.2194 48.2431 39.4924 49.2644 37.4833 49.491C35.4704 49.7175 33.5615 49.1084 32.0946 47.9349C30.6313 46.765 29.6101 45.0381 29.3835 43.0253C29.157 41.0161 29.766 39.1035 30.9396 37.6365C31.3481 37.124 31.8272 36.6672 32.3583 36.2773V43.0253C32.3583 43.3632 32.6331 43.638 32.971 43.638H40.3058C40.6437 43.638 40.9185 43.3632 40.9185 43.0253V36.2364L40.9148 36.2439ZM33.5801 35.5605C34.2783 35.2374 35.0359 35.022 35.8418 34.9292C37.2048 34.7769 38.5231 35.0072 39.6893 35.5382V42.4199H33.5764V35.5642L33.5801 35.5605ZM47.8522 42.4199C47.8633 41.9408 47.8373 41.4543 47.7816 40.9641C47.5625 39.0181 46.8606 37.2503 45.8059 35.7611V14.9156H51.9188V42.4199H47.8559H47.8522ZM30 51.1956L28.9713 52.3654L27.5526 51.1139L28.5813 49.944C28.9267 50.3043 29.2981 50.6422 29.688 50.9542C29.792 51.0359 29.8923 51.1176 30.0037 51.1956H30ZM28.6073 53.6801L23.4526 59.5293L21.1426 57.4905L26.3011 51.6412L28.611 53.6801H28.6073Z" stroke="#152461" mask="url(#path-1-outside-1_1143_17555)"/>
</svg>
