<svg width="64" height="62" viewBox="0 0 64 62" fill="none" xmlns="http://www.w3.org/2000/svg">
<path d="M35.1738 46.8125C35.1738 54.7055 41.5933 61.1249 49.4862 61.1249C57.3792 61.1249 63.7986 54.7055 63.7986 46.8125C63.7986 38.9196 57.3792 32.5001 49.4862 32.5001C41.5933 32.5001 35.1738 38.9196 35.1738 46.8125ZM37.62 46.8125C37.62 40.271 42.9447 34.9463 49.4862 34.9463C56.0277 34.9463 61.3525 40.271 61.3525 46.8125C61.3525 53.354 56.0277 58.6787 49.4862 58.6787C42.9447 58.6787 37.62 53.354 37.62 46.8125Z" fill="#152461" stroke="#152461" stroke-width="0.25"/>
<path d="M54.4934 47.4358C54.17 46.9697 53.7509 46.6036 53.2323 46.3442C52.7191 46.0821 52.1681 45.8707 51.5687 45.6987C51.2564 45.609 50.9435 45.5214 50.6335 45.4346C50.3591 45.3578 50.0869 45.2816 49.8191 45.2051C49.5078 45.1048 49.2072 45.0088 48.9204 44.9172C48.7526 44.8636 48.5895 44.8115 48.4318 44.7609L48.4314 44.7608C48.0059 44.6261 47.6748 44.467 47.4268 44.2758L47.4268 44.2758L47.4255 44.2748C47.1976 44.104 47.0801 43.858 47.0801 43.5238C47.0801 43.3185 47.1248 43.1499 47.215 43.0024C47.3083 42.8554 47.4482 42.7141 47.6443 42.5851C47.8371 42.4582 48.0855 42.3587 48.3935 42.2896C48.7015 42.2206 49.06 42.1829 49.4698 42.1829C50.0807 42.1829 50.5622 42.2642 50.9203 42.4147C51.2831 42.5672 51.536 42.7627 51.6948 42.9907C51.8559 43.2277 51.9363 43.4884 51.9363 43.7819V43.996V44.121H52.0613H54.5046H54.6296V43.996V43.9955C54.6296 43.9649 54.6296 43.9096 54.6398 43.8176L54.6399 43.8177L54.6403 43.8112C54.6458 43.7174 54.6515 43.61 54.6515 43.4909C54.6515 42.9935 54.537 42.5226 54.3014 42.0915C54.0665 41.6562 53.7297 41.2805 53.2942 40.9581C52.8564 40.6341 52.3255 40.3922 51.7051 40.2189L51.7049 40.2189C51.2718 40.0989 50.8018 40.023 50.2866 39.9862V37.5447V37.4197H50.1616H48.9647H48.8397V37.5447V40.003C48.3666 40.0378 47.9104 40.0978 47.4856 40.2014L47.4856 40.2014L47.4846 40.2017C46.8423 40.3636 46.2849 40.5993 45.815 40.9162C45.3441 41.2284 44.9734 41.6214 44.7107 42.084C44.4462 42.5497 44.31 43.0931 44.31 43.705C44.31 44.3419 44.4397 44.8931 44.7127 45.3404C44.9803 45.7789 45.3285 46.1387 45.7567 46.4128L45.7574 46.4132C46.1837 46.6825 46.6595 46.9061 47.1839 47.0847L47.1843 47.0848C47.7081 47.2613 48.2321 47.4212 48.7618 47.5647L48.762 47.5647C49.3548 47.7239 49.9197 47.8775 50.4625 48.031C50.9957 48.1818 51.4194 48.3791 51.7384 48.6196C52.0385 48.851 52.1944 49.18 52.1944 49.6237C52.1944 49.9578 52.0764 50.232 51.8385 50.455C51.5919 50.6862 51.2759 50.8583 50.8867 50.9635C50.4914 51.0704 50.0577 51.1294 49.5906 51.1294C49.0562 51.1294 48.5675 51.07 48.1237 50.9524C47.6875 50.8368 47.3467 50.639 47.0904 50.3674C46.8427 50.0997 46.7178 49.7379 46.7178 49.2669V49.0033V48.8783H46.5928H44.1221H43.9971V49.0033C43.9971 49.0527 43.9969 49.0983 43.9878 49.153C43.9751 49.2291 43.9751 49.3094 43.9751 49.3824L43.9751 49.3877C43.9751 49.9814 44.094 50.522 44.3337 51.0128C44.5735 51.5038 44.9269 51.9247 45.3908 52.2812C45.8513 52.6393 46.4272 52.9091 47.1145 53.0936C47.6318 53.236 48.2107 53.3181 48.8452 53.355V56.0531V56.1781H48.9702H50.1671H50.2921V56.0531V53.3312C50.7538 53.2981 51.2087 53.2484 51.6324 53.1554C52.2982 53.0099 52.8839 52.7741 53.3873 52.4405C53.8931 52.1108 54.2864 51.6834 54.5655 51.1594C54.8459 50.6329 54.9864 50.0135 54.9864 49.2888C54.9864 48.5644 54.8295 47.9166 54.4978 47.4337L54.4934 47.4358ZM50.4965 47.9107C51.0401 48.0644 51.4793 48.2676 51.8142 48.5202L47.2242 46.9663C47.7458 47.142 48.2674 47.3013 48.7945 47.444C49.3874 47.6032 49.953 47.757 50.4965 47.9107Z" fill="#152461" stroke="#152461" stroke-width="0.25"/>
<path d="M33.8002 55.8267H34.1021L34.0661 55.7907C34.6095 55.6664 35.0178 55.1779 35.0178 54.5981C35.0178 53.9251 34.4676 53.375 33.7947 53.375H3.66064C3.8799 52.2631 4.21162 51.0621 4.63134 50.0555C4.85058 49.5296 5.09252 49.06 5.35294 48.6846C5.61431 48.3079 5.88846 48.0346 6.16893 47.89L6.16937 47.8898C6.72631 47.5998 7.60499 47.1702 8.64462 46.662C8.84174 46.5656 9.04465 46.4664 9.25224 46.3648C12.1756 44.9375 14.8706 43.6092 16.964 42.4942C18.0107 41.9366 18.9087 41.4315 19.6104 40.9933C20.3086 40.5572 20.8237 40.1807 21.0948 39.8793C21.5476 39.3774 21.5042 38.6067 21.0032 38.1546C20.5013 37.7017 19.7305 37.745 19.2784 38.246L19.2782 38.2462C19.1861 38.3487 18.9985 38.4953 18.7224 38.6798C18.4493 38.8622 18.0989 39.0757 17.6893 39.3122C16.8703 39.7851 15.8198 40.347 14.6894 40.9317C12.4288 42.1011 9.85365 43.3592 8.18167 44.1746L8.1815 44.1747C8.06932 44.2296 7.9584 44.2839 7.84893 44.3375C6.6787 44.9102 5.67352 45.4022 5.04955 45.7242L5.04947 45.7242C4.25727 46.1339 3.61752 46.8473 3.10237 47.6861C2.58673 48.5258 2.19083 49.4994 1.88981 50.4415C1.2879 52.3252 1.06024 54.0992 1.01859 54.4629C1.01858 54.4629 1.01857 54.463 1.01856 54.4631L0.875841 55.6872L0.859579 55.8267H1H33.8002Z" fill="#152461" stroke="#152461" stroke-width="0.25"/>
<path d="M27.0272 42.8197H26.9754C24.7498 42.8197 22.8897 41.8273 21.5757 40.8215C20.2651 39.8184 19.4877 38.7944 19.4191 38.701C19.4189 38.7007 19.4187 38.7005 19.4185 38.7002L19.2 38.4106L19.1747 38.3772V38.3353V33.4915C18.4073 32.9394 17.5568 31.9323 17.3366 30.353C17.1616 29.112 16.8418 27.8952 16.6384 27.2059C15.2743 26.6399 13.5195 25.134 13.5195 22.1493C13.5195 20.7816 14.1181 19.811 14.7503 19.2105C14.3893 17.886 13.7666 15.2374 13.7666 12.8704C13.7666 9.90199 14.1545 6.14533 17.2629 3.72891C20.3044 1.36454 24.2091 0.875 26.9425 0.875C29.6708 0.875 31.9375 2.07115 32.7156 2.5423C33.1692 2.59151 33.9985 2.71331 34.872 3.00559C35.7616 3.3033 36.7107 3.78237 37.3498 4.55484C37.3498 4.5549 37.3499 4.55496 37.3499 4.55503L37.5144 4.75233L37.5146 4.75259L37.522 4.76151C38.1186 5.48125 38.7988 6.30195 39.2948 7.49105C39.7932 8.68623 40.1026 10.2458 39.9699 12.4442C39.9699 12.4442 39.9699 12.4442 39.9699 12.4442L39.8451 12.4367C39.6749 15.2753 39.1918 17.3287 38.8788 18.4103L27.0272 42.8197ZM27.0272 42.8197L27.0329 42.8141C29.2443 42.7985 31.0726 41.7924 32.3609 40.7729C33.6598 39.7451 34.4198 38.6958 34.484 38.6053L34.6871 38.3199L34.7102 38.2874V38.2474V33.2431C35.3802 32.6697 36.4492 31.5173 37.011 29.6304C37.5332 27.8913 37.9024 26.6377 38.072 26.0561C38.6418 25.5356 39.6602 24.3592 40.1209 22.2696L40.1209 22.2696C40.5388 20.3727 39.8288 19.0918 39.0208 18.3685L27.0272 42.8197ZM23.5413 39.2149C22.623 38.6007 21.9453 37.8952 21.6099 37.5126V32.7789H21.61L21.6099 32.7752L21.5879 32.0285L21.5855 31.9475L21.5105 31.9166L20.8321 31.6376C20.8319 31.6375 20.8316 31.6374 20.8313 31.6373C20.7408 31.597 19.9243 31.231 19.7529 30.0108L19.7529 30.0107C19.4548 27.8964 18.804 25.9331 18.7759 25.8488L18.7759 25.8488L18.7753 25.8469L18.5666 25.2539L18.5437 25.1888L18.4764 25.1735L17.8736 25.0365C17.8734 25.0365 17.8733 25.0364 17.8731 25.0364C17.7774 25.0137 17.2993 24.8897 16.8461 24.475C16.3963 24.0634 15.9602 23.3559 15.9602 22.1439C15.9602 21.2039 16.5915 20.8466 16.665 20.8064L17.5502 20.4075L17.6511 20.362L17.6182 20.2564L17.3272 19.323L17.3272 19.323L17.3264 19.3206C17.3266 19.3211 17.3256 19.3181 17.323 19.3098L17.313 19.277C17.3043 19.2486 17.2919 19.2074 17.2762 19.1544C17.2449 19.0484 17.2007 18.8954 17.1479 18.7036C17.0423 18.3199 16.9025 17.7813 16.763 17.154C16.4837 15.8978 16.2073 14.2926 16.2073 12.8649C16.2073 10.2511 16.5182 7.39454 18.756 5.65581L18.7561 5.65571C21.2319 3.72713 24.5572 3.3157 26.926 3.3157C28.1996 3.3157 29.3699 3.67081 30.2242 4.02803C30.6509 4.20642 30.9973 4.38475 31.2368 4.51825C31.3564 4.58498 31.4493 4.64046 31.5119 4.67907C31.5432 4.69837 31.567 4.71345 31.5828 4.7236L31.6004 4.73505L31.6046 4.73784L31.6054 4.73836L31.6056 4.73847L31.6058 4.73859L31.6058 4.73861L31.858 4.90856L31.8866 4.92784L31.921 4.92972L32.2221 4.94614C32.2222 4.94615 32.2224 4.94616 32.2225 4.94617C32.6112 4.97034 33.2658 5.07025 33.9026 5.26225C34.546 5.4562 35.1426 5.7359 35.444 6.10309L35.6139 6.31145L35.6146 6.31226C36.1644 6.97479 36.6861 7.6036 37.0485 8.49755C37.4105 9.39026 37.6167 10.5567 37.5132 12.292C37.3983 14.2223 37.125 15.7596 36.8807 16.8132C36.7585 17.34 36.6436 17.7458 36.5595 18.0195C36.5175 18.1563 36.4831 18.26 36.4593 18.3292C36.4475 18.3639 36.4382 18.3899 36.432 18.4071L36.4251 18.4263L36.4234 18.4309L36.423 18.4319L36.4229 18.4321L36.4223 18.4336L36.06 19.4329L36.0197 19.544L36.1284 19.5904L37.1057 20.0077L37.1065 20.0081C37.2097 20.0512 37.4305 20.1704 37.5915 20.4295C37.7505 20.6855 37.8615 21.0943 37.719 21.738L37.719 21.7383C37.3264 23.5307 36.401 24.2593 36.3144 24.3255L35.9826 24.543L35.9438 24.5685L35.931 24.6132L35.8214 24.9966L35.8214 24.9967L35.8214 24.9969L35.8212 24.9975L35.8211 24.9977L35.8202 25.0009L35.8164 25.0138L35.8014 25.0648L35.7423 25.2655C35.6902 25.4422 35.6132 25.7033 35.5134 26.041C35.3137 26.7162 35.0227 27.6975 34.6576 28.9218C34.1049 30.7676 32.9219 31.5368 32.8522 31.5789C32.8521 31.579 32.852 31.579 32.8518 31.5791L32.3202 31.8915L32.2586 31.9277V31.9993V37.4665C31.9333 37.8547 31.2773 38.5664 30.3823 39.188C29.4598 39.8288 28.2917 40.368 26.9754 40.368C25.6581 40.368 24.4785 39.8417 23.5413 39.2149Z" fill="#152461" stroke="#152461" stroke-width="0.25"/>
</svg>
