<svg width="54" height="60" viewBox="0 0 54 60" fill="none" xmlns="http://www.w3.org/2000/svg">
<path d="M27.4158 25.3585H14.383C13.6258 25.3585 13.0145 25.9698 13.0145 26.727C13.0145 27.4843 13.6258 28.0955 14.383 28.0955H23.1871C12.3941 38.8155 7.68646 41.6711 1.36851 41.6711C0.611267 41.6711 0 42.2824 0 43.0397C0 43.7969 0.611267 44.4082 1.36851 44.4082C8.47107 44.4082 13.5482 41.4704 24.6788 30.4722V38.04C24.6788 38.7973 25.29 39.4085 26.0473 39.4085C26.8045 39.4085 27.4158 38.7973 27.4158 38.04V25.3631V25.3585Z" fill="#152461"/>
<path d="M26.0472 43.4502C25.29 43.4502 24.6787 44.0615 24.6787 44.8187V58.6315C24.6787 59.3888 25.29 60 26.0472 60C26.8045 60 27.4157 59.3888 27.4157 58.6315V44.8187C27.4157 44.0615 26.8045 43.4502 26.0472 43.4502Z" fill="#152461"/>
<path d="M13.7079 49.1112C12.9506 49.1112 12.3394 49.7225 12.3394 50.4797V58.6315C12.3394 59.3887 12.9506 60 13.7079 60C14.4651 60 15.0764 59.3887 15.0764 58.6315V50.4797C15.0764 49.7225 14.4651 49.1112 13.7079 49.1112Z" fill="#152461"/>
<path d="M1.36851 53.0616C0.611267 53.0616 0 53.6729 0 54.4302V58.636C0 59.3933 0.611267 60.0045 1.36851 60.0045C2.12575 60.0045 2.73702 59.3933 2.73702 58.636V54.4302C2.73702 53.6729 2.12575 53.0616 1.36851 53.0616Z" fill="#152461"/>
<path d="M38.3866 33.7338C37.6293 33.7338 37.0181 34.345 37.0181 35.1023V58.6315C37.0181 59.3887 37.6293 60 38.3866 60C39.1438 60 39.7551 59.3887 39.7551 58.6315V35.1023C39.7551 34.345 39.1438 33.7338 38.3866 33.7338Z" fill="#152461"/>
<path d="M51.7159 13.3293H48.915C48.2992 8.56231 44.5175 4.78066 39.7505 4.16483V1.36851C39.7505 0.611267 39.1393 0 38.382 0C37.6248 0 37.0135 0.611267 37.0135 1.36851V4.16939C32.2511 4.78522 28.4649 8.56687 27.8491 13.3338H25.0482C24.291 13.3338 23.6797 13.9451 23.6797 14.7023C23.6797 15.4596 24.291 16.0709 25.0482 16.0709H27.8491C28.4649 20.8333 32.2466 24.6195 37.0135 25.2353V28.0362C37.0135 28.7934 37.6248 29.4047 38.382 29.4047C39.1393 29.4047 39.7505 28.7934 39.7505 28.0362V25.2353C44.513 24.6195 48.2992 20.8378 48.915 16.0709H51.7159C52.4731 16.0709 53.0844 15.4596 53.0844 14.7023C53.0844 13.9451 52.4731 13.3338 51.7159 13.3338V13.3293ZM39.7551 22.4572V19.8753C39.7551 19.1181 39.1438 18.5068 38.3866 18.5068C37.6294 18.5068 37.0181 19.1181 37.0181 19.8753V22.4572C33.7656 21.887 31.2019 19.3188 30.6272 16.0663H33.2091C33.9663 16.0663 34.5776 15.455 34.5776 14.6978C34.5776 13.9405 33.9663 13.3293 33.2091 13.3293H30.6272C31.1974 10.0768 33.7656 7.51312 37.0181 6.93834V9.52026C37.0181 10.2775 37.6294 10.8888 38.3866 10.8888C39.1438 10.8888 39.7551 10.2775 39.7551 9.52026V6.93834C43.0076 7.50855 45.5713 10.0768 46.146 13.3293H43.5641C42.8069 13.3293 42.1956 13.9405 42.1956 14.6978C42.1956 15.455 42.8069 16.0663 43.5641 16.0663H46.146C45.5758 19.3188 43.0076 21.8825 39.7551 22.4572Z" fill="#152461"/>
</svg>
