<svg width="114" height="121" viewBox="0 0 114 121" fill="none" xmlns="http://www.w3.org/2000/svg">
<g clip-path="url(#clip0_1143_17445)">
<path d="M56.5968 0C55.6482 0 54.8841 0.767078 54.8841 1.71931V8.46431C54.8841 9.40332 55.6482 10.1836 56.5968 10.1836C57.5453 10.1836 58.3094 9.41655 58.3094 8.46431V1.71931C58.3094 0.767078 57.5453 0 56.5968 0ZM84.0915 7.3666C83.4855 7.35337 82.8927 7.65756 82.5633 8.22625L79.217 14.0587C78.7428 14.8787 79.0194 15.9367 79.8362 16.4128C80.1129 16.5715 80.4027 16.6377 80.6926 16.6377C81.2854 16.6377 81.8519 16.3335 82.1813 15.778L85.5275 9.94557C86.0018 9.12559 85.7251 8.06755 84.9083 7.60466C84.658 7.45918 84.3682 7.37982 84.0915 7.37982V7.3666ZM29.1152 7.39305C28.8385 7.39305 28.5619 7.4724 28.2984 7.61788C27.4816 8.094 27.2049 9.13881 27.6792 9.95879L31.0255 15.7912C31.3416 16.3467 31.9081 16.6509 32.5142 16.6509C32.804 16.6509 33.107 16.5715 33.3705 16.4261C34.1873 15.9499 34.464 14.9051 33.9897 14.0851L30.6434 8.25271C30.3272 7.68401 29.7212 7.37982 29.1152 7.39305ZM56.2015 21.2005C55.6219 21.2005 55.029 21.2269 54.4494 21.2666C37.2569 22.3379 23.4107 36.7404 22.9496 54.0658C22.6993 63.2046 26.0456 71.8541 32.3561 78.4272C34.2795 80.4374 35.3466 83.0296 35.3466 85.7409C35.3466 88.4521 37.112 90.9914 39.5888 91.9701V106.716C39.5888 109.996 42.1182 112.694 45.3196 112.946C45.5831 117.442 49.2982 121.013 53.8302 121.013H59.3502C63.8953 121.013 67.6105 117.429 67.8608 112.946C71.0621 112.694 73.5916 110.01 73.5916 106.716V91.9701C76.0684 90.9914 77.8337 88.5579 77.8337 85.7012C77.8337 83.0296 78.914 80.4242 80.9034 78.3478C86.9372 72.026 90.2439 63.7469 90.2439 54.9916C90.2571 45.7205 86.397 36.7404 79.6518 30.379C73.2359 24.3217 64.9756 21.1211 56.2147 21.2269L56.2015 21.2005ZM56.6099 24.6391C64.3433 24.6391 71.6286 27.5222 77.2936 32.8653C83.446 38.6581 86.8186 46.5273 86.8186 54.9916C86.8186 62.8343 83.8544 70.2803 78.4398 75.9672C75.8444 78.6784 74.4216 82.1435 74.4216 85.7409C74.4216 87.5395 72.9593 89.0076 71.1675 89.0076H42.026C40.2343 89.0076 38.772 87.5395 38.772 85.7409C38.772 82.1435 37.3755 78.6917 34.8197 76.0466C29.1547 70.1348 26.151 62.3714 26.3618 54.1584C26.7702 38.6052 39.2067 25.6575 54.647 24.7052C55.3057 24.6655 55.9512 24.6523 56.5968 24.6523L56.6099 24.6391ZM9.10344 27.5487C8.49742 27.5355 7.90458 27.8397 7.57522 28.4084C7.10094 29.2283 7.37761 30.2864 8.20759 30.7493L14.0175 34.1085C14.2941 34.2672 14.5839 34.3334 14.8738 34.3334C15.4666 34.3334 16.0331 34.0292 16.3625 33.4737C16.8368 32.667 16.5601 31.6089 15.7301 31.146L9.92025 27.7868C9.66993 27.6413 9.3801 27.5619 9.10344 27.5619V27.5487ZM104.09 27.5619C103.813 27.5619 103.537 27.6413 103.273 27.7868L97.4634 31.146C96.6466 31.6221 96.37 32.667 96.8311 33.4869C97.1473 34.0292 97.7137 34.3334 98.3198 34.3334C98.6096 34.3334 98.9126 34.254 99.1761 34.1085L104.986 30.7493C105.803 30.2731 106.079 29.2283 105.618 28.4084C105.302 27.8397 104.696 27.5355 104.09 27.5487V27.5619ZM1.71266 55.0974C0.764109 55.0974 0 55.8645 0 56.8167C0 57.7689 0.764109 58.536 1.71266 58.536H8.43155C9.36692 58.536 10.1442 57.7689 10.1442 56.8167C10.1442 55.8645 9.3801 55.0974 8.43155 55.0974H1.71266ZM104.775 55.0974C103.827 55.0974 103.063 55.8645 103.063 56.8167C103.063 57.7689 103.827 58.536 104.775 58.536H111.494C112.443 58.536 113.207 57.7689 113.207 56.8167C113.207 55.8645 112.443 55.0974 111.494 55.0974H104.775ZM14.8343 79.2868C14.5576 79.2868 14.2809 79.3662 14.0306 79.5116L8.22076 82.8841C7.40395 83.3603 7.12729 84.4051 7.58839 85.2251C7.90458 85.7805 8.47107 86.0847 9.07709 86.0847C9.36692 86.0847 9.66993 86.0054 9.93342 85.8599L15.7433 82.5006C16.5601 82.0245 16.8368 80.9797 16.3757 80.1597C16.0595 79.591 15.4534 79.2868 14.8474 79.3L14.8343 79.2868ZM98.3593 79.2868C97.7533 79.2736 97.1604 79.5778 96.8311 80.1465C96.3568 80.9664 96.6335 82.0245 97.4634 82.4874L103.273 85.8467C103.55 86.0054 103.84 86.0715 104.13 86.0715C104.722 86.0715 105.289 85.7673 105.618 85.2118C106.093 84.3919 105.816 83.347 104.986 82.8841L99.1761 79.5249C98.9258 79.3794 98.636 79.3 98.3593 79.3V79.2868ZM43.0141 92.4329H70.1926V98.768H43.0141V92.4329ZM43.0009 102.207H70.1795V106.703C70.1795 108.264 68.9279 109.52 67.3733 109.52H45.807C44.2656 109.52 43.0009 108.251 43.0009 106.703V102.207ZM48.7581 112.946H64.475C64.1983 115.538 62.0246 117.561 59.3765 117.561H53.8565C51.2085 117.561 49.0347 115.525 48.7712 112.946H48.7581Z" fill="black"/>
<path d="M47.7832 45.0989C48.1389 45.0989 48.5078 45.0328 48.8371 44.9138C49.9965 44.4773 50.8133 43.34 51.2744 41.5413C51.393 41.0652 51.1426 40.5626 50.6947 40.4303C50.2468 40.2981 49.7857 40.5758 49.6671 41.0519C49.3509 42.2422 48.8898 42.9696 48.2838 43.2077C47.5329 43.3664 46.7424 43.1812 46.1232 42.6919C45.7412 42.4009 45.2274 42.5067 44.9639 42.9035C44.7004 43.3135 44.7926 43.869 45.1615 44.1599C45.9388 44.7286 46.8478 45.046 47.7832 45.0857V45.0989Z" fill="black" stroke="#221E1F" stroke-miterlimit="10"/>
<path d="M52.078 65.0033C51.6169 65.0694 51.3007 65.5191 51.3534 66.0084C51.5774 66.9078 51.393 67.86 50.8528 68.5742C50.2204 69.0371 49.43 69.209 48.679 69.0106C48.2311 68.9048 47.7832 69.209 47.691 69.6983C47.5988 70.1877 47.8754 70.6638 48.3233 70.7696C48.6527 70.8357 48.9952 70.8754 49.3378 70.8622C50.2995 70.9019 51.2349 70.558 51.9726 69.8967C52.8816 69.0106 53.2242 67.6087 53.0002 65.7704C52.9475 65.281 52.5259 64.9239 52.0648 64.9901L52.078 65.0033Z" fill="black" stroke="#221E1F" stroke-miterlimit="10"/>
<path d="M45.4118 53.3119C45.807 52.0555 45.4777 50.6668 44.4633 49.1591C44.1866 48.7624 43.6728 48.6698 43.3039 48.9607C42.935 49.2517 42.856 49.8204 43.1195 50.2172C43.8046 51.2223 44.0417 52.0555 43.8309 52.73C43.4884 53.4706 42.8692 54.0261 42.1314 54.2509C41.7757 54.37 41.5386 54.7138 41.5386 55.1106C41.5386 55.6132 41.9075 56.0099 42.3686 56.0099C42.4476 56.0099 42.5266 56.0099 42.6057 55.9703C43.8572 55.5603 44.8848 54.5948 45.4118 53.2987V53.3119Z" fill="black" stroke="#221E1F" stroke-miterlimit="10"/>
<path d="M47.1245 64.7917C46.0046 64.5272 45.3064 64.0775 45.0429 63.4294C44.8453 62.6227 44.9639 61.7763 45.3855 61.0621C45.6094 60.6389 45.504 60.1098 45.122 59.8453C44.7399 59.5808 44.2129 59.6999 43.9758 60.1098C43.2907 61.3134 43.1195 62.7682 43.5147 64.1172C43.989 65.3339 45.0956 66.1539 46.7819 66.5374C46.8346 66.5507 46.9005 66.5639 46.9532 66.5639C47.3484 66.5639 47.691 66.2729 47.77 65.8497C47.8622 65.3604 47.5724 64.8842 47.1245 64.7784V64.7917Z" fill="black" stroke="#221E1F" stroke-miterlimit="10"/>
<path d="M50.9582 52.5977C49.8647 53.378 49.1533 54.6345 48.982 56.0364C48.9425 57.3589 49.6276 58.5889 51.0109 59.7131C51.1558 59.8321 51.327 59.8982 51.5115 59.8982C51.775 59.8982 52.0253 59.766 52.1834 59.5411C52.46 59.1444 52.381 58.5757 52.0121 58.2847C51.0899 57.5441 50.642 56.8034 50.6552 56.1025C50.7869 55.2825 51.2348 54.5551 51.8804 54.1054C52.2361 53.8277 52.3283 53.3119 52.1043 52.9152C51.8672 52.4919 51.3534 52.3465 50.9582 52.611V52.5977Z" fill="black" stroke="#221E1F" stroke-miterlimit="10"/>
<path d="M74.1186 46.4479C74.1186 46.2892 74.1186 46.1305 74.1186 45.9718C74.1318 41.6867 71.352 37.9968 67.4656 37.1504C66.2272 35.4311 64.3301 34.4259 62.3013 34.4127C59.8377 34.4127 57.7166 35.894 56.61 38.063C56.1884 37.2298 55.6087 36.4891 54.8973 35.8807C52.0385 33.4869 47.9413 34.0556 45.728 37.1372C41.8416 37.9836 39.0486 41.6867 39.075 45.9586C39.075 46.1173 39.075 46.276 39.075 46.4347C36.7036 47.3472 34.846 49.3575 34.0029 51.9233C32.4615 56.6183 34.7406 61.7763 39.0882 63.4294C39.075 63.6543 39.0618 63.8791 39.0618 64.1039C39.0618 68.0584 41.4332 71.5499 44.9376 72.7137C46.0047 75.2266 48.3233 76.8401 50.8923 76.8533C53.3559 76.8533 55.4902 75.3588 56.5968 73.1766C57.7034 75.3588 59.8245 76.8533 62.3013 76.8533C64.8571 76.8533 67.1889 75.2266 68.2561 72.7137C71.7472 71.5499 74.1318 68.0584 74.1318 64.1039C74.1318 63.8791 74.1318 63.6543 74.1054 63.4294C76.4768 62.5169 78.3476 60.5066 79.1907 57.9541C80.7321 53.259 78.4661 48.1011 74.1186 46.4347V46.4479ZM55.7668 69.8174C55.7668 72.0128 54.5021 73.9834 52.605 74.7505C50.0887 75.7688 47.2826 74.3801 46.334 71.6689C46.2418 71.3912 46.0178 71.1796 45.7544 71.1135C42.3949 70.1877 40.2607 66.63 40.8272 62.9401C40.893 62.4772 40.6296 62.0408 40.208 61.9217C37.863 61.2737 36.0186 59.2899 35.4125 56.7638C34.4772 52.902 36.6114 48.9608 40.1816 47.9556C40.59 47.8366 40.8535 47.4134 40.8008 46.9505C40.7613 46.6198 40.735 46.2892 40.735 45.9586C40.7218 42.4141 43.0931 39.3987 46.334 38.8433C46.558 38.8036 46.7556 38.6713 46.8873 38.4729C47.7964 37.0578 49.2982 36.2114 50.8923 36.2114C53.5799 36.2114 55.7668 38.5655 55.7668 41.4751V69.8306V69.8174ZM72.9856 61.9217C72.5641 62.0408 72.3006 62.4772 72.3664 62.9401C72.9329 66.63 70.7855 70.1744 67.4261 71.1002C67.1626 71.1664 66.9518 71.378 66.8464 71.6557C66.135 73.7056 64.3169 75.0679 62.2881 75.0679C59.6005 75.0679 57.4136 72.7137 57.4136 69.8174V41.4619C57.4136 38.5655 59.5874 36.2114 62.2749 36.2114C63.869 36.2114 65.3709 37.0578 66.2799 38.4729C66.4117 38.6713 66.6093 38.8036 66.8332 38.8433C70.0741 39.3987 72.4455 42.4141 72.4323 45.9586C72.4323 46.2892 72.406 46.6198 72.3664 46.9505C72.3006 47.4002 72.5641 47.8366 72.9856 47.9556C75.3307 48.6169 77.1619 50.6007 77.7679 53.14C78.6901 57.0019 76.5427 60.9298 72.9593 61.935L72.9856 61.9217Z" fill="black" stroke="#221E1F" stroke-miterlimit="10"/>
<path d="M64.3433 44.9006C64.6858 45.0328 65.0415 45.0989 65.3972 45.0857C66.3326 45.046 67.2416 44.7286 68.0189 44.1599C68.401 43.869 68.48 43.3135 68.2165 42.9035C67.953 42.4935 67.4261 42.4009 67.0572 42.6919C66.438 43.1812 65.6475 43.3664 64.8966 43.2077C64.2906 42.9696 63.8163 42.2422 63.5133 41.0519C63.3947 40.5758 62.9336 40.2981 62.4857 40.4303C62.0378 40.5626 61.7875 41.0652 61.906 41.5413C62.3671 43.34 63.1971 44.4641 64.3433 44.9138V44.9006Z" fill="black" stroke="#221E1F" stroke-miterlimit="10"/>
<path d="M64.5145 69.0238C63.7636 69.209 62.9731 69.0503 62.3408 68.5874C61.8665 68.1113 61.6952 67.2516 61.8401 66.0216C61.8928 65.5323 61.5767 65.0826 61.1156 65.0165C60.6545 64.9504 60.246 65.3075 60.1802 65.7968C59.9562 67.6484 60.3119 69.037 61.2078 69.9232C61.9455 70.5844 62.8809 70.9415 63.8426 70.9018C64.1852 70.9018 64.5277 70.8754 64.8571 70.8093C65.305 70.7035 65.5948 70.2273 65.5026 69.738C65.4104 69.2487 64.9624 68.9445 64.5145 69.0503V69.0238Z" fill="black" stroke="#221E1F" stroke-miterlimit="10"/>
<path d="M71.0753 54.2774C70.3376 54.0525 69.7184 53.4971 69.3758 52.7432C69.1782 52.0819 69.4154 51.2355 70.0873 50.2304C70.0873 50.2304 70.1004 50.2039 70.1136 50.2039C70.3771 49.7939 70.2849 49.2385 69.9028 48.9475C69.5208 48.6565 69.007 48.7624 68.7435 49.1723C67.7159 50.68 67.3997 52.0687 67.7949 53.3251C68.3219 54.608 69.3495 55.5867 70.6011 55.9835C70.6801 56.0099 70.7591 56.0231 70.8382 56.0231C71.2071 56.0231 71.5233 55.7719 71.6286 55.3883C71.7604 54.9122 71.5101 54.4096 71.0753 54.2642V54.2774Z" fill="black" stroke="#221E1F" stroke-miterlimit="10"/>
<path d="M68.098 59.8321C67.7027 60.0834 67.571 60.6389 67.8081 61.0621C68.2165 61.763 68.3483 62.6227 68.1507 63.4294C67.9003 64.0775 67.2021 64.5272 66.0691 64.7917C65.6871 64.8842 65.4104 65.2546 65.4104 65.6778C65.4104 66.1803 65.7793 66.5771 66.2404 66.5771C66.2931 66.5771 66.3589 66.5771 66.4116 66.5639C68.098 66.1671 69.2046 65.3471 69.6789 64.1304C70.0741 62.7814 69.9028 61.3266 69.2178 60.1231C68.9806 59.7131 68.48 59.5941 68.0848 59.8321H68.098Z" fill="black" stroke="#221E1F" stroke-miterlimit="10"/>
<path d="M61.1814 58.2715C60.9706 58.4435 60.8521 58.708 60.8521 58.9857C60.8521 59.4883 61.2209 59.885 61.682 59.885C61.8665 59.885 62.0377 59.8189 62.1827 59.6999C63.566 58.5757 64.2378 57.3458 64.2115 56.0232C64.0534 54.6213 63.3288 53.3649 62.2354 52.5846C61.8665 52.3465 61.3922 52.4523 61.1287 52.8226C60.8521 53.2194 60.9443 53.7881 61.3132 54.0791C61.9587 54.5287 62.4066 55.2561 62.5384 56.0761C62.5515 56.7771 62.0904 57.5045 61.1814 58.2583V58.2715Z" fill="black" stroke="#221E1F" stroke-miterlimit="10"/>
</g>
<defs>
<clipPath id="clip0_1143_17445">
<rect width="113.194" height="121" fill="white"/>
</clipPath>
</defs>
</svg>
