<svg width="107" height="122" viewBox="0 0 107 122" fill="none" xmlns="http://www.w3.org/2000/svg">
<g clip-path="url(#clip0_1143_17479)">
<path d="M71.9459 81.4126H70.1001V68.5C70.1001 59.3459 62.654 51.8959 53.496 51.8959C44.3379 51.8959 36.8919 59.342 36.8919 68.5V81.4126H35.0461C31.996 81.4126 29.5127 83.8959 29.5127 86.946V116.463C29.5127 119.513 31.996 121.996 35.0461 121.996H46.1129C47.1322 121.996 47.9587 121.17 47.9587 120.15C47.9587 119.131 47.1322 118.305 46.1129 118.305H35.0461C34.0307 118.305 33.2003 117.474 33.2003 116.459V86.942C33.2003 85.9267 34.0307 85.0963 35.0461 85.0963H71.942C72.9573 85.0963 73.7877 85.9267 73.7877 86.942V116.459C73.7877 117.474 72.9573 118.305 71.942 118.305H60.8752C59.8559 118.305 59.0294 119.131 59.0294 120.15C59.0294 121.17 59.8559 121.996 60.8752 121.996H71.942C74.992 121.996 77.4754 119.513 77.4754 116.463V86.946C77.4754 83.8959 74.992 81.4126 71.942 81.4126H71.9459ZM59.0333 81.4126H47.9665V68.5C47.9665 65.4499 50.4499 62.9666 53.4999 62.9666C56.55 62.9666 59.0333 65.4499 59.0333 68.5V81.4126ZM62.7249 81.4126V68.5C62.7249 63.4113 58.5886 59.275 53.4999 59.275C48.4113 59.275 44.275 63.4113 44.275 68.5V81.4126H40.5834V68.5C40.5834 61.3806 46.3766 55.5874 53.496 55.5874C60.6154 55.5874 66.4086 61.3806 66.4086 68.5V81.4126H62.717H62.7249Z" fill="#152461"/>
<path d="M60.879 99.8585C60.879 95.7892 57.5691 92.4794 53.4998 92.4794C49.4304 92.4794 46.1206 95.7892 46.1206 99.8585C46.1206 103.286 48.4819 106.152 51.654 106.974V109.08C51.654 110.099 52.4805 110.925 53.4998 110.925C54.5191 110.925 55.3456 110.099 55.3456 109.08V106.974C58.5176 106.148 60.879 103.282 60.879 99.8585ZM53.4998 103.55C51.4651 103.55 49.8082 101.897 49.8082 99.8585C49.8082 97.8199 51.4612 96.167 53.4998 96.167C55.5384 96.167 57.1913 97.8199 57.1913 99.8585C57.1913 101.897 55.5384 103.55 53.4998 103.55Z" fill="#152461"/>
<path d="M33.2083 53.7416V27.9126C33.2083 27.4206 33.0154 26.9523 32.6691 26.6099L21.5984 15.5392C21.252 15.1928 20.7837 15 20.2957 15H1.84578C0.826468 15 0 15.8265 0 16.8458V53.7416C0 54.761 0.826468 55.5874 1.84578 55.5874H31.3625C32.3818 55.5874 33.2083 54.761 33.2083 53.7416ZM22.1375 21.2969L26.9074 26.0668H22.1375V21.2969ZM3.69156 51.8959V18.6916H18.4499V27.9165C18.4499 28.9358 19.2764 29.7623 20.2957 29.7623H29.5206V51.8998H3.69156V51.8959Z" fill="#152461"/>
<path d="M23.9835 33.4499H9.22517C8.20586 33.4499 7.37939 34.2764 7.37939 35.2957C7.37939 36.315 8.20586 37.1414 9.22517 37.1414H23.9835C25.0028 37.1414 25.8293 36.315 25.8293 35.2957C25.8293 34.2764 25.0028 33.4499 23.9835 33.4499Z" fill="#152461"/>
<path d="M23.9835 40.8251H9.22517C8.20586 40.8251 7.37939 41.6516 7.37939 42.6709C7.37939 43.6902 8.20586 44.5167 9.22517 44.5167H23.9835C25.0028 44.5167 25.8293 43.6902 25.8293 42.6709C25.8293 41.6516 25.0028 40.8251 23.9835 40.8251Z" fill="#152461"/>
<path d="M95.3903 15.5392C95.044 15.1928 94.5757 15 94.0877 15H75.6378C74.6185 15 73.792 15.8265 73.792 16.8458V53.7416C73.792 54.761 74.6185 55.5874 75.6378 55.5874H105.154C106.174 55.5874 107 54.761 107 53.7416V27.9126C107 27.4206 106.807 26.9523 106.461 26.6099L95.3903 15.5392ZM95.9295 21.2969L100.699 26.0668H95.9295V21.2969ZM77.4835 51.8959V18.6916H92.2419V27.9165C92.2419 28.9358 93.0684 29.7623 94.0877 29.7623H103.313V51.8998H77.4875L77.4835 51.8959Z" fill="#152461"/>
<path d="M97.775 33.4499H83.0167C81.9974 33.4499 81.1709 34.2764 81.1709 35.2957C81.1709 36.315 81.9974 37.1414 83.0167 37.1414H97.775C98.7943 37.1414 99.6208 36.315 99.6208 35.2957C99.6208 34.2764 98.7943 33.4499 97.775 33.4499Z" fill="#152461"/>
<path d="M97.775 40.8251H83.0167C81.9974 40.8251 81.1709 41.6516 81.1709 42.6709C81.1709 43.6902 81.9974 44.5167 83.0167 44.5167H97.775C98.7943 44.5167 99.6208 43.6902 99.6208 42.6709C99.6208 41.6516 98.7943 40.8251 97.775 40.8251Z" fill="#152461"/>
<path d="M38.7418 33.4499C37.7225 33.4499 36.896 34.2764 36.896 35.2957C36.896 36.315 37.7225 37.1414 38.7418 37.1414H68.2585C69.2778 37.1414 70.1042 36.315 70.1042 35.2957C70.1042 34.2764 69.2778 33.4499 68.2585 33.4499H38.7418Z" fill="#152461"/>
<path d="M23.9833 92.4833H20.2917C19.2764 92.4833 18.4459 91.6529 18.4459 90.6375V61.1208C18.4459 60.1015 17.6195 59.275 16.6002 59.275C15.5809 59.275 14.7544 60.1015 14.7544 61.1208V90.6375C14.7544 93.6876 17.2377 96.1709 20.2878 96.1709H23.9793C24.9987 96.1709 25.8251 95.3444 25.8251 94.3251C25.8251 93.3058 24.9987 92.4793 23.9793 92.4793L23.9833 92.4833Z" fill="#152461"/>
<path d="M90.3959 59.275C89.3766 59.275 88.5501 60.1015 88.5501 61.1208V90.6375C88.5501 91.6529 87.7197 92.4833 86.7043 92.4833H83.0128C81.9935 92.4833 81.167 93.3097 81.167 94.3291C81.167 95.3484 81.9935 96.1748 83.0128 96.1748H86.7043C89.7544 96.1748 92.2377 93.6915 92.2377 90.6414V61.1247C92.2377 60.1054 91.4112 59.279 90.3919 59.279L90.3959 59.275Z" fill="#152461"/>
<path d="M53.5001 122C54.5195 122 55.3459 121.174 55.3459 120.154C55.3459 119.135 54.5195 118.308 53.5001 118.308C52.4807 118.308 51.6543 119.135 51.6543 120.154C51.6543 121.174 52.4807 122 53.5001 122Z" fill="#152461"/>
</g>
<defs>
<clipPath id="clip0_1143_17479">
<rect width="107" height="122" fill="white"/>
</clipPath>
</defs>
</svg>
